<?xml version="1.0" standalone="no"?>
<!DOCTYPE svg PUBLIC "-//W3C//DTD SVG 20010904//EN"
 "http://www.w3.org/TR/2001/REC-SVG-20010904/DTD/svg10.dtd">
<svg version="1.0" xmlns="http://www.w3.org/2000/svg"
 width="700.000000pt" height="700.000000pt" viewBox="0 0 700.000000 700.000000"
 preserveAspectRatio="xMidYMid meet">
<metadata>
Created by potrace 1.14, written by Peter Selinger 2001-2017
</metadata>
<g transform="translate(0.000000,700.000000) scale(0.100000,-0.100000)"
fill="#000000" stroke="none">
<path d="M3887 6344 c-1 -1 -58 -5 -126 -9 -68 -4 -131 -8 -140 -10 -9 -1 -38
-6 -66 -9 -86 -11 -277 -46 -340 -62 -33 -9 -67 -18 -75 -19 -8 -2 -55 -16
-105 -30 -1032 -302 -1939 -1090 -2344 -2036 -115 -270 -207 -616 -236 -884
-4 -33 -8 -71 -11 -85 -5 -32 -5 -345 1 -385 2 -16 7 -59 10 -95 3 -36 12 -96
20 -135 8 -38 16 -81 19 -95 68 -363 303 -822 560 -1090 286 -300 650 -523
1047 -641 56 -17 111 -33 123 -35 61 -14 166 -33 206 -39 25 -3 52 -8 60 -10
8 -2 60 -7 115 -11 125 -9 3528 -10 3542 -1 5 4 16 41 22 84 16 98 20 122 26
153 5 24 8 45 20 115 3 17 12 71 20 120 9 50 18 104 21 120 2 17 7 41 9 55 12
58 15 77 20 105 3 17 10 55 15 85 5 30 12 72 16 94 5 37 7 48 18 106 3 14 8
41 10 60 3 19 8 46 11 60 10 52 14 76 19 110 3 19 10 60 16 90 6 30 13 71 16
90 3 19 12 71 19 115 8 44 17 96 20 115 3 19 8 42 10 50 2 8 6 31 9 50 3 19
15 89 26 155 12 66 23 131 25 145 2 14 6 34 8 45 3 11 8 40 12 65 4 25 9 54
11 65 14 74 14 95 2 95 -91 2 -2832 0 -2834 -2 -1 -2 21 -30 49 -64 29 -33 70
-82 92 -109 22 -26 52 -62 67 -79 108 -126 748 -897 748 -901 0 -2 -312 -5
-693 -5 l-692 0 -105 126 c-58 70 -132 159 -165 198 -33 39 -103 123 -155 186
-52 63 -97 117 -100 120 -3 3 -50 59 -105 125 -55 66 -107 129 -117 140 -9 11
-142 171 -295 355 -153 184 -290 349 -305 365 l-28 30 33 30 c17 17 100 87
182 155 83 69 155 129 161 135 6 5 201 170 434 365 233 195 459 384 501 420
42 36 96 81 120 101 61 51 199 166 229 192 14 12 87 74 163 137 l139 115 695
1 695 0 -33 -30 c-19 -17 -56 -49 -83 -71 -49 -41 -72 -60 -116 -98 -14 -12
-77 -65 -140 -117 -63 -52 -117 -97 -120 -100 -3 -3 -32 -28 -65 -55 -33 -28
-62 -52 -65 -55 -3 -3 -59 -50 -125 -105 -152 -126 -125 -104 -364 -305 -112
-94 -216 -181 -232 -192 -16 -12 -29 -24 -29 -27 0 -3 231 -6 512 -5 556 1
591 4 763 60 259 85 490 274 627 514 35 61 96 209 103 250 3 18 8 36 10 40 2
4 7 22 10 41 3 19 7 45 10 59 3 14 7 39 10 55 3 17 7 41 10 55 3 14 16 88 30
165 36 201 35 198 40 225 3 14 8 39 10 55 3 17 12 66 20 110 8 44 17 96 20
115 3 19 19 107 35 195 16 88 31 174 33 190 3 17 8 41 11 55 5 24 8 39 22 135
l6 40 -1142 0 c-628 0 -1142 -1 -1143 -1z"/>
</g>
</svg>
