<svg width="187" height="137" viewBox="0 0 187 137" fill="none" xmlns="http://www.w3.org/2000/svg">
<g clip-path="url(#clip0_44_22018)">
<path d="M111.707 53.375L120.821 81.2252C120.969 81.6832 121.228 82.0979 121.574 82.4329C121.92 82.768 122.342 83.0132 122.805 83.1471C123.267 83.2811 123.756 83.2997 124.227 83.2013C124.698 83.1029 125.138 82.8906 125.509 82.5828L152.676 60.1557C152.676 60.1557 123.806 48.9046 123.806 49.5046C123.806 50.1047 111.707 53.375 111.707 53.375Z" fill="#B5D1DB"/>
<path d="M183.407 -0.112154C165.668 6.90853 108.4 30.3783 86.7152 39.2742C86.0851 39.5311 85.5495 39.976 85.1815 40.5485C84.8135 41.1209 84.631 41.7929 84.6589 42.4728C84.6868 43.1527 84.9237 43.8075 85.3373 44.3479C85.751 44.8882 86.3212 45.2878 86.9703 45.4923L111.723 53.3755L120.791 81.1282C120.958 81.6436 121.262 82.1041 121.67 82.4607C122.079 82.8173 122.576 83.0567 123.109 83.1534C123.941 83.311 125.171 60.6963 125.171 60.6963C125.171 60.6963 151.192 79.9881 163.53 89.1015C164.228 89.6179 165.045 89.9491 165.905 90.0644C166.765 90.1796 167.641 90.0751 168.449 89.7605C169.258 89.4459 169.974 88.9316 170.531 88.2655C171.087 87.5994 171.466 86.8032 171.631 85.9512C175.306 66.9969 184.502 19.6223 187.645 3.4432C187.759 2.88783 187.722 2.31184 187.535 1.77628C187.349 1.24072 187.021 0.765548 186.587 0.401106C186.152 0.0366641 185.628 -0.203465 185.068 -0.293824C184.508 -0.384182 183.934 -0.321408 183.407 -0.112154Z" fill="#E6E6E6"/>
<path d="M123.11 83.1389C123.943 83.2964 125.173 60.6817 125.173 60.6817L167.927 20.5303C167.99 20.4755 168.03 20.3986 168.039 20.3154C168.047 20.2321 168.024 20.1487 167.973 20.082C167.923 20.0153 167.849 19.9702 167.766 19.956C167.684 19.9417 167.599 19.9594 167.529 20.0053L111.709 53.376L120.777 81.1287C120.948 81.6433 121.255 82.102 121.666 82.4559C122.077 82.8099 122.576 83.0459 123.11 83.1389Z" fill="#CFCFCF"/>
<path d="M-25 137.617C4.35785 137.527 43.3841 120.965 51.2224 89.1771C54.3802 76.3509 51.5749 62.602 41.404 53.2411C28.5552 41.4125 14.4463 52.221 17.9192 68.7376C23.6197 95.8678 56.7579 115.992 81.9379 116.24C96.4968 116.405 110.148 109.422 115.384 95.1627" stroke="#E6E6E6" stroke-width="1.41438" stroke-miterlimit="10" stroke-dasharray="3.75 3.75"/>
</g>
<defs>
<clipPath id="clip0_44_22018">
<rect width="187" height="137" fill="white"/>
</clipPath>
</defs>
</svg>
