<svg xmlns="http://www.w3.org/2000/svg" viewBox="0 0 231.91 34.99"><defs><style>.cls-1{fill:#007aff;}</style></defs><g id="Слой_2" data-name="Слой 2"><g id="Слой_1-2" data-name="Слой 1"><path class="cls-1" d="M47.93,35c-4,0-6.91-1.09-8.59-3.29s-2.17-5.3-1.46-9.31a15.9,15.9,0,0,1,4.8-9.47A14.11,14.11,0,0,1,52.45,9.6Q64,9.6,61.87,21.77l-.38,2.15H44a5.44,5.44,0,0,0,1,4.27c.84.91,2.24,1.36,4.18,1.36,2.85,0,4.75-1,5.68-2.91h5.88A11.49,11.49,0,0,1,56,32.87,14.71,14.71,0,0,1,47.93,35ZM44.86,19.62H56.14Q56.43,15,51.45,15A6.42,6.42,0,0,0,44.86,19.62Z"/><path class="cls-1" d="M71.85,34.32q-4.32,0-5.75-1.93t-.54-6.94l1.7-9.65H63.32l1-5.58h4.14l2.67-7.4h4.74l-1.3,7.4h6.2l-1,5.58H73.56L72,25A4.75,4.75,0,0,0,72,28c.32.51,1.07.76,2.26.76h3.34l-1,5.58Z"/><path d="M79,34.32,85,0H99.55q11.19,0,9.52,9.46-1.18,6.72-6.9,8.44l-.07.43a4.08,4.08,0,0,1,2.34,1.91,17.75,17.75,0,0,1,1.23,4.49l2,9.59h-7l-1.59-8.25c-.38-2.14-.86-3.53-1.45-4.18a4.19,4.19,0,0,0-3.19-1H87.87L85.5,34.32ZM96.5,14.9a6.24,6.24,0,0,0,4-1.1,5.37,5.37,0,0,0,1.75-3.39,3.86,3.86,0,0,0-.56-3.34c-.64-.73-1.85-1.1-3.64-1.1H90.5L88.93,14.9Z"/><path d="M118.62,35c-4,0-6.91-1.09-8.59-3.29s-2.16-5.3-1.46-9.31,2.32-7.26,4.8-9.47a14.11,14.11,0,0,1,9.77-3.32q11.56,0,9.42,12.17l-.38,2.15H114.65a5.44,5.44,0,0,0,1,4.27c.84.91,2.24,1.36,4.18,1.36,2.85,0,4.75-1,5.68-2.91h5.88a11.49,11.49,0,0,1-4.69,6.23A14.69,14.69,0,0,1,118.62,35Zm-3.07-15.37h11.28q.28-4.58-4.69-4.58A6.42,6.42,0,0,0,115.55,19.62Z"/><path d="M139.84,8.63q.84-4.74,3.32-6.68C144.82.65,147.29,0,150.59,0h4.08l-1,5.55h-3.95a3.85,3.85,0,0,0-2.54.66,4.39,4.39,0,0,0-1.08,2.52l-.29,1.66h6.39l-1,5.54h-6.39l-3.26,18.39h-6.3l3.26-18.39h-4.46l1-5.54h4.47Z"/><path d="M159.29,34.94c-2.86,0-4.84-.85-6-2.55S152,28,152.58,24.44l2.51-14.22h6.3l-2.45,13.89q-.88,5.06,3.9,5.06,5.37,0,6.31-5.35l2.39-13.6h6.3l-4.25,24.1h-6.3l.59-3.34h-.28A9.6,9.6,0,0,1,159.29,34.94Z"/><path d="M176.92,34.32l4.25-24.1h6.3l-.54,3h.33q3-3.67,8.6-3.67,4.5,0,6.09,2.5c1.05,1.68,1.27,4.26.65,7.76l-2.55,14.46H193.8l2.43-13.79q.9-5.11-4.08-5.11c-3.73,0-5.91,1.82-6.55,5.44l-2.38,13.46Z"/><path d="M211.87,35c-3.1,0-5.4-1.11-6.88-3.34s-1.88-5.38-1.16-9.45,2.16-7.1,4.37-9.28a10.89,10.89,0,0,1,8-3.27q5.08,0,6.84,3.62h.33L225.66,0h6.25l-6.06,34.37H219.6l.52-3h-.33A9.71,9.71,0,0,1,211.87,35ZM210.21,22.3q-1.23,6.91,4.61,6.92t7.05-6.92q1.2-6.84-4.63-6.83T210.21,22.3Z"/><path class="cls-1" d="M20.48,14.23l8.24-7H20.41L8.73,17.16l3.41,4.15,4.77,5.8h8.3l-5.77-7h17L34,34.32H14.4a14.23,14.23,0,0,1-11.24-5A14.73,14.73,0,0,1,.29,17.06C2,7.54,11.44,0,21,0H34.13L32.58,8.79a6.76,6.76,0,0,1-6.4,5.44Z"/></g></g></svg>