<svg width="48" height="48" viewBox="0 0 48 48" fill="none" xmlns="http://www.w3.org/2000/svg">
<g clip-path="url(#clip0_111_11096)">
<path d="M42.6692 36.4262L24.4734 25.9209L13.1953 45.4552C16.4327 47.0825 20.0883 48 23.9587 48C31.7664 48 38.7022 44.2707 43.0849 38.4971C43.5975 37.8218 43.4034 36.8502 42.6692 36.4262V36.4262Z" fill="#007AFF"/>
<path d="M22.5516 1.58154C22.5516 0.733575 21.807 0.0816371 20.9655 0.186356C9.57994 1.60245 0.670594 10.9927 0 22.5937H22.5516V1.58154Z" fill="#007AFF"/>
<path d="M0 25.4062C0.450469 33.2002 4.61953 39.9957 10.7603 44.0466L21.5222 25.4062H0Z" fill="#007AFF"/>
<path d="M33.9414 21.6178C34.5382 21.8683 35.225 21.5875 35.4755 20.9907L43.2407 2.48772C43.4912 1.891 43.2104 1.20409 42.6136 0.953688C42.0168 0.703188 41.33 0.983969 41.0795 1.58078L33.3143 20.0838C33.0638 20.6806 33.3446 21.3674 33.9414 21.6178Z" fill="#007AFF"/>
<path d="M32.9097 10.318C35.4478 10.318 37.5127 8.00362 37.5127 5.15906C37.5127 2.3145 35.4478 0 32.9097 0C30.3716 0 28.3066 2.31441 28.3066 5.15897C28.3066 8.00353 30.3716 10.318 32.9097 10.318ZM32.9097 2.34375C34.1554 2.34375 35.169 3.60666 35.169 5.15897C35.169 6.71128 34.1554 7.97419 32.9097 7.97419C31.6639 7.97419 30.6504 6.71128 30.6504 5.15897C30.6504 3.60666 31.6639 2.34375 32.9097 2.34375V2.34375Z" fill="#007AFF"/>
<path d="M43.398 12.6508C40.8599 12.6508 38.7949 14.9652 38.7949 17.8097C38.7949 20.6543 40.8599 22.9688 43.398 22.9688C45.936 22.9688 48.001 20.6544 48.001 17.8098C48.001 14.9653 45.9361 12.6508 43.398 12.6508ZM43.398 20.625C42.1522 20.625 41.1387 19.3621 41.1387 17.8098C41.1387 16.2575 42.1522 14.9946 43.398 14.9946C44.6437 14.9946 45.6572 16.2574 45.6572 17.8098C45.6572 19.3622 44.6437 20.625 43.398 20.625Z" fill="#007AFF"/>
</g>
<defs>
<clipPath id="clip0_111_11096">
<rect width="48" height="48" fill="white"/>
</clipPath>
</defs>
</svg>
