<svg width="48" height="48" viewBox="0 0 48 48" fill="none" xmlns="http://www.w3.org/2000/svg">
<path d="M15.5625 9.375H21.1661C22.9807 9.375 24.7208 8.65416 26.0039 7.37109C26.4222 6.95278 27.1187 7.02169 27.4469 7.51397C28.2219 8.67666 29.5268 9.375 30.9242 9.375H32.4375V4.6875C32.4375 2.09869 30.3388 0 27.75 0H19.3125C15.6881 0 12.75 2.93813 12.75 6.5625C12.75 8.11584 14.0092 9.375 15.5625 9.375Z" fill="#007AFF"/>
<path d="M32.4375 12.1875H30.9241C29.2786 12.1875 27.716 11.6134 26.4813 10.5962C24.9176 11.6317 23.0846 12.1875 21.1661 12.1875H15.5625V15.9375C15.5625 20.5974 19.3401 24.375 24 24.375C28.6599 24.375 32.4375 20.5974 32.4375 15.9375V12.1875Z" fill="#007AFF"/>
<path d="M26.4128 26.926C25.635 27.0967 24.8276 27.1875 23.9993 27.1875C23.1711 27.1875 22.3638 27.0967 21.5859 26.926L23.9993 30.7072L26.4128 26.926Z" fill="#007AFF"/>
<path d="M47.5881 6.03694C47.0389 5.48775 46.1486 5.48775 45.5994 6.03694L44.25 7.38628V1.40625C44.25 0.629625 43.6203 0 42.8437 0C42.0671 0 41.4375 0.629625 41.4375 1.40625V7.38628L40.0881 6.03694C39.5389 5.48775 38.6486 5.48775 38.0994 6.03694C37.5502 6.58612 37.5502 7.47647 38.0994 8.02566L41.8494 11.7757C42.3986 12.3248 43.2889 12.3248 43.8381 11.7757L47.5881 8.02566C48.1373 7.47647 48.1373 6.58603 47.5881 6.03694V6.03694Z" fill="#007AFF"/>
<path d="M6.56255 10.7812V4.80127L7.91189 6.15061C8.46108 6.6998 9.35142 6.6998 9.90061 6.15061C10.4498 5.60142 10.4498 4.71108 9.90061 4.16189L6.15061 0.411891C5.60142 -0.137297 4.71108 -0.137297 4.16189 0.411891L0.411891 4.16189C-0.137297 4.71108 -0.137297 5.60142 0.411891 6.15061C0.961078 6.6998 1.85142 6.6998 2.40061 6.15061L3.75005 4.80127V10.7812C3.75005 11.5578 4.37967 12.1875 5.1563 12.1875C5.93292 12.1875 6.56255 11.5578 6.56255 10.7812Z" fill="#007AFF"/>
<path d="M32.0255 31.2018C32.2554 30.6721 32.1382 30.0557 31.7299 29.6473L29.4611 27.3785L25.3945 33.75H30.9191L32.0255 31.2018Z" fill="#007AFF"/>
<path d="M14.0473 33.8248L13.3948 32.3219C13.0894 31.6184 12.9884 30.8638 13.0767 30.135C8.90128 30.87 5.71875 34.5234 5.71875 38.9063V46.5938C5.71875 47.3704 6.34837 48 7.125 48H12.7125L11.0906 38.1067C10.7577 36.0761 12.1153 34.2122 14.0473 33.8248Z" fill="#007AFF"/>
<path d="M34.9218 30.135C35.0101 30.8638 34.9091 31.6183 34.6037 32.3219L33.9512 33.8248C35.8832 34.2122 37.2408 36.0761 36.9079 38.1067L35.286 48H40.8734C41.65 48 42.2796 47.3704 42.2796 46.5938V38.9063C42.2796 34.5234 39.0972 30.87 34.9218 30.135V30.135Z" fill="#007AFF"/>
<path d="M16.2694 29.6473C15.8611 30.0556 15.7438 30.6721 15.9738 31.2018L17.0801 33.75H22.6047L18.5381 27.3785L16.2694 29.6473Z" fill="#007AFF"/>
<path d="M33.2088 36.5625H14.7912C14.2129 36.5625 13.7725 37.0809 13.8661 37.6517L15.5625 48H32.4375L34.1339 37.6517C34.2276 37.081 33.7871 36.5625 33.2088 36.5625V36.5625Z" fill="#007AFF"/>
</svg>
