<svg width="48" height="48" viewBox="0 0 48 48" fill="none" xmlns="http://www.w3.org/2000/svg">
<g clip-path="url(#clip0_111_11063)">
<path d="M3.80273 37.2004L6.78539 34.2178L10.7623 38.1947L7.77961 41.1773L3.80273 37.2004Z" fill="#007AFF"/>
<path d="M0.823781 40.1867C-0.274594 41.285 -0.274594 43.0658 0.823781 44.1641C1.92216 45.2625 3.70294 45.2625 4.80122 44.1641L5.79562 43.1698L1.81819 39.1923L0.823781 40.1867Z" fill="#007AFF"/>
<path d="M29.9939 30.9059L31.9826 32.8946C32.5318 33.4438 33.4222 33.4438 33.9714 32.8946L44.578 22.288C45.1271 21.7388 45.1271 20.8485 44.578 20.2993L42.5892 18.3106C42.04 17.7614 41.1497 17.7614 40.6005 18.3106L29.9939 28.9171C29.4447 29.4663 29.4447 30.3567 29.9939 30.9059V30.9059Z" fill="#007AFF"/>
<path d="M14.0803 14.996C14.6295 15.5452 15.5198 15.5452 16.069 14.996L26.6756 4.38942C27.2248 3.84023 27.2248 2.94989 26.6756 2.4007L24.6869 0.411891C24.1377 -0.137297 23.2474 -0.137297 22.6982 0.411891L12.0916 11.0185C11.5424 11.5677 11.5424 12.458 12.0916 13.0072L14.0803 14.996Z" fill="#007AFF"/>
<path d="M8.77344 32.2299L19.8755 21.1277L23.8524 25.1046L12.7503 36.2067L8.77344 32.2299Z" fill="#007AFF"/>
<path d="M18.8848 16.1573L27.8327 7.20938L37.7749 17.1516L28.827 26.0995L18.8848 16.1573Z" fill="#007AFF"/>
<path d="M46.5938 45.1875H44.8419L43.2583 39.6449C43.0859 39.0412 42.5341 38.625 41.9062 38.625H23.1562C22.5284 38.625 21.9766 39.0412 21.8041 39.6449L20.2206 45.1875H18.4688C17.6921 45.1875 17.0625 45.8171 17.0625 46.5938C17.0625 47.3704 17.6921 48 18.4688 48H46.5938C47.3704 48 48 47.3704 48 46.5938C48 45.8171 47.3704 45.1875 46.5938 45.1875Z" fill="#007AFF"/>
</g>
<defs>
<clipPath id="clip0_111_11063">
<rect width="48" height="48" fill="white"/>
</clipPath>
</defs>
</svg>
