<svg width="48" height="48" viewBox="0 0 48 48" fill="none" xmlns="http://www.w3.org/2000/svg">
<g clip-path="url(#clip0_111_10424)">
<path d="M22.212 37.6222C19.6941 39.5107 16.1316 39.0584 14.1654 36.6007C12.1355 34.0633 12.5732 30.3558 15.1382 28.3608L19.4189 25.0312H1.40625C0.629625 25.0312 0 25.6609 0 26.4375V39.0938C0 39.8704 0.629625 40.5 1.40625 40.5H11.23L16.1646 45.4344C17.8072 47.0771 20.0351 48 22.3582 48C24.3472 48 26.2769 47.3231 27.8301 46.0806L33.0488 41.9055L26.4297 34.4589L22.212 37.6222Z" fill="#007AFF"/>
<path d="M46.594 25.0312H45.094V27.7453C45.094 30.6349 41.8736 32.3584 39.4694 30.7555L39.469 30.7552L39.4687 30.7555C37.0645 32.3583 33.844 30.6348 33.844 27.7453V25.0312H24.4828C24.1701 25.0312 23.8663 25.1355 23.6195 25.3275L16.8652 30.5809C15.5381 31.613 15.3117 33.5311 16.3619 34.8438C17.3791 36.1153 19.2221 36.3492 20.5248 35.3722L25.7776 31.4326C26.3627 30.9938 27.1865 31.0767 27.6724 31.6234L35.5628 40.5H46.594C47.3707 40.5 48.0003 39.8704 48.0003 39.0938V26.4375C48.0003 25.6609 47.3707 25.0312 46.594 25.0312Z" fill="#007AFF"/>
<path d="M31.9688 16.5938C31.9688 12.4583 35.3333 9.09375 39.4688 9.09375V1.40625C39.4688 0.629625 38.8391 0 38.0625 0H9.9375C9.16087 0 8.53125 0.629625 8.53125 1.40625V22.2188H34.5158C32.9558 20.8433 31.9688 18.8322 31.9688 16.5938ZM28.6875 18.1406H15.5625C14.7859 18.1406 14.1562 17.511 14.1562 16.7344C14.1562 15.9578 14.7859 15.3281 15.5625 15.3281H28.6875C29.4641 15.3281 30.0938 15.9578 30.0938 16.7344C30.0938 17.511 29.4641 18.1406 28.6875 18.1406ZM28.6875 12.5156H15.5625C14.7859 12.5156 14.1562 11.886 14.1562 11.1094C14.1562 10.3328 14.7859 9.70312 15.5625 9.70312H28.6875C29.4641 9.70312 30.0938 10.3328 30.0938 11.1094C30.0938 11.886 29.4641 12.5156 28.6875 12.5156ZM15.5625 6.89062C14.7859 6.89062 14.1562 6.261 14.1562 5.48438C14.1562 4.70775 14.7859 4.07812 15.5625 4.07812H31.5C32.2766 4.07812 32.9062 4.70775 32.9062 5.48438C32.9062 6.261 32.2766 6.89062 31.5 6.89062H15.5625Z" fill="#007AFF"/>
<path d="M36.6562 23.5447V27.7454C36.6562 28.3886 37.3731 28.7723 37.9083 28.4155L39.4688 27.3751L41.0292 28.4155C41.5643 28.7723 42.2812 28.3886 42.2812 27.7454V23.5447C41.4121 23.8976 40.4632 24.0939 39.4688 24.0939C38.4743 24.0939 37.5254 23.8976 36.6562 23.5447Z" fill="#007AFF"/>
<path d="M39.4688 21.2812C42.0576 21.2812 44.1562 19.1826 44.1562 16.5938C44.1562 14.0049 42.0576 11.9062 39.4688 11.9062C36.8799 11.9062 34.7812 14.0049 34.7812 16.5938C34.7812 19.1826 36.8799 21.2812 39.4688 21.2812Z" fill="#007AFF"/>
</g>
<defs>
<clipPath id="clip0_111_10424">
<rect width="48" height="48" fill="white"/>
</clipPath>
</defs>
</svg>
