<svg width="48" height="48" viewBox="0 0 48 48" fill="none" xmlns="http://www.w3.org/2000/svg">
<g clip-path="url(#clip0_111_10536)">
<path d="M36.6562 0C30.4431 0 25.4062 5.03681 25.4062 11.25C25.4062 17.4632 30.4431 22.5 36.6562 22.5C42.8694 22.5 47.9062 17.4632 47.9062 11.25C47.9062 5.03681 42.8694 0 36.6562 0ZM41.8693 10.3693L36.2443 15.9943C35.6951 16.5435 34.8048 16.5435 34.2556 15.9943L31.4431 13.1818C30.8939 12.6326 30.8939 11.7423 31.4431 11.1931C31.9923 10.6439 32.8826 10.6439 33.4318 11.1931L35.25 13.0113L39.8806 8.38069C40.4298 7.8315 41.3201 7.8315 41.8693 8.38069C42.4185 8.92978 42.4185 9.82022 41.8693 10.3693Z" fill="#007AFF"/>
<path d="M38.5312 42.375H35.7188C34.1654 42.375 32.9062 43.6342 32.9062 45.1875V48H38.5312C39.5668 48 40.4062 47.1606 40.4062 46.125V44.25C40.4062 43.2144 39.5668 42.375 38.5312 42.375Z" fill="#007AFF"/>
<path d="M38.0625 25.2424C37.5998 25.2886 37.1308 25.3126 36.6562 25.3126C36.1817 25.3126 35.7127 25.2886 35.25 25.2424V39.5626H38.0625V25.2424Z" fill="#007AFF"/>
<path d="M9 12.3899H15.5798C16.8828 12.3899 18.0954 11.7242 18.795 10.625C19.0434 10.2345 19.6072 10.217 19.8794 10.5913C20.5465 11.5086 21.5374 12.1218 22.6342 12.3201C22.6074 11.9668 22.5937 11.61 22.5937 11.25C22.5937 9.55677 22.8947 7.93255 23.4457 6.42777C22.6554 4.95458 21.1012 3.95239 19.3125 3.95239H11.8125C8.70591 3.95239 6.1875 6.4708 6.1875 9.57739C6.1875 11.1307 7.44666 12.3899 9 12.3899Z" fill="#007AFF"/>
<path d="M24 18.4837V17.3763C23.6617 16.6802 23.3796 15.9519 23.1586 15.1977C21.8115 15.1498 20.5149 14.7208 19.4145 13.9844C18.3132 14.7675 16.9822 15.2025 15.5798 15.2025H9V18.4837C9 22.6259 12.3578 25.9837 16.5 25.9837C20.6422 25.9837 24 22.6259 24 18.4837Z" fill="#007AFF"/>
<path d="M10.49 31.8841C10.1515 32.2903 10.0695 32.8522 10.2778 33.3383L11.9326 37.1995C12.3244 38.114 13.516 38.3435 14.2195 37.64L16.5008 35.3586L12.2821 29.7336L10.49 31.8841Z" fill="#007AFF"/>
<path d="M9.34669 38.3075L7.69191 34.4462C7.248 33.4103 7.24566 32.2604 7.64447 31.2439C3.37463 31.8988 0.09375 35.5961 0.09375 40.0462V46.5938C0.09375 47.3704 0.723375 48 1.5 48H15.0938V40.4308C13.011 41.4643 10.3337 40.6105 9.34669 38.3075Z" fill="#007AFF"/>
<path d="M32.9062 40.0462C32.9062 35.5961 29.6253 31.8987 25.3555 31.2439C25.7543 32.2604 25.752 33.4103 25.3081 34.4462L23.6533 38.3075C22.6663 40.6105 19.989 41.4643 17.9062 40.4308V48H30.0938V45.1875C30.0938 43.1101 31.2266 41.2934 32.9062 40.3193V40.0462H32.9062Z" fill="#007AFF"/>
<path d="M15.0137 28.6885L16.5006 30.6711L17.9876 28.6885C17.5019 28.7589 17.0056 28.7961 16.5006 28.7961C15.9957 28.7961 15.4994 28.7589 15.0137 28.6885Z" fill="#007AFF"/>
<path d="M21.0682 37.1995L22.723 33.3383C22.9313 32.8522 22.8493 32.2904 22.5108 31.8841L20.7188 29.7336L16.5 35.3586L18.7813 37.64C19.4848 38.3435 20.6763 38.114 21.0682 37.1995Z" fill="#007AFF"/>
</g>
<defs>
<clipPath id="clip0_111_10536">
<rect width="48" height="48" fill="white"/>
</clipPath>
</defs>
</svg>
