<svg width="48" height="48" viewBox="0 0 48 48" fill="none" xmlns="http://www.w3.org/2000/svg">
<g clip-path="url(#clip0_111_10636)">
<path d="M10.6565 12.5192C11.0985 13.1577 11.9746 13.317 12.6131 12.875L23.7578 5.15934L28.5575 10.7589C29.0398 11.3216 29.876 11.4134 30.4689 10.9688L38.3746 5.03953L37.648 7.5825C37.4346 8.32931 37.867 9.10763 38.6138 9.321C39.3606 9.53438 40.139 9.10191 40.3522 8.35519L42.2272 1.79269C42.4839 0.894281 41.8095 0 40.8752 0H34.3127C33.536 0 32.9064 0.629625 32.9064 1.40625C32.9064 2.18288 33.536 2.8125 34.3127 2.8125H36.6564L29.8355 7.92825L25.0679 2.36606C24.599 1.81894 23.7922 1.71487 23.1997 2.12503L11.0122 10.5625C10.3736 11.0046 10.2143 11.8807 10.6565 12.5192Z" fill="#007AFF"/>
<path d="M11.3438 21.0938V23.6944C12.2642 23.453 13.2041 23.2988 14.1562 23.2337V21.0938C14.1562 20.3171 13.5266 19.6875 12.75 19.6875C11.9734 19.6875 11.3438 20.3171 11.3438 21.0938Z" fill="#007AFF"/>
<path d="M16.9688 17.3438V23.2983C17.9271 23.4082 18.8678 23.6079 19.7812 23.894V17.3438C19.7812 16.5671 19.1516 15.9375 18.375 15.9375C17.5984 15.9375 16.9688 16.5671 16.9688 17.3438Z" fill="#007AFF"/>
<path d="M22.5938 13.5938V25.0978C23.0062 25.326 23.4094 25.5741 23.8023 25.8416C24.304 26.1835 24.8407 26.4534 25.4062 26.6492V13.5938C25.4062 12.8171 24.7766 12.1875 24 12.1875C23.2234 12.1875 22.5938 12.8171 22.5938 13.5938Z" fill="#007AFF"/>
<path d="M28.2188 20.1562V27.2317L30.9754 27.7178C30.9941 27.7211 31.0125 27.7252 31.0312 27.7286V20.1562C31.0312 19.3796 30.4016 18.75 29.625 18.75C28.8484 18.75 28.2188 19.3796 28.2188 20.1562Z" fill="#007AFF"/>
<path d="M33.8438 16.4062V29.0219C34.5972 29.6306 35.2019 30.4043 35.6105 31.2775L36.6562 30.7899V16.4062C36.6562 15.6296 36.0266 15 35.25 15C34.4734 15 33.8438 15.6296 33.8438 16.4062Z" fill="#007AFF"/>
<path d="M40.875 11.25C40.0984 11.25 39.4688 11.8796 39.4688 12.6562V29.4786L41.6492 28.4619C41.8567 28.3652 42.0677 28.2804 42.2812 28.207V12.6562C42.2812 11.8796 41.6516 11.25 40.875 11.25Z" fill="#007AFF"/>
<path d="M47.6914 33.0216L47.6913 33.0214C46.9765 31.0574 44.7325 30.1279 42.8383 31.011L36.2036 34.1044C36.1958 34.4164 36.1651 34.7317 36.1093 35.0483C35.5751 38.0788 32.9558 40.2784 29.8817 40.2784C29.8814 40.2784 29.8816 40.2784 29.8812 40.2784C29.5134 40.2784 29.1424 40.2459 28.7787 40.1818L19.4762 38.5419C18.7113 38.4071 18.2007 37.6777 18.3356 36.9129C18.4705 36.148 19.2002 35.6371 19.9646 35.7723L29.2669 37.412C31.1791 37.7492 33.0025 36.4723 33.3395 34.5602C33.6766 32.648 32.3999 30.8248 30.4878 30.4877L25.9682 29.6908C24.6157 29.4523 23.3544 28.9393 22.2194 28.166C18.9205 25.9186 14.7116 25.3919 10.9607 26.7572L8.21875 27.7551L14.3944 44.7229L26.1269 46.3353C27.4749 46.5205 28.8243 46.3164 30.0505 45.7445C30.1505 45.6979 30.2498 45.6487 30.3482 45.5972L45.9976 37.3954C47.5777 36.5674 48.3017 34.6981 47.6914 33.0216Z" fill="#007AFF"/>
<path d="M5.46431 28.4125C5.19872 27.6827 4.39172 27.3063 3.66188 27.572L1.01906 28.5339C0.4635 28.7361 0.09375 29.2642 0.09375 29.8554V46.5936C0.09375 47.3703 0.723375 47.9999 1.5 47.9999H7.59225C7.75631 47.9999 7.91906 47.9712 8.07319 47.915L10.716 46.9532C11.4458 46.6876 11.8222 45.8806 11.5565 45.1507L5.46431 28.4125Z" fill="#007AFF"/>
</g>
<defs>
<clipPath id="clip0_111_10636">
<rect width="48" height="48" fill="white"/>
</clipPath>
</defs>
</svg>
