<svg width="48" height="48" viewBox="0 0 48 48" fill="none" xmlns="http://www.w3.org/2000/svg">
<path d="M25.0977 13.814V16.9156C25.582 16.5763 25.8737 16.0492 25.9584 15.5454C26.0217 15.1686 26.0489 14.294 25.0977 13.814Z" fill="#007AFF"/>
<path d="M22.6242 10.1012C22.6658 10.1338 22.7094 10.1662 22.7549 10.1982V8.37378C22.5508 8.5955 22.4318 8.87506 22.3849 9.12406C22.3061 9.54181 22.4001 9.92544 22.6242 10.1012Z" fill="#007AFF"/>
<path d="M36.6562 12.6562C36.6562 5.67759 30.9787 0 24 0C17.0213 0 11.3438 5.67759 11.3438 12.6562C11.3438 19.6349 17.0213 25.3125 24 25.3125C30.9787 25.3125 36.6562 19.6349 36.6562 12.6562ZM28.2699 15.9339C28.0156 17.4468 26.8763 18.9801 25.0979 19.4655V20.1562C25.0979 20.8034 24.5732 21.3281 23.926 21.3281C23.2789 21.3281 22.7542 20.8034 22.7542 20.1562V19.5791C21.8804 19.4887 21.1688 19.2354 20.201 18.6023C19.6594 18.2481 19.5075 17.5218 19.8618 16.9801C20.2161 16.4384 20.9424 16.2865 21.484 16.6409C21.9987 16.9776 22.3388 17.1403 22.7543 17.2167V12.8748C22.0919 12.5674 21.5907 12.2697 21.1773 11.9454C20.2584 11.2248 19.8384 9.97744 20.081 8.68997C20.3447 7.29038 21.32 6.17644 22.6259 5.78306C22.6691 5.77003 22.7116 5.75878 22.7543 5.74687V5.15625C22.7543 4.50909 23.279 3.98438 23.9261 3.98438C24.5733 3.98438 25.098 4.50909 25.098 5.15625V5.62172C26.1218 5.81934 26.8479 6.33094 27.2048 6.74063C27.63 7.22869 27.579 7.96894 27.091 8.394C26.6066 8.81616 25.8735 8.76909 25.4468 8.2905C25.4251 8.26912 25.3104 8.16263 25.098 8.06381V11.304C25.2657 11.3659 25.4331 11.4261 25.5978 11.4843C27.5287 12.1668 28.6027 13.9551 28.2699 15.9339Z" fill="#007AFF"/>
<path d="M9.9375 35.3438H8.53125V34.4062C8.53125 33.6296 7.90163 33 7.125 33C6.34837 33 5.71875 33.6296 5.71875 34.4062V35.3438H4.3125C3.53587 35.3438 2.90625 35.9734 2.90625 36.75V44.25C2.90625 45.0266 3.53587 45.6562 4.3125 45.6562H5.71875V46.5938C5.71875 47.3704 6.34837 48 7.125 48C7.90163 48 8.53125 47.3704 8.53125 46.5938V45.6562H9.9375C10.7141 45.6562 11.3438 45.0266 11.3438 44.25V36.75C11.3438 35.9734 10.7141 35.3438 9.9375 35.3438Z" fill="#007AFF"/>
<path d="M21.1875 29.7188H19.7812V28.7812C19.7812 28.0046 19.1516 27.375 18.375 27.375C17.5984 27.375 16.9688 28.0046 16.9688 28.7812V29.7188H15.5625C14.7859 29.7188 14.1562 30.3484 14.1562 31.125V38.625C14.1562 39.4016 14.7859 40.0312 15.5625 40.0312H16.9688V40.9688C16.9688 41.7454 17.5984 42.375 18.375 42.375C19.1516 42.375 19.7812 41.7454 19.7812 40.9688V40.0312H21.1875C21.9641 40.0312 22.5938 39.4016 22.5938 38.625V31.125C22.5938 30.3484 21.9641 29.7188 21.1875 29.7188Z" fill="#007AFF"/>
<path d="M43.6875 29.7188H42.2812V28.7812C42.2812 28.0046 41.6516 27.375 40.875 27.375C40.0984 27.375 39.4688 28.0046 39.4688 28.7812V29.7188H38.0625C37.2859 29.7188 36.6562 30.3484 36.6562 31.125V38.625C36.6562 39.4016 37.2859 40.0312 38.0625 40.0312H39.4688V40.9688C39.4688 41.7454 40.0984 42.375 40.875 42.375C41.6516 42.375 42.2812 41.7454 42.2812 40.9688V40.0312H43.6875C44.4641 40.0312 45.0938 39.4016 45.0938 38.625V31.125C45.0938 30.3484 44.4641 29.7188 43.6875 29.7188Z" fill="#007AFF"/>
<path d="M32.4375 35.3438H31.0312V34.4062C31.0312 33.6296 30.4016 33 29.625 33C28.8484 33 28.2188 33.6296 28.2188 34.4062V35.3438H26.8125C26.0359 35.3438 25.4062 35.9734 25.4062 36.75V44.25C25.4062 45.0266 26.0359 45.6562 26.8125 45.6562H28.2188V46.5938C28.2188 47.3704 28.8484 48 29.625 48C30.4016 48 31.0312 47.3704 31.0312 46.5938V45.6562H32.4375C33.2141 45.6562 33.8438 45.0266 33.8438 44.25V36.75C33.8438 35.9734 33.2141 35.3438 32.4375 35.3438Z" fill="#007AFF"/>
</svg>
