<svg width="48" height="48" viewBox="0 0 48 48" fill="none" xmlns="http://www.w3.org/2000/svg">
<g clip-path="url(#clip0_111_10677)">
<path d="M8.90625 8.4375H15.4861C16.789 8.4375 18.0017 7.77178 18.7012 6.67256C18.9497 6.28209 19.5134 6.26456 19.7857 6.63891C20.6075 7.76897 21.9204 8.4375 23.3177 8.4375H23.9062V4.6875C23.9062 2.09869 21.8076 0 19.2188 0H11.7188C8.61216 0 6.09375 2.51841 6.09375 5.625C6.09375 7.17834 7.35291 8.4375 8.90625 8.4375V8.4375Z" fill="#007AFF"/>
<path d="M23.9062 14.5313V11.2501H23.3178C21.8805 11.2501 20.49 10.8144 19.3208 10.032C18.2196 10.8151 16.8885 11.2501 15.4861 11.2501H8.90625V14.5313C8.90625 18.6735 12.2641 22.0313 16.4062 22.0313C20.5484 22.0313 23.9062 18.6735 23.9062 14.5313Z" fill="#007AFF"/>
<path d="M10.3963 27.9317C10.0577 28.3379 9.97571 28.8998 10.184 29.3859L11.8388 33.2471C12.2307 34.1616 13.4222 34.3911 14.1257 33.6876L16.4071 31.4062L12.1883 25.7812L10.3963 27.9317Z" fill="#007AFF"/>
<path d="M9.25294 34.3551L7.59816 30.4938C7.15416 29.4579 7.15191 28.308 7.55072 27.2915C3.28088 27.9464 0 31.6438 0 36.0938V42.6563C0 43.4329 0.629625 44.0625 1.40625 44.0625H15V36.4784C12.9173 37.5119 10.2399 36.6581 9.25294 34.3551V34.3551Z" fill="#007AFF"/>
<path d="M14.9199 24.7361L16.4069 26.7187L17.8939 24.7361C17.4081 24.8066 16.9118 24.8437 16.4069 24.8437C15.902 24.8437 15.4056 24.8066 14.9199 24.7361Z" fill="#007AFF"/>
<path d="M20.9744 33.2471L22.6292 29.3859C22.8375 28.8998 22.7555 28.338 22.4169 27.9317L20.625 25.7812L16.4062 31.4062L18.6876 33.6876C19.3911 34.3911 20.5825 34.1616 20.9744 33.2471V33.2471Z" fill="#007AFF"/>
<path d="M26.9062 28.1542C26.9062 28.0075 26.9145 27.8623 26.9293 27.7187C26.3949 27.5252 25.8378 27.3798 25.2618 27.2915C25.6605 28.308 25.6583 29.4579 25.2143 30.4938L23.5596 34.3551C22.5726 36.6581 19.8952 37.5119 17.8125 36.4784V44.0624H29.2428C27.7493 41.6592 26.9062 38.8377 26.9062 35.8629V28.1542Z" fill="#007AFF"/>
<path d="M47.0385 26.8202L39.3041 24.2421C39.0155 24.1459 38.7034 24.1459 38.4147 24.2421L30.6803 26.8202C30.1061 27.0116 29.7188 27.549 29.7188 28.1543V35.8628C29.7188 41.3369 33.2215 46.1967 38.4146 47.9278C38.7033 48.024 39.0154 48.024 39.304 47.9278C44.4973 46.1968 48.0001 41.3369 48.0001 35.8628V28.1543C48.0001 27.549 47.6128 27.0116 47.0385 26.8202ZM43.135 34.5793L38.76 38.9543C38.2108 39.5035 37.3205 39.5035 36.7713 38.9543L34.5838 36.7669C34.0346 36.2177 34.0346 35.3273 34.5838 34.7782C35.133 34.229 36.0233 34.229 36.5725 34.7782L37.7657 35.9713L41.1464 32.5906C41.6956 32.0414 42.5859 32.0414 43.1351 32.5906C43.6843 33.1398 43.6842 34.0301 43.135 34.5793V34.5793Z" fill="#007AFF"/>
</g>
<defs>
<clipPath id="clip0_111_10677">
<rect width="48" height="48" fill="white"/>
</clipPath>
</defs>
</svg>
