<svg width="48" height="48" viewBox="0 0 48 48" fill="none" xmlns="http://www.w3.org/2000/svg">
<g clip-path="url(#clip0_111_10572)">
<path d="M18.2812 0H4.21875C1.88878 0 0 1.88878 0 4.21875V15.4688C0 17.7987 1.88878 19.6875 4.21875 19.6875H14.8863L20.0994 24.9007C20.9853 25.7865 22.5 25.1591 22.5 23.9062V4.21875C22.5 1.88878 20.6112 0 18.2812 0V0ZM15.4688 14.0625H7.03125C6.25462 14.0625 5.625 13.4329 5.625 12.6562C5.625 11.8796 6.25462 11.25 7.03125 11.25H15.4688C16.2454 11.25 16.875 11.8796 16.875 12.6562C16.875 13.4329 16.2454 14.0625 15.4688 14.0625ZM15.4688 8.4375H7.03125C6.25462 8.4375 5.625 7.80788 5.625 7.03125C5.625 6.25462 6.25462 5.625 7.03125 5.625H15.4688C16.2454 5.625 16.875 6.25462 16.875 7.03125C16.875 7.80788 16.2454 8.4375 15.4688 8.4375Z" fill="#007AFF"/>
<path d="M43.7812 0H29.7188C27.3888 0 25.5 1.88878 25.5 4.21875V23.9062C25.5 25.1591 27.0147 25.7865 27.9007 24.9007L33.1137 19.6875H43.7812C46.1112 19.6875 48 17.7987 48 15.4688V4.21875C48 1.88878 46.1112 0 43.7812 0V0ZM40.9688 14.0625H32.5312C31.7546 14.0625 31.125 13.4329 31.125 12.6562C31.125 11.8796 31.7546 11.25 32.5312 11.25H40.9688C41.7454 11.25 42.375 11.8796 42.375 12.6562C42.375 13.4329 41.7454 14.0625 40.9688 14.0625ZM40.9688 8.4375H32.5312C31.7546 8.4375 31.125 7.80788 31.125 7.03125C31.125 6.25462 31.7546 5.625 32.5312 5.625H40.9688C41.7454 5.625 42.375 6.25462 42.375 7.03125C42.375 7.80788 41.7454 8.4375 40.9688 8.4375Z" fill="#007AFF"/>
<path d="M15 43.7812C15 41.972 13.528 40.5 11.7188 40.5C9.90947 40.5 8.4375 41.972 8.4375 43.7812V47.4889C9.47259 47.8204 10.575 48 11.7188 48C12.8625 48 13.9649 47.8204 15 47.4889V43.7812Z" fill="#007AFF"/>
<path d="M11.7188 26.4375C5.77397 26.4375 0.9375 31.274 0.9375 37.2188C0.9375 40.9038 2.79628 44.1623 5.625 46.1077V43.7812C5.625 41.6892 6.68494 39.8405 8.29575 38.7427C7.79578 38.0494 7.5 37.1994 7.5 36.2812C7.5 33.955 9.39253 32.0625 11.7188 32.0625C14.045 32.0625 15.9375 33.955 15.9375 36.2812C15.9375 37.1994 15.6417 38.0494 15.1417 38.7427C16.7526 39.8405 17.8125 41.6892 17.8125 43.7812V46.1077C20.6412 44.1623 22.5 40.9038 22.5 37.2188C22.5 31.274 17.6635 26.4375 11.7188 26.4375Z" fill="#007AFF"/>
<path d="M11.7188 37.6875C12.4954 37.6875 13.125 37.0579 13.125 36.2812C13.125 35.5046 12.4954 34.875 11.7188 34.875C10.9421 34.875 10.3125 35.5046 10.3125 36.2812C10.3125 37.0579 10.9421 37.6875 11.7188 37.6875Z" fill="#007AFF"/>
<path d="M39.5625 43.7812C39.5625 41.972 38.0905 40.5 36.2812 40.5C34.472 40.5 33 41.972 33 43.7812V47.4889C34.0351 47.8204 35.1375 48 36.2812 48C37.425 48 38.5274 47.8204 39.5625 47.4889V43.7812Z" fill="#007AFF"/>
<path d="M36.2812 37.6875C37.0579 37.6875 37.6875 37.0579 37.6875 36.2812C37.6875 35.5046 37.0579 34.875 36.2812 34.875C35.5046 34.875 34.875 35.5046 34.875 36.2812C34.875 37.0579 35.5046 37.6875 36.2812 37.6875Z" fill="#007AFF"/>
<path d="M36.2812 26.4375C30.3365 26.4375 25.5 31.274 25.5 37.2188C25.5 40.9038 27.3588 44.1623 30.1875 46.1077V43.7812C30.1875 41.6892 31.2474 39.8405 32.8583 38.7427C32.3583 38.0494 32.0625 37.1994 32.0625 36.2812C32.0625 33.955 33.955 32.0625 36.2812 32.0625C38.6075 32.0625 40.5 33.955 40.5 36.2812C40.5 37.1994 40.2042 38.0494 39.7042 38.7427C41.3151 39.8405 42.375 41.6892 42.375 43.7812V46.1077C45.2037 44.1623 47.0625 40.9038 47.0625 37.2188C47.0625 31.274 42.226 26.4375 36.2812 26.4375Z" fill="#007AFF"/>
</g>
<defs>
<clipPath id="clip0_111_10572">
<rect width="48" height="48" fill="white"/>
</clipPath>
</defs>
</svg>
