<svg width="48" height="48" viewBox="0 0 48 48" fill="none" xmlns="http://www.w3.org/2000/svg">
<g clip-path="url(#clip0_111_10604)">
<path d="M10.875 27.1875H37.125C37.9016 27.1875 38.5312 26.5579 38.5312 25.7812C38.5312 25.0046 37.9016 24.375 37.125 24.375H34.7812V11.7188C34.7812 10.9421 34.1516 10.3125 33.375 10.3125C32.5984 10.3125 31.9688 10.9421 31.9688 11.7188V24.375H29.1562V19.2188C29.1562 18.4421 28.5266 17.8125 27.75 17.8125C26.9734 17.8125 26.3438 18.4421 26.3438 19.2188V24.375H23.5312V14.5312C23.5312 13.7546 22.9016 13.125 22.125 13.125C21.3484 13.125 20.7188 13.7546 20.7188 14.5312V24.375H17.9062V22.0312C17.9062 21.2546 17.2766 20.625 16.5 20.625C15.7234 20.625 15.0938 21.2546 15.0938 22.0312V24.375H12.2812V1.40625C12.2812 0.629625 11.6516 0 10.875 0C10.0984 0 9.46875 0.629625 9.46875 1.40625V25.7812C9.46875 26.5579 10.0984 27.1875 10.875 27.1875Z" fill="#007AFF"/>
<path d="M7.125 39.0938C9.19607 39.0938 10.875 37.4148 10.875 35.3438C10.875 33.2727 9.19607 31.5938 7.125 31.5938C5.05393 31.5938 3.375 33.2727 3.375 35.3438C3.375 37.4148 5.05393 39.0938 7.125 39.0938Z" fill="#007AFF"/>
<path d="M40.875 39.0938C42.9461 39.0938 44.625 37.4148 44.625 35.3438C44.625 33.2727 42.9461 31.5938 40.875 31.5938C38.8039 31.5938 37.125 33.2727 37.125 35.3438C37.125 37.4148 38.8039 39.0938 40.875 39.0938Z" fill="#007AFF"/>
<path d="M24 39.0938C26.0711 39.0938 27.75 37.4148 27.75 35.3438C27.75 33.2727 26.0711 31.5938 24 31.5938C21.9289 31.5938 20.25 33.2727 20.25 35.3438C20.25 37.4148 21.9289 39.0938 24 39.0938Z" fill="#007AFF"/>
<path d="M17.4002 10.924L22.1251 6.98672L26.8499 10.924C27.4086 11.3896 28.2302 11.3524 28.7445 10.8381L34.7813 4.80122V7.03125C34.7813 7.80788 35.4109 8.4375 36.1876 8.4375C36.9642 8.4375 37.5938 7.80788 37.5938 7.03125V1.40625C37.5938 0.629625 36.9642 0 36.1876 0H30.5626C29.7859 0 29.1563 0.629625 29.1563 1.40625C29.1563 2.18288 29.7859 2.8125 30.5626 2.8125H32.7926L27.6637 7.94137L23.0252 4.07597C22.5038 3.64134 21.7462 3.64134 21.2248 4.07597L15.5998 8.76347C15.0032 9.26062 14.9225 10.1474 15.4197 10.744C15.9169 11.3407 16.8036 11.4213 17.4002 10.924Z" fill="#007AFF"/>
<path d="M28.1319 40.4373C27.0029 41.3549 25.5649 41.9062 24 41.9062C22.4351 41.9062 20.9971 41.3549 19.8681 40.4373C18.1116 41.7155 16.9688 43.7863 16.9688 46.125V48H31.0312V46.125C31.0312 43.7863 29.8884 41.7155 28.1319 40.4373Z" fill="#007AFF"/>
<path d="M11.2569 40.4373C10.1279 41.3549 8.68987 41.9062 7.125 41.9062C5.56012 41.9062 4.12209 41.3549 2.99306 40.4373C1.23656 41.7155 0.09375 43.7863 0.09375 46.125V46.5937C0.09375 47.3704 0.723375 48 1.5 48H14.1562V46.125C14.1562 43.7863 13.0134 41.7155 11.2569 40.4373Z" fill="#007AFF"/>
<path d="M45.0069 40.4373C43.8779 41.3549 42.4399 41.9062 40.875 41.9062C39.3101 41.9062 37.8721 41.3549 36.7431 40.4373C34.9866 41.7155 33.8438 43.7863 33.8438 46.125V48H46.5C47.2766 48 47.9062 47.3704 47.9062 46.5937V46.125C47.9062 43.7863 46.7634 41.7155 45.0069 40.4373Z" fill="#007AFF"/>
</g>
<defs>
<clipPath id="clip0_111_10604">
<rect width="48" height="48" fill="white"/>
</clipPath>
</defs>
</svg>
