<svg width="48" height="48" viewBox="0 0 48 48" fill="none" xmlns="http://www.w3.org/2000/svg">
<path d="M1.96875 36.0938C1.96875 38.42 3.86128 40.3125 6.1875 40.3125H41.8125C44.1387 40.3125 46.0312 38.42 46.0312 36.0938V34.6875H1.96875V36.0938Z" fill="#007AFF"/>
<path d="M7.125 7.5H6.1875C3.86128 7.5 1.96875 9.39253 1.96875 11.7188V31.875H7.125V7.5Z" fill="#007AFF"/>
<path d="M41.8125 7.5H40.875V31.875H46.0312V11.7188C46.0312 9.39253 44.1387 7.5 41.8125 7.5Z" fill="#007AFF"/>
<path d="M31.9688 1.40625V6.09375H36.6562L31.9688 1.40625Z" fill="#007AFF"/>
<path d="M19.2656 15.1377V19.1192C19.984 18.7314 20.4107 18.0155 20.5248 17.337C20.6063 16.8522 20.6396 15.6887 19.2656 15.1377Z" fill="#007AFF"/>
<path d="M16.2146 10.0617C16.116 10.5847 16.2428 11.0721 16.5375 11.3033C16.6529 11.3938 16.7825 11.4823 16.9214 11.5692V8.92236C16.512 9.20868 16.289 9.66693 16.2146 10.0617Z" fill="#007AFF"/>
<path d="M38.0625 8.90625H30.5625C29.7859 8.90625 29.1562 8.27662 29.1562 7.5V0H11.3438C10.5671 0 9.9375 0.629625 9.9375 1.40625V31.875H38.0625V8.90625ZM19.266 22.5C19.266 23.1472 18.7414 23.6719 18.0941 23.6719C17.4469 23.6719 16.9222 23.1472 16.9222 22.5V21.7211C15.9405 21.6401 15.1326 21.381 13.9835 20.6293C13.4419 20.2749 13.2901 19.5487 13.6444 19.0071C13.9987 18.4656 14.7249 18.3135 15.2666 18.668C15.9309 19.1025 16.3553 19.2879 16.9223 19.3632V14.2153C16.1449 13.8603 15.5662 13.5195 15.092 13.1475C14.1016 12.3708 13.6495 11.022 13.9123 9.62766C14.1989 8.10703 15.257 6.89728 16.6736 6.47053C16.7574 6.44531 16.8402 6.42225 16.9223 6.40088V5.625C16.9223 4.97784 17.447 4.45312 18.0942 4.45312C18.7415 4.45312 19.2661 4.97784 19.2661 5.625V6.27112C20.4419 6.46762 21.272 7.04409 21.6723 7.50356C22.0974 7.99153 22.0464 8.73188 21.5585 9.15694C21.0728 9.58022 20.3374 9.53156 19.9112 9.05006C19.8833 9.02166 19.6728 8.81766 19.2661 8.67741V12.6431C19.4875 12.7255 19.7088 12.8052 19.9259 12.882C22.0618 13.637 23.2043 15.5382 22.8366 17.7256C22.6577 18.7895 22.1225 19.7767 21.3294 20.5052C20.7364 21.0501 20.0361 21.423 19.2661 21.6115V22.5H19.266ZM32.4375 26.7188H22.125C21.3484 26.7188 20.7188 26.0891 20.7188 25.3125C20.7188 24.5359 21.3484 23.9062 22.125 23.9062H32.4375C33.2141 23.9062 33.8438 24.5359 33.8438 25.3125C33.8438 26.0891 33.2141 26.7188 32.4375 26.7188ZM32.4375 21.0938H26.8125C26.0359 21.0938 25.4062 20.4641 25.4062 19.6875C25.4062 18.9109 26.0359 18.2812 26.8125 18.2812H32.4375C33.2141 18.2812 33.8438 18.9109 33.8438 19.6875C33.8438 20.4641 33.2141 21.0938 32.4375 21.0938ZM32.4375 15.4688H26.8125C26.0359 15.4688 25.4062 14.8391 25.4062 14.0625C25.4062 13.2859 26.0359 12.6562 26.8125 12.6562H32.4375C33.2141 12.6562 33.8438 13.2859 33.8438 14.0625C33.8438 14.8391 33.2141 15.4688 32.4375 15.4688Z" fill="#007AFF"/>
<path d="M31.9688 45.1875H31.0766L30.322 43.125H17.6779L16.9233 45.1875H16.0312C15.2546 45.1875 14.625 45.8171 14.625 46.5938C14.625 47.3704 15.2546 48 16.0312 48H31.9688C32.7454 48 33.375 47.3704 33.375 46.5938C33.375 45.8171 32.7454 45.1875 31.9688 45.1875Z" fill="#007AFF"/>
</svg>
