<svg width="48" height="48" viewBox="0 0 48 48" fill="none" xmlns="http://www.w3.org/2000/svg">
<path d="M12.0302 6.98437H26.596L29.0144 2.02649C29.5689 0.889962 28.4584 -0.343788 27.2699 0.0883998L22.7261 1.74065L20.0108 0.188994C19.5784 -0.0580377 19.0477 -0.0580377 18.6154 0.188994L15.9 1.74065L11.3561 0.0883998C10.1678 -0.343788 9.0573 0.889962 9.61165 2.02649L12.0302 6.98437Z" fill="#007AFF"/>
<path d="M10.6406 14.0156H27.9844C29.1493 14.0156 30.0938 13.0712 30.0938 11.9062C30.0938 10.7412 29.1493 9.79688 27.9844 9.79688H10.6406C9.47569 9.79688 8.53125 10.7412 8.53125 11.9062C8.53125 13.0712 9.47569 14.0156 10.6406 14.0156Z" fill="#007AFF"/>
<path d="M16.8883 25.7616C16.7661 26.4105 16.9247 27.0161 17.2926 27.3046C17.4452 27.4243 17.618 27.5412 17.8039 27.6558V24.3252C17.2711 24.6769 16.9827 25.2605 16.8883 25.7616Z" fill="#007AFF"/>
<path d="M20.6172 31.9331V36.8799C21.526 36.407 22.0653 35.5114 22.2079 34.6627C22.2871 34.1921 22.3986 32.6285 20.6172 31.9331Z" fill="#007AFF"/>
<path d="M36.6562 32.5312H40.4062V35.8125H36.6562V32.5312Z" fill="#007AFF"/>
<path d="M30.0938 32.5312H33.8438V35.8125H30.0938V32.5312Z" fill="#007AFF"/>
<path d="M43.2188 32.5312H46.9688V35.8125H43.2188V32.5312Z" fill="#007AFF"/>
<path d="M36.6562 38.625H40.4062V41.9062H36.6562V38.625Z" fill="#007AFF"/>
<path d="M30.0938 38.625H33.8438V41.9062H30.0938V38.625Z" fill="#007AFF"/>
<path d="M36.6562 44.7188H40.4062V48H36.6562V44.7188Z" fill="#007AFF"/>
<path d="M43.2188 48H45.5625C46.3391 48 46.9688 47.3704 46.9688 46.5938V38.625H43.2188V48Z" fill="#007AFF"/>
<path d="M30.0938 46.5938C30.0938 47.3704 30.7234 48 31.5 48H33.8438V44.7188H30.0938V46.5938Z" fill="#007AFF"/>
<path d="M33.745 20.8124C32.6976 19.1337 31.4841 17.6162 30.1584 16.3203C29.5024 16.6448 28.7645 16.8281 27.9844 16.8281H10.6406C9.86053 16.8281 9.12272 16.6448 8.46656 16.3203C6.79987 17.9496 5.30934 19.9286 4.10475 22.1388C2.12288 25.7756 1.03125 29.7992 1.03125 33.4687C1.03125 38.2892 2.94966 42.1667 6.57909 44.6819C9.71138 46.8526 14.1145 47.9999 19.3125 47.9999C22.2517 47.9999 24.9364 47.6328 27.2812 46.9216V25.0312C27.2812 22.705 29.1738 20.8124 31.5 20.8124H33.745ZM24.9814 35.1289C24.7637 36.4236 24.1124 37.6248 23.1474 38.5115C22.4208 39.1792 21.5619 39.635 20.6171 39.8627V40.9687C20.6171 41.7453 19.9875 42.3749 19.2109 42.3749C18.4342 42.3749 17.8046 41.7453 17.8046 40.9687V39.993C16.5977 39.8964 15.6099 39.5821 14.2011 38.6605C13.5511 38.2353 13.3689 37.3638 13.7941 36.7138C14.2192 36.0638 15.0908 35.8816 15.7407 36.3068C16.5689 36.8486 17.0927 37.0763 17.8047 37.1662V30.8262C16.8488 30.3907 16.1386 29.9731 15.5577 29.5175C14.3548 28.5741 13.806 26.9353 14.1254 25.2407C14.4738 23.3918 15.7601 21.9209 17.4823 21.4022C17.5911 21.3694 17.6984 21.3401 17.8048 21.3126V20.3437C17.8048 19.5671 18.4344 18.9374 19.2111 18.9374C19.9877 18.9374 20.6173 19.5671 20.6173 20.3437V21.155C22.0587 21.3903 23.0755 22.0954 23.5646 22.6568C24.0748 23.2423 24.0137 24.1306 23.4281 24.6408C22.8452 25.1487 21.9622 25.0904 21.4509 24.5121C21.4165 24.4768 21.145 24.2117 20.6174 24.0376V28.9395C20.8939 29.0426 21.1702 29.1421 21.4413 29.2379C22.7795 29.711 23.8146 30.5593 24.4344 31.6913C24.9893 32.7049 25.1836 33.9258 24.9814 35.1289Z" fill="#007AFF"/>
<path d="M45.5625 23.625H31.5C30.7234 23.625 30.0938 24.2546 30.0938 25.0312V29.7188H46.9688V25.0312C46.9688 24.2546 46.3391 23.625 45.5625 23.625Z" fill="#007AFF"/>
<path d="M12.0302 6.98437H26.596L29.0144 2.02649C29.5689 0.889962 28.4584 -0.343788 27.2699 0.0883998L22.7261 1.74065L20.0108 0.188994C19.5784 -0.0580377 19.0477 -0.0580377 18.6154 0.188994L15.9 1.74065L11.3561 0.0883998C10.1678 -0.343788 9.0573 0.889962 9.61165 2.02649L12.0302 6.98437Z" fill="#007AFF"/>
<path d="M10.6406 14.0156H27.9844C29.1493 14.0156 30.0938 13.0712 30.0938 11.9062C30.0938 10.7412 29.1493 9.79688 27.9844 9.79688H10.6406C9.47569 9.79688 8.53125 10.7412 8.53125 11.9062C8.53125 13.0712 9.47569 14.0156 10.6406 14.0156Z" fill="#007AFF"/>
<path d="M16.8883 25.7616C16.7661 26.4105 16.9247 27.0161 17.2926 27.3046C17.4452 27.4243 17.618 27.5412 17.8039 27.6558V24.3252C17.2711 24.6769 16.9827 25.2605 16.8883 25.7616Z" fill="#007AFF"/>
<path d="M20.6172 31.9331V36.8799C21.526 36.407 22.0653 35.5114 22.2079 34.6627C22.2871 34.1921 22.3986 32.6285 20.6172 31.9331Z" fill="#007AFF"/>
<path d="M36.6562 32.5312H40.4062V35.8125H36.6562V32.5312Z" fill="#007AFF"/>
<path d="M30.0938 32.5312H33.8438V35.8125H30.0938V32.5312Z" fill="#007AFF"/>
<path d="M43.2188 32.5312H46.9688V35.8125H43.2188V32.5312Z" fill="#007AFF"/>
<path d="M36.6562 38.625H40.4062V41.9062H36.6562V38.625Z" fill="#007AFF"/>
<path d="M30.0938 38.625H33.8438V41.9062H30.0938V38.625Z" fill="#007AFF"/>
<path d="M36.6562 44.7188H40.4062V48H36.6562V44.7188Z" fill="#007AFF"/>
<path d="M43.2188 48H45.5625C46.3391 48 46.9688 47.3704 46.9688 46.5938V38.625H43.2188V48Z" fill="#007AFF"/>
<path d="M30.0938 46.5938C30.0938 47.3704 30.7234 48 31.5 48H33.8438V44.7188H30.0938V46.5938Z" fill="#007AFF"/>
<path d="M33.745 20.8124C32.6976 19.1337 31.4841 17.6162 30.1584 16.3203C29.5024 16.6448 28.7645 16.8281 27.9844 16.8281H10.6406C9.86053 16.8281 9.12272 16.6448 8.46656 16.3203C6.79987 17.9496 5.30934 19.9286 4.10475 22.1388C2.12288 25.7756 1.03125 29.7992 1.03125 33.4687C1.03125 38.2892 2.94966 42.1667 6.57909 44.6819C9.71138 46.8526 14.1145 47.9999 19.3125 47.9999C22.2517 47.9999 24.9364 47.6328 27.2812 46.9216V25.0312C27.2812 22.705 29.1738 20.8124 31.5 20.8124H33.745ZM24.9814 35.1289C24.7637 36.4236 24.1124 37.6248 23.1474 38.5115C22.4208 39.1792 21.5619 39.635 20.6171 39.8627V40.9687C20.6171 41.7453 19.9875 42.3749 19.2109 42.3749C18.4342 42.3749 17.8046 41.7453 17.8046 40.9687V39.993C16.5977 39.8964 15.6099 39.5821 14.2011 38.6605C13.5511 38.2353 13.3689 37.3638 13.7941 36.7138C14.2192 36.0638 15.0908 35.8816 15.7407 36.3068C16.5689 36.8486 17.0927 37.0763 17.8047 37.1662V30.8262C16.8488 30.3907 16.1386 29.9731 15.5577 29.5175C14.3548 28.5741 13.806 26.9353 14.1254 25.2407C14.4738 23.3918 15.7601 21.9209 17.4823 21.4022C17.5911 21.3694 17.6984 21.3401 17.8048 21.3126V20.3437C17.8048 19.5671 18.4344 18.9374 19.2111 18.9374C19.9877 18.9374 20.6173 19.5671 20.6173 20.3437V21.155C22.0587 21.3903 23.0755 22.0954 23.5646 22.6568C24.0748 23.2423 24.0137 24.1306 23.4281 24.6408C22.8452 25.1487 21.9622 25.0904 21.4509 24.5121C21.4165 24.4768 21.145 24.2117 20.6174 24.0376V28.9395C20.8939 29.0426 21.1702 29.1421 21.4413 29.2379C22.7795 29.711 23.8146 30.5593 24.4344 31.6913C24.9893 32.7049 25.1836 33.9258 24.9814 35.1289Z" fill="#007AFF"/>
<path d="M45.5625 23.625H31.5C30.7234 23.625 30.0938 24.2546 30.0938 25.0312V29.7188H46.9688V25.0312C46.9688 24.2546 46.3391 23.625 45.5625 23.625Z" fill="#007AFF"/>
</svg>
