<svg width="294" height="231" viewBox="0 0 294 231" fill="none" xmlns="http://www.w3.org/2000/svg">
<g clip-path="url(#clip0_106_4845)">
<rect width="294" height="231" rx="10" fill="#F0F4FF"/>
<path d="M124.466 165.655H111.159V230.718H124.466V165.655Z" fill="#DFE8FF"/>
<path d="M293 165.806H279.693V230.87H293V165.806Z" fill="#DFE8FF"/>
<path d="M13.3066 156.227H0V230.718H13.3066V156.227Z" fill="#DFE8FF"/>
<path d="M41.0957 123.134H27.7891V230.718H41.0957V123.134Z" fill="#DFE8FF"/>
<path d="M68.8886 145.638H55.582V230.718H68.8886V145.638Z" fill="#DFE8FF"/>
<path d="M96.6777 116.855H83.3711V230.723H96.6777V116.855Z" fill="#DFE8FF"/>
<path d="M152.255 117.409H138.948V230.718H152.255V117.409Z" fill="#DFE8FF"/>
<path d="M180.043 154.625H166.736V230.718H180.043V154.625Z" fill="#DFE8FF"/>
<path d="M207.832 122.399H194.525V230.718H207.832V122.399Z" fill="#DFE8FF"/>
<path d="M235.626 98H222.319V230.718H235.626V98Z" fill="#DFE8FF"/>
<path d="M263.414 121.846H250.107V230.718H263.414V121.846Z" fill="#DFE8FF"/>
<g clip-path="url(#clip1_106_4845)">
<path d="M277.266 182.46H193.758V321.19H277.266V182.46Z" fill="#455A64"/>
<g opacity="0.3">
<path d="M277.266 182.46H193.758V321.19H277.266V182.46Z" fill="black"/>
</g>
<path d="M294.596 182.46H211.088V321.19H294.596V182.46Z" fill="#455A64"/>
<path d="M210.831 227.021C210.894 227.104 207.161 230.099 202.506 233.71C197.851 237.32 194.015 240.191 193.945 240.115C193.876 240.039 197.615 237.044 202.27 233.426C206.926 229.808 210.769 226.945 210.831 227.021Z" fill="#455A64"/>
<path d="M210.831 219.204C210.894 219.28 207.161 222.275 202.506 225.893C197.851 229.511 194.014 232.375 193.952 232.291C193.89 232.208 197.622 229.22 202.277 225.603C206.932 221.985 210.769 219.121 210.831 219.204Z" fill="#455A64"/>
<path d="M210.831 211.381C210.894 211.457 207.161 214.452 202.506 218.07C197.851 221.687 194.015 224.551 193.945 224.482C193.876 224.413 197.615 221.411 202.27 217.793C206.926 214.175 210.769 211.339 210.831 211.381Z" fill="#455A64"/>
<path d="M210.831 203.558C210.894 203.641 207.161 206.636 202.506 210.247C197.851 213.857 194.014 216.728 193.952 216.652C193.89 216.576 197.622 213.581 202.277 209.963C206.932 206.345 210.769 203.482 210.831 203.558Z" fill="#455A64"/>
<path d="M210.831 195.741C210.894 195.817 207.161 198.813 202.506 202.43C197.851 206.048 194.014 208.912 193.952 208.829C193.89 208.746 197.622 205.757 202.277 202.14C206.932 198.522 210.769 195.658 210.831 195.741Z" fill="#455A64"/>
<path d="M210.831 187.918C210.894 187.994 207.161 190.989 202.506 194.607C197.851 198.225 194.014 201.088 193.952 201.012C193.89 200.936 197.622 197.941 202.277 194.323C206.932 190.706 210.769 187.821 210.831 187.918Z" fill="#455A64"/>
<path d="M207.404 182.751C207.467 182.834 204.504 185.234 200.786 188.112C197.067 190.989 194.008 193.272 193.945 193.189C193.883 193.106 196.845 190.713 200.564 187.828C204.282 184.944 207.342 182.675 207.404 182.751Z" fill="#455A64"/>
<path d="M197.483 182.606C197.013 183.199 196.451 183.712 195.818 184.127C195.259 184.641 194.619 185.059 193.924 185.366C194.956 184.262 196.157 183.328 197.483 182.599V182.606Z" fill="#455A64"/>
<g opacity="0.3">
<path d="M215.136 195.537C215.794 195.333 216.492 195.295 217.169 195.427C238.37 197.772 261.854 199.363 283.076 201.708V201.936C269.461 205.838 255.294 207.474 241.145 206.778C239.82 206.716 238.308 206.702 237.406 207.677C236.504 208.652 236.712 210.402 237.01 211.827C239.993 224.762 242.974 237.695 245.953 250.625C246.418 252.659 246.744 255.156 245.148 256.498C242.942 258.359 239.695 256.152 237.836 253.953C225.209 239.019 219.479 219.637 214.074 200.864C213.506 198.961 213.277 196.298 215.136 195.537Z" fill="black"/>
</g>
<path d="M188.078 189.229C190.293 187.341 193.164 186.397 196.07 186.601L200.927 202.088C197.347 202.24 193.774 204.087 190.319 203.139C188.934 202.714 187.701 201.902 186.767 200.798C185.832 199.694 185.235 198.346 185.047 196.914C184.899 195.485 185.098 194.041 185.625 192.704C186.153 191.367 186.994 190.175 188.078 189.229V189.229Z" fill="#FF725E"/>
<path d="M195.98 186.241C195.98 186.116 195.453 186.019 194.502 186.026C193.135 186.049 191.781 186.304 190.499 186.78C188.549 187.543 186.862 188.852 185.643 190.55C184.897 191.557 184.346 192.695 184.02 193.905C183.668 195.231 183.627 196.621 183.902 197.965C184.171 199.329 184.782 200.602 185.678 201.666C186.527 202.645 187.61 203.395 188.828 203.845C190.8 204.544 192.928 204.68 194.974 204.239C196.289 203.979 197.572 203.582 198.804 203.056C199.671 202.683 200.122 202.413 200.08 202.289C200.039 202.164 199.518 202.199 198.603 202.351C197.687 202.503 196.383 202.78 194.787 202.925C192.988 203.139 191.163 202.901 189.48 202.233C188.554 201.847 187.736 201.245 187.093 200.476C186.413 199.637 185.951 198.644 185.747 197.585C185.549 196.546 185.561 195.478 185.782 194.444C186.002 193.409 186.426 192.429 187.031 191.56C188.029 190.055 189.401 188.833 191.013 188.012C192.154 187.474 193.349 187.059 194.579 186.773C195.488 186.524 195.994 186.372 195.98 186.241Z" fill="#E0E0E0"/>
<path d="M277.102 165.005C282.715 165.137 288.036 165.925 291.9 169.979C297.027 175.36 303.361 183.031 303.694 188.344C304.277 196.291 299.421 198.65 295.952 200.594C294.39 201.437 292.627 201.841 290.853 201.763L226.007 201.272L223.967 190.322L265.912 180.015L264.171 164.279L277.102 165.005Z" fill="#263238"/>
<path d="M264.164 164.279L243.76 163.338C243.76 163.338 208.538 165.275 201.003 172.192C193.469 179.109 194.426 186.87 196.931 194.327C199.435 201.784 221.518 249.761 221.518 249.761C221.518 249.761 219.728 252.811 220.734 255.848C221.138 257.178 221.881 258.381 222.89 259.34C223.899 260.299 225.14 260.981 226.492 261.319L246.105 254.132C246.105 254.132 248.769 253.199 246.889 250.674C245.009 248.149 243.76 247.713 243.76 247.713V242.747C243.76 242.747 236.864 230.254 236.24 228.539C235.615 226.824 229.011 201.396 229.011 201.396L224.619 193.877C224.619 193.877 235.234 188.904 244.426 185.3L265.933 180.022L264.164 164.279Z" fill="#263238"/>
<path d="M214.088 187.009C214.088 187.071 214.782 187.223 215.94 187.603C217.421 188.094 218.839 188.755 220.165 189.575C221.486 190.404 222.706 191.384 223.801 192.494C224.64 193.345 225.098 193.933 225.146 193.877C224.843 193.295 224.455 192.762 223.995 192.293C222.939 191.105 221.717 190.075 220.366 189.236C219.017 188.398 217.554 187.755 216.023 187.327C215.397 187.126 214.745 187.019 214.088 187.009V187.009Z" fill="#455A64"/>
<path d="M234.145 220.951C234.136 220.808 234.11 220.666 234.068 220.529C233.985 220.218 233.888 219.837 233.763 219.339L232.591 214.975L228.574 200.622C227.762 197.82 227.061 195.15 226.277 192.729C225.448 190.624 224.191 188.711 222.586 187.112C221.527 186.029 220.352 185.064 219.083 184.235C218.625 183.944 218.271 183.73 218.021 183.598C217.899 183.521 217.768 183.456 217.633 183.405C217.633 183.405 218.126 183.737 219.02 184.352C220.242 185.226 221.378 186.212 222.413 187.299C223.961 188.886 225.172 190.768 225.972 192.833C226.728 195.212 227.422 197.917 228.234 200.705L232.334 215.078L233.624 219.408C233.777 219.886 233.895 220.273 233.992 220.577C234.028 220.708 234.079 220.833 234.145 220.951V220.951Z" fill="#455A64"/>
<path d="M252.189 184.339C252.293 184.339 252.723 180.541 253.146 175.844C253.569 171.148 253.84 167.322 253.729 167.315C253.618 167.309 253.195 171.106 252.772 175.81C252.348 180.513 252.085 184.325 252.189 184.339Z" fill="#455A64"/>
<path d="M286.142 194.486C286.205 194.486 286.517 193.898 287.155 192.999C287.991 191.829 288.988 190.784 290.117 189.893C291.256 189.014 292.515 188.304 293.857 187.783C294.891 187.382 295.563 187.223 295.55 187.161C294.94 187.189 294.338 187.312 293.767 187.527C290.942 188.465 288.528 190.347 286.933 192.854C286.581 193.351 286.314 193.902 286.142 194.486V194.486Z" fill="#455A64"/>
<path d="M273.648 180.679C273.648 180.742 274.55 180.188 276.048 179.51C279.97 177.733 284.319 177.11 288.584 177.712C290.215 177.947 291.2 178.238 291.214 178.168C290.998 178.047 290.763 177.961 290.52 177.913C289.892 177.718 289.253 177.563 288.605 177.449C284.287 176.689 279.838 177.326 275.909 179.268C275.318 179.556 274.748 179.884 274.203 180.251C273.999 180.367 273.812 180.512 273.648 180.679V180.679Z" fill="#455A64"/>
<path d="M224.8 190.315C224.97 190.297 225.139 190.269 225.306 190.232L226.749 189.914L232.035 188.731C236.496 187.735 242.671 186.4 249.518 185.044C256.366 183.688 262.582 182.568 267.091 181.814L272.433 180.901L273.883 180.638C274.052 180.612 274.219 180.575 274.383 180.527C274.211 180.522 274.039 180.536 273.869 180.569L272.413 180.755C271.143 180.928 269.311 181.198 267.05 181.551C262.526 182.243 256.296 183.329 249.442 184.677C242.588 186.026 236.42 187.41 231.973 188.475C229.746 189.008 227.949 189.45 226.714 189.775L225.285 190.156C225.118 190.19 224.955 190.244 224.8 190.315V190.315Z" fill="#455A64"/>
<path d="M265.905 181.876C266.165 181.169 266.464 180.476 266.8 179.801C267.206 179.098 267.705 178.454 268.285 177.885C269.002 177.189 269.759 176.535 270.553 175.927C272.023 174.846 273.577 173.884 275.201 173.05C275.891 172.729 276.555 172.354 277.186 171.929C276.466 172.159 275.769 172.456 275.104 172.815C273.425 173.588 271.831 174.531 270.345 175.63C269.535 176.246 268.77 176.919 268.056 177.643C267.47 178.247 266.975 178.932 266.585 179.676C266.331 180.178 266.138 180.707 266.009 181.254C265.94 181.454 265.905 181.664 265.905 181.876V181.876Z" fill="#455A64"/>
<path d="M193.677 191.65C193.594 191.733 194.677 192.826 195.523 194.486C196.369 196.146 196.64 197.654 196.758 197.633C196.694 196.476 196.387 195.345 195.857 194.314C195.326 193.284 194.583 192.376 193.677 191.65V191.65Z" fill="#263238"/>
<path d="M221.768 138.457C222.087 136.341 228.428 129.34 228.428 129.34C228.428 129.34 233.943 115.88 234.894 112.137C235.608 109.778 236.474 107.468 237.488 105.22C239.708 101.478 240.805 101.409 244.606 99.2785L251.974 96.0344L252.876 94.0354C253.651 92.3126 254.992 90.9047 256.678 90.0442L275.139 80.54L280.856 90.6045C280.856 90.6045 291.831 95.7716 292.469 96.5878C294.724 99.4515 293.163 145.443 293.163 145.443C293.163 145.443 294.266 163.366 295.494 168.395C296.722 173.423 297.437 177.138 297.437 177.138L291.956 170.857C288.737 166.838 281.681 164.984 276.61 165.06L233.291 165.247L235.927 152.368L199.984 159.942C199.984 159.942 193.955 148.224 193.476 147.989C192.997 147.754 221.768 138.457 221.768 138.457Z" fill="#FF725E"/>
<path d="M276.076 94.5542C276.382 94.2498 272.607 103.214 270.172 112.954C268.632 119.027 268.306 128.863 268.306 134.328L267.377 149.642V163.041L246.605 161.657L249.713 139.149C249.713 139.149 252.246 124.623 252.953 119.089C253.598 114.033 256.686 93.7656 256.686 93.7656C256.686 93.7656 267.377 103.387 276.076 94.5542Z" fill="white"/>
<path d="M229.982 146.951C230.014 146.778 230.014 146.6 229.982 146.426C229.933 145.958 229.842 145.495 229.712 145.042C229.266 143.526 228.448 142.145 227.332 141.023C226.213 139.907 224.829 139.091 223.308 138.651C222.856 138.516 222.391 138.423 221.921 138.374C221.588 138.374 221.401 138.374 221.394 138.374C221.387 138.374 222.122 138.512 223.232 138.9C224.683 139.389 226.001 140.205 227.084 141.285C228.167 142.364 228.986 143.679 229.476 145.125C229.837 146.225 229.913 146.958 229.982 146.951Z" fill="#263238"/>
<path d="M228.907 138.748C227.945 138.181 226.854 137.867 225.737 137.835C224.63 137.681 223.502 137.814 222.462 138.222C222.462 138.333 223.926 138.056 225.709 138.222C227.492 138.388 228.873 138.858 228.907 138.748Z" fill="#263238"/>
<path d="M291.942 96.1727C294.859 97.437 297.437 99.3682 299.467 101.81C301.496 104.252 302.921 107.136 303.625 110.228C305.568 118.128 313.9 150.424 312.186 155.252C310.473 160.08 277.172 164.825 277.172 164.825L273.225 148.224L290.139 143.61C290.139 143.61 289.923 128.241 289.708 121.87C289.493 115.499 291.942 96.1727 291.942 96.1727Z" fill="#FF725E"/>
<path d="M273.662 150.555L267.737 152.105L271.247 164.901L277.082 164.645L273.662 150.555Z" fill="white"/>
<path d="M232.882 161.65L238.217 155.999L249.206 153.232C249.206 153.232 259.273 156.241 259.515 156.234C259.758 156.227 268.278 153.91 268.278 153.91L271.254 164.791L255.908 165.842L238.383 165.15C238.383 165.15 237.475 164.3 238.016 163.719C238.557 163.138 235.081 164.701 234.672 164.722C234.262 164.742 233.472 165.054 232.93 164.396C232.563 163.947 232.063 162.508 232.882 161.65Z" fill="#C78976"/>
<path d="M238.016 163.712C238.611 163.597 239.194 163.425 239.757 163.2C240.825 162.861 242.296 162.411 243.92 161.989C245.543 161.567 247.076 161.256 248.172 161.035C248.774 160.956 249.366 160.82 249.941 160.627C249.332 160.599 248.722 160.646 248.124 160.765C246.675 160.964 245.239 161.246 243.822 161.609C242.41 161.968 241.02 162.412 239.66 162.937C239.081 163.123 238.528 163.384 238.016 163.712V163.712Z" fill="#8B5D54"/>
<path d="M232.882 161.65C233.708 161.436 234.521 161.175 235.317 160.869C236.809 160.364 238.904 159.748 241.228 159.105C243.552 158.462 245.613 157.721 247.181 157.638C248.026 157.598 248.873 157.631 249.713 157.735C249.497 157.619 249.262 157.544 249.019 157.514C248.399 157.382 247.765 157.331 247.132 157.362C245.509 157.362 243.379 158.053 241.082 158.745C238.786 159.437 236.67 160.052 235.185 160.627C234.45 160.91 233.853 161.159 233.451 161.318C233.247 161.402 233.055 161.514 232.882 161.65V161.65Z" fill="#8B5D54"/>
<path d="M312.311 153.516C312.311 153.516 312.311 153.792 312.228 154.297C312.046 155.031 311.641 155.69 311.069 156.186C309.62 157.528 306.858 158.648 303.355 159.278C301.752 159.803 299.928 160.218 297.978 160.661C296.029 161.104 293.927 161.547 291.734 161.996C287.301 162.895 282.396 163.85 277.207 164.818L277.429 164.964L276.256 160.122C275.32 156.317 274.411 152.623 273.558 149.13L273.426 149.359L288.453 145.077C290.523 144.206 292.765 143.816 295.009 143.936C296.713 144.029 298.387 144.42 299.955 145.091C300.953 145.52 301.905 146.046 302.8 146.661L303.494 147.166L303.736 147.325C303.736 147.325 303.674 147.249 303.521 147.124C303.369 147 303.161 146.813 302.828 146.592C301.945 145.94 300.997 145.384 299.997 144.932C298.418 144.221 296.724 143.799 294.995 143.687C292.71 143.545 290.423 143.924 288.307 144.793L273.259 149.006L273.079 149.054L273.121 149.234C273.981 152.734 274.876 156.421 275.805 160.232C276.215 161.885 276.61 163.511 276.985 165.074L277.033 165.254H277.214C282.41 164.272 287.308 163.31 291.741 162.384C293.954 161.927 296.049 161.47 297.985 161C299.921 160.53 301.752 160.115 303.383 159.561C306.921 158.87 309.696 157.721 311.153 156.31C311.734 155.789 312.133 155.096 312.29 154.332C312.347 154.063 312.354 153.787 312.311 153.516V153.516Z" fill="#263238"/>
<path d="M289.223 144.717C289.271 144.766 289.833 144.247 290.853 143.569C293.518 141.793 296.668 140.88 299.872 140.954C301.093 140.954 301.849 141.113 301.863 141.051C301.23 140.817 300.561 140.691 299.886 140.678C296.606 140.444 293.35 141.389 290.708 143.341C290.141 143.716 289.639 144.181 289.223 144.717V144.717Z" fill="#263238"/>
<path d="M287.01 117.671C286.972 118.007 286.972 118.345 287.01 118.681C287.01 119.331 287.079 120.272 287.169 121.448C287.357 123.765 287.703 126.982 288.314 130.44C288.795 133.439 289.491 136.401 290.395 139.301C290.583 139.847 290.777 140.346 290.936 140.781L291.422 141.867C291.563 142.176 291.738 142.468 291.942 142.739C291.843 142.417 291.715 142.104 291.561 141.805C291.436 141.48 291.297 141.113 291.145 140.698C290.992 140.283 290.832 139.764 290.666 139.211C289.834 136.308 289.173 133.358 288.689 130.378C288.078 126.919 287.69 123.703 287.433 121.386C287.322 120.293 287.225 119.373 287.148 118.619C287.135 118.299 287.088 117.982 287.01 117.671V117.671Z" fill="#263238"/>
<path d="M271.733 109.862C271.733 109.862 271.809 109.668 271.983 109.329C272.239 108.849 272.614 108.442 273.072 108.146C273.412 107.914 273.8 107.762 274.208 107.702C274.615 107.642 275.031 107.676 275.424 107.8C275.92 107.972 276.364 108.268 276.712 108.661C277.059 109.053 277.299 109.529 277.408 110.042L277.505 110.554L277.727 110.083C278.575 108.272 279.314 106.413 279.94 104.515C281.044 101.353 281.596 98.0263 281.57 94.6787C281.57 94.0354 281.48 93.4613 281.446 92.9494C281.411 92.4375 281.293 92.0156 281.217 91.6697C281.142 91.3052 281.033 90.9485 280.891 90.6045C281.143 91.9509 281.283 93.316 281.307 94.6856C281.247 97.9842 280.664 101.253 279.579 104.37C278.958 106.252 278.236 108.099 277.415 109.903L277.741 109.945C277.617 109.377 277.345 108.852 276.953 108.422C276.56 107.993 276.062 107.673 275.507 107.496C275.075 107.37 274.62 107.344 274.178 107.422C273.735 107.5 273.316 107.679 272.954 107.946C272.485 108.274 272.116 108.724 271.886 109.246C271.827 109.385 271.781 109.528 271.747 109.675C271.726 109.806 271.726 109.862 271.733 109.862Z" fill="#263238"/>
<path d="M253.771 111.487C253.84 111.205 253.891 110.918 253.924 110.63C254.08 109.833 254.129 109.018 254.07 108.209C253.921 106.982 253.335 105.85 252.418 105.02C251.872 104.535 251.166 104.267 250.434 104.266C250.035 104.263 249.64 104.35 249.279 104.521C248.919 104.693 248.602 104.944 248.353 105.255L248.651 105.435L249.303 103.712C250.58 100.316 251.718 97.2311 252.523 94.9968C252.897 93.9247 253.216 93.0324 253.459 92.3407C253.589 92.0184 253.689 91.685 253.757 91.3446C253.59 91.6466 253.446 91.9611 253.327 92.2853C253.057 92.977 252.71 93.8486 252.287 94.9C251.419 97.1135 250.247 100.185 248.97 103.581L248.325 105.303L247.909 106.417L248.603 105.49C248.822 105.218 249.1 104.999 249.416 104.848C249.732 104.697 250.077 104.619 250.427 104.619C251.086 104.618 251.722 104.851 252.224 105.276C253.087 106.051 253.656 107.099 253.834 108.243C253.905 109.031 253.891 109.824 253.792 110.609C253.747 110.9 253.74 111.195 253.771 111.487Z" fill="#263238"/>
<path d="M241.478 113.272C241.38 113.272 239.833 123.357 238.009 135.822C236.184 148.286 234.811 158.406 234.908 158.42C235.005 158.434 236.552 148.342 238.376 135.87C240.201 123.399 241.575 113.286 241.478 113.272Z" fill="#263238"/>
<g opacity="0.3">
<path d="M279.718 104.632C279.625 107.434 279.014 110.194 277.914 112.774C277.13 111.806 276.256 110.782 275.056 110.491C273.564 110.138 272.052 111.058 270.976 112.172C271.164 111.05 271.61 109.987 272.281 109.066C272.61 108.614 273.04 108.243 273.537 107.984C274.035 107.725 274.585 107.584 275.146 107.572C275.709 107.584 276.253 107.783 276.69 108.138C277.127 108.492 277.434 108.982 277.56 109.53L279.641 104.688" fill="black"/>
</g>
<path d="M287.065 108.997C287.135 108.997 287.114 108.243 287.329 107.067C287.623 105.535 288.222 104.076 289.091 102.779C289.57 102.07 290.124 101.413 290.742 100.821C291.251 100.339 291.806 99.9078 292.4 99.5345C293.413 98.8912 294.128 98.6491 294.107 98.58C293.928 98.5918 293.752 98.6339 293.587 98.7045C293.387 98.7659 293.192 98.8422 293.004 98.9327C292.748 99.0407 292.5 99.1654 292.262 99.3063C291.632 99.661 291.044 100.083 290.506 100.565C289.853 101.166 289.272 101.839 288.772 102.571C287.875 103.91 287.292 105.432 287.065 107.026C286.996 107.504 286.973 107.988 286.996 108.471C287.017 108.81 287.038 108.997 287.065 108.997Z" fill="#263238"/>
<g opacity="0.3">
<path d="M240.854 117.761L236.212 150.368L235.983 150.887C234.89 139.615 236.561 128.246 240.854 117.761Z" fill="black"/>
</g>
<path d="M215.095 136.5L230.184 162.785L267.377 163.594L267.467 165.268L231.46 165.005L230.316 164.964L192.291 165.04L184.604 151.828L174.787 137.8C174.64 137.592 174.554 137.348 174.537 137.094C174.521 136.841 174.575 136.588 174.693 136.363C174.811 136.138 174.989 135.949 175.208 135.818C175.426 135.688 175.677 135.619 175.932 135.621L213.894 135.766C214.142 135.771 214.384 135.841 214.595 135.97C214.806 136.099 214.978 136.282 215.095 136.5Z" fill="#E0E0E0"/>
<path d="M184.604 151.863C184.604 151.863 182.654 153.647 182.96 155.162C183.265 156.677 183.168 157.811 184.604 157.929C184.583 158.482 184.773 159.022 185.137 159.441C185.5 159.859 186.008 160.125 186.56 160.184C186.56 160.184 186.116 162.563 188.898 162.951C188.898 162.951 189.745 165.496 191.5 164.881C192.503 164.536 193.468 164.088 194.379 163.546L194.892 162.619C194.892 162.619 197.466 161.657 196.835 160.205C196.446 159.326 195.114 159.098 195.114 159.098C195.267 158.736 195.332 158.342 195.303 157.95C195.274 157.559 195.152 157.179 194.948 156.843C194.33 156.013 192.318 156.698 192.318 156.698C192.361 155.987 192.136 155.286 191.687 154.733C190.993 153.924 187.795 156.117 187.795 156.117L186.054 154.041L184.604 151.863Z" fill="#C78976"/>
<path d="M188.898 162.958C190.025 162.479 191.099 161.886 192.103 161.187C193.177 160.603 194.187 159.907 195.114 159.112C192.902 160.172 190.809 161.464 188.87 162.965L188.898 162.958Z" fill="#8B5D54"/>
<path d="M186.56 160.17C187.606 159.756 188.604 159.229 189.536 158.6C190.528 158.072 191.459 157.436 192.312 156.705C191.265 157.117 190.266 157.644 189.335 158.275C188.342 158.8 187.411 159.436 186.56 160.17V160.17Z" fill="#8B5D54"/>
<path d="M189.744 154.948C189.682 154.844 188.488 155.466 187.101 156.331C186.238 156.826 185.408 157.375 184.617 157.977C184.673 158.095 185.915 157.535 187.302 156.649C188.172 156.166 188.99 155.596 189.744 154.948Z" fill="#8B5D54"/>
<path d="M174.787 136.652C174.847 136.661 174.907 136.661 174.967 136.652H175.501H177.583L185.131 136.714L210.044 136.769H211.862C212.13 136.741 212.402 136.786 212.647 136.901C212.891 137.016 213.1 137.195 213.249 137.42C213.825 138.443 214.387 139.46 214.942 140.456L218.147 146.225L223.593 155.985C225.147 158.752 226.403 160.972 227.291 162.549L228.318 164.32L228.588 164.777C228.619 164.831 228.657 164.882 228.699 164.929C228.679 164.869 228.654 164.811 228.623 164.756C228.56 164.632 228.484 164.479 228.38 164.286C228.151 163.843 227.825 163.241 227.423 162.473L223.822 155.854C222.289 153.087 220.471 149.739 218.445 146.059C217.432 144.212 216.364 142.282 215.261 140.276L213.561 137.212C213.377 136.938 213.124 136.717 212.826 136.573C212.529 136.428 212.198 136.365 211.869 136.389H210.051L185.138 136.444L177.59 136.506H175.508H174.974L174.787 136.652Z" fill="#263238"/>
<path d="M201.546 149.884C201.72 150.137 201.817 150.435 201.826 150.741C201.836 151.048 201.756 151.35 201.597 151.613C201.439 151.876 201.207 152.088 200.931 152.223C200.655 152.358 200.346 152.411 200.041 152.376C199.735 152.341 199.446 152.219 199.208 152.024C198.97 151.83 198.794 151.571 198.699 151.279C198.605 150.987 198.597 150.674 198.676 150.378C198.755 150.082 198.918 149.814 199.145 149.608C199.501 149.328 199.953 149.2 200.403 149.252C200.852 149.304 201.263 149.531 201.546 149.884V149.884Z" fill="white"/>
<path d="M256.31 92.3822L256.518 86.4127C256.518 86.4127 248.567 84.6765 248.963 76.6664C249.15 72.7929 250.198 64.8589 251.224 57.6927C251.764 53.9794 253.685 50.6043 256.605 48.2375C259.525 45.8706 263.231 44.6853 266.987 44.9168L267.757 44.9652C276.082 45.9613 279.877 53.5701 278.649 61.8361L276.699 93.3367C276.535 95.9739 275.349 98.444 273.391 100.225C271.434 102.006 268.859 102.959 266.21 102.882V102.882C264.868 102.841 263.548 102.537 262.324 101.987C261.101 101.437 259.998 100.652 259.078 99.677C258.159 98.7019 257.441 97.5558 256.966 96.3041C256.491 95.0525 256.268 93.7198 256.31 92.3822V92.3822Z" fill="#C78976"/>
<path d="M256.518 86.4197C260.226 86.6393 263.919 85.7943 267.16 83.9849C267.16 83.9849 264.448 89.6569 256.476 88.4464L256.518 86.4197Z" fill="#8B5D54"/>
<path d="M252.245 65.2117C252.224 65.5098 252.32 65.8044 252.513 66.033C252.706 66.2616 252.981 66.4062 253.279 66.4361C253.424 66.4564 253.572 66.4475 253.713 66.4098C253.855 66.3722 253.988 66.3066 254.103 66.217C254.219 66.1273 254.316 66.0154 254.387 65.8879C254.459 65.7604 254.504 65.6198 254.521 65.4746C254.532 65.179 254.429 64.8903 254.233 64.6687C254.036 64.447 253.762 64.3095 253.466 64.2848C253.182 64.2511 252.895 64.3289 252.667 64.5019C252.44 64.6748 252.288 64.9294 252.245 65.2117Z" fill="#263238"/>
<path d="M252.71 61.7116C252.842 61.8707 253.75 61.2827 254.985 61.3588C256.22 61.4349 257.067 62.1128 257.226 61.9675C257.386 61.8223 257.171 61.6286 256.789 61.3173C256.282 60.9178 255.663 60.6836 255.018 60.6465C254.373 60.6093 253.731 60.7711 253.181 61.1098C252.786 61.3796 252.64 61.6424 252.71 61.7116Z" fill="#263238"/>
<path d="M264.254 65.7028C264.234 66.0008 264.332 66.2946 264.526 66.5219C264.721 66.7492 264.996 66.8921 265.294 66.9202C265.439 66.9416 265.587 66.9336 265.728 66.8968C265.87 66.86 266.003 66.7951 266.119 66.706C266.235 66.6169 266.331 66.5054 266.403 66.3782C266.475 66.251 266.52 66.1107 266.536 65.9657C266.557 65.6676 266.461 65.373 266.268 65.1444C266.075 64.9158 265.801 64.7712 265.502 64.7413C265.357 64.7219 265.209 64.7315 265.067 64.7694C264.926 64.8074 264.793 64.8729 264.677 64.9623C264.561 65.0518 264.464 65.1632 264.391 65.2903C264.318 65.4174 264.272 65.5576 264.254 65.7028V65.7028Z" fill="#263238"/>
<path d="M264.823 62.6869C264.955 62.846 265.864 62.2581 267.099 62.3342C268.333 62.4103 269.18 63.0881 269.339 62.9429C269.499 62.7976 269.284 62.6039 268.902 62.2927C268.396 61.8805 267.772 61.6384 267.119 61.601C266.48 61.5604 265.843 61.7226 265.302 62.0644C264.899 62.3549 264.733 62.6178 264.823 62.6869Z" fill="#263238"/>
<path d="M259.779 71.534C259.142 71.2907 258.478 71.1281 257.801 71.0498C257.482 71.0013 257.191 70.9183 257.149 70.7039C257.146 70.3773 257.24 70.0572 257.42 69.7839L258.488 67.4459C259.994 64.1188 261.104 61.3796 260.972 61.3174C260.84 61.2551 259.508 63.9113 258.002 67.2315C257.642 68.0546 257.309 68.8363 256.962 69.5833C256.741 69.951 256.655 70.3838 256.719 70.8077C256.758 70.9216 256.823 71.0251 256.908 71.1102C256.994 71.1953 257.097 71.2598 257.212 71.2988C257.382 71.3573 257.559 71.3945 257.739 71.4095C258.411 71.5343 259.096 71.5761 259.779 71.534V71.534Z" fill="#263238"/>
<path d="M263.345 72.5853C263.144 72.5853 263.06 73.8996 261.853 74.7781C260.646 75.6565 259.231 75.4214 259.21 75.6081C259.21 75.6911 259.515 75.8848 260.112 75.9401C260.897 75.9974 261.677 75.7796 262.318 75.3245C262.93 74.8813 263.348 74.2198 263.484 73.4776C263.581 72.945 263.449 72.5853 263.345 72.5853Z" fill="#263238"/>
<path d="M264.802 57.8449C264.899 58.1908 266.141 58.1078 267.577 58.3706C269.013 58.6335 270.165 59.0623 270.352 58.8064C270.449 58.668 270.262 58.3429 269.811 57.9902C269.209 57.5458 268.51 57.2517 267.771 57.1324C267.036 57.0005 266.28 57.0432 265.565 57.2569C265.045 57.4368 264.732 57.6858 264.802 57.8449Z" fill="#263238"/>
<path d="M253.382 58.177C253.584 58.4744 254.451 58.2323 255.464 58.2808C256.477 58.3292 257.344 58.5851 257.545 58.2808C257.642 58.1424 257.545 57.8519 257.157 57.589C256.675 57.2317 256.092 57.0356 255.491 57.0288C254.891 57.0003 254.297 57.1599 253.792 57.4853C253.431 57.7551 253.292 58.0594 253.382 58.177Z" fill="#263238"/>
<path d="M252.245 54.0682C252.245 54.0682 254.673 49.1847 257.17 48.161C260.188 46.9228 261.257 50.2361 264.108 49.6066C266.959 48.9772 269.838 47.8151 272.565 50.1462C275.548 52.6986 273.952 54.2619 273.952 57.8242C273.848 72.2741 276.235 76.5005 277.421 69.7701C277.553 69.03 279.655 68.5665 280.155 65.4469C280.807 61.4004 281.272 56.4546 280.536 53.5217C279.919 51.0385 278.628 49.2746 276.249 47.2963C272.489 44.1283 267.077 43.734 263.373 43.8378C259.668 43.9415 252.245 47.7667 252.245 54.0682Z" fill="#263238"/>
<path d="M276.88 69.5211C276.907 69.228 276.994 68.9435 277.135 68.6849C277.275 68.4262 277.468 68.1987 277.699 68.0163C277.931 67.8339 278.197 67.7003 278.482 67.6236C278.767 67.547 279.065 67.5289 279.357 67.5705C280.849 67.8056 282.465 68.7533 282.174 71.8383C281.66 77.2959 276.263 75.6566 276.27 75.4975C276.277 75.3384 276.644 71.8037 276.88 69.5211Z" fill="#C78976"/>
<path d="M277.657 73.5538C277.657 73.5538 277.747 73.6299 277.9 73.7198C278.112 73.8343 278.36 73.864 278.594 73.8028C279.197 73.6437 279.766 72.7721 279.891 71.7899C279.947 71.3237 279.897 70.8509 279.745 70.4065C279.711 70.2309 279.634 70.0663 279.521 69.9266C279.409 69.7869 279.265 69.6763 279.1 69.6041C278.993 69.5666 278.876 69.5667 278.769 69.6045C278.662 69.6422 278.57 69.7153 278.511 69.8116C278.427 69.9638 278.448 70.0745 278.42 70.0814C278.393 70.0883 278.309 69.9776 278.372 69.7563C278.42 69.6253 278.507 69.5119 278.622 69.4312C278.784 69.3334 278.977 69.3012 279.163 69.3412C279.384 69.4063 279.584 69.527 279.744 69.6918C279.905 69.8566 280.02 70.0599 280.078 70.282C280.269 70.7773 280.334 71.3121 280.266 71.8383C280.127 72.9312 279.468 73.9135 278.656 74.0656C278.505 74.0939 278.349 74.0881 278.2 74.0486C278.051 74.0091 277.913 73.9369 277.796 73.8374C277.65 73.6921 277.636 73.5607 277.657 73.5538Z" fill="#8B5D54"/>
<path d="M277.422 58.9102C276.717 59.4144 275.896 59.7332 275.035 59.8371C274.603 59.8778 274.17 59.7597 273.819 59.5049C273.468 59.2502 273.222 58.8764 273.127 58.4537C273.086 58.0732 273.203 57.6305 272.975 57.3262C272.746 57.0218 272.135 57.0287 271.67 57.0495C270.867 57.0598 270.084 56.7949 269.452 56.2988C268.821 55.8028 268.379 55.1057 268.201 54.3241C267.938 54.5797 267.589 54.7278 267.221 54.7393C266.854 54.7509 266.496 54.625 266.217 54.3864C265.678 53.8911 265.211 53.323 264.83 52.6986C264.635 52.3884 264.366 52.1305 264.048 51.9473C263.73 51.764 263.372 51.661 263.005 51.6472C262.608 51.7532 262.201 51.8158 261.791 51.834C261.097 51.7233 260.778 50.8656 260.709 50.1462C260.639 49.4268 260.612 48.5829 260.015 48.161C259.418 47.739 258.725 47.9258 258.052 47.988C257.379 48.0503 256.532 47.8359 256.407 47.1787C256.389 47.0029 256.407 46.8253 256.459 46.6564C256.512 46.4876 256.598 46.3311 256.713 46.1965C257.2 45.5625 257.888 45.111 258.665 44.9152C259.442 44.7193 260.262 44.7906 260.993 45.1174C261.331 44.2342 261.92 43.4688 262.689 42.9156C263.458 42.3625 264.372 42.0458 265.32 42.0046C266.267 41.9634 267.205 42.1995 268.019 42.6838C268.833 43.1682 269.488 43.8795 269.901 44.7301C270.516 44.2381 271.241 43.9017 272.015 43.7495C272.789 43.5973 273.588 43.6339 274.344 43.856C275.1 44.0782 275.792 44.4794 276.359 45.0254C276.926 45.5714 277.353 46.2461 277.602 46.992C278.285 46.8574 278.993 46.9261 279.638 47.1897C280.283 47.4532 280.835 47.8999 281.227 48.4742C281.619 49.0485 281.833 49.725 281.842 50.4196C281.851 51.1141 281.655 51.796 281.279 52.3804C281.772 52.662 282.186 53.0633 282.482 53.547C282.778 54.0307 282.946 54.5812 282.972 55.1473C282.916 56.2817 281.744 57.3469 280.661 56.9803C280.778 57.2101 280.848 57.4606 280.868 57.7174C280.887 57.9742 280.856 58.2324 280.775 58.4771C280.695 58.7218 280.567 58.9483 280.398 59.1437C280.23 59.3391 280.025 59.4995 279.794 59.6157C279.564 59.732 279.313 59.8019 279.055 59.8213C278.797 59.8408 278.538 59.8095 278.293 59.7292C278.048 59.6489 277.82 59.5212 277.624 59.3534C277.428 59.1856 277.268 58.9809 277.151 58.7511" fill="#263238"/>
<path d="M260.48 46.7084C260.48 46.7084 260.48 46.7084 260.48 46.8052C260.474 46.9043 260.474 47.0036 260.48 47.1027C260.533 47.4777 260.645 47.8419 260.813 48.1817C261.08 48.724 261.47 49.1974 261.95 49.5652C262.585 50.0551 263.361 50.3269 264.164 50.3399L264.08 50.2154C263.979 50.4551 263.927 50.7126 263.927 50.9728C263.927 51.2329 263.979 51.4905 264.08 51.7302C264.295 52.2307 264.583 52.6969 264.934 53.1136C265.1 53.3641 265.293 53.596 265.509 53.8054C265.758 54.0008 266.051 54.1315 266.363 54.1858C266.684 54.2518 267.016 54.2383 267.33 54.1467C267.645 54.0551 267.932 53.888 268.167 53.6601L267.965 53.5909C268.008 54.1635 268.169 54.721 268.439 55.2282C268.709 55.7354 269.082 56.1813 269.533 56.5376C270.032 56.953 270.653 57.1957 271.302 57.2293C271.915 57.237 272.524 57.1435 273.106 56.9526L272.96 56.8766C273.204 57.5567 273.614 58.1653 274.154 58.6473C274.401 58.8849 274.697 59.0651 275.022 59.1751C275.347 59.2851 275.693 59.3222 276.034 59.2837C276.619 59.1942 277.165 58.9364 277.605 58.542C278.044 58.1476 278.359 57.6337 278.511 57.0633L278.379 57.1187C278.939 57.4606 279.601 57.5976 280.252 57.506C280.749 57.4549 281.226 57.2814 281.639 57.0011C281.891 56.8295 282.111 56.6166 282.292 56.3716C282.403 56.1987 282.451 56.1018 282.451 56.1018C282.213 56.425 281.919 56.7037 281.584 56.925C281.188 57.1745 280.739 57.3285 280.273 57.3746C279.656 57.4497 279.033 57.3078 278.511 56.9734L278.407 56.9111V57.0287C278.262 57.5643 277.964 58.0461 277.549 58.4148C277.133 58.7835 276.619 59.023 276.069 59.1039C275.758 59.1391 275.443 59.1038 275.147 59.0009C274.852 58.8979 274.583 58.7297 274.362 58.509C273.855 58.0501 273.471 57.4724 273.245 56.8281L273.203 56.7244H273.099C272.545 56.9108 271.963 57.002 271.379 56.9942C270.779 56.9591 270.207 56.7309 269.748 56.3439C269.321 56.0115 268.968 55.5936 268.712 55.1171C268.457 54.6406 268.304 54.116 268.264 53.5771V53.3212L268.083 53.5079C267.768 53.7995 267.361 53.9727 266.932 53.9979C266.503 54.0232 266.079 53.8988 265.731 53.6463C265.53 53.4556 265.348 53.2446 265.19 53.0168C264.844 52.6142 264.561 52.1618 264.351 51.6749C264.254 51.458 264.201 51.2241 264.195 50.9866C264.189 50.7492 264.23 50.5129 264.316 50.2914L264.365 50.1669H264.233C263.469 50.1685 262.725 49.9261 262.11 49.4752C261.641 49.1309 261.255 48.6867 260.979 48.1748C260.724 47.7206 260.555 47.2236 260.48 46.7084V46.7084Z" fill="#455A64"/>
<path d="M257.74 66.1801C257.892 65.7632 258.012 65.3354 258.1 64.9005C258.303 63.7166 258.102 62.4993 257.531 61.4419C257.138 60.7111 256.577 60.0831 255.894 59.6089C255.113 59.0635 254.201 58.7341 253.251 58.6543C252.738 58.6111 252.221 58.6437 251.718 58.7511C251.194 58.8572 250.69 59.0464 250.226 59.3114C249.235 59.8595 248.445 60.7083 247.971 61.7345C247.497 62.7607 247.363 63.911 247.59 65.018C247.694 65.5423 247.881 66.0466 248.145 66.5122C248.384 66.9635 248.693 67.3744 249.061 67.7296C249.74 68.398 250.585 68.8753 251.51 69.113C252.317 69.3125 253.159 69.3267 253.972 69.1545C255.159 68.896 256.224 68.2481 256.997 67.3145C257.271 66.9636 257.519 66.5938 257.74 66.2078C257.701 66.317 257.655 66.4234 257.601 66.526C257.543 66.6542 257.473 66.7769 257.393 66.8926C257.297 67.0576 257.188 67.2149 257.067 67.363C256.418 68.1859 255.544 68.8044 254.551 69.1443C253.558 69.4842 252.487 69.531 251.468 69.279C250.511 69.051 249.633 68.5735 248.922 67.8956C248.539 67.5258 248.216 67.0987 247.964 66.6297C247.687 66.1489 247.492 65.6252 247.389 65.0803C247.154 63.9299 247.292 62.7348 247.784 61.6679C248.275 60.6011 249.094 59.7176 250.122 59.1454C250.607 58.8754 251.132 58.6818 251.676 58.5713C252.198 58.4593 252.734 58.4289 253.265 58.4814C254.185 58.5582 255.07 58.8654 255.839 59.3745C256.608 59.8836 257.235 60.5781 257.663 61.3935C258.244 62.4903 258.428 63.7534 258.184 64.9696C258.148 65.1596 258.1 65.3468 258.038 65.5299C258.002 65.6655 257.953 65.7975 257.892 65.9242C257.848 66.0134 257.797 66.099 257.74 66.1801V66.1801Z" fill="#263238"/>
<path d="M271.9 67.0102C272.042 66.5903 272.163 66.1631 272.26 65.7305C272.457 64.5459 272.254 63.3298 271.685 62.2719C271.293 61.5416 270.735 60.9135 270.054 60.4389C269.277 59.8755 268.361 59.5314 267.404 59.4428C266.893 59.3961 266.378 59.4288 265.878 59.5397C265.352 59.6468 264.846 59.8359 264.379 60.0999C263.389 60.6462 262.599 61.4939 262.126 62.5194C261.653 63.5448 261.521 64.6942 261.75 65.7997C261.956 66.8322 262.468 67.7792 263.221 68.5181C263.853 69.1463 264.634 69.6059 265.491 69.8549C266.348 70.1039 267.254 70.1342 268.126 69.943C269.316 69.6901 270.385 69.0413 271.157 68.1031C271.429 67.7536 271.677 67.3862 271.9 67.0032C271.86 67.1132 271.811 67.2196 271.754 67.3214C271.699 67.4496 271.631 67.5724 271.553 67.688C271.454 67.8531 271.343 68.0103 271.22 68.1584C270.454 69.1354 269.373 69.8194 268.16 70.0952C267.261 70.3011 266.324 70.2772 265.436 70.0256C264.548 69.7741 263.738 69.3032 263.082 68.6564C262.697 68.2894 262.371 67.8646 262.118 67.3975C261.846 66.9115 261.652 66.3865 261.542 65.8412C261.306 64.687 261.448 63.4877 261.947 62.4203C262.447 61.3529 263.278 60.4739 264.317 59.9132C264.801 59.6403 265.325 59.4464 265.871 59.3391C266.393 59.2269 266.929 59.1966 267.46 59.2491C268.444 59.3349 269.388 59.6811 270.193 60.2521C270.891 60.7493 271.461 61.4033 271.858 62.1612C272.438 63.2585 272.619 64.522 272.371 65.7374C272.34 65.9258 272.291 66.111 272.226 66.2908C272.19 66.429 272.142 66.5633 272.08 66.692C272.028 66.8025 271.968 66.9088 271.9 67.0102V67.0102Z" fill="#263238"/>
<path d="M261.556 63.5931C261.048 63.3049 260.48 63.1392 259.897 63.1092C259.314 63.0791 258.732 63.1857 258.198 63.4202C258.198 63.4202 258.337 63.2611 258.642 63.1228C259.04 62.9471 259.475 62.8675 259.91 62.8903C260.345 62.9131 260.768 63.0378 261.146 63.2542C261.438 63.3925 261.576 63.5447 261.556 63.5931Z" fill="#263238"/>
<path d="M277.38 68.0753C276.498 67.7465 275.644 67.3463 274.827 66.8787C273.973 66.4823 273.152 66.0197 272.371 65.4952C273.252 65.8276 274.105 66.2276 274.924 66.6919C275.775 67.0934 276.596 67.5557 277.38 68.0753V68.0753Z" fill="#263238"/>
</g>
<g clip-path="url(#clip2_106_4845)">
<path d="M252.378 180.02C250.694 184.151 247.819 187.691 244.116 190.193C240.414 192.694 236.05 194.044 231.577 194.072C227.105 194.099 222.725 192.803 218.991 190.347C215.258 187.892 212.339 184.387 210.604 180.277C208.87 176.166 208.397 171.635 209.246 167.257C210.095 162.879 212.228 158.85 215.375 155.681C218.522 152.512 222.541 150.345 226.923 149.454C231.305 148.563 235.854 148.989 239.994 150.677C245.538 152.932 249.957 157.29 252.279 162.792C254.601 168.294 254.637 174.491 252.378 180.02V180.02Z" fill="#FFC727"/>
<path d="M247.396 178.014C246.113 181.162 243.922 183.86 241.099 185.766C238.277 187.673 234.951 188.701 231.543 188.722C228.134 188.742 224.796 187.754 221.951 185.882C219.106 184.011 216.881 181.339 215.56 178.206C214.238 175.074 213.878 171.62 214.526 168.284C215.173 164.947 216.799 161.877 219.198 159.462C221.596 157.047 224.659 155.396 227.999 154.717C231.34 154.039 234.806 154.364 237.961 155.651C240.054 156.501 241.957 157.754 243.564 159.339C245.17 160.923 246.448 162.807 247.324 164.884C248.201 166.96 248.658 169.189 248.67 171.441C248.683 173.694 248.25 175.928 247.396 178.014V178.014Z" fill="#FFC727"/>
<path d="M247.396 178.014C247.415 177.922 247.44 177.832 247.473 177.744L247.729 176.969L247.917 176.402C247.979 176.188 248.028 175.952 248.083 175.71C248.243 175.13 248.356 174.538 248.423 173.94C248.653 172.307 248.634 170.649 248.368 169.021C247.762 165.111 245.811 161.532 242.849 158.898C239.888 156.264 236.099 154.74 232.134 154.585C231.326 154.549 230.517 154.567 229.712 154.641C229.303 154.689 228.901 154.765 228.491 154.827C228.078 154.884 227.67 154.972 227.27 155.09C226.45 155.301 225.644 155.562 224.856 155.872C224.067 156.216 223.302 156.614 222.567 157.062C221.045 157.971 219.682 159.121 218.529 160.465C216.129 163.24 214.701 166.72 214.463 170.377C214.341 172.141 214.503 173.914 214.942 175.627C215.342 177.288 216.007 178.874 216.912 180.324C217.747 181.733 218.798 183.003 220.027 184.087C222.968 186.742 226.742 188.297 230.704 188.488C234.667 188.678 238.573 187.492 241.756 185.131C243.081 184.16 244.251 182.994 245.225 181.673C245.596 181.2 245.932 180.7 246.231 180.179C246.37 179.951 246.501 179.75 246.605 179.556C246.71 179.363 246.793 179.183 246.869 179.017L247.237 178.29C247.275 178.204 247.319 178.121 247.369 178.041C247.345 178.132 247.312 178.22 247.271 178.304L246.938 179.051L246.689 179.598C246.585 179.798 246.453 180.006 246.328 180.234C246.033 180.764 245.702 181.272 245.336 181.756C244.37 183.11 243.2 184.307 241.867 185.304C240.103 186.647 238.093 187.631 235.949 188.203C233.345 188.913 230.61 189.003 227.964 188.465C224.924 187.84 222.106 186.419 219.798 184.35C219.185 183.798 218.608 183.206 218.071 182.579C217.536 181.923 217.049 181.23 216.614 180.504C216.166 179.767 215.765 179.002 215.414 178.214C215.083 177.4 214.809 176.563 214.595 175.71C214.139 173.964 213.971 172.156 214.096 170.356C214.235 168.504 214.654 166.683 215.338 164.954C216.068 163.244 217.05 161.651 218.251 160.23C219.43 158.864 220.821 157.696 222.372 156.771C223.126 156.318 223.91 155.916 224.717 155.568C225.519 155.247 226.342 154.981 227.18 154.772C227.587 154.651 228.002 154.561 228.422 154.502C228.838 154.447 229.254 154.364 229.671 154.323C233.599 153.96 237.537 154.915 240.861 157.034C242.921 158.372 244.672 160.131 245.999 162.194C247.327 164.256 248.2 166.576 248.562 169.001C248.814 170.649 248.814 172.326 248.562 173.974C248.481 174.575 248.355 175.169 248.187 175.752C248.125 176.008 248.069 176.243 248.007 176.444L247.799 177.011C247.674 177.329 247.577 177.585 247.507 177.772C247.478 177.856 247.441 177.937 247.396 178.014V178.014Z" fill="#263238"/>
<g opacity="0.3">
<path d="M247.209 178.104C247.105 178.069 247.327 177.343 247.57 176.028C247.914 174.173 247.965 172.276 247.723 170.405C247.558 169.129 247.256 167.874 246.821 166.663C246.313 165.285 245.63 163.979 244.788 162.775C243.862 161.45 242.747 160.266 241.479 159.261C240.809 158.732 240.1 158.256 239.356 157.836C237.825 156.97 236.164 156.354 234.437 156.01C233.6 155.841 232.751 155.739 231.898 155.706C231.074 155.665 230.248 155.69 229.428 155.782C228.64 155.862 227.858 156 227.09 156.197C225.662 156.559 224.286 157.103 222.997 157.816C221.872 158.448 220.818 159.2 219.854 160.057C218.454 161.32 217.256 162.79 216.302 164.415C215.608 165.57 215.31 166.261 215.213 166.227C215.116 166.192 215.289 165.445 215.851 164.152C216.668 162.358 217.811 160.73 219.223 159.351C220.2 158.392 221.288 157.552 222.463 156.847C223.817 156.041 225.273 155.42 226.792 155C227.613 154.774 228.45 154.61 229.296 154.509C230.177 154.397 231.066 154.357 231.954 154.392C232.886 154.419 233.814 154.523 234.729 154.703C235.659 154.886 236.573 155.143 237.462 155.471C238.348 155.804 239.206 156.207 240.029 156.674C240.83 157.129 241.594 157.647 242.311 158.224C243 158.782 243.645 159.393 244.24 160.05C244.815 160.68 245.341 161.353 245.815 162.063C247.454 164.514 248.438 167.343 248.673 170.28C248.833 172.244 248.628 174.221 248.07 176.111C247.66 177.467 247.279 178.131 247.209 178.104Z" fill="black"/>
</g>
<g opacity="0.3">
<path d="M229.372 181.701L228.276 184.467L225.779 183.492L226.847 180.781C224.44 179.667 222.372 177.965 221.422 176.361L223.982 173.863C225.028 175.422 226.462 176.683 228.144 177.523L229.775 173.372C227.27 171.615 224.544 169.485 225.938 165.929C226.979 163.294 229.789 161.779 233.903 162.879L234.992 160.112L237.483 161.088L236.421 163.799C238.165 164.594 239.694 165.791 240.882 167.292L238.433 169.865C237.526 168.732 236.401 167.791 235.124 167.098L233.466 171.325C235.977 173.054 238.655 175.164 237.281 178.671C236.248 181.265 233.473 182.759 229.372 181.701ZM231.204 169.734L232.591 166.206C231.148 165.985 230.344 166.504 230.018 167.32C229.692 168.136 230.24 168.959 231.204 169.713V169.734ZM233.153 177.405C233.493 176.533 232.959 175.779 232.03 174.984L230.684 178.443C232.016 178.636 232.82 178.2 233.153 177.405Z" fill="black"/>
</g>
<path d="M316.35 208.228H272.948V216.086H316.35V208.228Z" fill="#FFC727"/>
<path d="M277.201 216.141C276.96 213.548 276.96 210.938 277.201 208.345C277.441 210.938 277.441 213.548 277.201 216.141V216.141Z" fill="#263238"/>
<path d="M274.829 216.141C274.588 213.548 274.588 210.938 274.829 208.345C275.069 210.938 275.069 213.548 274.829 216.141V216.141Z" fill="#263238"/>
<path d="M282.411 216.141C282.17 213.548 282.17 210.938 282.411 208.345C282.651 210.938 282.651 213.548 282.411 216.141V216.141Z" fill="#263238"/>
<path d="M280.039 216.141C279.798 213.548 279.798 210.938 280.039 208.345C280.279 210.938 280.279 213.548 280.039 216.141V216.141Z" fill="#263238"/>
<path d="M287.629 216.141C287.388 213.548 287.388 210.938 287.629 208.345C287.869 210.938 287.869 213.548 287.629 216.141V216.141Z" fill="#263238"/>
<path d="M285.256 216.141C285.015 213.548 285.015 210.938 285.256 208.345C285.496 210.938 285.496 213.548 285.256 216.141V216.141Z" fill="#263238"/>
<path d="M292.818 216.141C292.578 213.548 292.578 210.938 292.818 208.345C293.059 210.938 293.059 213.548 292.818 216.141V216.141Z" fill="#263238"/>
<path d="M290.466 216.141C290.225 213.548 290.225 210.938 290.466 208.345C290.715 210.938 290.715 213.548 290.466 216.141Z" fill="#263238"/>
<path d="M316.343 208.228C316.343 208.331 306.561 208.408 294.496 208.408C282.432 208.408 272.643 208.331 272.643 208.228C272.643 208.124 282.425 208.048 294.496 208.048C306.568 208.048 316.343 208.131 316.343 208.228Z" fill="#263238"/>
<path d="M312.951 216.023H269.549V223.881H312.951V216.023Z" fill="#FFC727"/>
<path d="M273.795 223.936C273.554 221.343 273.554 218.734 273.795 216.141C274.035 218.734 274.035 221.343 273.795 223.936V223.936Z" fill="#263238"/>
<path d="M271.422 223.936C271.181 221.343 271.181 218.734 271.422 216.141C271.662 218.734 271.662 221.343 271.422 223.936V223.936Z" fill="#263238"/>
<path d="M279.011 223.936C278.771 221.343 278.771 218.734 279.011 216.141C279.252 218.734 279.252 221.343 279.011 223.936V223.936Z" fill="#263238"/>
<path d="M276.639 223.936C276.399 221.343 276.399 218.734 276.639 216.141C276.88 218.734 276.88 221.343 276.639 223.936V223.936Z" fill="#263238"/>
<path d="M284.229 223.936C283.989 221.343 283.989 218.734 284.229 216.141C284.47 218.734 284.47 221.343 284.229 223.936V223.936Z" fill="#263238"/>
<path d="M281.849 223.936C281.609 221.343 281.609 218.734 281.849 216.141C282.09 218.734 282.09 221.343 281.849 223.936V223.936Z" fill="#263238"/>
<path d="M289.439 223.936C289.199 221.343 289.199 218.734 289.439 216.141C289.68 218.734 289.68 221.343 289.439 223.936V223.936Z" fill="#263238"/>
<path d="M287.066 223.936C286.826 221.343 286.826 218.734 287.066 216.141C287.307 218.734 287.307 221.343 287.066 223.936V223.936Z" fill="#263238"/>
<path d="M292.284 223.936C292.043 221.343 292.043 218.734 292.284 216.141C292.524 218.734 292.524 221.343 292.284 223.936V223.936Z" fill="#263238"/>
<path d="M312.937 216.058C312.937 216.162 303.176 216.238 291.139 216.238C279.102 216.238 269.334 216.162 269.334 216.058C269.334 215.954 279.095 215.878 291.139 215.878C303.183 215.878 312.937 215.926 312.937 216.058Z" fill="#263238"/>
<path d="M310.162 223.937H266.76V231.794H310.162V223.937Z" fill="#FFC727"/>
<path d="M271.006 231.85C270.765 229.257 270.765 226.647 271.006 224.054C271.246 226.647 271.246 229.257 271.006 231.85V231.85Z" fill="#263238"/>
<path d="M268.633 231.85C268.392 229.257 268.392 226.647 268.633 224.054C268.873 226.647 268.873 229.257 268.633 231.85V231.85Z" fill="#263238"/>
<path d="M276.222 231.85C275.982 229.257 275.982 226.647 276.222 224.054C276.463 226.647 276.463 229.257 276.222 231.85V231.85Z" fill="#263238"/>
<path d="M273.85 231.85C273.61 229.257 273.61 226.647 273.85 224.054C274.091 226.647 274.091 229.257 273.85 231.85V231.85Z" fill="#263238"/>
<path d="M281.44 231.85C281.2 229.257 281.2 226.647 281.44 224.054C281.681 226.647 281.681 229.257 281.44 231.85V231.85Z" fill="#263238"/>
<path d="M279.067 231.85C278.827 229.257 278.827 226.647 279.067 224.054C279.308 226.647 279.308 229.257 279.067 231.85V231.85Z" fill="#263238"/>
<path d="M286.65 231.85C286.41 229.257 286.41 226.647 286.65 224.054C286.891 226.647 286.891 229.257 286.65 231.85V231.85Z" fill="#263238"/>
<path d="M284.277 231.85C284.037 229.257 284.037 226.647 284.277 224.054C284.518 226.647 284.518 229.257 284.277 231.85V231.85Z" fill="#263238"/>
<path d="M291.867 231.85C291.626 229.257 291.626 226.647 291.867 224.054C292.107 226.647 292.107 229.257 291.867 231.85V231.85Z" fill="#263238"/>
<path d="M289.495 231.85C289.254 229.257 289.254 226.647 289.495 224.054C289.735 226.647 289.735 229.257 289.495 231.85V231.85Z" fill="#263238"/>
<path d="M310.162 223.937C310.162 224.04 300.4 224.116 288.364 224.116C276.327 224.116 266.559 224.04 266.559 223.937C266.559 223.833 276.32 223.757 288.364 223.757C300.407 223.757 310.162 223.84 310.162 223.937Z" fill="#263238"/>
<g opacity="0.3">
<path d="M275.474 216.106C282.044 217.602 288.805 218.092 295.523 217.559C302.184 217.116 308.906 216.141 315.58 216.224L275.474 216.106Z" fill="black"/>
</g>
<g opacity="0.3">
<path d="M267.287 224.04C273.858 225.536 280.618 226.026 287.337 225.493C293.997 225.05 300.72 224.075 307.394 224.158L267.287 224.04Z" fill="black"/>
</g>
<path d="M273.905 208.878C274.208 208.878 274.454 208.797 274.454 208.698C274.454 208.599 274.208 208.518 273.905 208.518C273.603 208.518 273.357 208.599 273.357 208.698C273.357 208.797 273.603 208.878 273.905 208.878Z" fill="white"/>
<path d="M280.475 208.719C278.824 208.959 277.146 208.959 275.494 208.719C277.146 208.479 278.824 208.479 280.475 208.719Z" fill="white"/>
<path d="M287.365 208.719C285.713 208.959 284.035 208.959 282.384 208.719C284.035 208.479 285.713 208.479 287.365 208.719Z" fill="white"/>
<path d="M252.448 192.457H209.046V200.314H252.448V192.457Z" fill="#FFC727"/>
<path d="M213.292 200.37C213.051 197.777 213.051 195.167 213.292 192.574C213.532 195.167 213.532 197.777 213.292 200.37V200.37Z" fill="#263238"/>
<path d="M210.954 200.37C210.713 197.777 210.713 195.167 210.954 192.574C211.194 195.167 211.194 197.777 210.954 200.37V200.37Z" fill="#263238"/>
<path d="M218.509 200.37C218.268 197.777 218.268 195.167 218.509 192.574C218.749 195.167 218.749 197.777 218.509 200.37V200.37Z" fill="#263238"/>
<path d="M216.136 200.37C215.896 197.777 215.896 195.167 216.136 192.574C216.377 195.167 216.377 197.777 216.136 200.37V200.37Z" fill="#263238"/>
<path d="M223.726 200.37C223.486 197.777 223.486 195.167 223.726 192.574C223.967 195.167 223.967 197.777 223.726 200.37V200.37Z" fill="#263238"/>
<path d="M221.36 200.37C221.12 197.777 221.12 195.167 221.36 192.574C221.601 195.167 221.601 197.777 221.36 200.37V200.37Z" fill="#263238"/>
<path d="M228.936 200.37C228.696 197.777 228.696 195.167 228.936 192.574C229.177 195.167 229.177 197.777 228.936 200.37V200.37Z" fill="#263238"/>
<path d="M226.563 200.37C226.323 197.777 226.323 195.167 226.563 192.574C226.804 195.167 226.804 197.777 226.563 200.37V200.37Z" fill="#263238"/>
<path d="M234.153 200.37C233.913 197.777 233.913 195.167 234.153 192.574C234.394 195.167 234.394 197.777 234.153 200.37V200.37Z" fill="#263238"/>
<path d="M231.766 200.37C231.526 197.777 231.526 195.167 231.766 192.574C232.007 195.167 232.007 197.777 231.766 200.37V200.37Z" fill="#263238"/>
<path d="M239.398 200.37C239.158 197.777 239.158 195.167 239.398 192.574C239.639 195.167 239.639 197.777 239.398 200.37V200.37Z" fill="#263238"/>
<path d="M236.991 200.37C236.75 197.777 236.75 195.167 236.991 192.574C237.241 195.167 237.241 197.777 236.991 200.37V200.37Z" fill="#263238"/>
<path d="M244.581 200.37C244.34 197.777 244.34 195.167 244.581 192.574C244.821 195.167 244.821 197.777 244.581 200.37V200.37Z" fill="#263238"/>
<path d="M242.208 200.37C241.967 197.777 241.967 195.167 242.208 192.574C242.448 195.167 242.448 197.777 242.208 200.37V200.37Z" fill="#263238"/>
<path d="M249.804 200.37C249.564 197.777 249.564 195.167 249.804 192.574C250.045 195.167 250.045 197.777 249.804 200.37V200.37Z" fill="#263238"/>
<path d="M247.425 200.37C247.184 197.777 247.184 195.167 247.425 192.574C247.665 195.167 247.665 197.777 247.425 200.37V200.37Z" fill="#263238"/>
<path d="M252.44 192.457C252.44 192.56 242.679 192.636 230.642 192.636C218.606 192.636 208.872 192.54 208.872 192.457C208.872 192.374 218.633 192.277 230.677 192.277C242.721 192.277 252.44 192.36 252.44 192.457Z" fill="#263238"/>
<path d="M249.603 200.439H206.201V208.297H249.603V200.439Z" fill="#FFC727"/>
<path d="M210.454 208.352C210.213 205.759 210.213 203.15 210.454 200.557C210.694 203.15 210.694 205.759 210.454 208.352V208.352Z" fill="#263238"/>
<path d="M208.082 208.352C207.841 205.759 207.841 203.15 208.082 200.557C208.322 203.15 208.322 205.759 208.082 208.352V208.352Z" fill="#263238"/>
<path d="M215.671 208.352C215.43 205.759 215.43 203.15 215.671 200.557C215.911 203.15 215.911 205.759 215.671 208.352V208.352Z" fill="#263238"/>
<path d="M213.292 208.352C213.051 205.759 213.051 203.15 213.292 200.557C213.532 203.15 213.532 205.759 213.292 208.352V208.352Z" fill="#263238"/>
<path d="M220.882 208.352C220.641 205.759 220.641 203.15 220.882 200.557C221.122 203.15 221.122 205.759 220.882 208.352V208.352Z" fill="#263238"/>
<path d="M218.509 208.352C218.268 205.759 218.268 203.15 218.509 200.557C218.749 203.15 218.749 205.759 218.509 208.352V208.352Z" fill="#263238"/>
<path d="M226.098 208.352C225.858 205.759 225.858 203.15 226.098 200.557C226.339 203.15 226.339 205.759 226.098 208.352V208.352Z" fill="#263238"/>
<path d="M223.725 208.352C223.485 205.759 223.485 203.15 223.725 200.557C223.966 203.15 223.966 205.759 223.725 208.352V208.352Z" fill="#263238"/>
<path d="M231.315 208.352C231.065 205.76 231.065 203.149 231.315 200.557C231.556 203.15 231.556 205.759 231.315 208.352V208.352Z" fill="#263238"/>
<path d="M228.936 208.352C228.696 205.759 228.696 203.15 228.936 200.557C229.177 203.15 229.177 205.759 228.936 208.352V208.352Z" fill="#263238"/>
<path d="M236.525 208.352C236.285 205.759 236.285 203.15 236.525 200.557C236.766 203.15 236.766 205.759 236.525 208.352V208.352Z" fill="#263238"/>
<path d="M234.153 208.352C233.913 205.759 233.913 203.15 234.153 200.557C234.394 203.15 234.394 205.759 234.153 208.352V208.352Z" fill="#263238"/>
<path d="M241.743 208.352C241.502 205.759 241.502 203.15 241.743 200.557C241.983 203.15 241.983 205.759 241.743 208.352V208.352Z" fill="#263238"/>
<path d="M239.398 208.352C239.158 205.759 239.158 203.15 239.398 200.557C239.639 203.15 239.639 205.759 239.398 208.352V208.352Z" fill="#263238"/>
<path d="M246.953 208.352C246.712 205.759 246.712 203.15 246.953 200.557C247.193 203.15 247.193 205.759 246.953 208.352V208.352Z" fill="#263238"/>
<path d="M244.58 208.352C244.339 205.759 244.339 203.15 244.58 200.557C244.82 203.15 244.82 205.759 244.58 208.352V208.352Z" fill="#263238"/>
<path d="M249.603 200.439C249.603 200.543 239.842 200.619 227.798 200.619C215.754 200.619 206 200.543 206 200.439C206 200.335 215.761 200.259 227.798 200.259C239.835 200.259 249.603 200.342 249.603 200.439Z" fill="#263238"/>
<path d="M253.156 208.352H209.754V216.21H253.156V208.352Z" fill="#FFC727"/>
<path d="M214 216.265C213.759 213.672 213.759 211.063 214 208.47C214.24 211.063 214.24 213.672 214 216.265V216.265Z" fill="#263238"/>
<path d="M211.648 216.265C211.406 213.665 211.406 211.049 211.648 208.449C211.889 211.042 211.889 213.652 211.648 216.245V216.265Z" fill="#263238"/>
<path d="M219.217 216.265C218.976 213.672 218.976 211.063 219.217 208.47C219.457 211.063 219.457 213.672 219.217 216.265V216.265Z" fill="#263238"/>
<path d="M216.844 216.265C216.604 213.672 216.604 211.063 216.844 208.47C217.085 211.063 217.085 213.672 216.844 216.265V216.265Z" fill="#263238"/>
<path d="M224.427 216.265C224.187 213.672 224.187 211.063 224.427 208.47C224.668 211.063 224.668 213.672 224.427 216.265V216.265Z" fill="#263238"/>
<path d="M222.054 216.265C221.813 213.665 221.813 211.049 222.054 208.449C222.295 211.042 222.295 213.652 222.054 216.245V216.265Z" fill="#263238"/>
<path d="M229.644 216.265C229.404 213.672 229.404 211.063 229.644 208.47C229.885 211.063 229.885 213.672 229.644 216.265V216.265Z" fill="#263238"/>
<path d="M227.271 216.265C227.031 213.672 227.031 211.063 227.271 208.47C227.512 211.063 227.512 213.672 227.271 216.265V216.265Z" fill="#263238"/>
<path d="M234.861 216.265C234.621 213.672 234.621 211.063 234.861 208.47C235.102 211.063 235.102 213.672 234.861 216.265V216.265Z" fill="#263238"/>
<path d="M232.461 216.265C232.219 213.665 232.219 211.049 232.461 208.449C232.701 211.042 232.701 213.652 232.461 216.245V216.265Z" fill="#263238"/>
<path d="M240.092 216.265C239.851 213.665 239.851 211.049 240.092 208.449C240.333 211.042 240.333 213.652 240.092 216.245V216.265Z" fill="#263238"/>
<path d="M237.699 216.265C237.458 213.672 237.458 211.063 237.699 208.47C237.939 211.063 237.939 213.672 237.699 216.265V216.265Z" fill="#263238"/>
<path d="M245.289 216.265C245.048 213.672 245.048 211.063 245.289 208.47C245.529 211.063 245.529 213.672 245.289 216.265V216.265Z" fill="#263238"/>
<path d="M242.916 216.265C242.675 213.672 242.675 211.063 242.916 208.47C243.156 211.063 243.156 213.672 242.916 216.265V216.265Z" fill="#263238"/>
<path d="M250.499 216.265C250.257 213.665 250.257 211.049 250.499 208.449C250.739 211.042 250.739 213.652 250.499 216.245V216.265Z" fill="#263238"/>
<path d="M248.126 216.265C247.885 213.672 247.885 211.063 248.126 208.47C248.375 211.062 248.375 213.673 248.126 216.265V216.265Z" fill="#263238"/>
<path d="M253.149 208.352C253.149 208.456 243.36 208.532 231.295 208.532C219.23 208.532 209.441 208.456 209.441 208.352C209.441 208.248 219.223 208.172 231.295 208.172C243.366 208.172 253.149 208.255 253.149 208.352Z" fill="#263238"/>
<path d="M249.749 216.148H206.347V224.006H249.749V216.148Z" fill="#FFC727"/>
<path d="M210.599 224.061C210.359 221.468 210.359 218.858 210.599 216.265C210.84 218.858 210.84 221.468 210.599 224.061Z" fill="#263238"/>
<path d="M208.227 224.061C207.987 221.468 207.987 218.858 208.227 216.265C208.468 218.858 208.468 221.468 208.227 224.061Z" fill="#263238"/>
<path d="M215.809 224.061C215.569 221.468 215.569 218.858 215.809 216.265C216.05 218.858 216.05 221.468 215.809 224.061Z" fill="#263238"/>
<path d="M213.437 224.061C213.197 221.468 213.197 218.858 213.437 216.265C213.678 218.858 213.678 221.468 213.437 224.061Z" fill="#263238"/>
<path d="M221.027 224.061C220.787 221.468 220.787 218.858 221.027 216.265C221.268 218.858 221.268 221.468 221.027 224.061V224.061Z" fill="#263238"/>
<path d="M218.654 224.061C218.414 221.468 218.414 218.858 218.654 216.265C218.895 218.858 218.895 221.468 218.654 224.061Z" fill="#263238"/>
<path d="M226.217 224.061C225.976 221.468 225.976 218.858 226.217 216.265C226.457 218.858 226.457 221.468 226.217 224.061Z" fill="#263238"/>
<path d="M223.871 224.061C223.63 221.468 223.63 218.858 223.871 216.265C224.111 218.858 224.111 221.468 223.871 224.061Z" fill="#263238"/>
<path d="M231.454 224.061C231.213 221.468 231.213 218.858 231.454 216.265C231.694 218.858 231.694 221.468 231.454 224.061Z" fill="#263238"/>
<path d="M229.082 224.061C228.841 221.468 228.841 218.858 229.082 216.265C229.322 218.858 229.322 221.468 229.082 224.061Z" fill="#263238"/>
<path d="M236.671 224.061C236.43 221.468 236.43 218.858 236.671 216.265C236.911 218.858 236.911 221.468 236.671 224.061Z" fill="#263238"/>
<path d="M234.299 224.061C234.058 221.468 234.058 218.858 234.299 216.265C234.539 218.858 234.539 221.468 234.299 224.061V224.061Z" fill="#263238"/>
<path d="M241.888 224.061C241.648 221.468 241.648 218.858 241.888 216.265C242.129 218.858 242.129 221.468 241.888 224.061V224.061Z" fill="#263238"/>
<path d="M239.509 224.061C239.268 221.468 239.268 218.858 239.509 216.265C239.758 218.858 239.758 221.468 239.509 224.061V224.061Z" fill="#263238"/>
<path d="M247.098 224.061C246.858 221.468 246.858 218.858 247.098 216.265C247.339 218.858 247.339 221.468 247.098 224.061V224.061Z" fill="#263238"/>
<path d="M244.725 224.061C244.485 221.468 244.485 218.858 244.725 216.265C244.966 218.858 244.966 221.468 244.725 224.061Z" fill="#263238"/>
<path d="M249.742 216.148C249.742 216.245 239.98 216.328 227.944 216.328C215.907 216.328 206.146 216.245 206.146 216.148C206.146 216.051 215.9 215.968 227.944 215.968C239.987 215.968 249.742 216.058 249.742 216.148Z" fill="#263238"/>
<path d="M254.098 224.116H210.696V231.974H254.098V224.116Z" fill="#FFC727"/>
<path d="M214.949 232.029C214.708 229.436 214.708 226.827 214.949 224.234C215.189 226.827 215.189 229.436 214.949 232.029Z" fill="#263238"/>
<path d="M212.577 232.029C212.336 229.436 212.336 226.827 212.577 224.234C212.817 226.827 212.817 229.436 212.577 232.029V232.029Z" fill="#263238"/>
<path d="M220.159 232.029C219.918 229.436 219.918 226.827 220.159 224.234C220.399 226.827 220.399 229.436 220.159 232.029V232.029Z" fill="#263238"/>
<path d="M217.787 232.029C217.546 229.436 217.546 226.827 217.787 224.234C218.027 226.827 218.027 229.436 217.787 232.029Z" fill="#263238"/>
<path d="M225.377 232.029C225.136 229.436 225.136 226.827 225.377 224.234C225.617 226.827 225.617 229.436 225.377 232.029V232.029Z" fill="#263238"/>
<path d="M223.004 232.029C222.763 229.436 222.763 226.827 223.004 224.234C223.244 226.827 223.244 229.436 223.004 232.029Z" fill="#263238"/>
<path d="M230.593 232.029C230.353 229.436 230.353 226.827 230.593 224.234C230.834 226.827 230.834 229.436 230.593 232.029Z" fill="#263238"/>
<path d="M228.214 232.029C227.973 229.436 227.973 226.827 228.214 224.234C228.463 226.826 228.463 229.437 228.214 232.029V232.029Z" fill="#263238"/>
<path d="M235.803 232.029C235.563 229.436 235.563 226.827 235.803 224.234C236.044 226.827 236.044 229.436 235.803 232.029Z" fill="#263238"/>
<path d="M233.431 232.029C233.191 229.436 233.191 226.827 233.431 224.234C233.672 226.827 233.672 229.436 233.431 232.029Z" fill="#263238"/>
<path d="M241.02 232.029C240.78 229.436 240.78 226.827 241.02 224.234C241.261 226.827 241.261 229.436 241.02 232.029V232.029Z" fill="#263238"/>
<path d="M238.648 232.029C238.408 229.436 238.408 226.827 238.648 224.234C238.889 226.827 238.889 229.436 238.648 232.029V232.029Z" fill="#263238"/>
<path d="M246.238 232.029C245.997 229.436 245.997 226.827 246.238 224.234C246.479 226.827 246.479 229.436 246.238 232.029Z" fill="#263238"/>
<path d="M243.858 232.029C243.618 229.436 243.618 226.827 243.858 224.234C244.099 226.827 244.099 229.436 243.858 232.029Z" fill="#263238"/>
<path d="M251.448 232.029C251.207 229.436 251.207 226.827 251.448 224.234C251.688 226.827 251.688 229.436 251.448 232.029Z" fill="#263238"/>
<path d="M249.11 232.029C248.87 229.436 248.87 226.827 249.11 224.234C249.351 226.827 249.351 229.436 249.11 232.029Z" fill="#263238"/>
<path d="M254.091 224.116C254.091 224.22 244.33 224.296 232.293 224.296C220.256 224.296 210.495 224.22 210.495 224.116C210.495 224.013 220.249 223.937 232.293 223.937C244.337 223.937 254.091 224.02 254.091 224.116Z" fill="#263238"/>
<g opacity="0.3">
<path d="M209.746 208.352C216.316 209.852 223.077 210.341 229.796 209.805C236.456 209.369 243.179 208.421 249.853 208.47L209.746 208.352Z" fill="black"/>
</g>
<g opacity="0.3">
<path d="M210.142 200.529C216.709 202.027 223.468 202.519 230.184 201.988C236.845 201.546 243.574 200.57 250.248 200.646L210.142 200.529Z" fill="black"/>
</g>
<g opacity="0.3">
<path d="M212.237 216.224C218.808 217.722 225.568 218.214 232.287 217.683C238.947 217.241 245.67 216.265 252.344 216.341L212.237 216.224Z" fill="black"/>
</g>
<g opacity="0.3">
<path d="M210.537 224.075C217.108 225.568 223.868 226.057 230.587 225.527C237.247 225.085 243.97 224.109 250.644 224.186L210.537 224.075Z" fill="black"/>
</g>
<path d="M209.837 197.831C209.596 196.407 209.596 194.953 209.837 193.529C210.077 194.953 210.077 196.407 209.837 197.831Z" fill="white"/>
<path d="M207.103 206.229C206.863 204.7 206.863 203.143 207.103 201.615C207.344 203.143 207.344 204.7 207.103 206.229Z" fill="white"/>
<path d="M210.995 214.308C210.754 212.956 210.754 211.572 210.995 210.22C211.235 211.572 211.235 212.956 210.995 214.308V214.308Z" fill="white"/>
<path d="M206.999 221.764C206.749 220.553 206.749 219.303 206.999 218.091C207.239 219.304 207.239 220.552 206.999 221.764V221.764Z" fill="white"/>
<path d="M222.894 201.089C222.894 201.186 219.688 201.269 215.734 201.269C211.779 201.269 208.574 201.186 208.574 201.089C210.956 200.907 213.346 200.847 215.734 200.909C218.122 200.847 220.512 200.907 222.894 201.089V201.089Z" fill="white"/>
<path d="M227.521 193.529C225.123 193.711 222.717 193.771 220.313 193.709C217.908 193.771 215.503 193.711 213.104 193.529C213.104 193.432 216.33 193.349 220.313 193.349C224.295 193.349 227.521 193.432 227.521 193.529Z" fill="white"/>
<path d="M234.465 193.639C232.897 193.879 231.301 193.879 229.733 193.639C231.301 193.4 232.897 193.4 234.465 193.639Z" fill="white"/>
</g>
</g>
<defs>
<clipPath id="clip0_106_4845">
<rect width="294" height="231" rx="10" fill="white"/>
</clipPath>
<clipPath id="clip1_106_4845">
<rect width="294" height="231" fill="white"/>
</clipPath>
<clipPath id="clip2_106_4845">
<rect width="137" height="83" fill="white" transform="translate(206 149)"/>
</clipPath>
</defs>
</svg>
