<svg width="511" height="714" viewBox="0 0 511 714" fill="none" xmlns="http://www.w3.org/2000/svg">
<path d="M391.487 -2.35451C382.981 -6.22329 373.555 -7.61754 364.291 -6.37719C355.814 -5.23273 347.763 -1.97106 340.882 3.10606C336.127 6.76991 332.426 11.6241 330.155 17.1769C327.39 24.4587 326.557 32.331 327.738 40.0291C327.817 40.6658 328.023 41.2802 328.344 41.8359C328.665 42.3917 329.094 42.8774 329.606 43.2644C330.123 43.6529 330.711 43.9347 331.338 44.0935C331.965 44.2522 332.617 44.2846 333.256 44.1887L349.999 41.6382C351.155 41.4726 352.213 40.8942 352.975 40.0098C353.738 39.1255 354.154 37.9952 354.146 36.8281C354.146 31.4702 355.86 22.1581 368.369 20.0355C371.515 19.4487 374.765 19.8535 377.669 21.1938C380.574 22.534 382.989 24.7435 384.581 27.516C385.956 29.854 386.76 32.4832 386.926 35.1899C387.093 37.8966 386.618 40.6043 385.54 43.0932C382.199 51.1043 374.179 53.4666 369.689 54.1684C367.21 54.5527 364.983 55.8999 363.494 57.9166C362.005 59.9333 361.373 62.456 361.737 64.9355L364.428 82.9263C364.622 84.1901 365.311 85.3252 366.342 86.0826C367.373 86.84 368.663 87.1577 369.929 86.966L386.243 84.484C386.87 84.392 387.472 84.177 388.015 83.8514C388.558 83.5258 389.032 83.0959 389.407 82.5867C389.783 82.0774 390.055 81.4989 390.206 80.8844C390.357 80.2698 390.384 79.6315 390.287 79.0063L389.722 75.2233C389.713 75.1801 389.718 75.1351 389.736 75.095C389.755 75.0549 389.786 75.0219 389.825 75.0007C395.993 71.7161 401.364 67.117 405.556 61.529C412.548 52.0971 415.118 40.9877 413.199 28.2521C410.406 10.1586 399.85 1.66817 391.487 -2.35451Z" fill="#EBEBEB"/>
<path d="M379.628 90.0815L378.206 90.304C376.581 90.5502 375.021 91.1136 373.614 91.9621C372.207 92.8106 370.982 93.9276 370.007 95.2493C369.032 96.571 368.328 98.0715 367.934 99.6652C367.539 101.259 367.463 102.914 367.71 104.537C367.956 106.16 368.52 107.719 369.37 109.124C370.219 110.53 371.337 111.754 372.661 112.728C373.984 113.701 375.486 114.405 377.081 114.799C378.677 115.192 380.334 115.268 381.959 115.022L383.399 114.817C386.625 114.254 389.502 112.451 391.414 109.795C393.326 107.139 394.12 103.841 393.627 100.607C393.134 97.3727 391.393 94.46 388.777 92.4927C386.16 90.5254 382.876 89.6598 379.628 90.0815Z" fill="#EBEBEB"/>
<path d="M55.404 288.271C51.0816 283.036 45.3762 279.116 38.9356 276.956C33.0291 274.992 26.7203 274.556 20.5993 275.69C16.3411 276.555 12.3866 278.527 9.13489 281.407C4.99473 285.281 1.92544 290.157 0.223812 295.563C0.0592937 296.006 -0.0116738 296.478 0.0153761 296.95C0.042426 297.422 0.166907 297.883 0.380988 298.304C0.595069 298.725 0.894114 299.098 1.25931 299.398C1.62451 299.698 2.04795 299.919 2.50299 300.048L14.2588 303.729C15.0637 303.999 15.9407 303.962 16.7196 303.623C17.4985 303.285 18.1238 302.67 18.4744 301.897C20.1881 298.388 24.3009 292.859 33.1434 295.478C35.3871 296.096 37.382 297.398 38.8502 299.202C40.3184 301.006 41.1869 303.223 41.3347 305.543C41.4851 307.511 41.1694 309.486 40.4132 311.309C39.657 313.132 38.4815 314.751 36.982 316.036C32.2351 320.213 26.2373 319.186 23.0842 318.21C21.3503 317.675 19.4745 317.848 17.8683 318.692C16.262 319.536 15.0564 320.982 14.5158 322.712L10.5401 335.345C10.3897 335.784 10.3301 336.249 10.3651 336.712C10.4001 337.174 10.5289 337.625 10.7437 338.037C10.9584 338.448 11.2547 338.812 11.6144 339.105C11.9742 339.399 12.3899 339.616 12.8364 339.744L24.3009 343.339C25.1917 343.608 26.1526 343.516 26.9764 343.084C27.8003 342.652 28.4211 341.913 28.705 341.028L29.5276 338.375C29.5407 338.345 29.5622 338.319 29.5896 338.301C29.6169 338.283 29.6489 338.273 29.6818 338.272C34.7449 338.077 39.7042 336.78 44.2137 334.472C48.0007 332.492 51.3422 329.759 54.0328 326.442C56.7235 323.124 58.7063 319.292 59.8595 315.18C63.7838 302.462 59.6024 293.526 55.404 288.271Z" fill="#EBEBEB"/>
<path d="M18.0644 344.88L17.0705 344.572C15.9295 344.214 14.7293 344.085 13.5382 344.191C12.3472 344.297 11.1887 344.636 10.1289 345.189C9.06909 345.742 8.12874 346.498 7.36153 347.415C6.59432 348.331 6.01528 349.389 5.65747 350.529C5.29965 351.668 5.17007 352.867 5.27612 354.057C5.38216 355.247 5.72176 356.404 6.27553 357.463C6.8293 358.521 7.58639 359.46 8.50357 360.227C9.42076 360.993 10.4801 361.572 11.621 361.929L12.615 362.237C14.9192 362.959 17.4162 362.737 19.5566 361.62C21.6969 360.503 23.3054 358.582 24.028 356.28C24.7506 353.978 24.5283 351.484 23.4099 349.346C22.2915 347.208 20.3687 345.602 18.0644 344.88Z" fill="#EBEBEB"/>
<path d="M226.788 418.144C219.631 412.952 211.158 409.873 202.334 409.26C194.262 408.714 186.181 410.21 178.84 413.607C173.766 416.1 169.436 419.877 166.279 424.563C162.335 430.791 160.068 437.932 159.698 445.292C159.649 445.901 159.724 446.513 159.917 447.092C160.11 447.67 160.419 448.204 160.823 448.662C161.228 449.119 161.721 449.489 162.273 449.752C162.824 450.014 163.423 450.162 164.034 450.188L180.039 450.993C181.136 451.046 182.216 450.704 183.081 450.028C183.946 449.353 184.539 448.389 184.752 447.312C185.712 442.331 189.122 434.029 201.1 434.44C204.131 434.481 207.072 435.467 209.515 437.259C211.957 439.051 213.778 441.561 214.724 444.437C215.555 446.863 215.801 449.452 215.444 451.991C215.087 454.531 214.136 456.951 212.668 459.055C208.058 465.902 200.158 466.536 195.874 466.33C193.505 466.223 191.189 467.052 189.428 468.638C187.667 470.224 186.603 472.439 186.466 474.804L185.609 492.007C185.548 493.214 185.968 494.396 186.778 495.294C187.587 496.192 188.719 496.734 189.927 496.8L205.539 497.57C206.745 497.631 207.927 497.21 208.823 496.402C209.72 495.593 210.258 494.462 210.32 493.256L210.508 489.628C210.508 489.587 210.521 489.548 210.546 489.517C210.571 489.486 210.606 489.464 210.646 489.456C216.986 487.566 222.836 484.312 227.782 479.922C236.042 472.51 240.549 462.616 241.149 450.513C241.971 433.259 233.797 423.382 226.788 418.144Z" fill="#EBEBEB"/>
<path d="M198.29 501.593H196.919C193.781 501.436 190.709 502.531 188.379 504.637C186.049 506.743 184.652 509.687 184.495 512.822C184.338 515.957 185.435 519.026 187.543 521.353C189.651 523.68 192.599 525.076 195.737 525.233H197.108C200.246 525.389 203.318 524.294 205.648 522.188C207.978 520.082 209.375 517.138 209.532 514.003C209.689 510.868 208.592 507.8 206.484 505.472C204.376 503.145 201.429 501.75 198.29 501.593Z" fill="#EBEBEB"/>
<path d="M469.053 204.917C491.706 182.289 491.706 145.601 469.053 122.972C446.4 100.344 409.671 100.344 387.018 122.972C364.364 145.601 364.364 182.289 387.018 204.917C409.671 227.546 446.4 227.546 469.053 204.917Z" fill="white"/>
<path d="M486.031 163.959C486.031 163.959 486.031 163.651 486.031 163.035C486.031 162.418 485.945 161.477 485.859 160.279C485.859 159.679 485.859 158.995 485.739 158.259C485.619 157.523 485.499 156.701 485.379 155.828C485.26 154.955 485.088 154.013 484.934 153.021C484.74 151.951 484.483 150.893 484.163 149.854C482.823 144.423 480.661 139.228 477.754 134.448C473.951 128.099 468.959 122.543 463.05 118.083L460.566 116.235C459.692 115.653 458.766 115.122 457.841 114.523C456.934 113.905 455.996 113.334 455.03 112.811L452.031 111.373L450.438 110.825L448.844 110.243L445.588 109.062C444.491 108.686 443.343 108.463 442.161 108.138C441.035 107.808 439.89 107.545 438.733 107.35C436.327 106.913 433.894 106.633 431.45 106.512C430.199 106.512 428.948 106.34 427.68 106.375L423.859 106.563C423.225 106.563 422.573 106.563 421.939 106.683L420.02 106.991C418.735 107.196 417.432 107.35 416.13 107.607C413.526 108.197 410.962 108.952 408.453 109.867C405.872 110.793 403.358 111.897 400.93 113.17C399.713 113.838 398.548 114.591 397.331 115.31C396.749 115.687 396.114 116.012 395.617 116.44L393.904 117.707C391.61 119.413 389.429 121.265 387.375 123.253L384.444 126.488L383.707 127.293L383.039 128.166L381.72 129.877L380.4 131.589L379.235 133.472L378.069 135.389L377.504 136.348L377.007 137.341L375.036 141.466C374.505 142.87 373.991 144.291 373.46 145.728C369.507 157.515 369.507 170.266 373.46 182.052C373.991 183.49 374.505 184.911 375.019 186.332C375.533 187.753 376.339 189.036 376.99 190.389L377.47 191.399L378.052 192.357L379.218 194.257L380.383 196.157L381.703 197.869L383.022 199.581L383.69 200.471L384.427 201.276L387.358 204.494C389.408 206.491 391.589 208.35 393.887 210.057L395.6 211.324C396.166 211.752 396.8 212.077 397.314 212.454C398.531 213.155 399.696 213.926 400.913 214.593C403.344 215.86 405.858 216.963 408.436 217.897C410.942 218.814 413.507 219.563 416.113 220.139C417.415 220.413 418.718 220.567 420.003 220.773L421.922 221.064C422.556 221.149 423.208 221.149 423.859 221.201L427.663 221.389C428.931 221.389 430.182 221.286 431.433 221.252C433.877 221.132 436.309 220.851 438.716 220.413C439.874 220.215 441.019 219.946 442.144 219.609C443.292 219.301 444.44 219.078 445.571 218.702L448.81 217.52L450.421 216.938L451.929 216.219L454.928 214.782C455.939 214.337 456.813 213.686 457.755 213.07C458.698 212.454 459.589 211.991 460.463 211.358L462.965 209.509C468.865 205.038 473.851 199.477 477.651 193.128C480.562 188.349 482.724 183.154 484.06 177.722C484.376 176.681 484.633 175.624 484.831 174.555C484.985 173.545 485.14 172.621 485.277 171.73C485.414 170.84 485.568 170.019 485.637 169.317C485.705 168.615 485.722 167.896 485.756 167.297C485.842 166.099 485.894 165.191 485.928 164.541C485.962 163.89 485.928 163.599 485.928 163.599C485.928 163.599 485.928 163.925 485.928 164.541C485.928 165.157 485.928 166.116 485.825 167.297C485.825 167.913 485.825 168.598 485.825 169.334C485.825 170.07 485.602 170.892 485.482 171.765C485.362 172.638 485.225 173.596 485.071 174.606C484.917 175.616 484.591 176.66 484.351 177.79C483.037 183.253 480.893 188.484 477.994 193.299C474.194 199.713 469.197 205.338 463.273 209.869L460.754 211.752C459.88 212.334 459.04 212.864 458.029 213.464C457.018 214.063 456.196 214.662 455.185 215.175L452.169 216.63L450.626 217.366L449.015 217.965L445.742 219.164C444.628 219.54 443.463 219.78 442.315 220.088C441.158 220.435 439.978 220.704 438.785 220.893C436.352 221.358 433.89 221.65 431.416 221.766C430.148 221.766 428.897 221.937 427.612 221.92L423.756 221.731C423.105 221.731 422.454 221.731 421.802 221.612L419.866 221.321C418.564 221.098 417.244 220.961 415.924 220.687C413.284 220.105 410.685 219.35 408.144 218.428C405.533 217.462 402.99 216.318 400.536 215.004C399.302 214.337 398.119 213.566 396.903 212.847C396.303 212.471 395.669 212.145 395.086 211.7L393.373 210.417C391.037 208.703 388.821 206.833 386.741 204.819C385.764 203.724 384.77 202.645 383.776 201.55L383.022 200.728L382.354 199.838L381.017 198.126L379.68 196.414L378.464 194.702L377.298 192.768L376.699 191.81L376.202 190.782L374.214 186.674C373.7 185.236 373.168 183.798 372.637 182.361C368.616 170.422 368.616 157.496 372.637 145.557L374.231 141.244L376.202 137.135L376.699 136.108L377.298 135.15L378.464 133.215L379.646 131.298L380.983 129.586L382.319 127.875L383.005 126.985L383.742 126.18L386.724 122.91C388.803 120.896 391.012 119.02 393.338 117.296L395.052 116.012C395.635 115.584 396.269 115.259 396.868 114.882C398.085 114.163 399.268 113.393 400.501 112.725C402.956 111.411 405.498 110.267 408.11 109.302C410.651 108.379 413.25 107.624 415.89 107.042C417.21 106.768 418.529 106.614 419.814 106.409L421.768 106.118C422.419 106.118 423.07 106.118 423.722 105.998L427.577 105.81C428.846 105.81 430.114 105.913 431.382 105.964C433.855 106.083 436.316 106.369 438.751 106.82C439.943 107.023 441.121 107.297 442.281 107.641C443.429 107.95 444.594 108.189 445.708 108.566L448.981 109.764L450.592 110.363L452.134 111.099L455.15 112.554C456.161 113.016 457.053 113.667 457.995 114.266C458.938 114.865 459.846 115.379 460.72 115.978L463.239 117.861C469.171 122.382 474.17 128.009 477.959 134.431C480.858 139.246 483.003 144.476 484.317 149.939C484.611 150.988 484.851 152.051 485.037 153.123C485.191 154.133 485.328 155.075 485.448 155.965C485.568 156.855 485.722 157.677 485.791 158.396C485.859 159.115 485.791 159.816 485.791 160.416C485.791 161.557 485.825 162.481 485.894 163.189C486.048 163.719 486.031 163.959 486.031 163.959Z" fill="#263238"/>
<path d="M407.41 154.031H418.429C418.429 154.031 418.429 144.787 428.043 144.633C429.883 144.585 431.693 145.104 433.226 146.121C434.76 147.138 435.942 148.603 436.611 150.316C437.189 151.76 437.419 153.32 437.282 154.869C437.146 156.419 436.645 157.914 435.823 159.234C433.955 162.298 429.859 165.106 422.422 163.805V179.947H433.321V174.076C437.817 172.789 441.763 170.057 444.549 166.303C447.334 162.549 448.802 157.983 448.727 153.312C448.727 137.221 434.28 133.472 428.163 133.472C423.313 133.472 407.205 134.619 407.41 154.031Z" fill="#FF725E"/>
<path d="M433.528 184.141H422.475V194.463H433.528V184.141Z" fill="#FF725E"/>
<path d="M374.081 213.891C374.081 215.642 373.561 217.353 372.588 218.808C371.614 220.263 370.23 221.398 368.611 222.068C366.993 222.737 365.211 222.913 363.493 222.571C361.774 222.23 360.195 221.387 358.956 220.149C357.717 218.912 356.873 217.335 356.532 215.618C356.19 213.901 356.365 212.122 357.036 210.505C357.706 208.888 358.842 207.505 360.299 206.533C361.756 205.561 363.469 205.042 365.221 205.042C367.569 205.046 369.82 205.98 371.481 207.639C373.141 209.297 374.076 211.546 374.081 213.891Z" fill="white"/>
<path d="M374.08 213.891C373.994 213.891 374.08 213.104 373.651 211.769C373.128 209.882 371.988 208.225 370.412 207.061C369.268 206.21 367.928 205.657 366.516 205.454C365.103 205.251 363.662 205.403 362.324 205.897C360.739 206.47 359.365 207.508 358.382 208.876C357.255 210.531 356.743 212.529 356.938 214.522C357.132 216.515 358.02 218.376 359.446 219.783C360.873 221.189 362.748 222.052 364.745 222.22C366.743 222.389 368.736 221.852 370.378 220.704C371.956 219.55 373.098 217.898 373.617 216.014C373.994 214.679 373.96 213.891 374.045 213.891C374.072 214.079 374.072 214.269 374.045 214.456C374.065 215.032 374.008 215.608 373.874 216.168C373.424 218.167 372.291 219.946 370.669 221.201C369.714 221.954 368.617 222.507 367.444 222.83C366.271 223.152 365.044 223.235 363.838 223.076C362.632 222.916 361.47 222.516 360.421 221.9C359.372 221.284 358.457 220.464 357.731 219.489C356.563 217.914 355.932 216.006 355.932 214.045C355.932 212.085 356.563 210.177 357.731 208.602C358.805 207.134 360.299 206.024 362.015 205.418C363.459 204.908 365.007 204.767 366.519 205.009C368.031 205.251 369.458 205.869 370.669 206.805C372.313 208.083 373.449 209.903 373.874 211.94C374.001 212.472 374.059 213.019 374.045 213.566C374.065 213.674 374.076 213.782 374.08 213.891Z" fill="#263238"/>
<path d="M303.29 564.022C284.782 517.804 270.918 485.588 270.918 485.588L101.779 511.265C101.779 511.265 71.3959 589.099 74.0179 624.43C76.6398 659.761 89.0296 722.002 89.0296 722.002H293.676C293.676 722.002 321.78 610.308 303.29 564.022Z" fill="#263238"/>
<path d="M242.244 177.981C243.564 164.63 245.569 151.192 250.47 138.696C255.371 126.2 263.374 114.594 274.701 107.371L277.597 110.058C278.599 107.167 280.371 104.603 282.722 102.642C285.073 100.681 287.915 99.397 290.941 98.9271C293.968 98.4573 297.065 98.8197 299.901 99.9756C302.737 101.131 305.204 103.037 307.038 105.488C310.308 104.608 313.768 104.745 316.958 105.88C320.148 107.015 322.916 109.094 324.893 111.84C326.87 114.587 327.962 117.87 328.023 121.252C328.085 124.634 327.113 127.954 325.237 130.771C328.302 131.151 331.18 132.45 333.49 134.498C335.8 136.546 337.435 139.245 338.177 142.24C338.92 145.234 338.736 148.384 337.649 151.272C336.563 154.16 334.625 156.651 332.092 158.416C335.434 161.345 337.823 165.206 338.95 169.502C340.078 173.799 339.892 178.334 338.418 182.524C336.943 186.714 334.247 190.367 330.677 193.014C327.106 195.661 322.824 197.18 318.382 197.376C319.396 201.258 319.046 205.369 317.392 209.024C315.737 212.679 312.877 215.657 309.289 217.46C305.701 219.263 301.603 219.782 297.679 218.93C293.754 218.079 290.241 215.909 287.725 212.782C288.342 220.776 281.95 228.342 274.153 230.242C266.355 232.142 257.856 228.992 252.166 223.395C246.636 217.499 243.126 210 242.141 201.981C241.18 194.008 241.215 185.946 242.244 177.981Z" fill="#263238"/>
<path d="M278.232 118.805C286.012 121.322 287.605 127.621 289.216 132.859C292.644 144.14 288.788 160.847 282.464 170.826C276.141 180.806 269.201 185.941 257.513 187.653C257.114 169.737 256.731 151.82 256.365 133.903L278.232 118.805Z" fill="#FF725E"/>
<path d="M282.618 149.669C285.17 146.128 286.396 141.805 286.083 137.453C285.769 133.101 283.937 128.998 280.904 125.858C284.332 121.578 283.081 114.988 279.619 110.76C276.157 106.532 271.051 104.101 266.064 101.807C263.339 89.3115 249.287 80.5129 236.829 83.5256C230.334 73.991 216.522 72.5018 205.434 75.7199C202.795 76.683 200.03 77.2595 197.226 77.4317C195.165 77.275 193.116 76.9891 191.091 76.5758C179.815 75.0695 168.642 82.995 164.238 93.4711C163.657 95.1874 162.856 96.8214 161.856 98.3325C160.191 100.041 158.32 101.536 156.286 102.783C154.254 104.374 152.59 106.385 151.407 108.677C150.224 110.97 149.55 113.49 149.432 116.067C149.243 120.432 150.631 125.07 148.798 129.042C147.872 131.045 146.193 132.637 145.473 134.708C143.4 140.716 150.066 146.861 148.9 153.092C148.643 154.359 148.061 155.54 147.718 156.79C146.999 159.371 147.236 162.124 148.386 164.544C149.277 166.393 150.717 168.07 150.837 170.124C150.727 171.669 150.421 173.193 149.929 174.661C149.157 178.392 157.195 192.737 160.416 194.757L256.604 195.613C260.236 194.801 263.525 192.883 266.018 190.123C268.511 187.363 270.084 183.898 270.519 180.207C270.482 178.971 270.791 177.75 271.411 176.681C272.162 175.933 273.061 175.35 274.05 174.969C280.236 171.648 280.904 163.158 280.339 156.139C280.159 155.172 280.159 154.18 280.339 153.212C280.854 151.891 281.629 150.686 282.618 149.669Z" fill="#263238"/>
<path d="M255.062 149.806C255.353 132.791 244.677 113.259 227.763 104.94C217.104 99.7019 208.793 99.6676 203.172 99.0172C195.306 98.2654 187.398 99.9254 180.5 103.776C175.188 105.025 155.755 122.794 154.795 142.085C153.664 163.5 153.081 189.707 155.858 205.644C161.307 237.722 186.001 241.591 186.001 241.591L183.705 294.896L231.105 333.668L245.602 269.818L255.062 149.806Z" fill="#FFBF9D"/>
<path d="M185.967 241.522C201.16 241.579 216.072 237.432 229.049 229.54C229.049 229.54 217.824 252.307 185.607 249.636L185.967 241.522Z" fill="#FF9A6C"/>
<path d="M250.213 180.293C250.213 177.913 252.903 172.23 255.354 171.836C261.66 170.792 273.039 171.169 273.313 187.242C273.69 209.153 252.184 204.257 251.567 204.36C247.985 205.045 250.281 188.56 250.213 180.293Z" fill="#FFBF9D"/>
<path d="M257.376 196.212C257.479 196.212 257.77 196.469 258.421 196.76C259.34 197.126 260.364 197.126 261.283 196.76C263.579 195.87 265.464 192.172 265.499 188.201C265.52 186.322 265.122 184.463 264.333 182.757C264.119 182.077 263.741 181.46 263.233 180.959C262.726 180.458 262.103 180.088 261.42 179.882C260.979 179.772 260.513 179.82 260.103 180.017C259.694 180.214 259.365 180.547 259.175 180.96C258.901 181.576 259.038 182.021 258.935 182.056C258.833 182.09 258.456 181.696 258.61 180.789C258.723 180.244 259.019 179.755 259.449 179.402C260.049 178.939 260.804 178.725 261.557 178.803C262.471 178.975 263.323 179.381 264.032 179.981C264.741 180.581 265.282 181.355 265.602 182.227C266.567 184.105 267.055 186.192 267.024 188.304C267.024 192.72 264.779 196.862 261.626 197.855C261.051 198.022 260.447 198.062 259.856 197.973C259.264 197.885 258.699 197.669 258.198 197.342C257.427 196.76 257.307 196.212 257.376 196.212Z" fill="#FF9A6C"/>
<path d="M150.048 138.816C151.042 130.868 153.667 123.211 157.76 116.323C160.251 111.372 163.605 106.903 167.665 103.126C171.272 100.228 175.255 97.8329 179.506 96.0046C190.491 90.8693 202.743 86.3844 214.602 89.0548C220.96 90.4756 226.701 93.8649 232.27 97.2542C236.632 99.6954 240.703 102.624 244.403 105.984C247.488 109.112 250.145 112.635 252.303 116.46C257.797 125.405 261.141 135.501 262.071 145.954C262.79 156.379 270.639 165.605 264.573 174.079C264.093 174.729 253.194 176.989 252.44 177.28C250.726 177.982 248.721 176.064 248.738 174.164C248.847 173.217 249.145 172.301 249.617 171.472C250.088 170.642 250.722 169.916 251.48 169.337C248.773 169.252 246.905 166.222 247.076 163.517C247.505 160.816 248.693 158.293 250.503 156.242C250.737 155.981 250.897 155.661 250.966 155.318C251.086 154.393 250.041 153.828 249.252 153.349C248.335 152.719 247.572 151.89 247.02 150.924C246.468 149.958 246.142 148.88 246.066 147.771C245.991 146.661 246.167 145.549 246.582 144.517C246.997 143.485 247.641 142.56 248.464 141.812C247.185 141.452 245.991 140.838 244.954 140.008C243.916 139.177 243.057 138.147 242.427 136.977C241.797 135.808 241.409 134.524 241.286 133.202C241.163 131.88 241.308 130.547 241.712 129.282C241.926 128.915 242.065 128.51 242.121 128.09C242.177 127.67 242.149 127.243 242.038 126.834C241.661 126.115 240.753 125.875 239.982 125.653C237.108 124.703 234.674 122.751 233.126 120.154C231.577 117.557 231.018 114.489 231.55 111.513C228.519 111.815 225.46 111.676 222.468 111.102C220.973 110.81 219.558 110.2 218.319 109.314C217.08 108.428 216.047 107.287 215.288 105.967C214.315 107.726 212.91 109.208 211.206 110.275C209.501 111.342 207.553 111.959 205.545 112.067C203.536 112.174 201.533 111.77 199.724 110.892C197.915 110.013 196.359 108.69 195.203 107.046C190.067 107.522 184.892 106.722 180.14 104.718C179.536 107.093 178.344 109.279 176.673 111.073C175.002 112.868 172.906 114.214 170.578 114.988C169.67 115.279 168.624 115.57 168.196 116.409C167.982 116.953 167.911 117.542 167.99 118.121C168.162 121.185 166.071 122.486 164.374 124.968C162.678 127.45 159.748 131.336 156.8 130.497C157.126 135.632 154.349 139.484 149.945 142.291L150.048 138.816Z" fill="#263238"/>
<path d="M145.506 134.793C145.773 133.952 146.166 133.156 146.671 132.431C147.134 131.712 147.785 130.856 148.385 129.761C149.074 128.493 149.483 127.092 149.584 125.652C149.691 123.848 149.639 122.038 149.43 120.243C149.181 118.079 149.222 115.892 149.55 113.738C150.016 111.287 150.978 108.957 152.378 106.891C153.143 105.751 154.04 104.706 155.051 103.776C156.119 102.814 157.265 101.944 158.478 101.174C159.734 100.393 160.852 99.4097 161.786 98.264C162.654 96.9843 163.341 95.5901 163.825 94.1215C166.454 87.6174 171.313 82.2596 177.534 79.0065C179.2 78.1159 180.959 77.4099 182.778 76.901C184.66 76.4257 186.595 76.1898 188.536 76.1992C189.527 76.2173 190.517 76.2858 191.501 76.4046C192.478 76.5587 193.437 76.747 194.414 76.9182C196.347 77.3201 198.342 77.3201 200.275 76.9182C202.228 76.5244 204.148 75.7884 206.17 75.2064C208.201 74.65 210.277 74.2664 212.373 74.0595C214.508 73.8396 216.658 73.7995 218.799 73.9397C220.98 74.0964 223.139 74.475 225.243 75.0694C229.602 76.2466 233.484 78.7541 236.347 82.2418L237.17 83.3202L236.81 83.1833C243.187 81.9086 249.811 83.1211 255.321 86.5719C260.831 90.0227 264.81 95.4498 266.439 101.739L266.251 101.516C268.909 102.681 271.491 104.013 273.98 105.505C276.409 106.952 278.552 108.832 280.303 111.051C281.944 113.249 282.951 115.854 283.216 118.583C283.527 121.23 282.796 123.894 281.177 126.012V125.652C284.145 128.671 285.964 132.631 286.318 136.848C286.719 140.621 285.954 144.426 284.125 147.752C283.701 148.512 283.22 149.238 282.685 149.925C282.171 150.593 281.623 151.226 281.194 151.894C280.765 152.538 280.506 153.28 280.44 154.051C280.4 154.811 280.429 155.573 280.526 156.328C280.792 159.092 280.734 161.878 280.354 164.63C280.077 166.864 279.361 169.023 278.247 170.98C277.405 172.428 276.23 173.655 274.819 174.558C273.688 175.311 272.694 175.619 272.146 176.03C271.859 176.229 271.589 176.452 271.341 176.698C271.543 176.407 271.799 176.157 272.095 175.962C272.643 175.517 273.637 175.191 274.734 174.421C276.075 173.496 277.188 172.278 277.99 170.861C279.048 168.917 279.728 166.791 279.995 164.595C280.335 161.863 280.364 159.101 280.08 156.362C279.982 155.584 279.954 154.799 279.995 154.017C280.067 153.181 280.344 152.376 280.8 151.671C281.268 150.979 281.771 150.31 282.308 149.669C282.814 148.984 283.278 148.27 283.696 147.529C285.451 144.278 286.175 140.57 285.77 136.899C285.412 132.803 283.637 128.959 280.749 126.029L280.56 125.858L280.714 125.67C282.229 123.655 282.911 121.136 282.617 118.634C282.346 116.015 281.368 113.518 279.789 111.41C278.074 109.257 275.984 107.43 273.62 106.018C271.148 104.553 268.59 103.239 265.96 102.081H265.823V101.927C264.215 95.8156 260.335 90.5463 254.973 87.1938C249.61 83.8413 243.17 82.658 236.964 83.8851H236.759L236.622 83.7139L235.833 82.6697C233.054 79.2863 229.285 76.8562 225.054 75.7199C222.998 75.1623 220.891 74.8125 218.765 74.6757C216.664 74.5385 214.555 74.5728 212.459 74.7784C210.398 74.9879 208.357 75.3658 206.358 75.9082C204.37 76.4046 202.434 77.1407 200.412 77.62C199.409 77.8371 198.387 77.9518 197.361 77.9623C196.343 77.948 195.328 77.8449 194.328 77.6542C193.334 77.5002 192.375 77.2947 191.415 77.1578C190.466 77.0333 189.51 76.959 188.553 76.9353C186.664 76.9287 184.781 77.1587 182.95 77.62C181.168 78.0831 179.444 78.7434 177.809 79.5885C174.658 81.1855 171.842 83.3702 169.514 86.0248C167.321 88.4848 165.581 91.3128 164.373 94.3783C163.85 95.8782 163.135 97.3049 162.248 98.6235C161.271 99.7913 160.114 100.797 158.821 101.602C157.611 102.358 156.465 103.211 155.394 104.153C154.406 105.058 153.526 106.075 152.772 107.182C151.37 109.245 150.413 111.577 149.961 114.029C149.622 116.153 149.57 118.312 149.807 120.449C149.959 122.266 149.959 124.092 149.807 125.909C149.678 127.376 149.24 128.8 148.522 130.086C147.888 131.182 147.22 132.02 146.808 132.739C146.428 133.28 146.095 133.853 145.814 134.451C145.718 134.57 145.615 134.685 145.506 134.793Z" fill="#455A64"/>
<path d="M226.564 78.7841C226.564 78.7841 225.982 78.4589 224.851 77.9453C223.338 77.2318 221.716 76.7747 220.053 76.593C217.597 76.3199 215.113 76.7039 212.855 77.7057C210.105 78.9564 207.824 81.0487 206.343 83.6798C205.897 84.4706 205.54 85.3089 205.281 86.179C205.134 86.5494 205.073 86.9482 205.103 87.3455C205.132 87.7428 205.252 88.1282 205.452 88.4727L206 89.2259L205.109 88.9863C202.828 88.3802 200.399 88.6872 198.34 89.8422C196.7 90.7672 195.402 92.1959 194.639 93.9162C194.142 95.0586 193.863 96.2835 193.816 97.5281C193.816 98.4182 193.816 98.8975 193.816 98.8975C193.816 98.8975 193.816 98.7948 193.713 98.5551C193.642 98.2172 193.602 97.8734 193.593 97.5281C193.548 96.2398 193.776 94.9565 194.262 93.7621C195 91.9164 196.333 90.3687 198.049 89.3629C200.23 88.0821 202.831 87.7188 205.281 88.3529L204.938 88.8493C204.677 88.4286 204.516 87.9542 204.465 87.462C204.415 86.9698 204.477 86.4726 204.647 86.0078C204.914 85.0888 205.288 84.2041 205.761 83.3717C207.317 80.6139 209.72 78.4294 212.615 77.1408C214.972 76.1266 217.562 75.7773 220.104 76.1308C221.806 76.3535 223.451 76.8935 224.954 77.7228C225.368 77.9412 225.763 78.1931 226.136 78.476C226.445 78.6643 226.582 78.767 226.564 78.7841Z" fill="#455A64"/>
<path d="M262.33 103.656C262.33 103.656 262.107 103.964 261.576 104.444C260.815 105.098 259.988 105.672 259.109 106.155C257.774 106.915 256.287 107.371 254.756 107.49C252.798 107.662 250.848 107.094 249.289 105.899L249.769 105.813L249.135 106.72C248.912 107.011 248.655 107.302 248.398 107.593C246.892 109.166 245.02 110.342 242.949 111.017C241.268 111.586 239.493 111.825 237.722 111.719C236.547 111.636 235.392 111.376 234.295 110.948C233.885 110.806 233.498 110.604 233.146 110.349C234.653 110.836 236.212 111.141 237.791 111.256C239.489 111.291 241.18 111.012 242.777 110.435C244.73 109.751 246.493 108.613 247.918 107.114C248.158 106.84 248.398 106.583 248.621 106.292L249.221 105.453L249.443 105.145L249.701 105.368C251.13 106.475 252.917 107.018 254.722 106.891C256.18 106.805 257.605 106.415 258.903 105.744C261.131 104.649 262.262 103.553 262.33 103.656Z" fill="#455A64"/>
<path d="M274.083 123.872C274.105 124.008 274.105 124.147 274.083 124.283C273.983 124.661 273.821 125.019 273.603 125.344C272.774 126.547 271.518 127.392 270.09 127.706C267.983 128.105 265.806 127.891 263.818 127.09C262.704 126.696 261.539 126.303 260.391 125.755C259.082 125.23 258.002 124.26 257.34 123.016C257.287 122.899 257.241 122.779 257.203 122.657L257.717 122.811C255.772 124.45 253.587 125.783 251.24 126.765C249.294 127.567 247.162 127.805 245.088 127.45C243.69 127.227 242.377 126.636 241.283 125.738C240.985 125.501 240.715 125.231 240.478 124.933C240.324 124.728 240.255 124.625 240.272 124.608C240.289 124.591 240.666 124.985 241.437 125.532C242.543 126.304 243.819 126.797 245.156 126.97C247.145 127.252 249.173 126.98 251.017 126.183C253.295 125.2 255.415 123.885 257.306 122.28L257.649 122.006L257.82 122.434C257.82 122.434 257.82 122.622 257.94 122.725C258.543 123.823 259.505 124.68 260.665 125.156C261.779 125.686 262.961 126.097 264.092 126.491C265.971 127.291 268.036 127.552 270.056 127.244C271.406 126.977 272.62 126.244 273.483 125.173C273.716 124.755 273.917 124.32 274.083 123.872Z" fill="#455A64"/>
<path d="M203.344 168.344C203.297 169.399 203.665 170.43 204.37 171.217C205.074 172.004 206.059 172.484 207.114 172.555C207.628 172.612 208.148 172.566 208.644 172.419C209.14 172.273 209.602 172.029 210.002 171.702C210.403 171.376 210.734 170.972 210.976 170.516C211.219 170.06 211.368 169.56 211.415 169.046C211.458 167.99 211.089 166.96 210.386 166.171C209.682 165.382 208.7 164.897 207.645 164.818C207.13 164.761 206.608 164.808 206.112 164.955C205.615 165.103 205.152 165.348 204.751 165.676C204.351 166.005 204.02 166.41 203.778 166.868C203.536 167.326 203.389 167.828 203.344 168.344Z" fill="#263238"/>
<path d="M163.93 167.266C163.883 168.321 164.251 169.352 164.955 170.139C165.66 170.926 166.645 171.406 167.7 171.477C168.214 171.536 168.735 171.491 169.232 171.346C169.729 171.2 170.192 170.957 170.593 170.63C170.994 170.303 171.325 169.898 171.567 169.441C171.809 168.984 171.956 168.483 172.001 167.968C172.048 166.913 171.68 165.881 170.976 165.094C170.271 164.307 169.286 163.827 168.231 163.757C167.716 163.695 167.194 163.738 166.697 163.882C166.199 164.027 165.735 164.27 165.334 164.598C164.932 164.925 164.601 165.33 164.36 165.789C164.118 166.247 163.972 166.75 163.93 167.266Z" fill="#263238"/>
<path d="M162.403 153.828C162.883 154.376 166.019 152.116 170.389 152.356C174.759 152.596 177.878 154.787 178.375 154.273C178.615 154.034 178.118 153.075 176.764 152.014C174.917 150.643 172.69 149.878 170.389 149.823C168.124 149.747 165.893 150.388 164.014 151.654C162.643 152.647 162.215 153.589 162.403 153.828Z" fill="#263238"/>
<path d="M205.778 156.002C206.326 156.499 209.205 154.017 213.575 153.726C217.945 153.435 221.286 155.438 221.715 154.804C221.938 154.547 221.355 153.64 219.898 152.716C217.917 151.554 215.626 151.028 213.335 151.21C211.07 151.361 208.91 152.223 207.166 153.674C205.915 154.804 205.521 155.78 205.778 156.002Z" fill="#263238"/>
<path d="M189.517 188.714C189.517 188.475 186.843 187.927 182.474 187.208C181.36 187.071 180.314 186.814 180.143 186.044C180.095 184.893 180.394 183.754 181 182.774L184.564 174.404C189.534 162.421 193.133 152.664 192.687 152.476C192.241 152.288 187.786 161.788 182.816 173.702L179.389 182.124C178.644 183.443 178.389 184.983 178.669 186.472C178.808 186.867 179.034 187.227 179.331 187.523C179.627 187.819 179.987 188.045 180.383 188.184C180.995 188.37 181.628 188.48 182.268 188.509C186.741 188.851 189.482 188.971 189.517 188.714Z" fill="#263238"/>
<path d="M196.267 195.202C197.1 195.299 197.906 195.565 198.633 195.983C199.361 196.4 199.996 196.962 200.499 197.633C201.442 199.002 202.127 202.203 201.185 203.453C200.242 204.702 196.781 204.497 194.33 204.189C193.767 204.116 193.235 203.886 192.796 203.526C192.356 203.166 192.027 202.69 191.845 202.152L190.869 199.344C190.732 198.964 190.672 198.559 190.694 198.155C190.716 197.751 190.818 197.356 190.995 196.992C191.173 196.628 191.421 196.304 191.726 196.037C192.031 195.771 192.386 195.569 192.771 195.442C193.905 195.108 195.098 195.026 196.267 195.202Z" fill="#FF9A6C"/>
<path d="M203.788 140.1C204.439 141.178 208.621 139.792 213.762 139.415C218.903 139.039 223.238 139.621 223.701 138.457C223.907 137.892 222.981 136.933 221.131 136.129C218.678 135.153 216.031 134.766 213.402 134.999C210.769 135.19 208.219 136.006 205.965 137.378C204.251 138.474 203.514 139.569 203.788 140.1Z" fill="#263238"/>
<path d="M163.467 146.673C164.393 147.632 167.837 146.519 172.036 146.365C176.234 146.211 179.799 146.81 180.604 145.766C180.947 145.252 180.347 144.277 178.788 143.369C176.623 142.268 174.202 141.772 171.779 141.931C169.337 142.011 166.964 142.763 164.924 144.105C163.519 145.167 163.073 146.194 163.467 146.673Z" fill="#263238"/>
<path d="M313.826 327.659L272.698 476.807L287.145 519.601C232.787 543.566 154.215 551.132 92.2832 521.159C92.2832 521.159 113.31 459.535 114.03 447.552C114.749 435.57 109.574 365.387 115.298 341.918C121.021 318.45 137.421 267.987 137.421 267.987L185.627 260.352C207.733 272.215 221.888 274.046 245.605 260.232L290.52 269.818L313.826 327.659Z" fill="#455A64"/>
<path d="M138.089 267.798C138.089 267.798 112.196 270.537 101.777 291.763C91.3575 312.989 62.8249 405.819 61.334 421.362C59.8431 436.905 72.4043 457.823 83.406 460.733L116.754 427.507L144.43 429.972L180.88 260.13L138.089 267.798Z" fill="#455A64"/>
<g opacity="0.3">
<path d="M118.554 324.92C110.483 345.914 108.233 368.694 112.042 390.858L93.8084 384.011C98.7794 390.875 105.219 396.547 112.659 400.615C107.741 399.194 102.702 397.756 97.5957 398.082C92.4889 398.407 87.3136 400.872 84.9316 405.442C90.8781 404.364 96.9273 403.268 102.959 403.97C108.992 404.672 115.058 407.394 118.382 412.529C113.867 393.124 112.136 373.176 113.241 353.284" fill="black"/>
</g>
<g opacity="0.3">
<path d="M110.98 452.842L246.857 466.279C237.072 466.074 229.532 474.359 221.049 479.255C205.352 488.327 185.799 485.793 167.926 482.969L123.37 475.985C119.634 475.386 115.642 474.684 112.883 472.082C107.896 467.443 109.25 459.398 110.98 452.842Z" fill="black"/>
</g>
<path d="M214.758 441.681L237.516 419.736C238.606 418.686 239.909 417.883 241.337 417.381C242.765 416.879 244.285 416.69 245.793 416.826C252.288 417.442 263.289 418.538 265.551 419.462C268.807 420.729 271.892 422.543 272.783 424.169C274.473 428.34 275.864 432.624 276.947 436.991C276.948 438.538 276.827 440.083 276.588 441.612C276.525 442.133 276.336 442.631 276.037 443.062C275.737 443.493 275.337 443.845 274.871 444.086C274.405 444.327 273.886 444.451 273.361 444.447C272.836 444.442 272.32 444.31 271.858 444.06C270.971 443.598 270.229 442.898 269.716 442.04C268.948 440.916 268.509 439.6 268.448 438.24C268.448 438.24 269.167 447.997 261.216 448.186C261.216 448.186 264.883 456.488 254.635 459.911C254.635 459.911 255.03 465.338 246.461 466.057C241.026 466.482 235.565 466.482 230.13 466.057C230.13 466.057 214.467 477.286 203.448 478.039C192.429 478.792 167.718 473.948 167.718 473.948L164.736 428.517L214.758 441.681Z" fill="#FFBF9D"/>
<path d="M245.586 427.764C246.758 428.361 247.972 428.87 249.219 429.287C251.515 430.143 254.686 431.273 258.301 432.232C260.015 432.745 261.883 433.019 263.442 433.43C264.757 433.866 265.863 434.776 266.544 435.98C267.195 436.973 267.727 437.829 268.258 438.36C268.789 438.89 269.029 439.113 269.046 439.079C268.869 438.778 268.668 438.492 268.446 438.223C268.069 437.658 267.607 436.802 266.99 435.741C266.64 435.15 266.22 434.604 265.739 434.115C265.163 433.556 264.465 433.14 263.699 432.899C262.089 432.437 260.392 432.146 258.558 431.65C254.977 430.691 251.789 429.63 249.476 428.877C248.21 428.405 246.91 428.033 245.586 427.764Z" fill="#FF9A6C"/>
<path d="M242.658 441.681C243.45 442.176 244.302 442.567 245.194 442.845C246.788 443.495 249.016 444.317 251.501 445.156C253.986 445.995 256.265 446.662 257.927 447.107C258.813 447.398 259.726 447.599 260.652 447.706C259.824 447.274 258.95 446.936 258.047 446.696L251.689 444.574L245.332 442.451C244.469 442.103 243.573 441.845 242.658 441.681Z" fill="#FF9A6C"/>
<path d="M237.037 454.69C237.037 454.879 240.996 455.272 245.725 456.573C250.455 457.874 254.122 459.483 254.191 459.312C253.482 458.794 252.703 458.379 251.877 458.08C249.934 457.228 247.929 456.524 245.88 455.974C243.838 455.427 241.759 455.032 239.659 454.793C238.796 454.625 237.911 454.59 237.037 454.69Z" fill="#FF9A6C"/>
<path d="M184.341 476.806L83.3887 460.716C83.3887 460.716 95.5215 410.184 113.224 410.184C115.811 410.184 205.47 439.284 205.47 439.284L184.341 476.806Z" fill="#455A64"/>
<path d="M201.992 454.776C202.843 454.129 203.635 453.407 204.357 452.619L209.875 447.21C212.017 445.087 213.936 443.119 215.273 441.664C216.038 440.912 216.727 440.086 217.33 439.199C216.484 439.852 215.693 440.574 214.965 441.356L209.447 446.782C207.305 448.904 205.385 450.856 204.049 452.311C203.288 453.067 202.6 453.893 201.992 454.776Z" fill="#FF9A6C"/>
<path d="M205.471 439.284C205.033 439.271 204.6 439.19 204.186 439.045L200.587 438.086L187.444 434.303C176.356 431.051 161.07 426.463 144.208 421.311L118.177 413.282H117.971L117.834 413.077C114.855 409.228 110.735 406.418 106.061 405.049C102.419 403.938 98.5945 403.548 94.8026 403.902C92.3343 404.118 89.8975 404.606 87.5367 405.357C85.823 405.888 85.0519 406.264 85.0176 406.196C85.7306 405.645 86.5376 405.227 87.3996 404.963C93.4501 402.59 100.111 402.254 106.37 404.005C111.343 405.33 115.751 408.231 118.931 412.273L118.571 411.999L144.636 419.89C161.499 425.025 176.733 429.784 187.735 433.293L200.759 437.504L204.186 438.737C204.642 438.846 205.077 439.031 205.471 439.284Z" fill="#263238"/>
<path d="M178.737 277.59C179.577 274.782 184.324 248.866 186.243 242.841C188.968 234.282 211.074 219.15 211.074 219.15C211.074 219.15 207.647 211.173 198.187 215.315C187.048 220.228 181.53 228.496 178.737 226.818C175.944 225.141 158.413 207.321 153.649 207.886C148.885 208.451 147.822 213.347 149.502 215.298C150.82 216.92 152.017 218.636 153.083 220.433C153.083 220.433 142.973 217.387 144.943 228.445C144.943 228.445 133.428 221.272 134.559 236.404C134.559 236.404 126.967 233.323 125.288 238.647C123.608 243.97 128.595 250.15 131.131 254.361C133.667 258.572 141.859 282.965 141.859 282.965V304.482L182.113 296.214L178.737 277.59Z" fill="#FFBF9D"/>
<path d="M178.738 277.59C178.873 277.992 178.976 278.404 179.047 278.822C179.235 279.712 179.492 280.911 179.801 282.434C180.452 285.687 181.36 290.325 182.526 296.231V296.556H182.2L141.997 305.115L141.329 305.252V304.567C141.329 297.943 141.226 290.685 141.158 283.05V283.256C138.296 274.971 135.297 266.138 131.561 257.083C129.727 252.752 125.906 248.969 124.518 243.714C124.148 242.377 124.061 240.978 124.261 239.605C124.34 238.866 124.575 238.151 124.95 237.508C125.325 236.865 125.832 236.308 126.437 235.874C127.702 235.108 129.181 234.772 130.653 234.915C132.051 235.021 133.425 235.332 134.731 235.84L133.737 236.541C133.635 235.035 133.67 233.522 133.84 232.022C133.985 230.361 134.658 228.79 135.76 227.537C136.404 226.941 137.182 226.508 138.029 226.275C138.877 226.043 139.767 226.018 140.626 226.202C142.25 226.484 143.808 227.064 145.219 227.914L144.122 228.65C143.571 226.389 143.838 224.006 144.876 221.923C145.318 221.262 145.897 220.704 146.574 220.287C147.251 219.871 148.011 219.605 148.801 219.509C150.269 219.31 151.762 219.415 153.188 219.817L152.365 220.879C151.376 219.184 150.271 217.56 149.058 216.017C148.276 215.133 147.875 213.977 147.944 212.799C148 211.671 148.381 210.584 149.041 209.666C149.691 208.748 150.596 208.039 151.645 207.629C152.153 207.433 152.682 207.295 153.222 207.219C153.798 207.169 154.378 207.221 154.936 207.373C156.832 208.073 158.608 209.067 160.196 210.317C166.469 214.887 171.849 220.143 177.333 224.901C177.91 225.45 178.555 225.922 179.252 226.305C179.968 226.328 180.67 226.104 181.24 225.672C182.68 224.781 184.034 223.635 185.422 222.573C188.113 220.382 190.979 218.412 193.99 216.685C196.938 215.127 200.056 213.381 203.587 213.535C205.28 213.616 206.919 214.16 208.325 215.108C209.73 216.056 210.847 217.371 211.555 218.91L211.761 219.338L211.332 219.646C202.764 225.757 194.984 231.783 189.5 238.253C188.184 239.765 187.155 241.506 186.467 243.388C185.902 245.271 185.473 247.154 185.045 248.952C184.256 252.547 183.531 255.845 182.868 258.846C181.617 264.751 180.606 269.408 179.921 272.694C179.561 274.286 179.27 275.501 179.047 276.323C178.948 276.736 178.822 277.142 178.67 277.538C178.693 277.11 178.762 276.685 178.875 276.272L179.561 272.626C180.195 269.322 181.086 264.649 182.2 258.709C182.817 255.713 183.502 252.375 184.239 248.763C184.651 246.949 185.062 245.083 185.61 243.132C186.301 241.109 187.365 239.234 188.746 237.603C194.316 230.91 202.01 224.85 210.664 218.619L210.458 219.338C209.841 218.021 208.877 216.895 207.67 216.081C206.463 215.267 205.058 214.796 203.604 214.716C200.571 214.579 197.589 216.188 194.693 217.746C191.751 219.464 188.949 221.41 186.313 223.566C184.942 224.627 183.588 225.774 182.012 226.784C181.14 227.428 180.053 227.71 178.978 227.572C178.061 227.151 177.226 226.571 176.511 225.86C171.01 221.084 165.646 215.863 159.494 211.395C158.027 210.263 156.405 209.347 154.678 208.674C154.303 208.58 153.916 208.546 153.53 208.571C153.103 208.637 152.684 208.746 152.279 208.896C151.48 209.197 150.793 209.734 150.309 210.437C149.786 211.087 149.501 211.896 149.501 212.731C149.501 213.565 149.786 214.374 150.309 215.024C151.563 216.629 152.708 218.316 153.736 220.074L154.644 221.598L152.931 221.135C150.583 220.502 147.498 220.57 146.264 222.625C145.432 224.405 145.238 226.418 145.716 228.325L145.922 229.848L144.619 229.078C143.375 228.332 142.004 227.822 140.575 227.572C139.937 227.414 139.271 227.416 138.634 227.577C137.997 227.738 137.41 228.054 136.925 228.496C135.211 230.43 135.211 233.631 135.314 236.37V237.466L134.286 237.089C132.024 236.268 129.145 235.771 127.431 236.969C126.984 237.3 126.61 237.72 126.336 238.204C126.061 238.688 125.892 239.223 125.837 239.777C125.671 240.956 125.753 242.157 126.077 243.303C126.782 245.665 127.846 247.905 129.23 249.945C130.663 252.012 131.924 254.194 133.001 256.466C136.771 265.59 139.684 274.457 142.529 282.777V282.879V282.982C142.529 290.616 142.529 297.857 142.529 304.482L141.86 303.951L182.149 295.906L181.892 296.282C180.846 290.325 180.041 285.652 179.475 282.366C179.218 280.842 179.03 279.644 178.893 278.737C178.804 278.36 178.752 277.976 178.738 277.59Z" fill="#FF9A6C"/>
<path d="M153.119 220.793C154.658 222.403 156.289 223.923 158.003 225.346C159.584 226.914 161.255 228.388 163.007 229.763C161.678 227.963 160.136 226.331 158.414 224.901C156.828 223.316 155.049 221.936 153.119 220.793Z" fill="#FF9A6C"/>
<path d="M144.123 227.914C145.304 231.17 147.48 233.973 150.344 235.925C150.464 235.788 148.784 234.213 147.088 232.039C145.391 229.865 144.277 227.846 144.123 227.914Z" fill="#FF9A6C"/>
<path d="M134.801 235.942C136.014 238.321 137.573 240.507 139.427 242.43C138.192 240.028 136.604 237.824 134.715 235.891L134.801 235.942Z" fill="#FF9A6C"/>
<path d="M290.518 269.819L247.231 312.973L202.83 368.776L185.162 294.502L140.041 303.763C140.041 303.763 143.228 387.64 157.178 425.676C159.817 432.917 167.631 438.309 171.127 439.952C192.942 450.308 214.243 434.286 214.243 434.286C214.243 434.286 305.256 373.278 315.127 332.418C319.788 313.127 317.92 290.206 309.986 280.757C302.925 272.455 290.518 269.819 290.518 269.819Z" fill="#455A64"/>
<path d="M315.06 332.418C315.06 332.418 314.958 332.88 314.718 333.736C314.39 335.038 313.984 336.318 313.501 337.57C311.646 342.391 309.249 346.985 306.355 351.265C301.824 358.031 296.758 364.425 291.206 370.385C283.887 378.302 276.159 385.833 268.054 392.946C259.109 400.923 248.93 409.225 237.74 417.767C232.136 422.029 226.275 426.326 220.14 430.691L215.496 433.926C213.954 434.988 212.326 436.117 210.647 437.059C207.223 439.014 203.598 440.593 199.833 441.766C192.01 444.386 183.571 444.547 175.653 442.228C174.65 441.922 173.666 441.556 172.706 441.133C171.709 440.774 170.741 440.339 169.81 439.832C167.951 438.789 166.19 437.58 164.549 436.22C161.119 433.51 158.43 429.977 156.735 425.949C153.895 417.641 151.606 409.155 149.88 400.547C148.166 391.799 146.692 382.898 145.527 373.826C142.357 349.656 140.54 326.119 139.529 303.814V303.455H139.889L185.01 294.228L185.404 294.143L185.49 294.519C192.156 322.746 198.103 347.841 203.055 368.81L202.541 368.673L238.528 330.09C242.744 325.588 246 322.096 248.244 319.717L250.764 317.029L251.655 316.156L250.832 317.097L248.364 319.819L238.768 330.312L203.055 369.101L202.661 369.512L202.524 368.964C197.52 347.995 191.522 322.918 184.77 294.707L185.25 295.016L140.129 304.311L140.472 303.865C141.5 326.119 143.334 349.673 146.504 373.792C147.652 382.847 149.194 391.731 150.84 400.444C152.52 408.965 154.764 417.365 157.557 425.59C159.209 429.458 161.8 432.853 165.097 435.467C166.701 436.795 168.421 437.975 170.238 438.993C171.141 439.488 172.08 439.911 173.049 440.26C173.989 440.67 174.95 441.03 175.928 441.338C183.68 443.616 191.945 443.466 199.611 440.91C203.315 439.744 206.887 438.195 210.27 436.289C211.983 435.33 213.474 434.269 215.068 433.19L219.712 429.955C225.847 425.658 231.708 421.396 237.311 417.1C248.519 408.541 258.698 400.324 267.66 392.399C276.623 384.473 284.386 376.993 290.863 369.974C296.42 364.05 301.508 357.703 306.081 350.991C308.99 346.762 311.427 342.227 313.347 337.468C314.066 335.859 314.324 334.523 314.649 333.685C314.975 332.846 315.06 332.418 315.06 332.418Z" fill="#263238"/>
<path d="M211.039 402.875C210.885 402.875 211.399 400.701 211.673 397.175C211.821 395.117 211.821 393.052 211.673 390.995C211.468 388.476 211.05 385.98 210.422 383.532C209.238 379.092 207.426 374.844 205.041 370.916C203.19 367.886 201.837 366.157 201.957 366.054C202.077 365.952 202.385 366.414 203.036 367.184C203.954 368.27 204.801 369.413 205.572 370.608C209.635 376.666 212.002 383.699 212.427 390.978C212.527 393.08 212.452 395.187 212.204 397.277C212.057 398.682 211.799 400.073 211.433 401.437C211.361 401.93 211.228 402.413 211.039 402.875Z" fill="#263238"/>
<path d="M204.873 200.851C204.873 201.091 203.862 200.988 202.44 200.697C200.644 200.285 198.824 199.988 196.991 199.807C195.208 199.63 193.409 199.74 191.661 200.132C190.324 200.44 189.759 200.988 189.536 200.902C189.313 200.817 189.433 200.543 189.707 200.149C190.099 199.634 190.611 199.223 191.198 198.951C193.057 198.123 195.105 197.809 197.128 198.044C199.098 198.204 201.028 198.696 202.834 199.499C204.188 200.098 204.959 200.611 204.873 200.851Z" fill="#263238"/>
<g opacity="0.3">
<path d="M273.608 475.848C273.608 475.848 253.781 473.417 243.122 471.774C237.313 470.884 228.436 469.942 226.756 468.35C224.666 466.331 224.683 462.975 224.46 460.083C220.69 410.698 237.672 357.273 290.214 325.417L303.614 328.943L302.741 361.073L273.608 475.848Z" fill="black"/>
</g>
<path d="M455.582 345C426.964 325.742 392.914 318.861 370.602 318.844C349.712 318.844 318.952 322.096 291.122 337.759C274.216 347.116 260.068 360.746 250.096 377.284C238.341 396.832 231.966 421.02 231.143 449.178C231.093 451.259 231.46 453.328 232.221 455.264C232.983 457.201 234.125 458.966 235.579 460.456C237.034 461.945 238.772 463.129 240.691 463.938C242.61 464.747 244.672 465.165 246.755 465.166H301.592C305.34 465.145 308.957 463.783 311.786 461.327C314.615 458.871 316.47 455.485 317.015 451.78C319.449 434.663 329.662 405.734 370.67 405.049C401.927 404.552 414.78 427.131 418.859 436.871C422.123 445.027 423.413 453.838 422.624 462.586C421.834 471.334 418.988 479.772 414.317 487.214C399.717 511.179 372.898 514.877 358.212 514.928C350.109 514.941 342.339 518.153 336.597 523.864C330.854 529.574 327.604 537.321 327.554 545.415V604.3C327.554 608.437 329.198 612.405 332.126 615.333C335.053 618.26 339.024 619.907 343.166 619.911H396.547C400.687 619.907 404.657 618.263 407.587 615.34C410.516 612.417 412.166 608.453 412.175 604.317V591.975C412.175 591.827 412.221 591.684 412.307 591.564C412.393 591.444 412.515 591.354 412.655 591.307C433.902 583.772 453.243 571.691 469.326 555.908C496.299 529.153 509.991 494.609 510.009 453.201C509.991 394.042 480.414 361.707 455.582 345Z" fill="#FF725E"/>
<path d="M372.451 634.735H367.858C357.265 634.953 347.179 639.309 339.765 646.87C332.35 654.43 328.197 664.592 328.197 675.176C328.197 685.76 332.35 695.922 339.765 703.482C347.179 711.043 357.265 715.399 367.858 715.617H372.537C383.276 715.617 393.576 711.355 401.17 703.769C408.764 696.184 413.031 685.895 413.031 675.167C413.031 664.439 408.764 654.151 401.17 646.565C393.576 638.98 383.276 634.718 372.537 634.718L372.451 634.735Z" fill="#FF725E"/>
</svg>
