<svg width="1112" height="896" viewBox="0 0 1112 896" fill="none" xmlns="http://www.w3.org/2000/svg">
<g clip-path="url(#clip0_44_21697)">
<path d="M179.578 535.24C179.578 535.24 225.311 520.09 248.641 493.924C271.972 467.757 282.028 423.978 282.028 423.978C264.591 429.117 247.52 435.433 230.932 442.88C225.147 450.121 220.53 458.228 217.25 466.906C216.339 461.59 215.82 456.214 215.696 450.821C209.968 453.995 204.701 457.942 200.043 462.552C180.615 483.263 179.578 535.24 179.578 535.24Z" fill="#15A800"/>
<path d="M254.998 447.418C260.93 442.37 266.999 437.491 272.928 432.414C273.006 432.354 273.057 432.266 273.07 432.168C273.083 432.071 273.057 431.972 272.998 431.893C272.938 431.815 272.85 431.763 272.753 431.75C272.655 431.737 272.557 431.763 272.479 431.823C261.232 440.195 250.038 449.106 239.288 458.247C235.559 461.449 231.901 464.765 228.189 468.146L228.859 466.661C230.037 464.189 231.394 461.7 232.544 459.261C235.032 454.284 237.929 449.525 241.206 445.032C241.191 444.882 241.168 444.642 240.944 444.815C237.709 449.39 234.468 453.905 231.585 458.688C230.208 460.968 229.019 463.32 227.773 465.708C227.169 466.945 226.565 468.182 226.024 469.444L225.423 470.711C219.911 476.05 214.42 481.599 209.342 487.38C206.191 490.949 203.174 494.657 200.252 498.416C201.526 492.579 202.553 486.675 204.105 480.902C204.102 480.863 204.082 480.826 204.051 480.801C204.021 480.775 203.981 480.763 203.942 480.767C203.902 480.771 203.866 480.79 203.84 480.821C203.815 480.852 203.803 480.892 203.807 480.931C202.355 487.118 200.671 493.085 199.551 499.27C196.344 503.51 193.327 507.852 190.496 512.237C190.506 511.971 190.531 511.707 190.57 511.444C190.897 509.205 191.22 506.937 191.606 504.693C192.33 500.33 193.176 495.986 194.21 491.714C196.061 482.811 199.532 474.329 204.451 466.691C204.436 466.541 204.416 466.331 204.221 466.501C196.509 478.298 191.618 491.724 189.928 505.732C189.623 507.776 189.338 509.819 189.073 511.86C188.936 512.932 188.771 514.036 188.699 515.162C187.451 517.217 186.263 519.267 185.143 521.4C178.345 534.396 172.968 548.093 169.107 562.25C164.771 578.145 161.298 594.264 158.703 610.537C158.709 610.601 158.74 610.659 158.789 610.7C158.838 610.741 158.901 610.76 158.965 610.754C159.028 610.748 159.087 610.717 159.127 610.667C159.167 610.618 159.187 610.555 159.181 610.491C165.697 582.17 172.322 553.414 185.602 527.402C188.416 521.9 191.516 516.552 194.845 511.394C202.536 510.147 210.03 507.889 217.131 504.676C224.895 501.19 232.191 496.737 238.846 491.423C242.631 488.301 246.243 484.975 249.667 481.459C249.832 481.292 249.63 481.07 249.465 481.237C243.439 487.142 236.651 492.211 229.282 496.307C222.058 500.515 214.407 503.94 206.46 506.523C203.098 507.604 199.63 508.513 196.183 509.33C199.994 503.562 204.104 497.998 208.496 492.662C209.925 490.921 211.402 489.358 212.888 487.582C217.967 483.235 223.421 479.349 229.186 475.971C236.501 471.515 243.646 466.865 250.857 462.268C254.946 459.667 258.969 457.011 263.066 454.499C263.245 454.481 263.031 454.139 262.891 454.243C255.546 458.702 248.088 462.929 240.669 467.243C233.708 471.301 226.659 475.398 220.021 480L219.178 480.626C224.973 474.473 231.035 468.597 237.262 462.856C243.106 457.636 249.019 452.49 254.998 447.418Z" fill="white"/>
<path d="M254.676 471.846C251.016 473.892 247.306 475.732 243.714 477.862C240.123 479.993 236.542 482.546 233.066 484.937C233.032 484.961 233.009 484.996 233.002 485.037C232.994 485.077 233.003 485.119 233.026 485.153C233.05 485.187 233.085 485.21 233.125 485.217C233.166 485.225 233.207 485.216 233.241 485.192C236.8 483.035 240.4 480.994 243.923 478.779C247.446 476.565 251.066 474.099 254.783 472.017C254.965 472.029 254.846 471.738 254.676 471.846Z" fill="#A6A6A6"/>
<path d="M4.8856 313.588C14.6023 323.929 20.8104 337.086 22.621 351.176C23.1753 355.355 23.0854 361.289 23.2731 368.224C35.6056 373.87 46.8043 381.733 56.315 391.425C46.4496 386.891 35.4782 385.355 24.7559 387.006C25.4715 391.69 26.5228 396.317 27.9015 400.85C34.702 400.183 41.5677 400.866 48.1069 402.859C41.9453 403.376 35.9602 405.18 30.5357 408.154C41.4356 433.947 68.8573 458.869 138.384 463.852C142.466 430.548 134.886 396.849 116.939 368.518C92.5503 330.061 4.8856 313.588 4.8856 313.588Z" fill="#15A800"/>
<path d="M173.086 575.38C170.825 564.141 168.236 552.933 165.386 541.841C159.739 519.562 152.969 497.584 145.102 475.991C141.418 465.867 137.131 455.974 132.264 446.365C132.296 444.516 132.208 442.666 132.001 440.828C131.789 438.641 131.578 436.455 131.364 434.238C130.942 429.865 130.248 425.488 129.467 421.15C127.93 412.54 125.691 404.071 122.772 395.828C121.046 391.067 119.147 386.383 117.248 381.699C117.244 381.66 117.224 381.623 117.194 381.598C117.163 381.572 117.124 381.56 117.084 381.564C117.044 381.568 117.008 381.587 116.983 381.618C116.957 381.649 116.945 381.688 116.949 381.728C120.026 389.941 122.541 398.354 124.475 406.91C126.514 415.332 128.112 423.856 129.262 432.446C129.488 434.783 129.716 437.149 129.945 439.515C130.04 440.503 130.139 441.522 130.234 442.51C126.091 434.617 121.469 426.987 116.394 419.662C108.27 408.064 99.3117 397.077 89.5907 386.789C89.4502 385.495 89.1452 384.224 88.683 383.007C88.207 381.512 87.7368 380.076 87.2251 378.523C86.2455 375.453 85.1682 372.413 83.9934 369.403C81.6896 363.337 78.8716 357.563 76.248 351.619C76.2442 351.579 76.2248 351.543 76.1941 351.517C76.1633 351.492 76.1238 351.48 76.0842 351.484C76.0446 351.488 76.0082 351.507 75.9829 351.538C75.9576 351.569 75.9456 351.608 75.9494 351.648C78.3196 357.465 80.1302 363.73 82.1296 369.764C83.1057 372.693 84.0519 375.625 85.0482 378.763L86.4763 383.251C86.4735 383.372 86.4851 383.492 86.511 383.61C83.3956 380.374 80.2561 377.201 77.0328 374.096C62.5001 359.991 46.7963 347.178 31.0175 334.524C29.088 332.957 27.1046 331.455 25.1481 329.921L24.9593 330.151C40.1189 343.258 55.0811 356.505 69.3961 370.541C72.7321 373.876 76.071 377.242 79.4185 380.698C77.7617 379.769 76.2301 378.89 74.4712 378.152C70.2482 375.93 65.9713 373.774 61.5952 371.838C57.2191 369.903 52.8189 368.031 48.3437 366.316C43.8684 364.602 39.0041 363.228 34.4074 361.193C34.2282 361.21 34.0991 361.434 34.2841 361.477C38.8038 363.062 43.2001 364.982 47.4365 367.22C51.8241 369.275 56.2474 371.388 60.56 373.601C64.8725 375.815 69.1109 377.884 73.2443 380.115C76.7968 381.949 80.28 384 83.9375 385.673C93.0155 395.143 101.529 405.142 109.433 415.618C114.245 422.209 118.717 429.042 122.833 436.09L120.281 435.249L113.741 433.069C109.537 431.661 105.338 430.313 101.136 428.935C93.1382 426.322 85.0498 424.02 77.1695 421.062C72.7321 419.479 68.4032 417.605 64.2108 415.452C64.0316 415.469 63.8968 415.633 64.0875 415.736C79.0289 424.087 95.5437 429.385 111.616 434.786L118.624 437.132C120.553 437.762 122.494 438.511 124.475 439.046C130.064 448.909 134.951 459.155 139.1 469.709C147.346 490.962 154.47 512.636 160.441 534.64C166.517 556.666 171.35 578.934 175.573 601.441C176.114 604.231 176.655 607.02 177.228 609.837C177.251 610.075 177.368 610.294 177.552 610.447C177.736 610.599 177.973 610.672 178.211 610.649C178.448 610.626 178.667 610.509 178.819 610.324C178.971 610.14 179.043 609.902 179.02 609.664C177.65 597.976 175.356 586.709 173.086 575.38Z" fill="black"/>
<path d="M113.159 389.924C111.231 383.066 108.842 376.434 106.182 369.798C106.178 369.759 106.159 369.722 106.128 369.697C106.097 369.671 106.058 369.659 106.018 369.663C105.979 369.667 105.942 369.686 105.917 369.717C105.892 369.748 105.88 369.788 105.883 369.827C108.263 376.369 110.177 383.077 112.058 389.758C113.939 396.439 115.819 403.422 117.487 410.396L117.666 410.378C116.548 403.481 115.044 396.652 113.159 389.924Z" fill="white"/>
<path d="M85.5178 411.701C80.4374 409.024 75.1782 406.703 69.7781 404.756C67.1725 403.678 64.5159 402.695 61.8891 401.709C59.2623 400.723 56.3514 399.916 53.6562 398.846C53.4472 398.867 53.3181 399.091 53.506 399.163C56.1356 400.179 58.6719 401.476 61.2506 402.587L69.315 405.889C74.5917 408.1 79.775 410.593 85.2414 412.272C85.3023 412.261 85.3598 412.236 85.4092 412.199C85.4586 412.161 85.4984 412.113 85.5254 412.057C85.5524 412.001 85.5658 411.94 85.5645 411.878C85.5631 411.816 85.5471 411.755 85.5178 411.701Z" fill="white"/>
<path opacity="0.1" d="M172.598 453.925C172.598 453.925 214.833 439.385 231.877 408.354C248.182 378.724 249.726 330.749 249.802 326.539C249.396 330.448 244.466 372.704 216.888 394.837C195.774 411.811 175.149 426.047 172.598 453.925Z" fill="#A6A6A6"/>
<path d="M205.279 375.099C198.272 382.939 193.626 392.613 191.88 402.997C194.116 392.815 198.748 383.319 205.388 375.3C205.646 375.154 205.413 374.935 205.279 375.099Z" fill="#A6A6A6"/>
<path d="M172.598 453.926C172.598 453.926 214.833 439.386 231.877 408.354C248.183 378.725 249.727 330.749 249.802 326.54C249.805 326.439 249.795 326.338 249.773 326.24C249.773 326.24 231.88 357.837 210.812 367.491C189.744 377.144 161.658 406.189 172.598 453.926Z" fill="#15A800"/>
<path d="M243.736 343.299C240.631 351.649 236.9 359.75 232.575 367.535C228.161 374.958 222.727 381.722 216.433 387.626C210.913 392.875 205.358 397.765 199.823 402.865L199.952 402.641C200.894 400.857 201.933 399.124 203.006 397.448C205.178 394.034 207.606 390.776 210.037 387.548C214.833 381.039 219.786 374.907 223.977 368.063C226.329 364.314 228.297 360.335 229.852 356.189C229.834 356.009 229.617 355.939 229.553 356.218C223.951 371.542 210.817 382.213 202.048 395.636C200.788 397.529 199.629 399.488 198.576 401.504C197.717 402.972 197.019 404.53 196.493 406.149C191.448 411.087 186.984 416.59 183.189 422.55C183.293 419.67 183.6 416.802 184.108 413.966C184.736 410.003 185.927 406.152 187.645 402.529C187.627 402.35 187.431 402.187 187.359 402.376C185.578 406.008 184.238 409.842 183.368 413.796C182.752 416.921 182.523 420.111 182.689 423.294C180.84 426.418 179.19 429.657 177.748 432.991L178.017 430.154C178.436 425.76 178.975 421.355 179.756 416.956C180.952 408.073 183.668 399.465 187.786 391.512C187.769 391.332 187.605 391.196 187.5 391.358C183.265 399.238 180.164 407.68 178.289 416.433C177.326 420.819 176.638 425.238 176.105 429.704C175.833 431.876 175.593 434.076 175.413 436.27C175.311 437.399 175.182 438.56 175.113 439.715C171.735 449.58 169.336 459.756 167.951 470.095C165.468 488.578 164.167 507.203 164.055 525.855C163.674 545.406 164.556 564.962 166.697 584.4C166.931 586.826 167.344 589.235 167.701 591.68C167.762 592.309 168.756 592.303 168.716 591.581C168.203 581.897 167.513 572.259 167.149 562.56C166.784 552.86 166.695 543.195 166.814 533.509C166.932 514.469 168.113 495.45 170.353 476.544C172.313 460.332 175.309 443.929 182.626 429.195C186.252 421.864 190.906 415.093 196.445 409.086C201.888 403.028 208.146 397.617 214.047 391.938C220.042 386.387 225.367 380.15 229.913 373.354C234.533 365.837 238.418 357.889 241.514 349.621C242.338 347.546 243.195 345.498 243.921 343.342C244.094 343.265 243.808 343.111 243.736 343.299Z" fill="black"/>
<path d="M12.0121 450.059C12.0121 450.059 17.2825 511.796 55.7576 526.037C94.2328 540.278 112.481 523.581 138.052 527.157C136.954 525.782 116.643 501.775 87.5941 497.446C57.683 492.929 23.3328 474.904 12.0121 450.059Z" fill="#15A800"/>
<path opacity="0.1" d="M12.0121 450.059C12.0121 450.059 17.2825 511.796 55.7576 526.037C94.2328 540.278 112.481 523.581 138.052 527.157C124.248 522.114 109.734 519.301 95.0538 518.825C71.5755 518.191 25.8333 507.342 12.0121 450.059Z" fill="#15A800"/>
<path d="M140.57 527.972C135.808 524.402 130.558 521.538 124.981 519.471C124.168 519.157 123.332 518.935 122.492 518.653C121.651 518.372 121.593 517.773 121.131 517.364C119.917 516.332 118.645 515.337 117.349 514.404C114.85 512.634 112.2 511.089 109.429 509.788C103.11 506.77 96.1008 505.029 89.5246 502.157C89.3455 502.174 89.2165 502.398 89.4043 502.471C92.5436 503.77 95.7002 505.249 98.8568 506.728C102.013 508.206 105.15 509.475 108.073 511.037C110.796 512.427 113.409 514.024 115.888 515.815C116.6 516.32 117.255 516.862 117.943 517.43C113.746 516.455 109.491 515.755 105.203 515.335C98.352 514.606 91.4516 514.305 84.5944 513.517C81.2267 513.136 77.8822 512.571 74.5759 511.824C71.3527 509.656 68.1295 507.489 64.8861 505.111C61.0778 502.231 57.5469 498.999 54.3397 495.458C54.3263 495.442 54.3096 495.428 54.2909 495.418C54.2721 495.408 54.2516 495.402 54.2304 495.399C54.2092 495.397 54.1877 495.399 54.1673 495.405C54.1469 495.412 54.1279 495.422 54.1114 495.435C54.0949 495.449 54.0813 495.465 54.0712 495.484C54.0611 495.503 54.0548 495.524 54.0527 495.545C54.0505 495.566 54.0526 495.588 54.0587 495.608C54.0648 495.629 54.0749 495.648 54.0884 495.664C59.082 501.275 64.6223 506.37 70.6266 510.875C68.9862 510.429 67.3429 509.953 65.7506 509.381C52.5805 504.926 40.8757 496.94 31.9055 486.289C31.8882 486.109 31.5174 486.326 31.6513 486.464C39.2722 495.619 48.6952 503.097 59.3298 508.43C64.6611 511.084 70.2775 513.118 76.0692 514.491C82.789 515.879 89.5947 516.807 96.4394 517.27C103.135 517.716 109.791 518.639 116.356 520.032C122.409 521.47 128.201 523.849 133.522 527.081C143.594 533.47 152.045 542.125 158.206 552.358C166.134 565.9 171.701 580.698 174.668 596.115C174.732 596.774 175.837 596.667 175.713 596.014C171.729 570.37 162.225 544.049 140.57 527.972Z" fill="black"/>
<path d="M95.9745 512.145C93.7812 509.454 90.9584 507.348 87.7576 506.016C84.1139 504.51 80.8191 502.265 78.0795 499.423C78.0621 499.244 77.6913 499.461 77.8252 499.599C80.3087 502.21 83.2302 504.363 86.4564 505.96C89.9658 507.43 93.1463 509.589 95.8099 512.312C95.8696 512.307 96.0641 512.137 95.9745 512.145Z" fill="white"/>
<path d="M121.798 575.738L126.745 609.482L141.888 712.59L218.985 705.143L214.113 601.043L212.51 566.976L121.798 575.738Z" fill="#263238"/>
<path d="M121.798 575.738L126.745 609.482L214.113 601.043L212.51 566.976L121.798 575.738Z" fill="#DBDBDB"/>
<path d="M115.025 562.093L216.546 552.286L219.671 584.634L118.15 594.441L115.025 562.093Z" fill="#EBEBEB"/>
<path d="M964.047 190H197.56C183.411 190 171.942 201.47 171.942 215.619V705.135C171.942 719.284 183.411 730.754 197.56 730.754H964.047C978.196 730.754 989.666 719.284 989.666 705.135V215.619C989.666 201.47 978.196 190 964.047 190Z" fill="#DBDBDB"/>
<path d="M145.18 695.816H1031.11V711.764C1031.11 720.065 1027.81 728.026 1021.94 733.895C1016.07 739.765 1008.11 743.062 999.811 743.062H176.46C168.162 743.058 160.206 739.758 154.34 733.889C148.475 728.02 145.18 720.062 145.18 711.764V695.746V695.816Z" fill="#707070"/>
<path d="M500.185 690.753L511.192 708.231H665.889L676.087 690.753H500.185Z" fill="#263238"/>
<path d="M982.633 690.752C982.633 691.051 801.139 691.28 577.322 691.28C353.506 691.28 171.942 691.051 171.942 690.752C171.942 690.453 353.4 690.225 577.322 690.225C801.244 690.225 982.633 690.453 982.633 690.752Z" fill="#263238"/>
<path d="M957.295 221.087H201.112C197.937 221.087 195.363 223.661 195.363 226.837V670.707C195.363 673.882 197.937 676.457 201.112 676.457H957.295C960.471 676.457 963.045 673.882 963.045 670.707V226.837C963.045 223.661 960.471 221.087 957.295 221.087Z" fill="#A6A6A6"/>
<path d="M217.84 237.725C217.84 238.8 217.522 239.851 216.927 240.746C216.331 241.64 215.485 242.336 214.494 242.748C213.504 243.159 212.414 243.267 211.363 243.057C210.311 242.848 209.346 242.33 208.588 241.569C207.83 240.809 207.313 239.84 207.104 238.786C206.895 237.731 207.002 236.638 207.413 235.644C207.823 234.651 208.518 233.802 209.409 233.204C210.3 232.607 211.348 232.288 212.42 232.288C213.133 232.284 213.84 232.422 214.499 232.694C215.158 232.965 215.758 233.366 216.262 233.871C216.766 234.377 217.165 234.978 217.436 235.64C217.707 236.301 217.844 237.01 217.84 237.725Z" fill="#C7C7C7"/>
<path d="M234.531 243.162C237.525 243.162 239.951 240.728 239.951 237.725C239.951 234.722 237.525 232.288 234.531 232.288C231.538 232.288 229.111 234.722 229.111 237.725C229.111 240.728 231.538 243.162 234.531 243.162Z" fill="white"/>
<path d="M262 237.725C262 238.8 261.682 239.851 261.087 240.746C260.491 241.64 259.644 242.336 258.654 242.748C257.664 243.159 256.574 243.267 255.523 243.057C254.471 242.848 253.505 242.33 252.747 241.569C251.989 240.809 251.473 239.84 251.264 238.786C251.055 237.731 251.162 236.638 251.573 235.644C251.983 234.651 252.678 233.802 253.569 233.204C254.46 232.607 255.508 232.288 256.58 232.288C257.293 232.284 258 232.422 258.659 232.694C259.318 232.965 259.917 233.366 260.422 233.871C260.926 234.377 261.325 234.978 261.596 235.64C261.867 236.301 262.004 237.01 262 237.725Z" fill="#FFC727"/>
<path d="M962.219 678.124H194.536L195.363 256.127H962.219V678.124Z" fill="#C6C6C6"/>
<path d="M898.585 658.908C898.581 659.291 898.499 659.669 898.342 660.018C898.185 660.367 897.957 660.68 897.672 660.936C897.388 661.192 897.053 661.387 896.69 661.507C896.326 661.627 895.941 661.67 895.56 661.633C893.292 661.633 892.044 660.174 892.044 657.501C891.974 656.933 892.029 656.357 892.205 655.813C892.381 655.269 892.673 654.769 893.061 654.349C893.449 653.929 893.924 653.599 894.453 653.381C894.982 653.163 895.552 653.063 896.123 653.088C896.886 653.069 897.639 653.257 898.303 653.633L897.723 654.793C897.254 654.504 896.709 654.363 896.158 654.389C894.593 654.389 893.609 655.356 893.609 657.237C893.893 656.941 894.238 656.71 894.621 656.561C895.004 656.412 895.414 656.349 895.824 656.376C896.174 656.352 896.524 656.399 896.855 656.515C897.186 656.631 897.489 656.813 897.747 657.05C898.006 657.286 898.213 657.573 898.357 657.893C898.501 658.212 898.578 658.557 898.585 658.908ZM897.09 658.908C897.09 658.046 896.439 657.501 895.437 657.501C895.226 657.466 895.01 657.476 894.804 657.531C894.597 657.585 894.404 657.683 894.238 657.818C894.072 657.952 893.936 658.121 893.84 658.312C893.743 658.502 893.688 658.712 893.679 658.925C893.679 659.699 894.294 660.314 895.437 660.314C895.635 660.347 895.838 660.337 896.032 660.286C896.226 660.234 896.407 660.143 896.563 660.016C896.719 659.89 896.847 659.732 896.937 659.553C897.028 659.375 897.08 659.178 897.09 658.978V658.908Z" fill="white"/>
<path d="M899.341 656.059C899.322 655.92 899.333 655.779 899.374 655.644C899.414 655.51 899.483 655.385 899.575 655.28C899.668 655.174 899.782 655.089 899.91 655.031C900.037 654.973 900.176 654.943 900.317 654.943C900.457 654.943 900.596 654.973 900.724 655.031C900.851 655.089 900.965 655.174 901.058 655.28C901.15 655.385 901.219 655.51 901.259 655.644C901.3 655.779 901.311 655.92 901.292 656.059C901.311 656.198 901.3 656.34 901.259 656.474C901.219 656.609 901.15 656.733 901.058 656.839C900.965 656.944 900.851 657.029 900.724 657.087C900.596 657.145 900.457 657.175 900.317 657.175C900.176 657.175 900.037 657.145 899.91 657.087C899.782 657.029 899.668 656.944 899.575 656.839C899.483 656.733 899.414 656.609 899.374 656.474C899.333 656.34 899.322 656.198 899.341 656.059ZM899.341 660.578C899.322 660.439 899.333 660.297 899.374 660.163C899.414 660.029 899.483 659.904 899.575 659.799C899.668 659.693 899.782 659.608 899.91 659.55C900.037 659.492 900.176 659.462 900.317 659.462C900.457 659.462 900.596 659.492 900.724 659.55C900.851 659.608 900.965 659.693 901.058 659.799C901.15 659.904 901.219 660.029 901.259 660.163C901.3 660.297 901.311 660.439 901.292 660.578C901.311 660.717 901.3 660.859 901.259 660.993C901.219 661.128 901.15 661.252 901.058 661.358C900.965 661.463 900.851 661.548 900.724 661.606C900.596 661.664 900.457 661.694 900.317 661.694C900.176 661.694 900.037 661.664 899.91 661.606C899.782 661.548 899.668 661.463 899.575 661.358C899.483 661.252 899.414 661.128 899.374 660.993C899.333 660.859 899.322 660.717 899.341 660.578Z" fill="white"/>
<path d="M902.277 657.325C902.277 654.6 903.772 653.053 905.794 653.053C907.816 653.053 909.311 654.6 909.311 657.325C909.311 660.051 907.816 661.598 905.794 661.598C903.772 661.598 902.277 660.051 902.277 657.325ZM907.658 657.325C907.658 655.321 906.884 654.407 905.741 654.407C904.598 654.407 903.825 655.321 903.825 657.325C903.825 659.33 904.616 660.262 905.741 660.262C906.866 660.262 907.658 659.33 907.658 657.325Z" fill="white"/>
<path d="M910.242 657.325C910.242 654.6 911.737 653.053 913.759 653.053C915.781 653.053 917.276 654.6 917.276 657.325C917.276 660.051 915.781 661.598 913.759 661.598C911.737 661.598 910.242 660.051 910.242 657.325ZM915.64 657.325C915.64 655.321 914.849 654.407 913.706 654.407C912.563 654.407 911.807 655.321 911.807 657.325C911.807 659.33 912.581 660.262 913.706 660.262C914.832 660.262 915.64 659.33 915.64 657.325Z" fill="white"/>
<path d="M930.604 656.816H927.721V648.534H935.985V651.4H930.604V656.816Z" fill="white"/>
<path d="M936.002 667.612H927.721V659.348H930.587V664.746H936.002V667.612Z" fill="white"/>
<path d="M949.171 667.612H940.925V664.746H946.305V659.33H949.171V667.612Z" fill="white"/>
<path d="M949.189 656.798H946.323V651.4H940.907V648.534H949.189V656.798Z" fill="white"/>
<path d="M715.727 402.74C724.532 407.748 732.256 414.452 738.453 422.464C744.649 430.477 749.195 439.639 751.826 449.42C761.221 483.03 789.949 570.556 789.949 570.556C789.949 570.556 806.364 589.87 808.115 604.166C809.866 618.461 806.364 653.063 801.074 659.521C799.542 661.394 797.575 662.865 795.344 663.804C793.113 664.743 790.687 665.122 788.276 664.908L719.17 658.354L691.939 476.145L715.727 402.74Z" fill="#455A64"/>
<path d="M487.228 399.57C487.228 399.57 437.805 415.13 425.493 428.551L465.949 616.75L465.23 676.151H699.565C699.565 673.214 701.665 478.965 701.665 478.965L715.728 402.74L632.501 388.095L616.085 375.18L523.444 379.887L509.362 393.949L487.228 399.57Z" fill="#455A64"/>
<g opacity="0.3">
<path d="M506.075 562.854C505.355 561.259 504.305 559.528 502.594 559.178C499.773 558.594 497.887 561.92 496.934 564.643C489.462 585.979 479.109 606.193 466.163 624.725L465.561 653.627C479.176 642.132 492.674 629.82 501.388 614.241C510.101 598.661 513.349 579.114 506.075 562.854Z" fill="black"/>
</g>
<path d="M425.493 428.551C425.493 428.551 409.213 450.743 402.464 465.234C395.715 479.724 339.679 601.384 336.334 613.969C332.988 626.553 324.275 666.114 349.852 675.295H402.503L455.33 568.455L458.033 444.461L425.493 428.551Z" fill="#455A64"/>
<path d="M405.829 598.116C405.829 598.116 404.662 597.086 402.231 595.705C398.761 593.843 395.04 592.494 391.183 591.698C388.532 591.117 385.84 590.74 383.131 590.57C380.01 590.335 376.871 590.557 373.814 591.231C366.895 593.008 360.702 596.897 356.095 602.357C351.412 607.755 347.984 614.126 346.059 621.009C344.471 626.635 343.416 632.399 342.908 638.223C342.403 643.202 342.228 647.267 342.052 650.048C342.052 651.371 341.897 652.441 341.858 653.277C341.859 653.658 341.807 654.038 341.702 654.405C341.677 654.029 341.677 653.653 341.702 653.277C341.702 652.421 341.702 651.332 341.702 650.048C341.702 647.228 341.819 643.182 342.228 638.164C342.639 632.245 343.636 626.381 345.203 620.659C347.114 613.62 350.592 607.104 355.376 601.598C360.126 595.986 366.523 592.012 373.659 590.239C376.779 589.589 379.978 589.412 383.151 589.714C385.897 589.916 388.622 590.338 391.3 590.978C395.2 591.845 398.94 593.315 402.387 595.335C403.315 595.909 404.193 596.559 405.012 597.28C405.314 597.529 405.587 597.81 405.829 598.116Z" fill="#263238"/>
<path d="M380.874 576.838C381.45 576.67 382.045 576.578 382.644 576.566C384.269 576.439 385.901 576.439 387.526 576.566C389.945 576.707 392.347 577.065 394.703 577.635C400.499 579.036 405.938 581.633 410.672 585.26C412.6 586.727 414.39 588.368 416.02 590.161C417.125 591.377 418.133 592.678 419.035 594.051C419.402 594.527 419.703 595.05 419.93 595.607C419.774 595.724 418.335 593.662 415.495 590.706C413.817 589.024 412.017 587.471 410.108 586.057C407.757 584.346 405.257 582.849 402.639 581.584C400.005 580.356 397.273 579.354 394.47 578.588C392.171 577.996 389.83 577.58 387.468 577.344C383.422 576.818 380.874 577.032 380.874 576.838Z" fill="#263238"/>
<path d="M428.449 570.984C427.635 571.017 426.819 570.958 426.018 570.809C424.462 570.614 422.225 570.381 419.425 570.167C404.878 569.082 390.26 570.833 376.381 575.321C373.717 576.177 371.577 576.935 370.118 577.499C369.374 577.829 368.599 578.083 367.804 578.258C368.473 577.793 369.199 577.414 369.963 577.13C371.383 576.449 373.503 575.593 376.148 574.64C390.037 569.722 404.846 567.955 419.502 569.467C422.284 569.758 424.54 570.089 426.076 570.42C426.884 570.532 427.678 570.72 428.449 570.984Z" fill="#263238"/>
<path d="M578.391 467.023C578.177 466.838 577.994 466.622 577.846 466.381L576.407 464.436L571.116 457.123C566.584 450.705 560.244 441.758 552.794 431.255L553.611 431.138C550.771 439.462 547.64 448.643 544.353 458.368L544.139 458.971L543.594 458.621L542.505 457.921C538.267 455.208 534.414 451.937 531.049 448.196C527.939 444.713 525.195 440.919 522.861 436.876C518.975 430.033 515.95 422.735 513.855 415.15C512.449 410.026 511.313 404.832 510.451 399.59C510.14 397.839 509.907 396.419 509.712 395.35C509.657 394.987 509.573 394.629 509.459 394.28C509.459 394.046 509.323 393.93 509.343 393.91C509.362 393.891 510.14 395.855 510.84 399.531C511.541 403.207 512.649 408.498 514.555 414.897C516.709 422.412 519.773 429.636 523.677 436.409C526.006 440.377 528.723 444.104 531.788 447.534C535.095 451.186 538.876 454.378 543.03 457.026L544.1 457.726L543.361 457.998C546.687 448.273 549.838 439.151 552.717 430.768L553.008 429.912L553.533 430.652C560.847 441.252 567.148 450.277 571.564 456.734C573.684 459.885 575.454 462.394 576.64 464.222L577.943 466.167C578.122 466.436 578.272 466.723 578.391 467.023Z" fill="#263238"/>
<g opacity="0.3">
<path d="M639.366 556.863C637.268 578.81 642.025 600.867 652.981 619.998C663.873 638.943 679.861 655.845 699.759 664.909C700.4 645.595 699.467 622.838 700.109 603.524L639.366 556.863Z" fill="black"/>
</g>
<path d="M637.169 531.441C637.169 531.441 628.65 533.795 635.029 551.242C641.409 568.688 643.548 567.619 647.808 583.918C652.067 600.217 657.027 615.038 664.457 624.335C671.887 633.632 699.565 652.343 699.565 652.343L724.383 629.003C724.383 629.003 720.298 611.498 721.271 599.711C722.243 587.925 724.733 558.866 724.383 553.829C724.033 548.791 718.704 536.81 718.704 536.81V528.563L705.944 489.313C705.944 489.313 698.845 486.123 696.375 497.462L692.115 485.423C692.115 485.423 685.386 484.353 683.616 498.182C681.846 512.011 685.035 531.15 685.035 531.15L681.476 555.248L676.166 571.567L671.556 572.267C671.556 572.267 664.613 570.322 660.82 557.31C657.027 544.298 646.738 528.602 637.169 531.441Z" fill="#FFBE9D"/>
<path d="M716.136 593.176C716.136 593.176 716.136 592.884 716.019 592.3C715.902 591.717 715.902 590.764 715.844 589.694C715.708 587.321 715.533 584.034 715.319 579.969C714.93 571.508 714.405 559.721 713.782 545.97L713.88 546.262C713.244 545.603 712.441 545.132 711.556 544.898C710.671 544.665 709.739 544.679 708.862 544.939C707.91 545.17 707.014 545.589 706.226 546.17C705.438 546.751 704.773 547.483 704.271 548.324C702.093 551.805 701.976 556.357 701.295 560.733C699.953 570.672 698.67 580.183 697.503 588.76C696.919 593.078 696.297 597.163 695.46 600.956C694.673 604.473 693.639 607.931 692.368 611.303C691.279 614.396 690.306 617.138 689.703 619.725C689.165 621.855 688.897 624.044 688.906 626.241C688.974 628.131 689.302 630.002 689.878 631.804C689.645 631.367 689.45 630.912 689.295 630.442C688.833 629.093 688.571 627.685 688.517 626.26C688.424 624.005 688.64 621.747 689.159 619.55C689.841 616.663 690.691 613.818 691.707 611.031C692.909 607.671 693.884 604.233 694.624 600.742C695.421 596.988 696.024 592.962 696.569 588.605C697.697 579.969 698.961 570.516 700.284 560.558C700.595 558.36 700.829 556.162 701.218 553.984C701.536 551.782 702.276 549.662 703.396 547.74C703.975 546.796 704.735 545.977 705.634 545.329C706.532 544.681 707.55 544.218 708.628 543.967C709.676 543.652 710.792 543.638 711.848 543.927C712.904 544.215 713.857 544.796 714.599 545.601L714.697 545.737V545.892C715.183 559.644 715.591 571.43 715.883 579.911C715.883 584.015 716.058 587.302 716.136 589.636C716.136 590.705 716.136 591.581 716.136 592.242C716.169 592.552 716.169 592.865 716.136 593.176Z" fill="#EB996E"/>
<path d="M702.52 548.441C702.078 547.75 701.725 547.005 701.47 546.224C700.657 544.151 699.963 542.034 699.389 539.883C698.555 536.691 697.963 533.44 697.619 530.158C697.379 528.223 697.34 526.267 697.502 524.323C697.683 522.15 698.42 520.06 699.642 518.255C700.733 516.636 702.335 515.431 704.193 514.832L704.563 514.734L704.757 515.065C708.355 521.406 711.487 527.007 713.665 531.034L716.213 535.799C716.562 536.357 716.837 536.959 717.03 537.588C716.595 537.094 716.217 536.552 715.902 535.974L713.101 531.364C710.767 527.474 707.519 521.892 703.901 515.571L704.465 515.804C702.838 516.348 701.436 517.415 700.478 518.838C699.358 520.507 698.688 522.436 698.533 524.44C698.338 526.341 698.338 528.257 698.533 530.158C698.826 533.431 699.339 536.68 700.07 539.883C700.692 542.606 701.373 544.785 701.82 546.282C702.125 546.977 702.359 547.7 702.52 548.441Z" fill="#EB996E"/>
<path d="M696.569 551.631C696.395 550.885 696.317 550.12 696.335 549.355C696.335 547.682 696.18 545.621 696.082 543.189C695.927 537.977 695.752 530.78 695.654 522.825C695.364 516.024 695.468 509.211 695.966 502.422C696.209 500.361 696.652 498.329 697.288 496.354C697.477 495.608 697.786 494.899 698.202 494.253C697.488 496.96 696.975 499.717 696.666 502.5C696.18 507.654 696.666 514.851 696.666 522.806C696.666 530.761 696.821 537.957 696.802 543.17C696.802 545.621 696.802 547.682 696.802 549.355C696.808 550.12 696.729 550.883 696.569 551.631Z" fill="#EB996E"/>
<path d="M675.582 617.002C675.446 616.886 677.002 615.057 678.908 611.731C680.026 609.791 680.995 607.769 681.806 605.682C682.761 603.115 683.503 600.474 684.024 597.786C684.478 595.086 684.706 592.354 684.704 589.617C684.675 587.381 684.48 585.152 684.121 582.945C683.479 579.152 682.662 576.896 682.837 576.838C683.144 577.313 683.38 577.831 683.537 578.374C684.086 579.815 684.516 581.298 684.821 582.809C685.297 585.043 685.571 587.314 685.638 589.597C685.809 595.224 684.795 600.823 682.662 606.032C681.803 608.145 680.755 610.176 679.531 612.101C678.72 613.406 677.803 614.642 676.788 615.796C676.069 616.613 675.641 617.041 675.582 617.002Z" fill="#EB996E"/>
<path d="M719.15 604.846L740.682 612.315C740.682 612.315 761.26 601.675 775.439 612.315C789.618 622.954 801.93 650.981 798.04 662.321C798.04 662.321 788.315 674.419 780.807 676.189C773.3 677.959 744.416 670.937 732.377 668.409C720.337 665.88 699.564 652.382 699.564 652.382L719.15 604.846Z" fill="#FFBE9D"/>
<path d="M721.796 636.529C721.645 635.892 721.566 635.239 721.563 634.584C721.563 633.125 721.388 631.394 721.271 629.372C721.038 624.976 720.746 618.907 720.649 612.178C720.551 605.448 720.746 599.36 721.135 594.964C721.329 592.767 721.582 591.074 721.796 589.771C721.844 589.104 721.995 588.448 722.243 587.826C722.399 587.826 722.068 590.549 721.854 594.945C721.641 599.341 721.563 605.39 721.66 612.1C721.757 618.81 721.893 624.606 721.971 629.274C721.971 631.472 721.971 633.262 721.971 634.487C722.023 635.173 721.964 635.862 721.796 636.529Z" fill="#EB996E"/>
<path d="M792.808 611.421C790.577 609.103 788.185 606.945 785.651 604.963C779.423 600.304 771.956 597.59 764.19 597.165C756.423 596.739 748.704 598.62 742.005 602.571C739.286 604.265 736.687 606.143 734.225 608.192C734.738 607.478 735.332 606.826 735.995 606.247C737.745 604.621 739.654 603.174 741.694 601.929C748.458 597.716 756.358 595.692 764.316 596.134C772.273 596.576 779.9 599.462 786.156 604.399C788.048 605.854 789.782 607.504 791.33 609.32C791.903 609.96 792.4 610.665 792.808 611.421Z" fill="#263238"/>
<path d="M790.046 593.468C787.265 591.47 784.255 589.812 781.08 588.528C773.276 585.757 764.8 585.506 756.845 587.808C752.469 589.036 748.257 590.786 744.3 593.021C741.078 594.872 738.037 597.021 735.217 599.439C732.805 601.501 730.957 603.329 729.693 604.555C729.072 605.264 728.389 605.915 727.651 606.5C728.157 605.715 728.743 604.985 729.401 604.321C731.081 602.426 732.867 600.627 734.75 598.934C737.545 596.409 740.588 594.174 743.833 592.262C747.83 589.926 752.112 588.116 756.573 586.875C764.722 584.494 773.428 584.856 781.352 587.905C783.719 588.851 785.949 590.107 787.985 591.64C788.704 592.165 789.191 592.671 789.56 592.982C789.93 593.293 790.046 593.449 790.046 593.468Z" fill="#263238"/>
<path d="M790.221 577.908C790.221 578.102 786.331 576.955 780.146 576.118C776.491 575.628 772.805 575.394 769.118 575.418C764.6 575.468 760.093 575.871 755.639 576.624C751.193 577.441 746.817 578.598 742.549 580.086C739.07 581.321 735.683 582.803 732.415 584.521C726.833 587.438 723.682 589.811 723.565 589.636C724.226 588.995 724.949 588.421 725.724 587.924C726.572 587.257 727.462 586.647 728.389 586.096C729.459 585.415 730.665 584.618 732.065 583.879C735.334 582.07 738.735 580.51 742.238 579.211C746.536 577.642 750.961 576.445 755.464 575.632C759.962 574.871 764.516 574.487 769.079 574.484C772.812 574.503 776.538 574.809 780.224 575.398C781.799 575.593 783.199 575.963 784.425 576.215C785.489 576.431 786.541 576.703 787.576 577.032C788.481 577.247 789.366 577.54 790.221 577.908Z" fill="#263238"/>
<path d="M625.226 387.452C626.033 389.263 626.532 391.196 626.704 393.17C627.285 398.749 627.009 404.383 625.887 409.878C625.205 413.822 624.276 417.72 623.106 421.548C621.573 426.003 619.687 430.328 617.466 434.483C612.817 443.43 606.982 453.174 600.213 463.658L599.435 464.883V463.424C599.435 456.539 599.435 449.323 599.435 441.835L600.194 442.204L581.93 456.772L582.086 456.539C577.754 470.736 575.09 485.39 574.15 500.204C572.361 523.875 573.8 546.515 574.909 567.055C576.017 587.594 576.504 606.13 577.146 621.69C577.787 637.25 578.313 649.815 578.779 658.509C579.052 662.827 579.246 666.172 579.382 668.506C579.382 669.615 579.518 670.451 579.557 671.113C579.596 671.774 579.557 672.007 579.557 672.007C579.557 672.007 579.557 671.716 579.421 671.132C579.285 670.549 579.266 669.634 579.149 668.526C578.935 666.25 578.663 662.885 578.371 658.528C577.787 649.854 577.107 637.269 576.426 621.709C575.745 606.149 574.909 587.652 573.975 567.093C573.042 546.535 571.349 523.875 573.139 500.127C574.122 485.224 576.858 470.49 581.288 456.228V456.092H581.405L599.61 441.485L600.369 440.862V441.835C600.369 449.323 600.369 456.539 600.369 463.424L599.572 463.171C612.934 442.457 623.806 424.446 625.479 409.878C626.634 404.435 626.988 398.852 626.529 393.307C626.37 391.85 626.104 390.406 625.732 388.989C625.343 387.938 625.226 387.452 625.226 387.452Z" fill="#263238"/>
<path d="M590.333 638.34H589.71C588.294 638.431 586.968 639.069 586.014 640.12C585.06 641.17 584.552 642.551 584.598 643.969C584.643 645.388 585.239 646.733 586.258 647.72C587.277 648.708 588.641 649.26 590.06 649.26C591.479 649.26 592.843 648.708 593.863 647.72C594.882 646.733 595.477 645.388 595.523 643.969C595.568 642.551 595.06 641.17 594.106 640.12C593.152 639.069 591.827 638.431 590.41 638.34H590.333Z" fill="white"/>
<path d="M590.333 563.378H589.71C588.299 563.469 586.978 564.105 586.028 565.152C585.077 566.199 584.571 567.575 584.617 568.988C584.662 570.401 585.256 571.741 586.272 572.725C587.288 573.709 588.646 574.259 590.06 574.259C591.474 574.259 592.833 573.709 593.849 572.725C594.865 571.741 595.458 570.401 595.503 568.988C595.549 567.575 595.043 566.199 594.092 565.152C593.142 564.105 591.821 563.469 590.41 563.378H590.333Z" fill="white"/>
<path d="M589.71 496.315C591.163 496.41 592.593 495.925 593.687 494.965C594.782 494.006 595.45 492.651 595.545 491.199C595.641 489.747 595.156 488.317 594.196 487.222C593.237 486.128 591.882 485.46 590.43 485.364H589.71C588.256 485.364 586.861 485.942 585.832 486.971C584.803 487.999 584.225 489.395 584.225 490.849C584.225 492.304 584.803 493.699 585.832 494.728C586.861 495.756 588.256 496.334 589.71 496.334V496.315Z" fill="white"/>
<path d="M505.627 299.616C498.82 292.05 492.012 284.425 486.975 275.556C481.937 266.687 479.039 256.32 480.673 246.381C481.645 240.546 484.135 234.905 484.563 228.876C485.108 220.707 481.684 212.168 484.563 204.524C489.075 192.543 505.2 190.695 514.963 182.429C522.568 175.991 526.264 165.546 534.627 160.139C541.941 155.393 551.335 155.51 559.913 156.716C568.49 157.922 577.204 160.12 585.84 158.953C591.986 158.136 597.782 155.646 603.792 154.148C609.802 152.651 616.551 152.203 621.9 155.393C627.249 158.583 630.283 166.11 626.763 171.226C636.76 166.616 649.461 174.415 652.203 185.074C654.946 195.733 649.461 207.267 640.981 214.249C632.5 221.232 621.531 224.558 610.736 226.6C580.121 232.435 546.881 229.109 520.487 212.538" fill="#263238"/>
<path d="M613.322 402.564C611.825 390.894 610.599 381.305 610.522 380.099C610.522 380.099 649.266 371.386 647.127 332.213C646.096 313.269 640.805 274.446 635.593 239.378C632.914 221.198 623.483 204.696 609.179 193.161C594.875 181.625 576.749 175.904 558.415 177.138L554.525 177.371C513.971 182.486 495.63 219.792 501.854 260.209L523.755 395.718C523.755 395.718 533.091 425.69 553.066 430.884L578.351 466.905L582.513 451.345L601.302 434.968C604.903 430.734 608.015 426.108 610.58 421.178C613.448 415.422 614.409 408.903 613.322 402.564Z" fill="#FFBE9D"/>
<path d="M610.541 379.555C610.541 379.555 585.937 383.212 558.531 368.449C558.531 368.449 572.497 395.816 611.319 389.689L610.541 379.555Z" fill="#EB996E"/>
<path d="M623.009 273.065C623.118 274.522 622.655 275.965 621.718 277.087C620.781 278.209 619.444 278.922 617.991 279.075C617.283 279.179 616.562 279.139 615.869 278.959C615.177 278.779 614.528 278.462 613.96 278.027C613.393 277.592 612.918 277.047 612.565 276.425C612.211 275.804 611.986 275.117 611.903 274.407C611.773 272.938 612.23 271.477 613.174 270.343C614.118 269.21 615.472 268.496 616.94 268.358C617.65 268.257 618.372 268.3 619.064 268.484C619.756 268.667 620.405 268.988 620.971 269.427C621.537 269.866 622.009 270.414 622.359 271.039C622.709 271.664 622.93 272.353 623.009 273.065Z" fill="#263238"/>
<path d="M628.474 259.177C627.832 259.955 623.378 257.096 617.368 257.524C611.357 257.952 607.215 261.239 606.437 260.578C606.106 260.286 606.728 258.925 608.557 257.388C611.034 255.407 614.065 254.245 617.231 254.062C620.364 253.834 623.486 254.619 626.14 256.299C628.085 257.544 628.785 258.827 628.474 259.177Z" fill="#263238"/>
<path d="M566.176 277.13C566.29 278.587 565.828 280.03 564.89 281.15C563.952 282.27 562.612 282.977 561.158 283.121C560.451 283.227 559.73 283.191 559.038 283.013C558.346 282.835 557.697 282.52 557.129 282.087C556.561 281.653 556.086 281.109 555.732 280.488C555.378 279.867 555.153 279.182 555.07 278.472C554.96 277.017 555.421 275.577 556.353 274.456C557.286 273.334 558.618 272.619 560.069 272.462C560.777 272.358 561.5 272.397 562.193 272.577C562.887 272.757 563.537 273.073 564.106 273.508C564.675 273.943 565.152 274.488 565.507 275.11C565.863 275.732 566.09 276.419 566.176 277.13Z" fill="#263238"/>
<path d="M569.424 264.253C568.762 265.031 564.328 262.172 558.317 262.6C552.307 263.028 548.087 266.315 547.387 265.615C547.036 265.323 547.659 263.962 549.487 262.425C551.974 260.448 555.01 259.286 558.181 259.099C561.307 258.875 564.423 259.659 567.07 261.336C569.015 262.62 569.735 263.903 569.424 264.253Z" fill="#263238"/>
<path d="M594.222 307.413C594.222 307.063 597.879 306.168 603.948 304.981C605.465 304.729 606.904 304.32 607.098 303.27C607.118 301.671 606.649 300.104 605.756 298.777L600.427 287.379C593.017 271.158 587.532 257.757 588.193 257.465C588.854 257.173 595.389 270.088 602.819 286.329L607.954 297.804C609.042 299.592 609.469 301.705 609.16 303.776C608.972 304.33 608.66 304.835 608.25 305.253C607.839 305.671 607.339 305.99 606.787 306.187C605.951 306.477 605.082 306.66 604.2 306.732C598.054 307.471 594.281 307.743 594.222 307.413Z" fill="#263238"/>
<path d="M569.385 240.563C568.899 242.255 562.85 241.866 555.77 243.189C548.69 244.511 543.186 246.826 542.155 245.426C541.688 244.745 542.583 243.15 544.78 241.399C547.724 239.263 551.114 237.821 554.694 237.181C558.275 236.541 561.954 236.72 565.456 237.704C568.198 238.579 569.599 239.785 569.385 240.563Z" fill="#263238"/>
<path d="M625.09 241.905C624.137 243.345 619.897 242.216 614.898 242.469C609.9 242.722 605.757 244.006 604.687 242.644C604.22 241.983 604.804 240.563 606.632 239.143C609.008 237.434 611.837 236.467 614.761 236.363C617.686 236.259 620.576 237.023 623.067 238.56C624.857 239.844 625.518 241.127 625.09 241.905Z" fill="#263238"/>
<path d="M507.087 289.093C506.406 288.86 479.662 282.947 482.307 309.652C484.952 336.357 513.855 327.643 513.855 326.885C513.855 326.126 507.087 289.093 507.087 289.093Z" fill="#FFBE9D"/>
<path d="M502.03 318.114C501.894 318.114 501.602 318.483 500.843 318.911C499.789 319.5 498.547 319.653 497.381 319.339C494.444 318.58 491.546 314.34 491.021 309.614C490.731 307.332 490.95 305.013 491.663 302.826C491.837 301.972 492.215 301.173 492.763 300.496C493.312 299.819 494.015 299.284 494.814 298.936C495.336 298.743 495.91 298.738 496.435 298.923C496.961 299.108 497.405 299.47 497.692 299.947C498.12 300.667 498.004 301.212 498.14 301.231C498.276 301.25 498.665 300.745 498.354 299.656C498.135 299.007 497.703 298.452 497.128 298.08C496.733 297.814 496.289 297.63 495.821 297.536C495.354 297.443 494.873 297.442 494.405 297.535C493.333 297.864 492.362 298.463 491.586 299.273C490.809 300.083 490.253 301.079 489.971 302.165C489.059 304.589 488.758 307.201 489.096 309.77C489.796 315.138 492.986 319.903 497.012 320.623C497.752 320.763 498.514 320.735 499.241 320.54C499.969 320.344 500.643 319.987 501.213 319.495C502.049 318.756 502.185 318.153 502.03 318.114Z" fill="#EB996E"/>
<path d="M633.629 202.91C631.801 213.549 610.289 223.293 592.356 222.768C575.882 222.282 567.732 214.113 555.771 208.297C548.185 204.621 548.185 204.621 537.896 206.352C529.591 207.694 525.273 217.517 520.605 224.519C529.494 243.969 525.895 266.453 522.122 287.459C521.959 289.828 521.007 292.074 519.418 293.839C516.423 296.484 511.638 294.909 508.604 292.205C503.878 287.868 501.719 281.449 500.182 275.225C496.413 261.069 495.514 246.302 497.537 231.793C499.582 217.213 505.857 203.553 515.587 192.504C528.311 179.096 545.745 171.153 564.212 170.35C582.587 169.692 600.702 174.836 615.988 185.054C623.068 189.703 629.603 195.441 633.688 202.89" fill="#263238"/>
<path d="M598.171 320.874L584.556 314.533C583.81 314.092 582.952 313.876 582.086 313.911C581.129 314.127 580.288 314.696 579.733 315.506C578.137 317.416 577.141 319.755 576.872 322.23C576.602 324.704 577.069 327.203 578.216 329.413C579.462 331.565 581.422 333.213 583.755 334.073C586.089 334.933 588.65 334.949 590.994 334.12C595.818 332.175 598.152 326.515 598.541 321.302L598.171 320.874Z" fill="#EB996E"/>
<path d="M591.422 335.132C591.422 335.249 590.78 335.638 589.477 335.929C587.527 336.279 585.52 336.132 583.642 335.502C580.77 334.534 578.363 332.53 576.893 329.88C575.962 328.266 575.404 326.464 575.26 324.607C575.115 322.749 575.387 320.883 576.056 319.144C576.741 317.342 577.817 315.714 579.207 314.379C579.882 313.741 580.626 313.179 581.424 312.706C581.903 312.421 582.444 312.254 583 312.22C583.54 312.198 584.079 312.298 584.575 312.511C585.302 312.878 586.01 313.28 586.696 313.717L588.543 314.865L591.869 316.927C595.895 319.494 598.327 321.206 598.19 321.439C598.054 321.672 595.37 320.428 591.15 318.171L587.707 316.226L585.762 315.157C585.101 314.826 584.4 314.379 583.817 314.145C583.577 314.03 583.31 313.984 583.046 314.012C582.782 314.039 582.53 314.139 582.319 314.301C581.673 314.708 581.073 315.184 580.53 315.721C579.375 316.87 578.474 318.248 577.885 319.766C577.32 321.239 577.08 322.817 577.181 324.391C577.282 325.965 577.721 327.499 578.468 328.888C579.68 331.216 581.669 333.047 584.089 334.062C585.764 334.737 587.555 335.074 589.36 335.054C590.644 335.112 591.364 334.996 591.422 335.132Z" fill="#263238"/>
<path d="M587.123 273.747C586.93 271.468 586.572 269.205 586.053 266.978C585.09 263.254 583.358 259.772 580.97 256.757C578.581 253.742 575.588 251.259 572.182 249.47C568.777 247.68 565.035 246.623 561.197 246.365C557.359 246.108 553.509 246.656 549.896 247.975C547.405 248.869 545.064 250.134 542.952 251.729C540.7 253.341 538.729 255.313 537.117 257.564C533.65 262.251 531.779 267.927 531.779 273.756C531.779 279.586 533.65 285.262 537.117 289.948C538.729 292.2 540.7 294.171 542.952 295.784C545.064 297.378 547.405 298.644 549.896 299.537C553.51 300.844 557.357 301.383 561.191 301.12C565.025 300.857 568.763 299.797 572.165 298.009C575.567 296.221 578.559 293.744 580.95 290.735C583.342 287.727 585.079 284.252 586.053 280.535C586.57 278.313 586.927 276.058 587.123 273.785C587.145 273.934 587.145 274.085 587.123 274.233C587.123 274.583 587.123 275.03 587.123 275.555C587.14 276.278 587.088 277.001 586.967 277.714C586.859 278.698 586.684 279.672 586.442 280.632C585.826 283.28 584.81 285.818 583.428 288.159C580.105 293.837 574.899 298.172 568.713 300.411C562.526 302.649 555.751 302.65 549.565 300.413C546.988 299.491 544.567 298.179 542.388 296.523C540.066 294.859 538.029 292.829 536.358 290.513C532.766 285.657 530.826 279.777 530.826 273.737C530.826 267.697 532.766 261.816 536.358 256.961C538.017 254.641 540.048 252.61 542.368 250.951C544.548 249.295 546.968 247.983 549.545 247.061C554.312 245.349 559.45 244.946 564.425 245.894C568.363 246.647 572.095 248.235 575.369 250.549C578.643 252.864 581.384 255.853 583.408 259.315C584.79 261.656 585.807 264.194 586.423 266.842C586.664 267.801 586.839 268.776 586.948 269.759C587.069 270.472 587.121 271.195 587.104 271.918C587.104 272.443 587.104 272.891 587.104 273.241C587.135 273.407 587.142 273.578 587.123 273.747Z" fill="#263238"/>
<path d="M653.72 271.121C653.53 268.902 653.186 266.699 652.69 264.528C651.131 258.645 647.636 253.458 642.77 249.804C639.455 247.282 635.589 245.583 631.489 244.844C626.786 243.981 621.938 244.39 617.446 246.031C615.03 246.905 612.756 248.13 610.697 249.668C608.531 251.254 606.627 253.17 605.056 255.347C601.694 259.919 599.881 265.446 599.881 271.121C599.881 276.796 601.694 282.323 605.056 286.895C606.623 289.071 608.527 290.981 610.697 292.555C612.75 294.106 615.026 295.339 617.446 296.212C621.94 297.843 626.786 298.252 631.489 297.398C635.589 296.66 639.455 294.96 642.77 292.438C647.636 288.784 651.131 283.597 652.69 277.715C653.186 275.543 653.53 273.34 653.72 271.121C653.767 271.697 653.767 272.276 653.72 272.852C653.728 273.562 653.676 274.271 653.565 274.972C653.461 275.929 653.293 276.878 653.059 277.812C651.82 282.906 649.146 287.538 645.353 291.157C641.561 294.777 636.81 297.233 631.664 298.235C626.812 299.151 621.802 298.754 617.154 297.087C612.014 295.214 607.537 291.873 604.278 287.479C600.778 282.743 598.89 277.01 598.89 271.121C598.89 265.233 600.778 259.499 604.278 254.764C607.537 250.369 612.014 247.028 617.154 245.155C621.802 243.488 626.812 243.092 631.664 244.008C636.81 245.009 641.561 247.465 645.353 251.085C649.146 254.705 651.82 259.336 653.059 264.43C653.293 265.364 653.461 266.313 653.565 267.27C653.676 267.971 653.728 268.68 653.72 269.39C653.767 269.966 653.767 270.545 653.72 271.121Z" fill="#263238"/>
<path d="M599.435 264.974C599.319 265.071 598.677 264.546 597.49 263.982C595.96 263.254 594.283 262.887 592.589 262.912C590.899 262.936 589.238 263.363 587.746 264.157C586.579 264.76 585.956 265.324 585.801 265.207C585.645 265.091 586.151 264.351 587.318 263.535C588.855 262.488 590.665 261.913 592.524 261.882C594.383 261.851 596.211 262.365 597.782 263.36C598.969 264.138 599.435 264.896 599.435 264.974Z" fill="#263238"/>
<path d="M533.013 269.78C529.164 273.276 525.098 276.524 520.837 279.505C516.762 282.746 512.488 285.728 508.039 288.433C511.884 284.924 515.958 281.675 520.234 278.708C524.298 275.46 528.566 272.478 533.013 269.78Z" fill="#263238"/>
<g opacity="0.3">
<path d="M509.964 396.36C507.261 422.754 517.297 450.626 538.478 466.614C540.132 467.878 542.213 469.123 544.177 468.404C545.487 467.769 546.533 466.695 547.134 465.369C553.065 455.121 555.291 443.144 553.435 431.448C550.09 440.279 547.211 448.953 543.827 458.173C525.408 446.97 513.854 423.163 509.964 396.36Z" fill="black"/>
</g>
<path opacity="0.3" d="M581.678 456.383L597.238 450.704L599.805 476.981C599.805 476.981 616.571 446.425 623.515 432.498C630.459 418.572 626.88 393.948 626.88 393.948C626.88 393.948 629.35 415.343 612.565 442.71L599.883 463.327V441.737L581.678 456.383Z" fill="black"/>
<g opacity="0.3">
<path d="M401.045 589.927C393.951 586.914 386.158 585.938 378.541 587.107C370.423 587.771 362.657 590.71 356.134 595.587C349.832 600.664 345.573 608.677 346.409 616.73L347.187 616.827C352.614 602.161 363.389 591.542 377.296 590.2C391.203 588.858 404.76 595.082 414.251 605.293C413.22 597.669 407.891 593.175 401.045 589.927Z" fill="black"/>
</g>
<g opacity="0.3">
<path d="M793.82 604.847C788.429 599.314 781.383 595.688 773.747 594.519C767.096 593.406 760.28 593.801 753.803 595.677C747.326 597.552 741.353 600.858 736.325 605.352L739.282 602.94C746.803 598.411 755.437 596.067 764.217 596.172C773.028 596.323 781.477 599.7 787.965 605.664C793.8 611.187 797.282 618.676 800.608 625.969C801.146 622.164 800.815 618.287 799.64 614.628C798.464 610.97 796.474 607.625 793.82 604.847Z" fill="black"/>
</g>
<path d="M693.671 482.894C693.829 482.164 694.064 481.454 694.371 480.774C694.974 479.237 695.713 477.35 696.569 475.114C698.514 470.348 701.043 463.774 703.766 456.442C706.489 449.109 708.842 442.438 710.534 437.614L712.479 431.876C712.688 431.16 712.975 430.468 713.335 429.814C713.275 430.56 713.111 431.293 712.849 431.993C712.479 433.393 711.896 435.377 711.137 437.828C709.62 442.729 707.364 449.498 704.641 456.792C701.918 464.086 699.214 470.699 697.152 475.386C696.141 477.74 695.208 479.626 694.643 480.929C694.401 481.622 694.075 482.281 693.671 482.894Z" fill="#263238"/>
<path d="M448.463 484.8C448.191 484.8 446.071 475.6 443.737 464.125C441.403 452.649 439.73 443.41 439.944 443.255C440.158 443.099 442.317 452.455 444.651 463.93C446.985 475.406 448.736 484.742 448.463 484.8Z" fill="#263238"/>
<path d="M444.787 600.509C445.409 600.82 437.668 539.902 437.668 539.902C437.668 539.902 442.55 493.669 445.293 491.53V475.211C445.293 475.211 452.859 470.64 454.882 478.031C454.882 478.031 461.592 472.196 462.662 486.064C463.731 499.932 464.081 514.092 464.081 514.092L479 551.397L481.45 552.642C481.45 552.642 484.66 523.467 486.527 519.11C488.394 514.753 489.678 504.347 496.738 505.923C503.799 507.498 504.401 513.333 503.137 522.864C501.873 532.394 500.278 542.314 500.881 548.421C501.484 554.529 504.265 568.124 503.41 578.9C502.554 589.675 496.641 601.034 490.456 609.008C484.271 616.983 472.426 633.496 466.007 638.456C463.926 640.206 444.787 600.509 444.787 600.509Z" fill="#FFBE9D"/>
<path d="M452.334 550.93C452.236 550.064 452.236 549.19 452.334 548.324C452.45 546.379 452.626 544.084 452.82 541.244C453.267 535.273 453.968 527.026 454.765 517.904C455.193 513.372 455.601 509.054 455.971 505.087C456.193 503.258 456.193 501.41 455.971 499.582C455.764 498.017 455.086 496.552 454.026 495.381C453.249 494.543 452.307 493.873 451.259 493.415C450.212 492.956 449.081 492.719 447.938 492.716C447.082 492.757 446.23 492.861 445.39 493.028C445.581 492.894 445.791 492.789 446.012 492.716C446.636 492.482 447.292 492.345 447.958 492.308C449.184 492.238 450.411 492.433 451.555 492.879C452.7 493.325 453.735 494.013 454.59 494.895C455.766 496.158 456.521 497.755 456.749 499.466C456.993 501.357 456.993 503.273 456.749 505.164C456.399 509.054 456.01 513.47 455.621 518.001C454.784 527.104 453.968 535.332 453.326 541.342L452.528 548.402C452.536 549.249 452.471 550.095 452.334 550.93Z" fill="#EB996E"/>
<path d="M460.347 526.015C459.261 527.495 458.372 529.11 457.702 530.819C456.516 535.126 455.69 539.524 455.232 543.968C454.415 549.18 453.637 553.887 453.015 557.291C452.789 559.147 452.385 560.977 451.809 562.756C451.816 560.885 451.985 559.017 452.314 557.174C452.742 553.751 453.423 549.025 454.259 543.812C455.096 538.599 455.64 533.834 457.08 530.566C457.591 529.286 458.307 528.097 459.2 527.046C459.842 526.268 460.308 525.976 460.347 526.015Z" fill="#EB996E"/>
<path d="M454.863 477.233C455.134 477.852 455.311 478.508 455.389 479.178C455.661 480.423 455.992 482.232 456.361 484.488C457.1 488.981 457.917 495.225 458.442 502.168C458.967 509.112 459.065 515.414 458.987 519.965C458.987 522.241 458.89 524.089 458.792 525.353C458.809 526.009 458.73 526.664 458.559 527.298C458.323 524.855 458.226 522.4 458.267 519.946C458.17 515.395 457.937 509.132 457.431 502.227C456.925 495.322 456.225 489.078 455.661 484.566C455.25 482.14 454.984 479.691 454.863 477.233Z" fill="#EB996E"/>
<path d="M497.905 534.339C497.167 534.815 496.324 535.104 495.449 535.178C494.574 535.253 493.694 535.112 492.887 534.767C490.028 533.911 488.705 531.713 488.997 531.616C490.336 532.467 491.749 533.196 493.218 533.795C494.762 534.106 496.33 534.288 497.905 534.339Z" fill="#EB996E"/>
<path d="M445.624 592.923L406.218 609.494H382.722C382.722 609.494 359.498 616.749 355.92 638.533C352.341 660.318 351.835 671.501 362.046 674.205C372.258 676.908 401.102 677.2 415.398 672.454C429.694 667.709 467.155 637.444 467.155 637.444L470.753 615.582L445.624 592.923Z" fill="#FFBE9D"/>
<path d="M454.862 617.002C454.862 617.002 454.415 616.671 453.734 615.971C452.796 614.954 451.944 613.861 451.186 612.704C448.719 608.857 446.862 604.651 445.682 600.236C444.462 595.86 443.648 591.38 443.25 586.854C442.988 584.986 442.936 583.094 443.095 581.214C443.516 583.038 443.802 584.891 443.951 586.757C444.551 591.216 445.454 595.628 446.654 599.964C447.829 604.29 449.554 608.448 451.789 612.334C453.559 615.271 454.998 616.866 454.862 617.002Z" fill="#EB996E"/>
<path d="M472.037 623.908C473.08 621.181 473.83 618.351 474.274 615.466C475.156 608.429 473.258 601.325 468.983 595.666C466.591 592.321 463.888 589.403 461.612 586.563C459.539 584.087 457.752 581.386 456.282 578.511C455.318 576.549 454.662 574.449 454.337 572.287C454.218 571.5 454.218 570.701 454.337 569.914C454.793 572.793 455.699 575.583 457.022 578.18C458.553 580.956 460.372 583.564 462.448 585.96C464.724 588.722 467.447 591.64 469.898 595.063C472.282 598.274 473.959 601.952 474.818 605.858C475.481 609.059 475.567 612.352 475.071 615.583C474.744 617.738 474.143 619.843 473.282 621.846C472.971 622.546 472.679 623.071 472.484 623.421C472.29 623.771 472.057 623.927 472.037 623.908Z" fill="#EB996E"/>
<path d="M411.256 528.991C407.76 523.321 404.553 517.479 401.647 511.486C396.59 501.761 392.7 493.669 392.934 493.533C396.43 499.203 399.636 505.045 402.542 511.038C405.751 516.87 408.659 522.862 411.256 528.991Z" fill="white"/>
<path d="M474.955 458.018C476.613 453.031 478.595 448.159 480.887 443.43C482.877 438.571 485.17 433.842 487.753 429.271C486.085 434.253 484.103 439.125 481.821 443.858C479.836 448.719 477.543 453.449 474.955 458.018Z" fill="white"/>
<path d="M537.448 504.075C534.221 500.97 531.23 497.628 528.501 494.078C525.526 490.737 522.802 487.181 520.352 483.438C523.581 486.535 526.566 489.878 529.279 493.436C532.263 496.774 534.994 500.33 537.448 504.075Z" fill="white"/>
<path d="M523.074 567.424C525.048 563.868 527.298 560.473 529.804 557.271C532.06 553.886 534.591 550.691 537.37 547.721C535.402 551.279 533.151 554.675 530.64 557.874C528.396 561.268 525.865 564.463 523.074 567.424Z" fill="white"/>
<path d="M503.741 656.914C502.833 655.711 502.069 654.405 501.465 653.024C500.182 650.535 498.528 647.053 496.856 643.143C495.183 639.234 493.841 635.597 492.966 632.971C492.384 631.572 491.966 630.11 491.721 628.614C492.522 629.905 493.174 631.281 493.666 632.718L497.847 642.735C499.462 646.45 500.901 649.815 502.165 652.713C502.845 654.05 503.374 655.46 503.741 656.914Z" fill="white"/>
<path d="M558.59 618.87C554.612 618.606 550.663 618.014 546.783 617.1C542.822 616.513 538.918 615.589 535.113 614.338C543.007 615.188 550.815 616.704 558.453 618.87H558.59Z" fill="white"/>
<path d="M601.38 535.254C604.865 530.739 608.619 526.44 612.622 522.378C616.386 518.074 620.4 513.996 624.642 510.163C621.143 514.678 617.383 518.983 613.381 523.059C609.618 527.35 605.611 531.422 601.38 535.254Z" fill="white"/>
<path d="M644.17 646.761C643.956 646.956 637.674 639.662 630.127 630.52C622.581 621.379 616.648 613.793 616.862 613.618C617.076 613.443 623.359 620.718 630.905 629.859C638.452 639.001 644.345 646.586 644.17 646.761Z" fill="white"/>
<path d="M378.093 599.245C378.229 599.517 372.491 602.435 366.228 607.239C359.965 612.043 355.608 616.789 355.375 616.575C356.082 615.344 356.974 614.229 358.02 613.269C360.35 610.781 362.887 608.497 365.606 606.442C368.313 604.376 371.188 602.541 374.203 600.957C375.409 600.2 376.72 599.623 378.093 599.245Z" fill="white"/>
<path d="M394.12 556.221C392.885 558.973 391.352 561.581 389.55 564.001C388.014 566.606 386.194 569.033 384.123 571.236C385.362 568.486 386.895 565.877 388.694 563.456C390.225 560.848 392.046 558.421 394.12 556.221Z" fill="white"/>
<path d="M430.219 598.467C427.105 593.515 425.773 587.648 426.446 581.837C426.737 581.837 426.835 585.727 427.904 590.259C428.974 594.791 430.491 598.331 430.219 598.467Z" fill="white"/>
<path d="M435.568 464.417C433.149 465.261 430.633 465.79 428.079 465.992C425.568 466.52 422.997 466.709 420.436 466.556C422.861 465.714 425.384 465.184 427.943 464.981C430.45 464.465 433.013 464.275 435.568 464.417Z" fill="white"/>
<path d="M462.682 416.316C458.493 419.416 453.915 421.953 449.067 423.863C451.057 422.175 453.261 420.756 455.621 419.642C457.824 418.239 460.197 417.122 462.682 416.316Z" fill="white"/>
<path d="M538.945 436.641C536.197 433.846 533.686 430.827 531.438 427.616C528.942 424.6 526.704 421.379 524.747 417.988C530.009 423.784 534.76 430.025 538.945 436.641Z" fill="white"/>
<path d="M635.749 484.995C630.388 479.711 626.355 473.232 623.981 466.089C624.273 465.972 626.354 470.504 629.622 475.697C632.89 480.891 635.982 484.8 635.749 484.995Z" fill="white"/>
<path d="M672.704 497.171C670.357 504.009 667.361 510.606 663.757 516.874C664.794 513.408 666.141 510.042 667.783 506.818C669.114 503.454 670.762 500.224 672.704 497.171Z" fill="white"/>
<path d="M677.878 446.736C674.342 443.303 671.053 439.625 668.036 435.728C664.758 432.049 661.737 428.15 658.992 424.058C665.798 431.177 672.108 438.754 677.878 446.736Z" fill="white"/>
<path d="M621.433 405.775C620.816 402.675 620.523 399.521 620.558 396.361C620.264 393.208 620.31 390.032 620.694 386.889C621.31 389.988 621.603 393.143 621.569 396.303C621.874 399.455 621.829 402.632 621.433 405.775Z" fill="white"/>
<path d="M667.511 403.226C663.568 404.259 659.548 404.968 655.49 405.346C651.482 406.05 647.423 406.421 643.354 406.454C647.296 405.421 651.316 404.712 655.374 404.334C659.382 403.629 663.441 403.258 667.511 403.226Z" fill="white"/>
<path d="M739.924 456.461C737.223 452.029 734.806 447.43 732.689 442.691C730.284 438.092 728.179 433.343 726.387 428.473C729.099 432.902 731.522 437.502 733.642 442.243C736.038 446.843 738.137 451.592 739.924 456.461Z" fill="white"/>
<path d="M727.806 502.46C728.62 495.031 730.091 487.689 732.201 480.521C731.966 484.252 731.4 487.956 730.509 491.588C729.942 495.287 729.037 498.926 727.806 502.46Z" fill="white"/>
<path d="M761.337 538.716C759.069 533.869 757.12 528.879 755.502 523.778C753.574 518.791 751.97 513.684 750.698 508.49C752.953 513.349 754.902 518.345 756.533 523.447C758.453 528.431 760.058 533.531 761.337 538.716Z" fill="white"/>
<path d="M756.651 559.935C753.179 559.412 749.842 558.216 746.829 556.414C743.664 554.895 740.839 552.751 738.523 550.113C738.718 549.879 742.297 552.836 747.315 555.52C752.333 558.204 756.748 559.643 756.651 559.935Z" fill="white"/>
<path d="M799.772 608.289C797.153 604.043 795.118 599.463 793.723 594.674C796.341 598.92 798.376 603.499 799.772 608.289Z" fill="white"/>
<path d="M545.384 675.742C544.554 672.936 544.046 670.046 543.867 667.126C543.374 664.242 543.205 661.313 543.361 658.393C544.249 661.215 544.791 664.134 544.975 667.087C545.441 669.947 545.578 672.851 545.384 675.742Z" fill="white"/>
<path d="M677.508 672.396C677.597 669.548 678.021 666.721 678.772 663.974C679.21 661.159 679.974 658.404 681.048 655.766C680.958 658.614 680.527 661.442 679.764 664.188C679.338 667.003 678.58 669.758 677.508 672.396Z" fill="white"/>
<g filter="url(#filter0_d_44_21697)">
<path d="M435.747 204.989C440.404 198.071 442.913 189.925 442.958 181.578C442.958 151.923 410.486 127.885 370.467 127.885C330.448 127.885 298 151.995 298 181.578C298 211.161 330.448 235.296 370.467 235.296C388.252 235.58 405.698 230.397 420.461 220.444L445.434 226.809L435.747 204.989Z" fill="#FFC727"/>
<path d="M344.413 181.578C344.418 183.073 343.98 184.535 343.155 185.78C342.33 187.024 341.156 187.995 339.78 188.57C338.404 189.144 336.89 189.295 335.428 189.005C333.967 188.714 332.624 187.995 331.57 186.938C330.517 185.881 329.8 184.535 329.51 183.069C329.221 181.602 329.372 180.083 329.944 178.703C330.516 177.323 331.484 176.145 332.725 175.317C333.966 174.49 335.424 174.051 336.914 174.056C338.901 174.062 340.805 174.857 342.209 176.266C343.614 177.675 344.407 179.585 344.413 181.578Z" fill="#263238"/>
<path d="M370.492 189.124C366.337 189.124 362.968 185.746 362.968 181.578C362.968 177.41 366.337 174.031 370.492 174.031C374.646 174.031 378.015 177.41 378.015 181.578C378.015 185.746 374.646 189.124 370.492 189.124Z" fill="#263238"/>
<path d="M411.592 181.578C411.597 183.073 411.159 184.535 410.334 185.78C409.509 187.024 408.334 187.995 406.959 188.57C405.583 189.144 404.069 189.295 402.607 189.005C401.145 188.714 399.803 187.995 398.749 186.938C397.696 185.881 396.979 184.535 396.689 183.069C396.4 181.602 396.551 180.083 397.123 178.703C397.695 177.323 398.663 176.145 399.904 175.317C401.145 174.49 402.603 174.051 404.093 174.056C406.08 174.062 407.983 174.857 409.388 176.266C410.793 177.675 411.586 179.585 411.592 181.578Z" fill="#263238"/>
</g>
</g>
<defs>
<filter id="filter0_d_44_21697" x="270.663" y="100.547" width="204.387" height="164.375" filterUnits="userSpaceOnUse" color-interpolation-filters="sRGB">
<feFlood flood-opacity="0" result="BackgroundImageFix"/>
<feColorMatrix in="SourceAlpha" type="matrix" values="0 0 0 0 0 0 0 0 0 0 0 0 0 0 0 0 0 0 127 0" result="hardAlpha"/>
<feOffset dx="1.13907" dy="1.13907"/>
<feGaussianBlur stdDeviation="14.2384"/>
<feComposite in2="hardAlpha" operator="out"/>
<feColorMatrix type="matrix" values="0 0 0 0 0 0 0 0 0 0 0 0 0 0 0 0 0 0 0.1 0"/>
<feBlend mode="normal" in2="BackgroundImageFix" result="effect1_dropShadow_44_21697"/>
<feBlend mode="normal" in="SourceGraphic" in2="effect1_dropShadow_44_21697" result="shape"/>
</filter>
<clipPath id="clip0_44_21697">
<rect width="1112" height="896" fill="white"/>
</clipPath>
</defs>
</svg>
