<svg width="842" height="682" viewBox="0 0 842 682" fill="none" xmlns="http://www.w3.org/2000/svg">
<g clip-path="url(#clip0_92_73347)">
<path d="M363.475 284.409L363.337 284.554V284.754V357.284C363.337 364.608 360.43 371.633 355.255 376.814C350.081 381.995 343.062 384.908 335.742 384.912H28.1138C20.7903 384.912 13.7667 382.002 8.58815 376.82C3.40958 371.639 0.500244 364.611 0.500244 357.284V271.437C0.502564 267.802 1.22204 264.202 2.61742 260.845C4.01283 257.488 6.05672 254.44 8.6319 251.875C11.2071 249.31 14.2629 247.278 17.6242 245.897C20.9856 244.516 24.5862 243.812 28.2199 243.826L28.2203 243.826L400.982 244.994L363.475 284.409Z" fill="white" stroke="#EEEEF4"/>
<path d="M314.506 291.032C314.496 293.407 312.563 295.323 310.188 295.312L39.6206 294.054C37.2527 294.043 35.3418 292.115 35.3517 289.748C35.3617 287.378 37.2909 285.466 39.6602 285.477L310.228 286.717C312.601 286.728 314.516 288.66 314.506 291.032Z" fill="#EAEAEA"/>
<path d="M314.506 319.278C314.496 321.647 312.567 323.559 310.197 323.548L39.6205 322.291C37.2527 322.28 35.3418 320.352 35.3517 317.984C35.3617 315.615 37.291 313.702 39.6604 313.713L310.237 314.971C312.605 314.982 314.516 316.91 314.506 319.278Z" fill="#EAEAEA"/>
<path d="M204.058 341.95L204.016 350.527L314.47 351.067L314.512 342.49L204.058 341.95Z" fill="#E0E0E0"/>
<path d="M281.043 568.043V653.889C281.043 661.349 284.005 668.504 289.277 673.779C294.55 679.054 301.7 682.018 309.156 682.018H616.748C624.201 682.013 631.347 679.047 636.616 673.773C641.884 668.498 644.844 661.346 644.844 653.889V581.359L683.151 541.103L309.211 539.932C305.516 539.925 301.855 540.646 298.44 542.056C295.024 543.465 291.919 545.534 289.303 548.145C286.687 550.756 284.611 553.857 283.193 557.271C281.776 560.685 281.045 564.346 281.043 568.043Z" fill="#F5F5F5"/>
<path d="M600.864 589.703L321.728 588.406L321.746 579.828L600.9 581.108L600.864 589.703Z" fill="#E0E0E0"/>
<path d="M600.864 617.939L321.728 616.66L321.746 608.064L600.9 609.362L600.864 617.939Z" fill="#E0E0E0"/>
<path d="M490.425 636.319L490.383 644.896L600.836 645.437L600.878 636.859L490.425 636.319Z" fill="#E0E0E0"/>
<path d="M42.934 109.497H42.9325C40.545 109.504 38.1796 109.04 35.9716 108.131C33.7636 107.222 31.7565 105.887 30.065 104.201C28.3734 102.515 27.0308 100.512 26.1139 98.3061C25.1971 96.1004 24.7239 93.7354 24.7216 91.3464V43.2341V43.0347L24.5845 42.8901L0.0593607 17.0251L246.915 16.2539C246.915 16.2539 246.915 16.2539 246.915 16.2539C251.726 16.2541 256.34 18.1663 259.742 21.57C263.144 24.9738 265.055 29.5905 265.055 34.4044V91.3469C265.055 96.1608 263.144 100.778 259.742 104.181C256.34 107.585 251.726 109.497 246.915 109.497H42.934Z" fill="white" stroke="#EEEEF4"/>
<path d="M49.5658 41.4466C49.5704 42.9167 50.7671 44.1041 52.2372 44.0974L219.946 43.3307C221.414 43.324 222.598 42.1302 222.593 40.663C222.589 39.1929 221.392 38.0055 219.922 38.0122L52.2129 38.7789C50.7457 38.7856 49.5611 39.9794 49.5658 41.4466Z" fill="#EAEAEA"/>
<path d="M49.5658 59.5725C49.5704 61.0427 50.7672 62.2302 52.2375 62.2234L219.947 61.4403C221.414 61.4334 222.598 60.2397 222.593 58.7726C222.589 57.3024 221.392 56.1149 219.922 56.1218L52.2126 56.9048C50.7455 56.9117 49.5611 58.1054 49.5658 59.5725Z" fill="#EAEAEA"/>
<path d="M115.369 74.2358H52.2166C50.748 74.2358 49.5574 75.4264 49.5574 76.8951C49.5574 78.3638 50.748 79.5544 52.2166 79.5544H115.369C116.837 79.5544 118.028 78.3638 118.028 76.8951C118.028 75.4264 116.837 74.2358 115.369 74.2358Z" fill="#EAEAEA"/>
<path d="M411.287 307.242V307.042L411.149 306.897L386.555 281.033L633.41 280.262C635.797 280.255 638.162 280.719 640.37 281.628C642.578 282.537 644.585 283.872 646.277 285.558C647.968 287.244 649.311 289.247 650.228 291.453C651.145 293.659 651.618 296.024 651.62 298.413V355.355C651.62 360.169 649.709 364.785 646.307 368.189C642.905 371.593 638.291 373.505 633.48 373.505H429.445C424.633 373.505 420.017 371.594 416.612 368.19C413.207 364.787 411.292 360.17 411.287 355.354V307.242Z" fill="white" stroke="#EEEEF4"/>
<path d="M440.873 311.401C440.878 312.975 442.159 314.246 443.733 314.239L623.181 313.418C624.752 313.411 626.02 312.133 626.015 310.562C626.01 308.988 624.729 307.717 623.155 307.724L443.707 308.545C442.136 308.552 440.868 309.83 440.873 311.401Z" fill="#F5F5F5"/>
<path d="M440.873 330.141C440.878 331.715 442.159 332.987 443.733 332.979L623.181 332.141C624.752 332.134 626.02 330.856 626.015 329.285C626.01 327.711 624.729 326.44 623.155 326.447L443.707 327.285C442.136 327.293 440.868 328.571 440.873 330.141Z" fill="#F5F5F5"/>
<path d="M508.94 348.219H441.37C439.797 348.219 438.522 349.493 438.522 351.066C438.522 352.638 439.797 353.913 441.37 353.913H508.94C510.512 353.913 511.787 352.638 511.787 351.066C511.787 349.493 510.512 348.219 508.94 348.219Z" fill="#F5F5F5"/>
<path d="M174.389 175.861C171.673 173.596 169.605 170.652 168.394 167.33C167.182 164.007 166.871 160.422 167.491 156.94C168.175 153.476 169.539 150.182 171.506 147.249C173.472 144.317 176.001 141.804 178.945 139.857C181.629 138.055 184.96 136.542 188.094 137.461C189.53 137.985 190.801 138.882 191.776 140.06C192.751 141.238 193.395 142.654 193.641 144.164C194.097 147.207 193.736 150.316 192.597 153.174C189.175 163.049 184.06 171.987 174.389 175.915" fill="#15A800"/>
<path d="M165.257 192.726C159.709 187.758 153.057 184.187 145.853 182.306C138.649 180.426 131.101 180.291 123.834 181.914C120.232 182.761 116 184.707 115.406 188.437C114.811 192.167 118.125 195.357 121.403 197.267C128.322 201.11 136.222 202.818 144.11 202.177C151.997 201.536 159.518 198.573 165.726 193.663" fill="#15A800"/>
<path d="M112.47 114.628C115.529 113.922 118.699 113.835 121.792 114.374C124.885 114.912 127.839 116.065 130.48 117.764C135.784 121.226 140.221 125.862 143.447 131.315C149.967 141.622 152.272 155.497 152.56 167.697C139.017 167.156 127.454 156.506 121.943 150.722C113.191 141.604 102.925 119.818 112.362 114.682" fill="#15A800"/>
<path d="M185.735 211.162C184.502 209.527 183.371 207.818 182.349 206.044C178.844 199.169 176.282 191.854 174.731 184.294C173.203 176.636 173.788 168.706 176.424 161.355C177.247 159.155 178.342 157.066 179.683 155.138C180.139 154.402 180.704 153.74 181.358 153.174C179.793 155.899 178.444 158.743 177.324 161.679C175.04 168.916 174.606 176.611 176.063 184.06C177.634 191.519 180.051 198.774 183.267 205.683" fill="black"/>
<path d="M185.861 211.322L178.801 202.222C172.876 194.528 164.645 183.914 155.388 172.309C146.131 160.704 137.648 150.325 131.489 142.829L124.285 133.819C123.336 132.772 122.481 131.645 121.728 130.449C122.79 131.379 123.778 132.391 124.681 133.477C126.482 135.495 129.13 138.432 132.317 142.108C138.675 149.46 147.302 159.767 156.559 171.372C165.816 182.977 173.902 193.699 179.648 201.555C182.529 205.484 184.816 208.763 186.365 210.908" fill="black"/>
<path d="M132.281 189.899C133.018 189.534 133.808 189.291 134.623 189.178C135.549 188.923 136.495 188.742 137.45 188.637C138.708 188.429 139.977 188.291 141.25 188.223C144.574 188.013 147.911 188.14 151.21 188.601C155.241 189.203 159.196 190.236 163.006 191.683C166.8 193.2 170.422 195.115 173.812 197.395C176.55 199.285 179.09 201.446 181.394 203.846C182.294 204.753 183.142 205.709 183.934 206.711C184.585 207.439 185.186 208.21 185.735 209.018C186.617 210.333 186.491 210.946 186.419 211C184.663 208.745 182.787 206.586 180.8 204.531C178.45 202.282 175.907 200.244 173.2 198.44C169.863 196.293 166.322 194.482 162.628 193.034C158.903 191.621 155.049 190.577 151.12 189.917C147.904 189.404 144.649 189.187 141.394 189.268C135.703 189.322 132.281 190.151 132.281 189.899Z" fill="black"/>
<path d="M434.38 649.692L226.365 648.719C214.365 648.647 202.883 643.813 194.441 635.279C185.999 626.745 181.288 615.208 181.34 603.201L183.537 81.4015C183.59 69.3866 188.407 57.8837 196.93 49.42C205.454 40.9562 216.986 36.2236 228.995 36.2619L437.009 37.217C449.01 37.298 460.489 42.137 468.929 50.6731C477.369 59.2092 482.082 70.7456 482.034 82.753L479.873 604.534C479.821 616.557 474.999 628.067 466.469 636.535C457.938 645.002 446.396 649.735 434.38 649.692Z" fill="#263238"/>
<path d="M436.649 55.2372L396.307 55.039C394.992 55.0624 393.694 55.3449 392.489 55.8702C391.283 56.3954 390.192 57.1533 389.279 58.1004C388.366 59.0475 387.648 60.1654 387.167 61.3901C386.685 62.6148 386.45 63.9224 386.474 65.2382V72.5542C386.498 73.87 386.262 75.1776 385.781 76.4023C385.3 77.627 384.582 78.7448 383.669 79.6919C382.755 80.6391 381.665 81.3969 380.459 81.9222C379.253 82.4475 377.955 82.73 376.64 82.7534L298.027 82.393C295.372 82.3175 292.856 81.1921 291.03 79.2633C289.203 77.3345 288.216 74.7598 288.283 72.1037V64.7877C288.351 62.1285 287.361 59.5512 285.531 57.6219C283.701 55.6926 281.18 54.5691 278.522 54.4984H264.348L229.049 54.3362C220.629 54.3027 212.541 57.6146 206.56 63.5443C200.579 69.4741 197.196 77.5368 197.153 85.9609L195.01 595.254C194.976 603.674 198.285 611.762 204.208 617.743C210.131 623.723 218.185 627.106 226.599 627.149L434.2 628.104C438.367 628.123 442.498 627.321 446.355 625.743C450.212 624.165 453.721 621.842 456.681 618.907C459.641 615.972 461.995 612.482 463.607 608.637C465.219 604.792 466.059 600.667 466.078 596.498L468.221 87.1863C468.252 83.0123 467.459 78.8734 465.887 75.0067C464.316 71.14 461.998 67.6217 459.064 64.6535C456.131 61.6854 452.642 59.3257 448.795 57.7098C444.949 56.0939 440.821 55.2537 436.649 55.2372Z" fill="#FAFAFA"/>
<path d="M319.224 579.27C319.357 580.148 319.217 581.045 318.825 581.841C318.432 582.637 317.805 583.293 317.028 583.722C316.251 584.15 315.362 584.33 314.479 584.238C313.597 584.145 312.764 583.784 312.093 583.203C311.422 582.623 310.945 581.85 310.726 580.99C310.508 580.13 310.557 579.223 310.869 578.392C311.181 577.561 311.74 576.846 312.471 576.342C313.202 575.839 314.069 575.571 314.956 575.576C316.009 575.511 317.045 575.861 317.843 576.552C318.641 577.243 319.137 578.218 319.224 579.27Z" fill="#455A64"/>
<path d="M332.498 579.341C332.626 580.218 332.483 581.114 332.088 581.908C331.693 582.702 331.064 583.356 330.286 583.781C329.508 584.207 328.619 584.384 327.737 584.289C326.856 584.194 326.025 583.831 325.356 583.249C324.687 582.667 324.212 581.894 323.995 581.034C323.778 580.174 323.829 579.268 324.142 578.438C324.455 577.608 325.015 576.894 325.745 576.392C326.476 575.89 327.343 575.623 328.229 575.629C329.285 575.564 330.324 575.917 331.122 576.611C331.921 577.305 332.415 578.286 332.498 579.341Z" fill="#455A64"/>
<path d="M345.771 579.396C345.904 580.274 345.764 581.171 345.372 581.967C344.979 582.763 344.352 583.419 343.575 583.848C342.798 584.277 341.908 584.457 341.026 584.364C340.144 584.271 339.311 583.91 338.64 583.329C337.969 582.749 337.492 581.976 337.273 581.116C337.054 580.256 337.104 579.349 337.416 578.518C337.728 577.687 338.287 576.972 339.018 576.468C339.748 575.965 340.616 575.697 341.503 575.702C342.557 575.632 343.596 575.981 344.395 576.673C345.194 577.364 345.688 578.343 345.771 579.396Z" fill="#455A64"/>
<path d="M259.288 300.758C262.673 301.244 466.726 341.284 466.726 341.284V300.758H259.288Z" fill="#DEDEDE"/>
<path d="M195.082 558.079C195.082 558.079 417.072 526.653 415.127 527.626C413.182 528.599 195.082 527.626 195.082 527.626V558.079Z" fill="#DEDEDE"/>
<path d="M663.989 145.768H257.955C255.87 145.768 253.805 146.179 251.879 146.978C249.953 147.777 248.203 148.948 246.729 150.424C245.255 151.9 244.087 153.652 243.291 155.58C242.494 157.508 242.086 159.575 242.088 161.661V287.673C242.086 289.76 242.494 291.826 243.291 293.754C244.087 295.682 245.255 297.435 246.729 298.911C248.203 300.387 249.953 301.558 251.879 302.357C253.805 303.156 255.87 303.567 257.955 303.567H288.212C290.643 316.721 293.489 333.318 293.489 333.318L320.864 303.567H663.989C666.074 303.567 668.139 303.156 670.065 302.357C671.991 301.558 673.741 300.387 675.215 298.911C676.688 297.435 677.857 295.682 678.653 293.754C679.449 291.826 679.858 289.76 679.856 287.673V161.661C679.858 159.575 679.449 157.508 678.653 155.58C677.857 153.652 676.688 151.9 675.215 150.424C673.741 148.948 671.991 147.777 670.065 146.978C668.139 146.179 666.074 145.768 663.989 145.768Z" fill="#E8505B"/>
<path d="M276.356 201.842C276.363 203.909 278.045 205.578 280.111 205.568L515.698 204.491C517.76 204.481 519.425 202.803 519.418 200.741C519.412 198.675 517.73 197.006 515.663 197.015L280.077 198.093C278.015 198.102 276.35 199.78 276.356 201.842Z" fill="#EAEAEA"/>
<path d="M276.356 227.321C276.363 229.387 278.045 231.056 280.112 231.047L515.698 229.946C517.76 229.937 519.425 228.259 519.418 226.197C519.412 224.13 517.73 222.461 515.663 222.471L280.077 223.571C278.015 223.581 276.35 225.259 276.356 227.321Z" fill="#EAEAEA"/>
<path d="M368.791 247.932H280.082C278.018 247.932 276.344 249.605 276.344 251.669C276.344 253.734 278.018 255.407 280.082 255.407H368.791C370.855 255.407 372.529 253.734 372.529 251.669C372.529 249.605 370.855 247.932 368.791 247.932Z" fill="#EAEAEA"/>
<path d="M480.522 372.33H71.1737C69.7123 372.328 68.2647 372.614 66.9143 373.173C65.5639 373.732 64.3371 374.553 63.3046 375.588C62.272 376.622 61.4539 377.851 60.8974 379.203C60.3409 380.555 60.0568 382.004 60.0616 383.466V516.813C60.0616 519.761 61.2323 522.589 63.3163 524.675C65.4002 526.76 68.2266 527.931 71.1737 527.931H368.482L395.497 557.357C395.497 557.357 398.324 540.815 400.72 527.931H480.468C483.415 527.931 486.241 526.76 488.325 524.675C490.409 522.589 491.58 519.761 491.58 516.813V383.466C491.585 382.009 491.302 380.564 490.749 379.216C490.196 377.867 489.383 376.641 488.356 375.607C487.329 374.573 486.109 373.751 484.764 373.189C483.42 372.627 481.979 372.335 480.522 372.33Z" fill="#FFC727"/>
<path d="M463.633 425.518C463.627 427.455 462.05 429.021 460.112 429.012L239.184 428.001C237.25 427.992 235.689 426.419 235.695 424.485C235.701 422.547 237.278 420.982 239.216 420.991L460.144 422.001C462.078 422.01 463.64 423.584 463.633 425.518Z" fill="#EAEAEA"/>
<path d="M463.633 449.409C463.627 451.347 462.05 452.912 460.112 452.903L239.184 451.871C237.25 451.862 235.689 450.288 235.695 448.354C235.701 446.416 237.279 444.851 239.216 444.86L460.145 445.892C462.078 445.901 463.64 447.475 463.633 449.409Z" fill="#EAEAEA"/>
<path d="M376.95 468.738H460.139C462.075 468.738 463.645 470.308 463.645 472.244C463.645 474.179 462.075 475.749 460.139 475.749H376.95C375.014 475.749 373.445 474.179 373.445 472.244C373.445 470.308 375.014 468.738 376.95 468.738Z" fill="#EAEAEA"/>
<path d="M561.909 92.3203C562.161 89.0047 559.207 84.4456 556.506 81.8148C554.94 80.4033 553.822 78.5646 553.287 76.5252C552.753 74.4858 552.826 72.3345 553.498 70.3362C554.597 66.2457 557.19 66.552 558.217 64.1374C558.716 62.2706 558.916 60.3366 558.811 58.4071C559.025 56.7771 559.572 55.2087 560.419 53.7997C561.265 52.3907 562.393 51.1714 563.731 50.2178C565.069 49.2642 566.59 48.5967 568.197 48.2571C569.805 47.9175 571.465 47.913 573.075 48.2439C573.969 45.046 575.804 42.1911 578.34 40.0497C580.877 37.9083 583.999 36.5794 587.3 36.2355C590.601 35.8916 593.929 36.5487 596.852 38.1213C599.775 39.6939 602.158 42.1095 603.692 45.0544C605.556 44.1065 607.626 43.6328 609.717 43.6751C611.808 43.7173 613.856 44.2743 615.681 45.2967C617.506 46.3192 619.051 47.7756 620.179 49.5373C621.308 51.2991 621.985 53.3118 622.152 55.3978C624.042 54.1911 626.305 53.709 628.522 54.0401C630.74 54.3713 632.763 55.4935 634.219 57.1997C635.585 58.9847 636.396 61.133 636.55 63.3763C636.704 65.6197 636.194 67.8587 635.083 69.8136C633.942 71.7526 632.377 73.4081 630.505 74.6564C628.634 75.9046 626.505 76.7132 624.277 77.0215C619.809 77.5893 615.275 76.765 611.292 74.6609C607.326 72.5708 603.725 69.8505 600.63 66.6061" fill="#263238"/>
<path d="M591.355 299.405C634.414 299.405 669.32 265.294 669.32 223.217C669.32 181.14 634.414 147.029 591.355 147.029C548.296 147.029 513.39 181.14 513.39 223.217C513.39 265.294 548.296 299.405 591.355 299.405Z" fill="#E0E0E0"/>
<path d="M669.644 223.269L661.017 201.141L630.094 220.584L657.649 263.093C657.649 263.093 668.852 248.533 669.644 223.269Z" fill="#EB996E"/>
<path d="M584.331 175.336C589.658 175.367 594.793 173.347 598.672 169.694C602.551 166.04 604.877 161.034 605.168 155.712C605.619 146.54 606.015 137.692 606.015 137.692C606.015 137.692 623.016 136.467 624.583 119.817C626.15 103.167 626.384 64.6943 626.384 64.6943C617.16 59.8501 606.818 57.5367 596.41 57.9893C586.003 58.4419 575.901 61.6444 567.131 67.2712L565.51 68.2983L563.547 154.433C563.528 157.174 564.052 159.892 565.089 162.43C566.125 164.967 567.653 167.274 569.586 169.218C571.518 171.161 573.816 172.702 576.347 173.752C578.877 174.802 581.591 175.341 584.331 175.336Z" fill="#FFBE9D"/>
<path d="M594.02 90.3169C594.468 90.4748 594.859 90.7614 595.145 91.1407C595.43 91.52 595.598 91.9752 595.627 92.4493C595.655 92.9235 595.543 93.3955 595.305 93.8063C595.066 94.2171 594.712 94.5485 594.287 94.759C593.861 94.9694 593.383 95.0496 592.912 94.9895C592.441 94.9293 591.998 94.7315 591.639 94.4209C591.28 94.1102 591.02 93.7005 590.893 93.2429C590.765 92.7854 590.776 92.3004 590.922 91.8486C591.131 91.2355 591.575 90.7301 592.155 90.4431C592.736 90.1561 593.406 90.1107 594.02 90.3169Z" fill="#263238"/>
<path d="M598.738 91.1823C598.45 91.4526 596.937 90.083 594.56 89.9389C592.183 89.7947 590.49 90.8759 590.256 90.5696C590.022 90.2632 590.436 89.9209 591.192 89.4163C592.228 88.7624 593.447 88.4591 594.668 88.5514C595.884 88.6336 597.04 89.1078 597.964 89.9028C598.594 90.5155 598.828 91.0561 598.738 91.1823Z" fill="#263238"/>
<path d="M619.414 90.3189C619.862 90.4768 620.253 90.7633 620.539 91.1426C620.824 91.5219 620.992 91.9771 621.021 92.4513C621.049 92.9254 620.937 93.3975 620.699 93.8083C620.46 94.2191 620.106 94.5505 619.681 94.7609C619.255 94.9714 618.777 95.0515 618.306 94.9914C617.835 94.9313 617.392 94.7335 617.033 94.4228C616.674 94.1122 616.415 93.7024 616.287 93.2449C616.159 92.7874 616.17 92.3023 616.316 91.8506C616.525 91.2374 616.969 90.7321 617.549 90.445C618.13 90.158 618.8 90.1127 619.414 90.3189Z" fill="#263238"/>
<path d="M624.385 91.2197C624.115 91.508 622.584 90.1385 620.207 89.9944C617.829 89.8502 616.136 90.9314 615.902 90.625C615.668 90.3187 616.082 89.9763 616.857 89.4718C617.885 88.8156 619.099 88.512 620.315 88.6068C621.535 88.6929 622.696 89.1663 623.628 89.9583C624.313 90.571 624.529 91.1116 624.385 91.2197Z" fill="#263238"/>
<path d="M606.916 109.221C608.145 108.841 609.43 108.677 610.716 108.735C611.328 108.735 611.814 108.626 611.886 108.302C611.971 107.686 611.871 107.059 611.598 106.5C611.13 104.932 610.644 103.347 610.139 101.689C608.158 94.8414 606.843 89.2192 607.186 89.075C607.528 88.9309 609.437 94.481 611.418 101.292C611.886 102.95 612.319 104.554 612.769 106.122C613.095 106.924 613.14 107.814 612.895 108.645C612.786 108.869 612.627 109.066 612.431 109.219C612.234 109.372 612.004 109.478 611.76 109.527C611.413 109.57 611.062 109.57 610.716 109.527C609.441 109.642 608.156 109.539 606.916 109.221Z" fill="#263238"/>
<path d="M605.943 137.476C598.184 136.996 590.74 134.231 584.547 129.529C584.547 129.529 588.743 141.945 605.637 141.801L605.943 137.476Z" fill="#EB996E"/>
<path d="M565.006 92.7697C565.021 92.1156 564.782 91.4812 564.338 91.0004C563.895 90.5197 563.282 90.2301 562.629 90.1929C559.495 90.0487 554.344 91.184 553.624 99.7614C552.688 112.015 564.646 109.186 564.7 108.771C564.754 108.357 564.952 97.545 565.006 92.7697Z" fill="#FFBE9D"/>
<path d="M562.143 103.96C562.143 103.96 561.909 104.104 561.531 104.23C561.277 104.336 561.004 104.39 560.729 104.39C560.454 104.39 560.182 104.336 559.928 104.23C559.167 103.671 558.571 102.918 558.2 102.05C557.83 101.181 557.699 100.229 557.821 99.2931C557.866 98.2402 558.149 97.2114 558.649 96.2838C558.804 95.904 559.049 95.5677 559.362 95.3039C559.676 95.0402 560.05 94.857 560.45 94.7701C560.702 94.7198 560.964 94.7611 561.189 94.8866C561.413 95.0121 561.586 95.2136 561.675 95.4549C561.819 95.7972 561.675 96.0495 561.783 96.0675C561.891 96.0856 562.071 95.8873 561.999 95.3648C561.955 95.0572 561.801 94.7759 561.567 94.5719C561.251 94.2899 560.837 94.1413 560.414 94.1574C559.893 94.2238 559.398 94.4249 558.978 94.7409C558.558 95.0568 558.227 95.4768 558.019 95.9594C557.401 96.9717 557.054 98.1258 557.01 99.3111C556.87 100.401 557.056 101.507 557.543 102.491C558.03 103.476 558.797 104.294 559.748 104.843C560.074 104.961 560.422 105.006 560.767 104.975C561.113 104.943 561.447 104.837 561.747 104.663C562.089 104.267 562.179 103.996 562.143 103.96Z" fill="#EB996E"/>
<path d="M587.717 84.6427C588.329 85.4356 590.454 85.0752 593.228 84.949C596.001 84.8229 598.144 84.8409 598.631 83.976C599.117 83.111 596.541 81.0387 592.975 81.3451C589.41 81.6514 587.032 83.8318 587.717 84.6427Z" fill="#263238"/>
<path d="M614.696 83.8327C615.02 84.8959 617.055 85.2202 619.306 85.2022C621.558 85.1842 623.575 84.7878 623.881 83.7066C624.187 82.6254 622.08 81.1658 619.252 81.2018C616.425 81.2379 614.354 82.7876 614.696 83.8327Z" fill="#263238"/>
<path d="M628.671 69.9205C628.671 69.9205 618.568 74.8218 605.438 68.2626C596.812 63.9559 586.78 61.8476 584.565 63.5775C582.35 65.3074 581.881 74.2092 573.345 76.804C573.345 76.804 573.921 93.7426 567.167 93.148C560.414 92.5533 564.628 66.3165 564.628 66.3165L581.161 58.2436L599.171 54.8379L616.154 57.2345L629.302 60.8385L628.671 69.9205Z" fill="#263238"/>
<path d="M515.551 168.092C533.219 149.91 564.304 151.875 564.304 151.875L590.076 170.345L604.682 153.316C615.038 154.727 625.091 157.838 634.434 162.524L635.425 162.831V163.029C646.735 169.174 662.728 183.914 677.982 198.203L659.738 215.142L639.531 233.162C639.577 233.277 639.577 233.406 639.531 233.522C639.333 234.621 642.341 259.29 645.438 278.031C636.644 286.71 625.869 293.114 614.045 296.691C602.221 300.267 589.704 300.907 577.577 298.556C569.31 297.096 565.312 295.096 557.658 293.15C552.143 291.687 547.213 288.557 543.542 284.187C539.87 279.817 537.636 274.42 537.145 268.733C535.776 253.02 534.731 233.558 534.731 233.558" fill="#455A64"/>
<path d="M620.837 156.506C621.288 157.441 621.662 158.411 621.954 159.407C622.62 161.209 623.502 164.038 624.565 167.444C626.69 174.255 629.41 183.662 631.967 194.347C634.525 205.033 636.452 214.638 637.658 221.665C638.271 225.269 638.721 228.044 638.991 230.027C639.184 231.043 639.298 232.074 639.333 233.108C639.015 232.12 638.78 231.108 638.631 230.081C638.217 227.972 637.676 225.179 637.01 221.792C635.623 214.8 633.606 205.159 631.049 194.564C628.491 183.968 625.898 174.436 623.953 167.642L621.611 159.515C621.283 158.531 621.025 157.526 620.837 156.506Z" fill="#263238"/>
<path d="M637.424 221.466C637.262 221.268 644.971 214.708 654.642 206.834C664.313 198.959 672.274 192.724 672.436 192.923C672.598 193.121 664.908 199.68 655.236 207.555C645.565 215.429 637.604 221.664 637.424 221.466Z" fill="#263238"/>
<path opacity="0.2" d="M538.873 193.031L523.097 245.054L528.986 248.118L534.785 233.414C534.785 233.414 540.692 202.492 538.873 193.031Z" fill="black"/>
<g opacity="0.2">
<path d="M619.126 156.54C627.645 161.027 606.285 171.839 596.649 171.551L603.655 153.062C603.655 153.062 616.262 155.027 619.126 156.54Z" fill="black"/>
</g>
<path d="M561.764 153.062V139.277C561.764 139.277 588.653 146.215 589.626 162.307C589.626 162.307 593.047 144.503 606.915 143.656L608.878 168.686L592.669 182.741H576.406L563.457 171.551L561.764 154.18" fill="#455A64"/>
<path d="M595.695 239.538C595.602 238.556 595.602 237.566 595.695 236.583C595.695 234.673 595.695 231.916 595.785 228.51C595.785 221.717 595.587 212.293 594.74 201.967C593.894 191.642 592.525 182.308 591.391 175.604C590.814 172.379 590.328 169.712 589.968 167.676C589.734 166.712 589.59 165.729 589.536 164.738C589.873 165.671 590.138 166.629 590.328 167.603C590.796 169.405 591.391 172.144 592.039 175.496C593.705 184.226 594.908 193.038 595.641 201.895C596.369 210.753 596.622 219.643 596.397 228.528C596.307 231.934 596.181 234.691 596.019 236.601C595.98 237.587 595.872 238.568 595.695 239.538Z" fill="#263238"/>
<path d="M588.401 157.675C587.863 157.584 587.311 157.634 586.798 157.819C585.478 158.564 584.507 159.801 584.097 161.261C581.876 166.066 580.144 171.083 578.928 176.235L578.784 176.848L578.243 176.524C576.64 175.551 574.984 174.505 573.327 173.388C570.307 171.331 567.398 169.118 564.61 166.757C563.342 165.697 562.326 164.368 561.638 162.865C561.097 161.541 560.792 160.132 560.738 158.702C560.683 156.679 560.883 154.657 561.332 152.683C561.44 151.947 561.639 151.226 561.926 150.539C561.904 151.277 561.825 152.012 561.692 152.737C561.387 154.698 561.29 156.685 561.404 158.666C561.49 160.004 561.813 161.316 562.359 162.54C563.018 163.939 563.985 165.171 565.186 166.144C567.726 168.271 570.679 170.469 573.849 172.631C575.506 173.749 577.127 174.812 578.73 175.785L578.045 176.073C579.249 170.897 581.062 165.883 583.448 161.135C583.815 160.303 584.287 159.521 584.853 158.81C585.296 158.26 585.891 157.853 586.564 157.639C587.933 157.206 588.437 157.657 588.401 157.675Z" fill="#263238"/>
<path d="M606.915 143.656C607.079 144.359 607.163 145.079 607.167 145.801L607.6 151.675C607.798 154.144 608.104 157.081 608.608 160.307C609.041 162.038 609.151 163.834 608.932 165.604C608.251 167.461 606.987 169.048 605.33 170.127C603.225 171.435 601.248 172.937 599.423 174.614L598.703 175.425V174.344C598.376 169.637 597.017 165.059 594.722 160.937C593.012 157.856 591.607 156.288 591.715 156.198C591.823 156.108 592.147 156.522 592.777 157.261C593.682 158.324 594.501 159.457 595.227 160.649C597.731 164.791 599.23 169.463 599.603 174.29L598.811 174.02C600.661 172.272 602.683 170.714 604.844 169.37C606.308 168.409 607.43 167.008 608.05 165.37C608.239 163.72 608.141 162.05 607.762 160.433C607.311 157.171 607.077 154.198 606.951 151.711C606.825 149.224 606.807 147.206 606.825 145.819C606.764 145.097 606.794 144.37 606.915 143.656Z" fill="#263238"/>
<path d="M693.489 147.117C692.39 148.397 652.769 201.465 652.769 201.465L658.352 204.636L698.982 152.379L693.489 147.117Z" fill="#263238"/>
<path d="M534.407 188.995C534.407 188.995 576.064 249.001 578.586 250.173C583.52 252.497 640.504 203.231 645.943 198.51C646.699 197.501 648.248 195.392 651.346 191.194C651.346 191.194 655.848 170.615 660.639 172.183C665.429 173.751 658.009 182.652 661.143 190.473C664.277 198.294 678.577 179.661 679.153 177.967L682.845 173.138C682.845 173.138 686.717 184.112 686.447 188.707C685.601 203.393 671.715 220.854 671.715 220.854C671.715 220.854 609.347 298.159 566.627 300.556C554.326 301.241 532.408 266.318 517.838 240.117C513.583 232.467 512.272 223.523 514.153 214.972C516.034 206.421 520.977 198.855 528.05 193.699L534.407 188.995Z" fill="#FFBE9D"/>
<path d="M679.369 191.302C680.167 189.457 681.057 187.653 682.034 185.896C682.838 184.047 683.739 182.243 684.736 180.49C683.601 184.391 681.771 188.053 679.333 191.302H679.369Z" fill="#EB996E"/>
<path d="M527.365 159.713C527.365 159.713 482.647 175.624 515.893 250.857L567.51 219.683L560.162 202.095L527.365 159.713Z" fill="#455A64"/>
<path d="M523.944 161.028C525.757 160.859 527.586 161.011 529.346 161.478C531.407 162.012 533.379 162.844 535.2 163.947C537.606 165.447 539.799 167.265 541.719 169.353C546.596 174.802 550.682 180.911 553.858 187.499C557.64 194.815 561.17 203.158 564.79 211.897C565.871 214.528 566.951 217.105 567.96 219.556L568.122 219.952L567.744 220.151C552.813 228.295 539.81 235.918 530.625 241.63C526.015 244.477 522.359 246.82 519.819 248.442L516.938 250.244C516.608 250.473 516.258 250.672 515.893 250.838C516.179 250.561 516.493 250.313 516.83 250.099C517.46 249.631 518.396 248.946 519.639 248.099C522.088 246.297 525.709 243.955 530.265 241.035C539.378 235.179 552.345 227.431 567.293 219.268L567.077 219.844C566.069 217.394 564.988 214.817 563.908 212.186C560.306 203.446 556.704 195.121 553.102 187.823C549.987 181.306 546 175.244 541.251 169.803C539.395 167.734 537.276 165.916 534.948 164.397C533.166 163.279 531.239 162.412 529.22 161.82C527.487 161.407 525.722 161.142 523.944 161.028Z" fill="#263238"/>
<path d="M620.117 49.4883C620.231 49.7393 620.304 50.007 620.333 50.2811C620.47 51.0479 620.518 51.8279 620.477 52.6057C620.304 55.532 619.09 58.2998 617.055 60.4083C615.509 61.9518 613.575 63.0494 611.458 63.5854C609.341 64.1214 607.118 64.0759 605.024 63.4536C602.489 62.7788 600.294 61.1863 598.865 58.9847C598.108 57.7698 597.785 56.3345 597.946 54.9122C598.028 54.1708 598.269 53.4557 598.651 52.8153C599.033 52.1749 599.548 51.6241 600.162 51.2002C600.802 50.797 601.532 50.5595 602.286 50.5092C603.041 50.4588 603.796 50.5972 604.484 50.9118C605.819 51.4785 606.879 52.5458 607.438 53.8851C607.882 55.1344 608.006 56.4752 607.798 57.7848C607.59 59.0944 607.058 60.3309 606.249 61.3813C604.897 63.1326 602.97 64.3497 600.809 64.8179C598.647 65.2861 596.389 64.9752 594.435 63.9401C593.024 63.2012 591.531 62.6326 589.986 62.2463C588.831 61.986 587.622 62.1127 586.546 62.6067C585.645 63.0935 584.789 63.6604 583.989 64.3005C583.989 64.3005 584.151 64.0663 584.511 63.6698C584.733 63.4221 584.98 63.1986 585.249 63.0031C585.602 62.7102 585.989 62.462 586.402 62.2643C587.516 61.7078 588.776 61.5186 590.004 61.7237C591.608 62.0704 593.163 62.6152 594.633 63.3455C595.467 63.7136 596.336 63.9973 597.226 64.1924C598.184 64.3717 599.167 64.3717 600.126 64.1924C602.282 63.8498 604.22 62.6799 605.529 60.9308C606.24 59.9997 606.709 58.9056 606.891 57.7477C607.073 56.5897 606.964 55.4046 606.573 54.2996C606.359 53.7408 606.029 53.2335 605.605 52.8105C605.182 52.3876 604.675 52.0583 604.116 51.8443C603.557 51.6302 602.96 51.536 602.362 51.5678C601.765 51.5997 601.181 51.7568 600.648 52.0291C600.15 52.3853 599.733 52.8421 599.423 53.3697C599.113 53.8974 598.916 54.4842 598.847 55.0924C598.719 56.3075 598.997 57.5308 599.639 58.5702C600.946 60.5828 602.945 62.045 605.259 62.6788C607.212 63.2778 609.29 63.3448 611.278 62.8729C613.266 62.4009 615.092 61.4071 616.569 59.9938C618.549 58.02 619.79 55.4236 620.081 52.6417C620.157 51.5923 620.169 50.5392 620.117 49.4883Z" fill="#455A64"/>
<path d="M610.373 117.441C610.373 117.549 609.833 117.801 608.842 117.837C607.544 117.855 606.261 117.559 605.101 116.976C603.941 116.392 602.939 115.538 602.179 114.485C601.638 113.657 601.476 113.062 601.584 113.008C602.77 114.206 604.094 115.259 605.529 116.143C607.085 116.769 608.712 117.205 610.373 117.441Z" fill="#263238"/>
<path d="M563.151 109.564C563.241 109.564 563.746 110.357 563.151 111.601C562.963 111.952 562.707 112.261 562.398 112.512C562.089 112.763 561.732 112.949 561.35 113.06C560.86 113.17 560.35 113.16 559.864 113.032C559.379 112.903 558.931 112.659 558.559 112.321C558.152 111.99 557.829 111.568 557.613 111.089C557.397 110.611 557.296 110.089 557.316 109.564C557.347 108.772 557.638 108.012 558.144 107.402C559.009 106.393 559.945 106.285 559.945 106.393C559.945 106.501 559.297 106.843 558.721 107.798C558.352 108.352 558.193 109.02 558.272 109.68C558.351 110.341 558.664 110.952 559.153 111.402C559.418 111.643 559.733 111.822 560.076 111.925C560.419 112.028 560.781 112.052 561.134 111.997C561.728 111.863 562.253 111.517 562.611 111.024C563.187 110.285 563.007 109.564 563.151 109.564Z" fill="#263238"/>
<path d="M623.088 55.5059C623.681 56.5082 623.981 57.6571 623.953 58.8215C624.095 61.6673 623.132 64.4581 621.266 66.6106C619.4 68.763 616.775 70.1108 613.939 70.3722C612.79 70.5689 611.608 70.4313 610.535 69.9757C610.535 69.8136 611.85 69.9757 613.849 69.7054C616.444 69.3063 618.814 68.0023 620.541 66.0239C622.268 64.0454 623.24 61.5199 623.286 58.8936C623.34 56.8393 622.926 55.596 623.088 55.5059Z" fill="#455A64"/>
<path d="M562.179 206.331C562.287 206.565 550.418 212.674 535.65 219.972C520.882 227.27 508.833 233.018 508.635 232.784C508.437 232.55 520.378 226.441 535.146 219.125C549.914 211.809 562.071 206.097 562.179 206.331Z" fill="#E0E0E0"/>
<path d="M551.354 185.898C551.48 186.114 540.909 192.043 527.743 199.106C514.578 206.17 503.808 211.72 503.7 211.486C503.592 211.252 514.146 205.341 527.311 198.277C540.476 191.214 551.228 185.664 551.354 185.898Z" fill="#E0E0E0"/>
<path d="M540.891 169.373C539.21 170.539 537.446 171.58 535.614 172.49L522.683 179.698L509.824 187.05C508.095 188.152 506.289 189.127 504.421 189.97C506.012 188.668 507.711 187.504 509.5 186.492C512.705 184.456 517.19 181.753 522.233 178.887C527.275 176.022 531.922 173.608 535.326 171.914C537.105 170.909 538.967 170.059 540.891 169.373Z" fill="#E0E0E0"/>
<path d="M580.459 165.426C579.24 165.369 578.048 165.05 576.965 164.489C574.325 163.305 571.893 161.705 569.761 159.75C567.623 157.797 565.659 155.663 563.89 153.371C563.082 152.488 562.397 151.5 561.854 150.434C561.963 150.434 562.899 151.317 564.394 152.956C565.889 154.596 567.906 156.831 570.391 159.047C572.485 160.949 574.815 162.573 577.325 163.876C579.18 164.903 580.495 165.318 580.459 165.426Z" fill="#E0E0E0"/>
<path d="M606.717 155.695C606.122 157.868 604.808 159.774 602.989 161.101C601.377 162.677 599.272 163.65 597.028 163.858C598.894 162.804 600.698 161.643 602.431 160.38C603.937 158.891 605.368 157.328 606.717 155.695Z" fill="#E0E0E0"/>
<path d="M653.561 182.817C653.233 182.918 652.895 182.979 652.552 182.997L649.653 183.358C647.131 183.646 643.475 183.988 638.973 184.349C629.968 185.069 617.361 185.772 603.619 186.277C589.878 186.781 577.289 186.944 568.212 186.871C563.691 186.871 560.017 186.745 557.496 186.655L554.578 186.511C554.238 186.511 553.899 186.469 553.57 186.385C553.905 186.342 554.244 186.342 554.578 186.385H557.496L568.212 186.295C577.217 186.205 589.824 185.916 603.583 185.43C617.343 184.943 629.878 184.313 638.919 183.772L649.617 183.087L652.534 182.907C652.871 182.831 653.216 182.8 653.561 182.817Z" fill="#E0E0E0"/>
<path d="M639.333 204.187C638.36 204.409 637.373 204.566 636.38 204.655C634.452 204.89 631.679 205.178 628.257 205.502C621.395 206.133 611.904 206.782 601.404 207.214C590.904 207.647 581.377 207.737 574.389 207.665C570.949 207.665 568.158 207.557 566.231 207.484C565.229 207.492 564.229 207.414 563.241 207.25C564.233 207.131 565.232 207.083 566.231 207.106L574.389 206.998C581.269 206.998 590.778 206.692 601.26 206.277C611.742 205.863 621.251 205.304 628.113 204.836L636.253 204.277C637.275 204.15 638.306 204.12 639.333 204.187Z" fill="#E0E0E0"/>
<path d="M607.042 230.532C605.083 230.985 603.088 231.268 601.081 231.379C597.37 231.757 592.256 232.172 586.583 232.46C580.909 232.749 575.777 232.839 572.049 232.821C570.04 232.915 568.028 232.837 566.033 232.586C568.018 232.283 570.023 232.139 572.031 232.154L586.529 231.523L600.936 230.712C602.965 230.513 605.005 230.452 607.042 230.532Z" fill="#E0E0E0"/>
<path d="M565.781 168.003C565.781 168.273 560.252 168.327 553.444 168.616C546.636 168.904 541.143 169.283 541.107 169.012C549.249 167.572 557.548 167.233 565.781 168.003Z" fill="#E0E0E0"/>
<path d="M641.746 167.029C636.427 167.467 631.088 167.6 625.754 167.426C620.411 167.566 615.065 167.392 609.743 166.903C615.067 166.453 620.413 166.315 625.754 166.489C631.09 166.347 636.431 166.527 641.746 167.029Z" fill="#E0E0E0"/>
<path d="M644.52 276.681C644.013 277.058 643.463 277.373 642.881 277.618C641.8 278.176 640.198 278.915 638.198 279.762C632.946 281.927 627.525 283.656 621.989 284.934C616.457 286.197 610.832 287.01 605.168 287.367C603.007 287.493 601.242 287.529 600.017 287.493C599.414 287.521 598.81 287.479 598.216 287.367C598.216 287.222 600.882 287.114 605.186 286.7C610.791 286.161 616.355 285.264 621.845 284.015C627.351 282.75 632.766 281.119 638.054 279.132C641.962 277.618 644.466 276.537 644.52 276.681Z" fill="#E0E0E0"/>
<path d="M158.018 521.949C201.077 521.949 235.983 488.629 235.983 447.527C235.983 406.425 201.077 373.105 158.018 373.105C114.959 373.105 80.0527 406.425 80.0527 447.527C80.0527 488.629 114.959 521.949 158.018 521.949Z" fill="#E0E0E0"/>
<path d="M142.133 268.141C129.778 268.789 124.915 281.691 123.439 284.575C122.17 287.563 121.497 290.771 121.457 294.017C121.411 297.267 120.596 300.459 119.08 303.333C116.361 307.676 110.634 309.929 109.085 314.812C107.284 320.344 111.84 326.254 110.634 331.931C109.985 334.976 107.77 337.481 107.032 340.49C106.35 343.707 106.951 347.063 108.706 349.842C112.759 356.834 121.187 360.33 129.256 360.654C137.324 360.979 145.213 358.528 152.939 356.149" fill="#263238"/>
<path d="M196.559 284.143C196.085 285.509 196.002 286.98 196.32 288.391C196.639 289.802 197.345 291.095 198.36 292.125C200.434 294.116 202.676 295.924 205.06 297.531C206.251 298.352 207.268 299.401 208.053 300.616C208.838 301.831 209.375 303.189 209.634 304.613C209.868 307.244 208.536 309.875 208.896 312.488C209.832 319.245 220.584 321.263 221.143 328.039C221.539 332.562 216.892 336.724 218.189 341.067C218.891 342.696 219.798 344.228 220.89 345.626C223.952 350.708 221.881 357.699 217.451 361.628C213.02 365.556 206.897 366.944 200.989 367.214C196.019 367.43 190.364 366.619 187.446 362.601C184.763 358.907 185.321 353.897 185.843 349.374C188.346 328.255 187.914 306.92 187.5 285.656" fill="#263238"/>
<path d="M145.393 381.863C145.483 370.763 145.393 359.086 145.393 359.086C145.393 359.086 131.147 356.546 128.392 337.877C125.78 320.056 130.193 281.745 130.193 281.745C150.85 273.582 174.119 276.736 188.581 293.368L186.312 383.467C186.059 393.919 176.856 402.028 165.672 401.667C154.38 401.289 145.303 392.477 145.393 381.863Z" fill="#FFBE9D"/>
<path d="M134.083 311.153C134.068 311.777 134.297 312.382 134.72 312.839C135.144 313.297 135.73 313.571 136.352 313.604C136.657 313.631 136.963 313.597 137.254 313.505C137.546 313.412 137.816 313.262 138.049 313.065C138.282 312.867 138.473 312.625 138.611 312.352C138.75 312.08 138.833 311.782 138.856 311.477C138.866 310.852 138.633 310.247 138.206 309.79C137.78 309.333 137.193 309.059 136.568 309.027C136.265 309 135.959 309.033 135.669 309.126C135.379 309.219 135.11 309.369 134.879 309.567C134.647 309.765 134.458 310.007 134.321 310.28C134.184 310.552 134.103 310.849 134.083 311.153Z" fill="#263238"/>
<path d="M130.247 309.315C130.535 309.621 132.354 308.306 134.929 308.342C139.774 309.044 139.684 309.783 139.648 309.369C139.792 309.243 139.504 308.666 138.675 308.071C137.579 307.28 136.263 306.852 134.911 306.846C133.571 306.833 132.26 307.242 131.165 308.017C130.373 308.612 130.103 309.171 130.247 309.315Z" fill="#263238"/>
<path d="M160.413 311.927C160.398 312.549 160.628 313.152 161.052 313.607C161.476 314.061 162.061 314.332 162.682 314.36C162.986 314.389 163.293 314.357 163.584 314.266C163.875 314.174 164.145 314.024 164.377 313.826C164.609 313.627 164.799 313.384 164.935 313.11C165.07 312.837 165.15 312.539 165.168 312.234C165.183 311.61 164.954 311.005 164.53 310.547C164.106 310.09 163.521 309.816 162.898 309.783C162.594 309.758 162.288 309.794 161.998 309.889C161.707 309.984 161.439 310.136 161.208 310.335C160.976 310.535 160.787 310.778 160.651 311.051C160.514 311.325 160.434 311.622 160.413 311.927Z" fill="#263238"/>
<path d="M157.063 310.198C157.351 310.522 159.188 309.189 161.746 309.225C164.303 309.261 166.194 310.576 166.482 310.27C166.771 309.964 166.32 309.567 165.51 308.954C164.407 308.165 163.084 307.743 161.728 307.747C160.388 307.723 159.076 308.127 157.982 308.9C157.189 309.585 156.919 310.054 157.063 310.198Z" fill="#263238"/>
<path d="M147.5 328.668C146.157 328.209 144.757 327.936 143.34 327.857C142.692 327.857 142.061 327.641 141.953 327.19C141.915 326.509 142.078 325.833 142.421 325.244L144.42 320.27C146.262 316.045 147.774 311.683 148.941 307.224C148.653 307.116 146.167 312.792 143.376 319.838C142.71 321.64 142.079 323.262 141.467 324.848C141.037 325.634 140.903 326.548 141.089 327.424C141.179 327.66 141.325 327.871 141.512 328.041C141.7 328.21 141.925 328.332 142.169 328.397C142.525 328.508 142.895 328.563 143.268 328.56C144.668 328.774 146.09 328.81 147.5 328.668Z" fill="#263238"/>
<path d="M145.375 359.086C154.147 359.323 162.813 357.121 170.409 352.725C170.409 352.725 164.213 365.465 145.573 363.536L145.375 359.086Z" fill="#EB996E"/>
<path d="M148.491 334.814C148.989 334.205 149.634 333.732 150.364 333.439C151.095 333.146 151.888 333.042 152.669 333.138C153.263 333.19 153.839 333.366 154.36 333.654C154.881 333.943 155.336 334.338 155.695 334.814C156.033 335.25 156.229 335.779 156.258 336.329C156.287 336.88 156.147 337.427 155.857 337.896C155.434 338.349 154.888 338.667 154.286 338.811C153.684 338.955 153.052 338.919 152.471 338.706C151.263 338.262 150.155 337.582 149.211 336.706C148.926 336.494 148.682 336.231 148.491 335.931C148.395 335.791 148.343 335.624 148.343 335.454C148.343 335.284 148.395 335.117 148.491 334.976" fill="#EB996E"/>
<path d="M155.064 330.526C154.632 330.526 154.596 333.301 152.183 335.247C149.769 337.193 146.78 336.869 146.78 337.247C146.78 337.626 147.446 337.806 148.689 337.842C150.329 337.899 151.934 337.361 153.209 336.328C154.428 335.347 155.222 333.934 155.424 332.382C155.55 331.21 155.244 330.508 155.064 330.526Z" fill="#263238"/>
<path d="M180.476 280.071C173.668 289.802 155.604 299.803 142.655 302.127C144.15 300.145 152.092 295.244 153.605 293.262C147.752 297.622 139.359 303.497 131.597 303.875C130.681 304.01 129.746 303.865 128.914 303.461C128.478 303.112 128.129 302.667 127.895 302.16C127.66 301.654 127.547 301.1 127.563 300.541C127.121 294.905 127.302 289.236 128.103 283.639C128.719 278.909 131.123 274.595 134.821 271.584C139.81 267.727 146.924 266.79 153.641 266.628C159.264 266.263 164.903 267.022 170.229 268.863C175.379 270.881 179.792 274.899 180.548 279.675" fill="#263238"/>
<path d="M200.035 323.66C200.888 319.544 201.489 315.38 201.836 311.191C202.394 301.568 199.621 266.141 166.464 268.916L165.114 279.025C165.114 279.025 159.999 313.605 181.449 313.857C182.89 321.578 186.662 328.672 192.255 334.184C192.255 334.184 197.874 334.022 199.891 323.66" fill="#263238"/>
<path d="M181.503 313.857C183.506 313.463 185.578 313.619 187.5 314.308C189.425 315.034 190.985 316.491 191.841 318.362C192.588 320.274 192.588 322.397 191.841 324.309C191.069 326.202 189.888 327.9 188.383 329.282C187.39 330.349 186.154 331.159 184.781 331.643C184.088 331.882 183.346 331.944 182.623 331.825C181.9 331.705 181.218 331.407 180.638 330.958" fill="#FFBE9D"/>
<path d="M182.457 325.967C182.223 325.967 183.088 327.247 184.907 326.778C185.396 326.623 185.85 326.371 186.239 326.037C186.629 325.702 186.948 325.293 187.176 324.832C187.74 323.82 188.095 322.705 188.22 321.553C188.393 320.293 188.105 319.013 187.41 317.949C187.129 317.504 186.749 317.13 186.298 316.858C185.848 316.586 185.341 316.423 184.817 316.381C183.016 316.381 182.349 317.606 182.547 317.642C182.745 317.678 183.43 317.138 184.654 317.444C185.404 317.735 186.022 318.288 186.396 319C186.77 319.712 186.875 320.535 186.69 321.318C186.455 323.373 185.645 325.247 184.546 325.697C183.448 326.148 182.583 325.805 182.457 325.967Z" fill="#EB996E"/>
<path d="M185.123 276.431C187.693 277.89 190.733 278.285 193.59 277.53C196.448 276.776 198.897 274.932 200.413 272.394C201.463 270.801 201.838 268.857 201.458 266.988C201.032 265.767 200.295 264.679 199.318 263.832C198.342 262.984 197.161 262.408 195.893 262.159C194.08 261.685 192.179 261.666 190.357 262.103C188.535 262.54 186.848 263.419 185.447 264.664C184.076 265.948 183.096 267.593 182.618 269.41C182.14 271.227 182.184 273.142 182.746 274.935C183.382 276.697 184.551 278.216 186.091 279.282C187.631 280.348 189.464 280.907 191.336 280.881" fill="#263238"/>
<path d="M188.112 330.201C186.214 331.462 184.484 332.957 182.961 334.652C181.437 336.376 180.643 338.624 180.746 340.923C181.025 342.165 181.164 343.434 181.16 344.707C180.612 346.374 179.723 347.908 178.549 349.212C177.461 351.207 177.037 353.496 177.338 355.748C177.639 358 178.65 360.098 180.224 361.736C183.493 364.952 187.904 366.741 192.488 366.709C195.126 366.935 197.766 366.303 200.017 364.907C203.114 362.745 204.303 358.672 204.393 354.87" fill="#263238"/>
<path d="M190.381 283.871C189.923 285.099 189.266 286.244 188.436 287.259C186.606 289.848 184.458 292.196 182.043 294.251C179.646 296.327 177.003 298.101 174.173 299.53C173.052 300.188 171.837 300.668 170.571 300.954C174.397 298.776 178.047 296.3 181.485 293.548C184.698 290.559 187.673 287.324 190.381 283.871Z" fill="#455A64"/>
<path d="M193.821 283.672C193.872 285.214 193.672 286.754 193.227 288.231C192.339 291.839 190.919 295.295 189.013 298.484C187.094 301.665 184.708 304.538 181.935 307.008C180.837 308.091 179.572 308.992 178.189 309.674C182.039 306.253 185.408 302.325 188.202 297.998C190.723 293.503 192.614 288.682 193.821 283.672Z" fill="#455A64"/>
<path d="M121.836 298.773C122.106 298.773 122.466 301.873 123.637 305.567C124.807 309.261 126.05 312.09 125.798 312.216C123.011 308.305 121.616 303.572 121.836 298.773Z" fill="#455A64"/>
<path d="M201.278 362.457C202.094 362.993 203.04 363.298 204.015 363.34C205.148 363.325 206.251 362.973 207.185 362.331C208.382 361.449 209.23 360.172 209.58 358.727C210.012 356.951 210.012 355.097 209.58 353.321C209.202 351.357 208.446 349.338 207.779 347.122C206.964 344.812 206.687 342.347 206.969 339.914C207.383 337.283 209.094 335.139 209.922 332.706C210.314 331.545 210.47 330.317 210.38 329.094C210.29 327.872 209.957 326.68 209.4 325.588C208.375 323.519 206.616 321.906 204.465 321.065C203.409 320.671 202.375 320.219 201.368 319.714C200.362 319.217 199.509 318.458 198.9 317.515C198.006 315.765 197.62 313.798 197.784 311.839C197.904 310.312 197.844 308.775 197.604 307.262C197.405 306.137 196.942 305.074 196.253 304.163C195.632 303.403 194.777 302.87 193.822 302.649C194.082 302.586 194.354 302.586 194.614 302.649C195.361 302.844 196.032 303.258 196.541 303.838C197.305 304.78 197.847 305.883 198.126 307.064C198.433 308.612 198.542 310.192 198.45 311.767C198.323 313.585 198.71 315.402 199.567 317.011C200.575 318.669 202.664 319.353 204.79 320.2C207.141 321.098 209.07 322.848 210.193 325.102C210.81 326.302 211.182 327.614 211.287 328.959C211.392 330.305 211.228 331.659 210.805 332.94C209.868 335.517 208.211 337.571 207.851 339.932C207.577 342.247 207.829 344.594 208.59 346.798C209.22 348.96 209.958 351.032 210.391 353.069C210.793 354.976 210.737 356.952 210.229 358.835C209.8 360.418 208.824 361.797 207.473 362.727C206.443 363.4 205.226 363.729 203.997 363.664C203.227 363.63 202.48 363.387 201.836 362.961C201.616 362.834 201.426 362.662 201.278 362.457Z" fill="#455A64"/>
<path d="M188.274 361.176C188.274 361.176 188.508 361.752 189.373 362.167C189.978 362.418 190.65 362.461 191.283 362.288C191.916 362.115 192.473 361.736 192.866 361.212C193.331 360.333 193.55 359.345 193.499 358.352C193.448 357.359 193.13 356.398 192.578 355.571C191.552 353.535 189.517 351.535 188.976 348.562C188.829 347.838 188.841 347.09 189.012 346.371C189.183 345.652 189.509 344.979 189.967 344.399C190.849 343.318 191.894 342.597 192.56 341.714C193.714 340.029 194.166 337.961 193.821 335.948C193.598 334.557 193.255 333.188 192.794 331.857C192.585 331.374 192.439 330.865 192.362 330.344C192.362 330.344 192.704 330.812 193.119 331.731C193.747 333.042 194.201 334.429 194.469 335.858C194.7 336.945 194.712 338.068 194.505 339.16C194.298 340.252 193.875 341.292 193.263 342.219C192.488 343.264 191.462 344.021 190.705 344.976C190.327 345.455 190.059 346.012 189.918 346.607C189.778 347.201 189.77 347.82 189.895 348.418C190.327 350.994 192.236 352.959 193.335 355.175C193.927 356.143 194.24 357.256 194.24 358.392C194.24 359.527 193.927 360.64 193.335 361.608C193.062 361.964 192.717 362.258 192.323 362.473C191.929 362.687 191.494 362.816 191.047 362.851C190.389 362.929 189.723 362.804 189.138 362.491C188.238 361.842 188.238 361.158 188.274 361.176Z" fill="#455A64"/>
<path d="M117.675 356.438C117.123 356.016 116.627 355.525 116.198 354.978C114.913 353.572 113.855 351.973 113.065 350.239C112.531 349 112.273 347.659 112.308 346.311C112.316 344.712 112.876 343.165 113.893 341.932C115.01 340.652 116.63 339.968 117.603 338.76C118.074 338.097 118.386 337.335 118.514 336.531C118.642 335.728 118.583 334.906 118.341 334.129C117.902 332.463 117.242 330.863 116.378 329.372C115.533 327.897 114.926 326.297 114.577 324.633C114.285 323.057 114.615 321.43 115.496 320.092C116.282 319.024 117.202 318.061 118.233 317.227C119.723 316.147 120.808 314.599 121.313 312.83C121.435 312.175 121.435 311.503 121.313 310.848C121.313 310.848 121.457 310.992 121.583 311.316C121.764 311.818 121.819 312.356 121.745 312.884C121.356 314.799 120.296 316.511 118.756 317.713C117.806 318.544 116.954 319.482 116.216 320.506C115.47 321.69 115.212 323.118 115.496 324.489C115.866 326.055 116.474 327.556 117.297 328.94C118.206 330.497 118.903 332.17 119.368 333.913C119.634 334.826 119.688 335.788 119.526 336.725C119.364 337.662 118.989 338.549 118.431 339.319C117.207 340.761 115.586 341.391 114.649 342.49C113.738 343.558 113.222 344.907 113.191 346.311C113.135 347.54 113.338 348.768 113.785 349.915C114.492 351.625 115.438 353.227 116.594 354.672C117.011 355.224 117.373 355.816 117.675 356.438Z" fill="#455A64"/>
<path d="M192.777 278.773C191.49 277.026 190.017 275.424 188.382 273.997C186.568 272.816 184.629 271.837 182.601 271.078C184.894 271.115 187.116 271.88 188.945 273.263C190.774 274.646 192.116 276.576 192.777 278.773Z" fill="#E8505B"/>
<path d="M195.316 261.527C195.424 261.527 196.019 262.176 196.505 263.564C197.128 265.41 197.184 267.4 196.667 269.278C196.151 271.157 195.084 272.838 193.605 274.105C192.453 275.06 191.588 275.349 191.534 275.258C191.48 275.168 192.2 274.646 193.137 273.637C194.384 272.348 195.288 270.768 195.766 269.039C196.244 267.311 196.282 265.49 195.875 263.744C195.625 263.023 195.438 262.281 195.316 261.527Z" fill="#455A64"/>
<path opacity="0.3" d="M103.916 483.189C103.916 483.189 148.671 525.716 175.271 518.004C201.872 510.291 209.724 490.343 209.724 490.343L210.373 483.135L207.707 481.333L105.267 473.152L103.916 483.189Z" fill="black"/>
<path d="M77.459 443.365L86.0857 421.309L117.009 440.752L89.4536 483.261C89.4536 483.261 78.2514 468.629 77.459 443.365Z" fill="#EB996E"/>
<path d="M112.344 382.207C126.752 374.675 145.374 372.512 145.374 372.512C150.777 383.324 167.833 384.712 178.153 377.323L186.869 371.431C188.072 371.413 189.275 371.467 190.471 371.593C200.412 372.527 209.788 376.64 217.21 383.323C224.632 390.005 229.705 398.903 231.678 408.696C233.397 416.38 234.129 424.252 233.857 432.122C232.723 451.817 212.353 453.601 212.353 453.601C212.353 453.601 211.309 473.045 209.922 488.776C209.624 494.256 207.797 499.542 204.648 504.036C201.5 508.53 197.157 512.052 192.11 514.202C184.977 517.772 177.304 520.14 169.4 521.212C157.061 523.144 144.437 522.018 132.634 517.934C120.831 513.85 110.21 506.932 101.7 497.786C104.798 479.045 107.752 454.773 107.536 453.673C107.501 453.556 107.501 453.431 107.536 453.313L87.3464 435.383L75.8921 425.761C75.8921 425.761 101.106 388.46 112.308 382.333" fill="#E8505B"/>
<path d="M137.378 394.278C135.855 393.412 134.141 392.935 132.389 392.891C130.517 392.887 128.7 393.522 127.239 394.693C126.408 395.456 125.638 396.281 124.933 397.161C124.13 398.238 122.978 399.002 121.673 399.324C120.324 399.494 118.961 399.132 117.873 398.315C116.829 397.648 115.946 396.927 115.028 396.405C114.238 395.94 113.355 395.657 112.442 395.576C111.529 395.495 110.61 395.618 109.751 395.936C108.547 396.346 107.481 397.082 106.671 398.062C106.113 398.765 105.915 399.234 105.825 399.198C105.892 398.707 106.085 398.242 106.383 397.846C107.138 396.698 108.234 395.815 109.517 395.323C110.466 394.917 111.496 394.735 112.526 394.791C113.557 394.847 114.561 395.141 115.46 395.648C116.469 396.188 117.369 396.927 118.36 397.54C119.262 398.22 120.389 398.529 121.511 398.405C122.603 398.124 123.572 397.491 124.267 396.603C124.998 395.689 125.812 394.844 126.698 394.08C128.323 392.825 130.339 392.187 132.389 392.278C133.744 392.326 135.067 392.703 136.243 393.377C137.072 393.882 137.414 394.278 137.378 394.278Z" fill="#FAFAFA"/>
<path d="M157.892 421.309C156.728 419.993 155.255 418.99 153.605 418.389C151.854 417.789 149.953 417.789 148.202 418.389C147.182 418.855 146.195 419.391 145.249 419.993C144.141 420.752 142.806 421.109 141.467 421.002C140.132 420.731 138.955 419.948 138.189 418.822C137.414 417.867 136.802 416.894 136.1 416.101C135.5 415.41 134.754 414.86 133.916 414.492C133.079 414.125 132.17 413.948 131.255 413.974C129.984 413.987 128.74 414.342 127.653 415.002C126.897 415.488 126.554 415.867 126.482 415.812C126.41 415.758 126.717 415.308 127.455 414.695C128.832 413.66 130.544 413.171 132.261 413.324C133.977 413.478 135.575 414.261 136.748 415.524C137.523 416.371 138.153 417.326 138.891 418.245C139.54 419.157 140.502 419.799 141.593 420.047C142.729 420.107 143.853 419.798 144.799 419.164C145.785 418.528 146.828 417.985 147.914 417.542C149.862 416.876 151.985 416.934 153.894 417.705C155.171 418.172 156.31 418.953 157.207 419.975C157.748 420.714 157.928 421.2 157.892 421.309Z" fill="#FAFAFA"/>
<path d="M203.475 381.846C201.802 381.326 200.028 381.221 198.306 381.539C196.472 381.929 194.827 382.934 193.641 384.386C193.003 385.305 192.431 386.269 191.93 387.269C191.367 388.497 190.401 389.495 189.193 390.099C187.906 390.528 186.504 390.457 185.267 389.9C184.114 389.468 183.087 388.945 182.079 388.621C181.206 388.339 180.282 388.253 179.372 388.372C178.463 388.49 177.591 388.809 176.82 389.306C175.739 389.967 174.855 390.907 174.262 392.027C173.866 392.82 173.758 393.342 173.686 393.324C173.614 393.306 173.686 392.784 173.938 391.865C174.591 390.268 175.811 388.969 177.365 388.22C178.918 387.471 180.694 387.325 182.349 387.81C183.448 388.134 184.492 388.639 185.573 389.035C186.595 389.514 187.763 389.579 188.832 389.216C189.845 388.695 190.656 387.852 191.138 386.819C191.648 385.776 192.251 384.781 192.939 383.846C194.271 382.277 196.114 381.23 198.144 380.891C199.478 380.641 200.853 380.734 202.142 381.161C202.638 381.271 203.097 381.507 203.475 381.846Z" fill="#FAFAFA"/>
<path d="M182.439 411.399C181.544 410.406 180.444 409.619 179.215 409.092C177.89 408.576 176.427 408.531 175.073 408.966C174.27 409.275 173.493 409.648 172.75 410.083C171.846 410.643 170.779 410.878 169.724 410.75C168.683 410.497 167.78 409.851 167.203 408.948C166.644 408.173 166.212 407.398 165.708 406.768C165.28 406.217 164.735 405.769 164.111 405.458C163.488 405.146 162.803 404.978 162.106 404.966C160.774 404.973 159.475 405.381 158.378 406.137C158.378 406.137 158.558 405.74 159.134 405.29C160.235 404.52 161.582 404.188 162.914 404.358C164.245 404.528 165.466 405.188 166.338 406.209C166.915 406.894 167.383 407.669 167.905 408.371C168.35 409.094 169.051 409.621 169.868 409.849C171.525 410.137 173.038 408.642 174.767 408.155C176.312 407.705 177.968 407.826 179.432 408.498C181.971 409.633 182.547 411.435 182.439 411.399Z" fill="#FAFAFA"/>
<path d="M136.064 436.303C135.158 435.313 134.053 434.527 132.822 433.996C131.49 433.497 130.028 433.472 128.679 433.924C127.878 434.236 127.101 434.61 126.356 435.041C125.441 435.623 124.352 435.866 123.276 435.726C122.243 435.467 121.347 434.822 120.773 433.924C120.197 433.149 119.765 432.374 119.278 431.762C118.848 431.214 118.302 430.768 117.679 430.457C117.056 430.145 116.372 429.976 115.676 429.96C114.343 429.958 113.041 430.367 111.948 431.131C111.948 431.131 112.11 430.735 112.705 430.284C113.567 429.65 114.606 429.303 115.676 429.293C116.487 429.262 117.293 429.418 118.033 429.749C118.774 430.08 119.428 430.578 119.945 431.203C120.521 431.888 120.971 432.663 121.512 433.365C121.948 434.088 122.644 434.616 123.457 434.843C125.114 435.131 126.644 433.636 128.373 433.149C129.913 432.699 131.563 432.82 133.02 433.492C135.577 434.537 136.154 436.339 136.064 436.303Z" fill="#FAFAFA"/>
<path d="M179.414 436.879C178.253 436.204 176.952 435.809 175.613 435.725C174.192 435.673 172.795 436.105 171.651 436.951C171.003 437.502 170.401 438.104 169.85 438.753C169.174 439.571 168.241 440.136 167.203 440.356C166.129 440.435 165.066 440.1 164.231 439.419C163.439 438.879 162.79 438.284 162.106 437.852C161.522 437.476 160.863 437.234 160.175 437.144C159.486 437.053 158.787 437.117 158.126 437.329C156.867 437.773 155.77 438.582 154.974 439.654C154.974 439.654 154.974 439.221 155.424 438.59C156.043 437.715 156.918 437.054 157.928 436.698C158.683 436.406 159.496 436.294 160.302 436.369C161.108 436.444 161.886 436.704 162.574 437.131C163.331 437.581 164.015 438.176 164.754 438.662C165.402 439.205 166.234 439.476 167.077 439.419C168.734 439.167 169.688 437.257 171.165 436.23C172.483 435.309 174.085 434.888 175.686 435.04C176.405 435.047 177.114 435.216 177.759 435.534C178.405 435.852 178.97 436.312 179.414 436.879Z" fill="#FAFAFA"/>
<path d="M165.096 456.663C163.926 456.013 162.63 455.62 161.296 455.51C159.869 455.46 158.467 455.892 157.315 456.736C156.672 457.291 156.07 457.893 155.514 458.538C154.84 459.358 153.906 459.924 152.867 460.141C151.796 460.218 150.736 459.89 149.895 459.222C149.103 458.664 148.455 458.069 147.77 457.655C147.189 457.272 146.53 457.025 145.841 456.932C145.153 456.838 144.452 456.9 143.79 457.114C142.528 457.55 141.428 458.361 140.638 459.439C140.678 459.05 140.828 458.681 141.07 458.375C141.866 457.268 143.05 456.502 144.386 456.231C145.722 455.96 147.111 456.205 148.274 456.916C149.049 457.366 149.733 457.961 150.472 458.447C151.12 458.99 151.952 459.261 152.795 459.204C154.452 458.952 155.406 457.042 156.883 456.015C158.204 455.1 159.804 454.679 161.404 454.825C162.116 454.841 162.817 455.014 163.455 455.332C164.093 455.649 164.653 456.104 165.096 456.663Z" fill="#FAFAFA"/>
<path d="M134.857 505.785C133.936 504.807 132.819 504.033 131.579 503.515C130.239 503.042 128.777 503.042 127.437 503.515C126.639 503.844 125.868 504.236 125.132 504.686C124.237 505.253 123.175 505.495 122.124 505.371C121.076 505.123 120.165 504.477 119.585 503.569C119.008 502.812 118.558 502.037 118.054 501.425C117.621 500.88 117.074 500.436 116.452 500.125C115.83 499.814 115.147 499.642 114.452 499.623C113.116 499.641 111.819 500.076 110.742 500.866C110.742 500.866 110.904 500.451 111.48 499.983C112.344 499.35 113.381 498.997 114.452 498.974C115.256 498.927 116.061 499.065 116.804 499.377C117.547 499.689 118.209 500.168 118.738 500.776C119.314 501.461 119.783 502.235 120.323 502.92C120.775 503.636 121.484 504.152 122.304 504.362C123.961 504.632 125.456 503.118 127.185 502.56C128.724 502.096 130.379 502.198 131.849 502.848C134.335 504.019 134.947 505.803 134.857 505.785Z" fill="#FAFAFA"/>
<path d="M170.246 516.239C169.1 515.565 167.823 515.147 166.5 515.013C165.08 514.944 163.677 515.357 162.52 516.184C161.871 516.735 161.269 517.338 160.719 517.986C160.032 518.79 159.092 519.337 158.054 519.536C156.982 519.613 155.923 519.27 155.1 518.581C154.307 518.023 153.659 517.41 152.993 516.977C152.414 516.592 151.757 516.339 151.069 516.236C150.381 516.133 149.679 516.183 149.013 516.383C147.751 516.81 146.646 517.608 145.843 518.671C145.843 518.671 145.843 518.239 146.293 517.626C146.932 516.784 147.811 516.156 148.814 515.824C149.577 515.555 150.391 515.46 151.195 515.548C151.999 515.635 152.774 515.902 153.461 516.329C154.217 516.797 154.902 517.392 155.622 517.896C156.271 518.441 157.099 518.723 157.945 518.689C159.602 518.437 160.593 516.563 162.07 515.554C163.404 514.657 165.009 514.255 166.608 514.419C167.31 514.44 167.999 514.614 168.627 514.928C169.256 515.242 169.808 515.689 170.246 516.239Z" fill="#FAFAFA"/>
<path d="M53.614 367.25C54.6946 368.529 94.2985 421.508 94.2985 421.508L88.7334 424.679L48.085 372.422L53.614 367.25Z" fill="#263238"/>
<path d="M208.157 405.09C208.157 405.09 171.021 469.187 168.535 470.358C163.583 472.683 106.599 423.398 101.16 418.695C100.422 417.686 98.873 415.578 95.7573 411.379C95.7573 411.379 91.2728 390.783 86.4642 392.368C81.6555 393.954 89.0936 402.838 85.9779 410.658C82.8622 418.479 68.5443 399.847 67.968 398.153L64.366 393.323C64.366 393.323 60.4938 404.297 60.764 408.892C61.5925 423.579 75.4781 441.04 75.4781 441.04C75.4781 441.04 131.921 511.785 174.641 514.182C186.942 514.885 210.445 479.44 225.069 453.239C233.894 437.418 229.787 421.362 215.163 410.676L208.157 405.09Z" fill="#FFBE9D"/>
<path d="M67.7335 411.398C65.2959 408.149 63.4655 404.486 62.3306 400.586C62.4746 400.586 63.5372 403.019 65.0321 405.992C66.5269 408.965 67.8596 411.326 67.7335 411.398Z" fill="#EB996E"/>
<path d="M206.411 387.18C204.952 388.063 170.391 452.213 170.391 452.213L214.857 487.045C221.654 470.151 227.546 452.905 232.507 435.383C234.164 429.094 233.317 412.281 230.976 405.794C227.662 396.586 222.655 398.875 215.145 393.487L206.411 387.18Z" fill="#E8505B"/>
<g opacity="0.7">
<path d="M221.016 387.181C221.016 387.181 220.584 386.929 219.755 386.515C218.549 385.9 217.199 385.62 215.847 385.704C213.715 385.904 211.693 386.746 210.048 388.118C207.847 389.88 205.917 391.956 204.321 394.281C202.364 397.188 200.561 400.196 198.918 403.291C197.117 406.553 195.064 410.048 192.975 413.724C188.778 421.058 184.15 429.131 179.323 437.601C176.352 442.736 173.488 447.728 170.786 452.413L170.678 451.836L200.755 475.622L209.49 482.632L211.795 484.542C212.077 484.749 212.337 484.984 212.57 485.245C212.262 485.083 211.973 484.89 211.705 484.668L209.292 482.866L200.395 476.055L170.12 452.629L169.796 452.377L170.102 451.944C172.804 447.259 175.667 442.268 178.603 437.114C183.465 428.663 188.112 420.626 192.326 413.292L198.342 402.895C199.983 399.798 201.786 396.791 203.745 393.885C205.415 391.497 207.444 389.382 209.76 387.614C211.503 386.225 213.625 385.396 215.847 385.235C217.257 385.185 218.651 385.541 219.864 386.262C220.179 386.437 220.48 386.636 220.764 386.857C220.944 387.073 221.034 387.163 221.016 387.181Z" fill="black"/>
</g>
<path d="M207.743 447.33C206.853 446.331 205.752 445.543 204.519 445.024C203.194 444.51 201.734 444.459 200.377 444.88C199.573 445.195 198.796 445.575 198.054 446.015C197.147 446.566 196.082 446.801 195.028 446.682C193.987 446.428 193.084 445.783 192.507 444.88C191.948 444.105 191.516 443.33 191.012 442.699C190.584 442.149 190.038 441.701 189.415 441.389C188.792 441.077 188.107 440.909 187.41 440.897C186.078 440.905 184.779 441.313 183.682 442.068C183.682 442.068 183.862 441.672 184.438 441.204C185.316 440.59 186.357 440.251 187.428 440.23C188.235 440.199 189.039 440.356 189.777 440.687C190.514 441.018 191.165 441.516 191.678 442.141C192.254 442.825 192.723 443.6 193.245 444.303C193.695 445.02 194.394 445.547 195.208 445.781C196.865 446.069 198.378 444.573 200.107 444.087C201.65 443.631 203.306 443.746 204.771 444.411C207.275 445.546 207.923 447.348 207.743 447.33Z" fill="#FAFAFA"/>
<path d="M228.058 439.041C227.484 437.822 226.633 436.755 225.573 435.924C224.433 435.081 223.045 434.644 221.629 434.681C220.773 434.78 219.924 434.936 219.089 435.149C218.066 435.437 216.975 435.374 215.992 434.969C215.057 434.431 214.367 433.553 214.065 432.518C213.74 431.617 213.524 430.716 213.218 430.032C212.951 429.387 212.544 428.811 212.027 428.343C211.51 427.876 210.896 427.529 210.228 427.329C208.943 426.976 207.581 427.02 206.32 427.455C206.32 427.455 206.59 427.112 207.275 426.842C208.277 426.461 209.375 426.41 210.409 426.698C211.198 426.886 211.934 427.253 212.559 427.772C213.184 428.291 213.681 428.947 214.011 429.689C214.371 430.5 214.605 431.365 214.929 432.194C215.161 433.005 215.696 433.696 216.424 434.122C217.937 434.861 219.792 433.834 221.593 433.816C223.198 433.814 224.753 434.375 225.987 435.401C226.583 435.814 227.079 436.355 227.438 436.985C227.796 437.615 228.008 438.318 228.058 439.041Z" fill="#FAFAFA"/>
<path d="M229.103 412.516C228.52 411.307 227.67 410.247 226.618 409.416C225.482 408.566 224.091 408.127 222.673 408.173C221.815 408.254 220.965 408.411 220.134 408.641C219.109 408.932 218.016 408.862 217.036 408.443C216.107 407.908 215.417 407.038 215.109 406.01C214.785 405.109 214.569 404.208 214.263 403.506C213.99 402.866 213.581 402.292 213.065 401.826C212.548 401.359 211.937 401.01 211.273 400.803C209.987 400.451 208.625 400.495 207.365 400.929C207.365 400.929 207.635 400.604 208.32 400.316C209.324 399.943 210.419 399.893 211.453 400.172C212.239 400.368 212.971 400.739 213.595 401.257C214.218 401.775 214.717 402.426 215.055 403.163C215.415 403.974 215.65 404.857 215.974 405.668C216.205 406.484 216.74 407.181 217.469 407.614C218.981 408.335 220.836 407.308 222.637 407.308C224.245 407.289 225.806 407.852 227.032 408.894C227.625 409.305 228.119 409.844 228.477 410.47C228.835 411.097 229.049 411.796 229.103 412.516Z" fill="#FAFAFA"/>
<path d="M219.269 473.566C218.678 472.363 217.83 471.305 216.784 470.467C215.643 469.614 214.245 469.175 212.822 469.224C211.969 469.305 211.125 469.462 210.3 469.692C209.277 469.98 208.186 469.917 207.203 469.512C206.276 468.966 205.588 468.091 205.276 467.061C204.933 466.16 204.735 465.259 204.411 464.556C204.142 463.917 203.736 463.344 203.223 462.877C202.71 462.41 202.101 462.061 201.439 461.853C200.154 461.489 198.786 461.54 197.531 461.998C197.531 461.998 197.801 461.655 198.486 461.367C199.759 460.916 201.154 460.958 202.397 461.485C203.641 462.012 204.642 462.985 205.204 464.214C205.582 465.025 205.816 465.908 206.14 466.719C206.37 467.53 206.897 468.225 207.617 468.665C209.148 469.386 211.003 468.359 212.804 468.359C214.412 468.339 215.973 468.903 217.198 469.944C217.791 470.356 218.285 470.894 218.643 471.521C219.001 472.148 219.215 472.846 219.269 473.566Z" fill="#FAFAFA"/>
</g>
<defs>
<clipPath id="clip0_92_73347">
<rect width="842" height="682" fill="white"/>
</clipPath>
</defs>
</svg>
