<svg width="698" height="584" viewBox="0 0 698 584" fill="none" xmlns="http://www.w3.org/2000/svg">
<path d="M211.199 454.388C209.621 459.799 209.684 465.557 211.379 470.932C213.074 476.308 216.326 481.059 220.723 484.585C225.12 488.112 230.463 490.254 236.078 490.741C241.692 491.228 247.325 490.038 252.263 487.322C257.201 484.605 261.222 480.485 263.818 475.481C266.413 470.478 267.466 464.817 266.843 459.215C266.22 453.613 263.949 448.322 260.318 444.011C256.687 439.7 251.859 436.564 246.445 434.999C239.201 432.905 231.422 433.771 224.814 437.405C218.207 441.04 213.31 447.148 211.199 454.388V454.388Z" fill="#EBEBEB"/>
<g opacity="0.1">
<path d="M246.497 434.999C253.734 437.115 259.837 442.013 263.471 448.62C267.104 455.228 267.971 463.006 265.883 470.252C265.883 470.252 246.497 465.51 244.048 456.433C241.598 447.355 246.497 434.999 246.497 434.999Z" fill="white"/>
</g>
<path d="M218.318 455.992C217.119 460.106 217.166 464.483 218.454 468.57C219.742 472.657 222.213 476.27 225.554 478.952C228.896 481.634 232.958 483.265 237.226 483.638C241.494 484.011 245.777 483.109 249.533 481.047C253.289 478.985 256.349 475.856 258.326 472.054C260.303 468.252 261.108 463.95 260.64 459.69C260.171 455.43 258.451 451.406 255.695 448.124C252.939 444.843 249.272 442.453 245.158 441.257C239.645 439.653 233.722 440.305 228.689 443.068C223.656 445.831 219.926 450.48 218.318 455.992V455.992Z" fill="#E0E0E0"/>
<path d="M258.349 456.68C259.536 460.737 259.493 465.056 258.224 469.089C256.955 473.122 254.518 476.688 251.222 479.335C247.926 481.982 243.919 483.591 239.707 483.959C235.496 484.327 231.271 483.437 227.566 481.401C223.861 479.365 220.843 476.276 218.894 472.524C216.946 468.772 216.155 464.526 216.62 460.324C217.086 456.122 218.788 452.152 221.51 448.918C224.233 445.684 227.854 443.33 231.915 442.156C237.346 440.584 243.178 441.231 248.133 443.954C253.088 446.676 256.762 451.252 258.349 456.68V456.68Z" fill="#F5F5F5"/>
<path d="M238.014 460.645L236.481 455.358C237.471 455.195 238.479 455.165 239.477 455.269C240.005 455.371 240.524 455.519 241.028 455.71V455.534L241.292 453.401V452.907L240.076 452.202L239.688 452.537C238.327 452.267 236.926 452.267 235.564 452.537L234.719 449.647L233.608 449.188L233.82 449.911L232.586 450.264L233.45 453.207C229.502 454.776 228.163 457.649 229.026 460.258C230.084 463.871 233.45 463.906 236.534 463.783L238.049 468.983C236.116 469.372 234.112 469.207 232.269 468.507L231.864 471.485C234.129 472.296 236.587 472.401 238.913 471.785L239.547 473.971L238.543 474.27L239.759 474.676L241.979 474.129L241.133 471.221C245.081 469.617 246.42 466.762 245.61 464.171C244.517 460.504 241.098 460.504 238.014 460.645ZM235.723 460.645C234.084 460.645 232.798 460.399 232.445 459.147C232.093 457.896 232.621 456.838 234.384 456.027L235.723 460.645ZM240.27 468.348L238.93 463.748C240.693 463.748 241.944 464.012 242.314 465.281C242.684 466.55 242.085 467.555 240.217 468.383L240.27 468.348Z" fill="#E0E0E0"/>
<path d="M240.005 470.763L240.85 473.688L238.718 474.305L237.872 471.415C235.546 472.03 233.088 471.926 230.823 471.115L231.228 468.154C233.073 468.848 235.077 469.007 237.009 468.612L235.493 463.412C232.409 463.553 229.043 463.518 227.986 459.887C227.21 457.243 228.461 454.37 232.409 452.837L231.545 449.893L233.678 449.276L234.524 452.167C236.409 451.689 238.384 451.689 240.269 452.167L239.969 455.111C238.453 454.73 236.875 454.67 235.334 454.934L236.868 460.222C239.969 460.081 243.371 460.081 244.428 463.747C245.256 466.303 243.97 469.159 240.005 470.763ZM234.629 460.187L233.29 455.569C231.528 456.38 231.017 457.543 231.352 458.689C231.686 459.834 232.991 460.257 234.629 460.257V460.187ZM241.221 464.787C240.85 463.518 239.458 463.254 237.837 463.254L239.176 467.872C240.991 467.079 241.538 465.986 241.221 464.858V464.787Z" fill="#EBEBEB"/>
<path d="M258.095 481.955L258.289 481.797L258.8 481.268C259.074 480.988 259.333 480.694 259.575 480.387C259.857 480.034 260.21 479.646 260.545 479.188L261.073 478.465L261.602 477.637C261.99 477.091 262.342 476.456 262.712 475.874C263.481 474.417 264.135 472.903 264.668 471.344C265.177 469.784 265.566 468.187 265.831 466.568C265.831 465.81 266.025 465.087 266.061 464.417C266.061 464.082 266.061 463.765 266.061 463.448C266.061 463.131 266.061 462.831 266.061 462.549C266.061 461.985 266.061 461.456 266.061 460.998C266.061 460.54 266.061 460.152 265.972 459.835C265.884 459.517 265.972 459.306 265.884 459.112V458.865V459.112V459.852C265.905 460.24 265.905 460.628 265.884 461.016C265.912 461.526 265.912 462.038 265.884 462.549C265.884 462.831 265.884 463.131 265.884 463.448C265.884 463.765 265.884 464.082 265.884 464.4C265.884 465.07 265.726 465.792 265.638 466.533C265.372 468.146 264.983 469.737 264.474 471.292C263.947 472.832 263.298 474.329 262.536 475.769C262.166 476.438 261.831 477.055 261.461 477.619C261.285 477.901 261.108 478.183 260.932 478.43L260.421 479.17C260.104 479.629 259.769 480.034 259.487 480.387C259.25 480.693 258.997 480.988 258.729 481.268L258.254 481.832L258.095 481.955Z" fill="white"/>
<path d="M243.432 440.181L244.102 440.34L244.895 440.534C245.212 440.622 245.564 440.693 245.934 440.816C246.304 440.939 246.745 441.063 247.168 441.239C247.591 441.415 248.084 441.591 248.56 441.785C249.602 442.261 250.609 442.808 251.574 443.425C252.533 444.045 253.446 444.734 254.305 445.487C254.693 445.839 255.063 446.174 255.398 446.527C255.733 446.879 256.015 447.179 256.279 447.479C256.543 447.778 256.773 448.06 256.966 448.289C257.16 448.519 257.336 448.765 257.477 448.942L257.9 449.488C257.811 449.273 257.692 449.071 257.548 448.889C257.425 448.695 257.266 448.483 257.072 448.219C256.878 447.955 256.667 447.673 256.402 447.373C256.138 447.073 255.856 446.738 255.521 446.403C255.186 446.069 254.816 445.716 254.429 445.346C252.716 443.796 250.764 442.535 248.648 441.609L247.238 441.063C246.798 440.904 246.375 440.781 245.987 440.675C245.599 440.569 245.247 440.481 244.93 440.411C244.663 440.345 244.392 440.298 244.119 440.27L243.432 440.181Z" fill="white"/>
<path d="M227.658 487.314L228.117 487.596C228.416 487.755 228.839 487.966 229.403 488.213C230.848 488.849 232.362 489.316 233.915 489.605C235.473 489.88 237.057 489.98 238.638 489.905C239.237 489.905 239.73 489.905 240.065 489.781C240.24 489.772 240.412 489.736 240.576 489.676H240.065H238.638C237.073 489.697 235.509 489.573 233.968 489.306C232.425 489.016 230.915 488.579 229.456 488.001C228.91 487.772 228.451 487.578 228.152 487.42C227.993 487.361 227.827 487.325 227.658 487.314V487.314Z" fill="white"/>
<g opacity="0.3">
<path d="M379.692 4.62138C379.808 4.59553 379.929 4.59553 380.045 4.62138C380.564 4.64386 381.082 4.69683 381.596 4.78002L383.358 5.44981C383.446 5.44981 383.552 5.44981 383.516 5.57319C383.481 5.69657 383.005 6.0491 380.714 5.41456C379.498 5.00916 379.516 4.72714 379.692 4.62138Z" fill="#8282CB"/>
<path d="M383.306 2.70011C382.95 2.64448 382.602 2.5499 382.266 2.41809C382.266 2.41809 382.266 2.41809 382.407 2.41809L383.711 2.54147C383.888 2.54147 384.064 2.68248 384.029 2.73536C383.788 2.78142 383.541 2.76933 383.306 2.70011V2.70011Z" fill="#8282CB"/>
<path d="M376.028 1.88931C375.636 1.94229 375.239 1.94229 374.847 1.88931C374.847 1.88931 374.231 1.8893 373.314 1.71304C373.314 1.71304 372.274 1.55441 372.098 1.50153C371.922 1.44865 372.098 1.50153 372.31 1.50153C374.727 1.54303 377.14 1.73139 379.535 2.06557H377.65C377.116 1.95406 376.573 1.89503 376.028 1.88931V1.88931Z" fill="#8282CB"/>
<path d="M380.186 2.6472C379.682 2.54434 379.168 2.49706 378.653 2.50619C378.177 2.50619 377.525 2.50619 377.155 2.38281H376.944H377.226C379.923 2.29572 382.617 2.63478 385.209 3.3875C383.544 3.36243 381.883 3.21515 380.239 2.94684C380.249 2.84404 380.23 2.74062 380.186 2.6472V2.6472Z" fill="#8282CB"/>
<path d="M376.468 3.51088H376.203L375.745 3.28174L374.899 2.94685C374.74 2.94685 374.723 2.85871 374.723 2.84109C374.723 2.82346 374.723 2.84109 374.829 2.84109C375.686 2.89566 376.529 3.0799 377.331 3.3875V3.3875C377.225 3.47563 377.225 3.47563 377.701 3.81052C377.284 3.73516 376.872 3.6351 376.468 3.51088V3.51088Z" fill="#8282CB"/>
<path d="M387.66 7.03616C387.736 7.028 387.813 7.028 387.889 7.03616C388.118 7.02001 388.347 7.02001 388.576 7.03616C389.376 7.15196 390.162 7.35286 390.92 7.63545V7.63545C389.972 7.66841 389.023 7.57355 388.1 7.35343C387.801 7.21242 387.501 7.03616 387.66 7.03616Z" fill="#8282CB"/>
<path d="M387.342 11.2312C387.342 11.1254 387.465 11.0373 387.959 10.9492H388.241L390.726 10.5966C392.516 10.5191 394.305 10.7577 396.013 11.3017C396.013 11.3017 396.013 11.3017 396.013 11.3017C396.013 11.3017 395.466 11.4251 395.29 11.6894C395.114 11.9538 395.167 12.2006 395.29 12.2887C396.404 12.7421 397.553 13.1017 398.727 13.3639C399.009 13.3639 399.026 13.3639 399.15 13.3639C399.15 12.7118 398.304 12.7646 398.11 12.2535C399.175 12.2422 400.228 12.4902 401.176 12.9762C401.176 12.9762 401.282 13.0995 401.264 13.1524C401.264 13.646 401.264 14.1219 401.264 14.6154C401.238 14.8025 401.238 14.9924 401.264 15.1794C401.388 15.5143 401.705 15.7435 401.775 16.1136C401.775 16.1136 401.775 16.2546 401.775 16.3075C401.405 17.1183 395.184 15.9021 393.281 14.9679C392.858 14.774 391.325 13.2053 391.924 13.0995C392.582 12.9855 393.248 12.9324 393.916 12.9409C392.435 12.5531 390.884 12.465 389.386 12.0772C389.369 12.0772 387.395 11.3193 387.342 11.2312Z" fill="#8282CB"/>
<path d="M402.091 5.78471C399.501 5.57319 397.034 4.65663 394.461 4.33936C395.433 4.48288 396.389 4.71896 397.316 5.0444L388.275 3.40517C387.998 3.36096 387.734 3.25886 387.5 3.10553C387.598 3.07851 387.701 3.07851 387.799 3.10553C393.686 3.82998 399.524 4.90711 405.281 6.33111C404.101 6.57788 403.061 5.90809 401.933 5.76708L402.091 5.78471Z" fill="#8282CB"/>
<path d="M407.661 21.7011H407.767C407.978 21.7049 408.187 21.7467 408.383 21.8245C409.563 22.3846 410.775 22.8731 412.014 23.2875C414.164 23.7457 414.816 23.8868 414.992 24.1159C415.168 24.345 414.992 24.1159 414.992 24.1159C414.755 24.2068 414.505 24.2603 414.252 24.2745C413.529 24.3627 413.459 24.3979 413.353 24.5389C413.247 24.6799 413.353 25.1382 413.089 25.3497C412.74 25.4922 412.372 25.5813 411.996 25.6141C410.337 25.987 408.607 25.8769 407.009 25.2969C406.515 25.0148 406.815 23.1465 406.815 23.1288C406.934 22.5735 407.231 22.0722 407.661 21.7011V21.7011Z" fill="#8282CB"/>
<path d="M398.832 10.297C399.016 10.2443 399.205 10.2089 399.396 10.1912C400.574 10.0913 401.757 10.2977 402.832 10.7905V10.7905C402.673 10.7905 402.48 10.7905 402.339 10.9492C402.198 11.1078 402.339 11.0902 402.621 11.3722C402.903 11.6542 403.22 11.9891 402.85 11.9891C401.826 11.7962 400.827 11.4887 399.871 11.0725C398.814 10.6848 398.514 10.438 398.832 10.297Z" fill="#8282CB"/>
<path d="M239.008 59.0157C239.801 56.6009 241.651 54.7149 242.374 52.2825C242.532 50.7237 242.532 49.1528 242.374 47.5939C242.55 45.8313 242.074 45.4612 240.876 44.8795C239.237 44.0687 239.889 43.2755 241.88 40.9136C248.383 33.1934 248.401 33.0524 248.718 31.7128L248.471 31.4308H247.995C249.564 28.258 255.045 28.3991 254.675 23.5519L255.344 22.8468L254.939 22.2299H254.569C255.591 21.7011 258.622 20.4673 258.657 20.4673C260.369 19.8273 262.14 19.3609 263.944 19.0748C265.848 18.7575 266.958 17.0478 268.65 16.378C271.046 15.4438 276.386 13.5578 278.536 12.8528C282.537 11.6894 282.537 11.6895 283.083 11.8305C285.205 11.1078 287.387 10.5768 289.604 10.2441V10.2441C289.604 10.2441 289.604 10.2441 289.745 10.2441C289.886 10.2441 289.745 10.2441 289.745 10.2441H289.604C288.523 10.6478 287.484 11.1554 286.502 11.76C286.731 11.76 286.731 11.76 289.48 10.6848C290.448 10.3204 291.437 10.0143 292.441 9.7682C298.582 8.29638 304.901 7.70294 311.209 8.00558C310.91 8.30522 310.91 8.30522 309.447 8.81638C311.016 9.76819 314.152 9.53905 315.827 9.41567C318.87 9.19797 321.924 9.1509 324.973 9.27466C328.128 11.4074 323.07 14.2276 322.999 14.2452C309.271 17.9644 309.148 18.1582 308.495 19.3039C308.495 19.3039 304.654 28.5048 308.002 31.5541C309.341 32.788 309.359 32.8408 309.394 33.07C309.535 33.9337 308.584 34.3391 308.548 35.1146C308.548 36.3132 309.341 37.3531 309.112 38.6399C307.209 38.8514 305.147 37.5118 303.367 39.1863C300.336 42.0417 303.015 44.3507 303.05 44.3684C305.129 45.6022 307.791 44.5799 309.8 46.131C311.389 47.5571 312.425 49.4982 312.725 51.6127C312.725 52.5116 308.531 73.8922 304.107 77.3469C292.423 84.1506 292.053 83.9391 290.943 83.3222C289.092 82.2999 282.819 71.6537 282.748 71.5479C281.832 69.9792 282.096 67.8817 280.563 66.595C279.752 65.9252 279.699 65.9252 276.228 66.0662C265.301 66.5597 265.301 66.5597 264.403 64.7795C263.504 62.9992 262.922 61.924 260.878 61.642C255.803 60.9722 250.745 62.3999 245.669 61.642C243.574 61.5346 241.489 61.2754 239.431 60.8664C239.431 60.8664 238.479 60.6549 239.008 59.0157Z" fill="#8282CB"/>
<path d="M368.133 35.238C367.146 34.057 367.146 33.352 368.133 33.1757C368.133 33.1757 371.269 32.929 372.256 34.0042C372.803 34.6387 372.256 36.9477 371.922 37.4236C371.04 38.5517 368.15 35.238 368.133 35.238Z" fill="#8282CB"/>
<path d="M333.661 1.99506C334.384 1.99506 335.124 1.99506 335.847 1.99506C333.626 2.24182 326.365 2.75298 325.273 2.82349C329.57 2.83673 333.865 2.61313 338.138 2.15369C338.725 2.02611 339.336 2.06891 339.9 2.27708C340.3 3.02573 340.914 3.63904 341.662 4.03969C343.424 2.75298 349.61 3.91631 349.874 4.03969C349.487 4.39222 348.923 4.49797 348.588 4.921L348.729 5.11489C347.603 5.32966 346.452 5.38307 345.31 5.27353C349.804 6.01382 350.068 5.36166 350.245 4.93863C353.135 4.00444 353.769 4.93863 353.928 5.53792C355.937 6.03145 358.087 5.39691 360.025 6.31347C360.033 6.39554 360.033 6.47816 360.025 6.56023C358.751 6.99742 357.423 7.25835 356.078 7.33578C353.716 7.68831 351.231 6.807 349.029 8.18184C349.363 8.55199 349.363 8.55199 349.998 8.7635C348.5 9.64481 342.473 8.95739 342.49 7.51205L343.019 7.17715C341.234 6.48523 339.358 6.05194 337.45 5.89044C332.463 6.4016 330.242 5.23827 330.066 4.86812L330.278 4.70949C325.625 5.07964 323.51 5.2559 321.871 4.85049C322.225 4.69996 322.599 4.60484 322.982 4.56848L311.756 4.99151C314.364 4.46272 314.505 4.42747 315.474 4.1807C312.866 4.37459 310.293 4.86813 307.685 5.09727C309.993 4.30409 314.029 3.42278 314.047 3.42278C314.064 3.42278 323.598 1.74829 325.96 1.74829C325.906 1.90808 325.816 2.05299 325.696 2.17132C326.316 2.16488 326.924 1.99462 327.458 1.67779C328.092 1.36052 336.728 0.496832 337.891 1.20188C337.521 1.60728 337.433 1.74829 333.661 1.99506Z" fill="#8282CB"/>
<path d="M351.584 41.2838C350.103 41.6716 348.341 46.7303 348.323 46.8008C347.918 48.0346 347.495 49.3213 346.737 49.4271C344.64 49.762 339.054 43.2579 339.001 43.205C338.825 42.9764 338.688 42.7203 338.595 42.4471L351.795 34.1099C350.161 33.6832 348.479 33.464 346.79 33.4578C345.028 33.3168 344.164 33.2462 344.076 32.8232C343.829 31.7657 347.213 25.1735 349.522 23.922C350.561 23.358 351.83 23.2875 352.694 22.4062C353.557 21.5249 352.852 19.6917 354.35 19.0219C356.751 18.4971 359.216 18.3367 361.664 18.546C364.202 18.546 364.219 18.546 364.572 18.4403C364.493 17.0079 364.165 15.6002 363.603 14.2805C365.086 13.5764 366.676 13.1237 368.308 12.9409C372.996 12.4474 389.738 18.7399 387.887 21.2428C386.037 23.7457 377.172 24.962 375.868 24.7681C375.78 24.0278 375.727 23.5342 371.974 24.3979C368.784 25.1558 368.079 24.5742 367.585 24.1688C366.861 25.1531 366.202 26.1835 365.612 27.2534C364.942 28.7516 365.048 30.4437 364.466 31.9595C363.744 33.8984 360.836 34.7268 361.752 37.4765C361.752 37.4765 364.554 43.4342 373.965 42.9935C376.785 42.8525 379.516 41.7421 382.389 42.1827C382.905 42.3211 383.36 42.6294 383.679 43.0579C383.999 43.4864 384.165 44.0101 384.151 44.5446C383.816 45.1263 382.389 45.8313 377.366 45.9018C373.542 45.9018 373.542 45.9018 368.378 50.749C369.066 51.1016 369.066 51.1015 371.903 51.1544C370.987 52.8113 361.329 58.6455 358.791 58.2049C358.791 57.8524 358.791 57.8524 359.214 57.4117C360.481 55.4406 361.6 53.3786 362.563 51.2426C360.127 52.1343 358.023 53.7524 356.536 55.8782C356.236 56.2836 356.007 56.5833 355.795 56.6009C354.509 56.6009 351.037 52.9523 351.636 51.648C352.905 48.8454 356.782 47.8055 356.765 44.104C356.73 41.1075 351.619 41.2662 351.584 41.2838Z" fill="#8282CB"/>
<path d="M391.465 4.19834C390.847 4.30476 390.213 4.26247 389.614 4.07496C389.445 4.03794 389.28 3.98482 389.121 3.91632H389.244C389.992 3.93149 390.737 4.02602 391.465 4.19834V4.19834Z" fill="#8282CB"/>
<path d="M316.321 43.822L313.977 44.1568C313.616 44.1295 313.274 43.9804 313.008 43.7338C312.943 43.6467 312.899 43.5453 312.881 43.4381C312.863 43.3308 312.87 43.2208 312.902 43.1169C312.991 42.7115 313.343 42.4647 313.484 42.0946C313.549 41.9364 313.549 41.7592 313.484 41.6011C313.475 41.585 313.47 41.5667 313.47 41.5482C313.47 41.5296 313.475 41.5114 313.484 41.4953C313.763 41.229 314.122 41.0618 314.506 41.0194C315.563 40.8784 318.965 41.5306 317.749 43.0112C317.386 43.4447 316.879 43.7326 316.321 43.822V43.822Z" fill="#8282CB"/>
<path d="M355.057 17.6118C356.506 16.1687 358.343 15.1769 360.344 14.7564C362.441 14.3863 362.3 15.9374 361.965 16.519C360.784 18.1759 355.128 17.6118 355.057 17.6118Z" fill="#8282CB"/>
<path d="M366.899 1.7483C367.631 1.75314 368.361 1.81205 369.084 1.92456H368.767C368.071 1.95665 367.386 2.10562 366.74 2.36521C366.952 2.70011 367.427 2.50622 367.639 2.84112C367.639 3.05263 365.665 2.9645 365.524 2.94688C364.329 2.67309 363.195 2.18327 362.176 1.50153C362.405 1.32527 362.687 1.50153 362.934 1.37815C362.563 1.02563 362.035 1.25477 361.647 0.990373H361.823C363.479 0.974316 365.134 1.07445 366.775 1.29002C366.441 1.53679 365.982 1.29002 365.63 1.53679C365.612 1.7483 365.894 1.7483 366.899 1.7483Z" fill="#8282CB"/>
<path d="M378.478 8.07607C379.006 8.21708 379.183 8.26996 378.671 8.9045C378.145 9.23014 377.542 9.41135 376.923 9.42992C376.305 9.44848 375.692 9.30374 375.147 9.01026C374.266 8.67536 372.362 7.72355 372.979 7.44153C373.072 7.42468 373.168 7.42468 373.261 7.44153C375.014 7.51368 376.758 7.72587 378.478 8.07607V8.07607Z" fill="#8282CB"/>
<path d="M355.938 4.37462H356.114H356.255C357.242 4.37462 358.229 4.37462 359.216 4.37462C360.203 4.37462 361.472 4.14547 362.617 4.11022C363.115 4.05701 363.617 4.05701 364.115 4.11022C362.414 4.52766 360.681 4.80474 358.934 4.93865C358.033 5.01062 357.128 4.89662 356.273 4.60375L355.938 4.37462Z" fill="#8282CB"/>
<path d="M363.902 3.31703C363.55 3.31703 360.043 3.17603 359.003 3.07027C358.563 3.07027 358.457 2.98214 358.386 2.8235C358.316 2.66487 358.633 2.62961 358.58 2.43573C358.527 2.24184 358.474 2.27709 358.58 2.17134C358.599 2.11867 358.637 2.07477 358.686 2.04795C358.808 1.95761 358.958 1.91384 359.109 1.92456C359.299 1.94495 359.488 1.98032 359.673 2.03032C360.501 2.25946 361.224 2.87638 362.122 2.89401C363.021 2.91164 363.532 2.91163 363.902 3.31703Z" fill="#8282CB"/>
<path d="M355.161 1.21953C354.274 1.19045 353.393 1.06035 352.536 0.831752C352.617 0.815604 352.701 0.815604 352.782 0.831752C352.782 0.831752 355.214 0.831752 355.954 0.831752C356.695 0.831752 356.642 1.27241 356.642 1.27241C356.642 1.27241 355.937 1.30766 355.161 1.21953Z" fill="#8282CB"/>
<path d="M350.139 1.85405C349.1 1.85405 348.782 1.85405 348.518 2.15369V2.25945C349.103 2.33119 349.695 2.33119 350.28 2.25945C351.517 2.14568 352.762 2.14568 353.999 2.25945C354.686 2.40046 354.968 3.05262 354.774 3.24651C354.58 3.4404 354.774 3.24651 353.012 3.40515C352.325 3.40515 351.69 3.82818 350.968 3.82818C349.205 3.82818 347.549 3.26414 345.822 3.12313C344.747 3.12313 343.672 3.28176 342.597 3.12313H342.367C342.367 3.12313 342.367 3.12313 343.02 2.66485C342.835 2.61694 342.646 2.58742 342.456 2.57672C340.975 2.43571 340.94 2.38283 340.87 2.25945C340.799 2.13607 341.169 2.25945 341.257 2.01269C340.958 1.8188 340.447 1.90692 340.376 1.39577C339.988 1.16663 339.513 1.20188 339.142 0.955111L339.407 0.849358C342.344 0.726389 345.286 0.773467 348.218 0.990364C347.926 1.10301 347.615 1.16269 347.302 1.16662C348.077 1.30745 348.871 1.30745 349.646 1.16662C350.691 1.02888 351.753 1.18768 352.712 1.62491C351.865 1.79114 351.003 1.86794 350.139 1.85405Z" fill="#8282CB"/>
<path d="M373.084 10.0502C372.943 10.0502 356.677 13.9985 351.073 11.3369C349.557 10.6143 352.271 9.57432 352.306 9.46856C355.951 8.9853 359.63 8.81429 363.303 8.9574C364.801 8.9574 365.4 7.45917 365.065 7.19478C364.731 6.93039 364.66 7.08902 364.131 7.19478C361.329 7.37104 362.369 6.11958 362.58 6.01382C363.243 5.88441 363.915 5.80779 364.59 5.78469C365.365 5.62605 365.982 5.09727 366.757 4.90338C367.257 4.78973 367.763 4.70731 368.273 4.65662C369.106 4.8571 369.875 5.26311 370.511 5.83757C370.172 5.95629 369.811 5.99843 369.453 5.96095C368.678 5.96095 367.585 5.96095 367.427 6.17246C367.268 6.38397 368.942 7.72356 369.031 7.77644C370.104 8.00817 371.163 8.30244 372.203 8.65775C374.071 9.73295 373.524 9.90921 373.084 10.0502Z" fill="#8282CB"/>
<path d="M399.378 5.52026C399.96 5.52026 404.788 6.52496 405.088 6.71884C404.806 6.78935 404.665 6.85985 399.378 5.52026Z" fill="#8282CB"/>
<path d="M427.858 14.4391V14.5625C427.76 14.5887 427.656 14.5887 427.558 14.5625C425.954 14.1395 424.474 13.4168 422.888 12.9761C420.015 12.183 417.055 11.7247 414.2 10.861C413.53 10.6495 413.53 10.6495 412.438 9.62716V9.46853C413.279 9.47656 414.115 9.60112 414.922 9.83868C414.165 9.53903 414.165 9.53903 413.918 9.16888C413.918 9.16888 413.918 9.16888 413.918 9.08075H414.235C417.495 9.27464 417.495 9.27464 433.62 15.1794C435.167 15.6205 436.57 16.4591 437.691 17.6118L437.603 17.6999C434.114 17.3474 431.1 15.5143 427.858 14.4391Z" fill="#8282CB"/>
<path d="M406.128 8.79875C405.233 8.84252 404.337 8.75342 403.467 8.53435C398.833 7.72355 396.559 7.56491 396.542 7.56491C395.132 7.56491 393.704 7.56492 392.294 7.44153C391.167 7.2829 386.708 6.03144 386.673 6.03144C385.809 5.78467 385.739 5.71417 385.615 5.60841C386.003 5.51212 386.408 5.51212 386.796 5.60841C388.118 5.85518 389.369 6.36633 390.673 6.6131C388.911 5.74942 386.884 5.22064 385.087 4.30408H385.245C385.245 4.30408 390.532 5.04438 390.937 5.62604C391.343 6.2077 392.206 6.98326 395.907 6.57785V6.47209L395.537 6.27821H395.414C394.779 5.94331 393.087 6.19007 393.475 5.23826C393.581 5.23826 404.296 6.43684 404.807 7.67067C403.031 7.47815 401.267 7.19577 399.52 6.82462C400.225 7.40628 401.124 7.3534 401.917 7.63542C401.811 7.63542 401.776 7.63542 400.507 7.47679C399.767 7.36038 399.018 7.30731 398.269 7.31815C400.654 7.81771 403.067 8.17673 405.494 8.39335C406.322 8.18183 406.428 8.56961 406.128 8.79875Z" fill="#8282CB"/>
<path d="M439.594 22.4766C438.977 22.882 438.272 22.4766 437.638 22.7234V22.8644C438.202 23.5518 439.118 23.7457 439.752 24.3274C435.565 24.376 431.398 23.7389 427.416 22.4414C426.544 22.0518 425.617 21.802 424.667 21.7011L424.561 21.8421C425.055 22.2828 425.055 22.2828 425.125 22.3885C424.403 23.0664 423.605 23.6579 422.746 24.1511C420.297 24.1511 420.297 24.1511 417.318 22.5295L417.177 22.4414C417.389 22.318 417.389 22.318 419.803 22.7058C419.147 22.2192 418.39 21.8846 417.589 21.7261C416.787 21.5676 415.96 21.5891 415.168 21.7892C414.657 21.9831 414.534 22.0007 414.287 21.9126C414.04 21.8245 412.807 21.2957 412.666 20.3086C413.6 19.2511 413.617 17.8057 412.754 17.2769C411.89 16.7481 405.194 12.6412 405.141 12.1301C405.328 11.9566 405.528 11.7975 405.74 11.6542C405.749 11.5722 405.749 11.4894 405.74 11.4074V11.4074C408.577 12.4826 411.027 14.5449 414.076 15.1089C413.952 13.9808 412.736 14.0161 412.155 13.3463L412.313 13.1524C413.438 13.3442 414.574 13.4561 415.715 13.4873C415.239 13.1171 414.622 13.0114 414.181 12.5707C414.188 12.5239 414.188 12.4765 414.181 12.4297C415.767 12.4297 417.23 13.0995 418.781 13.1348C417.426 12.5033 416.031 11.9616 414.604 11.5132C415.503 11.3017 429.32 14.633 429.513 16.0783L429.161 16.4661C429.513 16.7658 429.531 16.7658 431.152 17.1007C433.866 17.6823 434.06 17.9115 434.148 18.2287C434.046 18.3369 433.909 18.4055 433.761 18.4226C432.439 18.6165 431.117 18.1406 429.778 18.2992C428.826 18.4226 428.015 19.11 427.134 19.2334C428.854 19.707 430.643 19.8799 432.421 19.7446C439.065 19.3744 440.546 21.8597 439.594 22.4766Z" fill="#8282CB"/>
<path d="M393.58 54.7325C393.21 54.3095 393.721 54.1509 394.144 54.0627C394.958 53.9106 395.796 53.9468 396.593 54.1685C396.927 54.362 397.192 54.654 397.353 55.0042C397.514 55.3545 397.562 55.746 397.492 56.125C397.052 56.8829 394.091 55.3318 393.58 54.7325Z" fill="#8282CB"/>
<path d="M393.263 46.1134C393.077 46.1012 392.899 46.0336 392.751 45.9195C392.618 45.7255 392.536 45.5004 392.515 45.2658C392.493 45.0312 392.532 44.7951 392.628 44.5799C392.875 44.0864 393.298 43.7162 393.527 43.2227C393.763 42.3015 394.069 41.3999 394.443 40.5259L394.725 40.1557C395.289 39.4507 396.188 39.2216 396.734 38.5341C397.104 38.1111 396.893 37.4766 397.245 37.0359C397.313 37.0085 397.389 37.0085 397.457 37.0359C398.926 37.7163 400.32 38.5493 401.616 39.5212C402.039 39.8208 402.585 40.2439 402.99 40.5611L406.744 43.6105C405.37 44.2098 405.37 44.2097 405.511 44.9677C405.652 45.7256 405.687 45.9371 405.511 45.9547C404.899 45.8802 404.304 45.7076 403.748 45.4436C401.829 44.5323 399.685 44.2015 397.58 44.4918C396.135 44.7914 394.937 46.1134 393.263 46.1134Z" fill="#8282CB"/>
<path d="M399.872 50.8724C401.444 50.6349 403.042 50.6349 404.613 50.8724C405.388 51.1368 405.952 52.4411 405.688 52.8113C405.194 53.5163 400.401 52.5645 399.308 51.7185C398.956 51.4365 398.762 51.1016 399.872 50.8724Z" fill="#8282CB"/>
<path d="M482.947 226.306C484.322 226.306 484.304 228.509 483.652 229.02C483 229.531 480.304 231.065 479.898 229.743C479.669 228.95 481.255 226.517 482.947 226.306Z" fill="#8282CB"/>
<path d="M222.107 87.0942C222.062 87.0184 222.032 86.9346 222.019 86.8474C222.203 85.9547 222.651 85.138 223.305 84.5031L223.746 84.1683C224.944 83.3398 226.46 83.1636 227.588 82.1765C228.381 81.4891 228.733 80.4139 229.861 79.9909C231.253 79.8498 232.628 79.9909 234.003 79.8146C235.377 79.6383 236.611 79.1448 237.968 79.1272C238.831 79.1272 238.62 80.2729 239.342 80.4139C240.065 80.5549 240.558 79.6031 241.351 79.7617H241.739C242.373 80.7664 241.845 82.3704 243.36 82.9168C244.393 81.5152 245.219 79.9717 245.81 78.334C246.162 75.9897 250.145 73.2048 251.731 73.7688C251.731 74.8793 250.427 75.0908 250.145 76.025C251.009 77.3469 252.648 76.5185 253.67 77.2941C253.37 77.7347 251.908 78.0167 251.079 78.1401C249.617 78.3869 245.792 81.4009 248.929 82.5466C248.348 84.1859 246.585 83.5866 245.528 84.3093C244.471 85.0319 244.576 85.5431 244.946 86.6183C244.753 86.9532 244.541 87.1471 242.021 87.7464C241.097 87.9251 240.19 88.1786 239.307 88.5043C238.179 88.9802 237.28 89.8791 236.135 90.2669C235.982 90.3451 235.823 90.41 235.659 90.4608C234.194 90.8372 232.694 91.0616 231.183 91.1306C228.011 91.4479 222.371 89.791 222.371 88.7687C222.283 88.0989 222.671 87.4996 222.636 86.8474C222.459 86.9532 222.459 86.9532 222.107 87.0942Z" fill="#8282CB"/>
<path d="M477.167 222.481C476.48 224.596 468.708 227.98 468.232 227.116C467.986 226.623 474.083 211.253 474.154 211.13C475.266 209.611 476.694 208.351 478.34 207.438C479.986 206.525 481.811 205.981 483.688 205.842C486.033 205.809 488.356 206.296 490.49 207.269C490.208 207.816 487.565 208.327 485.08 207.869C481.555 207.217 479.881 208.873 479.793 209.455C480.057 209.702 480.621 209.966 481.379 209.103C481.379 209.103 481.467 209.103 481.502 209.103C481.89 210.565 479.74 211.993 478.295 212.945C475.652 214.708 475.687 215.377 475.722 217.404C475.811 218.293 475.703 219.189 475.405 220.031C475.181 220.498 475.072 221.011 475.088 221.529C475.44 222.569 476.515 222.075 477.167 222.481Z" fill="#8282CB"/>
<path d="M467.879 236.758C467.227 237.498 468.425 238.803 467.28 239.331C465.323 240.248 464.583 237.41 462.768 237.851C462.434 237.958 462.114 238.106 461.816 238.291C459.121 239.679 456.35 240.914 453.516 241.993C453.252 241.993 453.058 241.993 452.952 241.817C452.582 240.918 453.075 239.895 452.494 239.049C450.732 236.388 465.165 229.866 466.152 229.69C466.295 229.646 466.449 229.646 466.592 229.69C466.68 229.919 466.68 229.919 466.592 230.201C466.132 230.958 465.907 231.834 465.944 232.718C465.982 233.603 466.281 234.457 466.804 235.172C467.174 235.313 468.284 234.713 469.835 233.867C472.672 232.316 472.99 232.316 473.183 232.299C473.377 232.281 473.183 232.457 473.183 232.51C471.633 234.29 469.377 235.048 467.879 236.758Z" fill="#8282CB"/>
<path d="M376.75 108.228C378.195 108.228 375.781 110.696 375.287 111.189C372.08 114.344 370 112.952 370 112.846C369.19 111.965 375.27 108.492 376.75 108.228Z" fill="#8282CB"/>
<path d="M507.637 58.5214L507.514 58.3988L507.637 58.5214Z" fill="#8282CB"/>
<path d="M537.702 91.5007C556.664 114.626 569.67 147.904 569.67 147.904V154.391C569.141 154.691 569.141 154.691 566.445 177.657L568.736 176.935C568.436 179.755 563.819 193.644 563.784 193.75C562.621 192.904 561.422 191.988 563.361 185.149C564.242 182.011 565.247 178.486 563.801 163.592C560.665 168.157 560.929 170.343 561.264 173.092C561.606 174.995 561.653 176.939 561.405 178.856C560.647 182.223 559.413 185.431 558.497 188.762C557.351 193.08 553.968 196.447 553.316 200.959C552.787 204.608 555.078 208.45 552.505 211.94C552.089 212.445 551.615 212.9 551.095 213.298C550.257 214.137 549.374 214.931 548.452 215.677C545.35 217.757 542.037 219.52 538.918 221.547C535.798 223.574 531.269 222.939 528.52 226.094C522.229 233.338 522.229 233.338 519.568 234.608L518.246 235.26C506.491 241.341 506.756 258.438 493.045 262.704C483.493 254.772 484.022 268.133 484.674 274.249C484.885 276.17 484.885 276.17 490.895 282.427C490.895 282.533 498.949 294.766 498.437 297.78C498.437 298.273 498.244 298.925 498.12 299.401C496.005 307.562 484.11 331.975 484.022 332.168C480.92 337.58 475.21 340.558 471.686 345.582C469.025 349.407 468.161 355.4 469.148 362.433C469.148 362.75 473.201 396.539 467.068 417.937C459.261 445.046 443.506 447.902 443.348 447.902C455.12 435.475 455.12 435.475 451.631 429.853C452.864 427.032 452.864 427.032 453.005 415.329C452.353 415.329 452.353 415.329 449.674 416.386C449.674 416.087 449.674 416.087 451.278 410.411C447.965 409.054 447.965 409.054 447.524 407.203L446.837 406.956C442.819 410.006 439.982 406.798 440.546 404.7L441.215 402.391C430.976 405.687 418.041 382.667 417.918 382.421C415.362 379.812 410.868 379.301 409.106 379.195C404.982 378.966 403.449 374.753 400.083 373.343C399.555 373.089 398.973 372.966 398.387 372.984C397.801 373.003 397.228 373.162 396.717 373.449C395.307 374.172 395.201 374.224 394.514 372.885C393.016 369.959 392.206 366.769 390.99 363.737C390.302 361.974 390.708 359.912 388.963 358.625C387.218 357.339 386.214 356.598 386.69 354.977C386.792 354.646 386.834 354.3 386.813 353.954C377.244 353.849 370.952 345.705 370.952 345.635C370.901 345.523 370.865 345.404 370.846 345.282C370.67 344.207 371.234 343.167 371.076 342.074C370.829 340.453 368.044 339.078 369.63 337.421C370.758 336.24 372.468 336.786 373.737 336.011C377.825 333.49 379.376 328.626 383.147 325.841C388.787 321.663 394.902 318.261 400.77 314.419C404.013 311.74 402.832 307.368 404.295 304.055C407.309 300.142 408.771 294.977 412.032 291.223C416.314 286.305 423.24 285.018 427.416 279.96C430.694 275.941 431.998 270.653 435.735 266.916C436.341 266.317 437.03 265.807 437.779 265.4C458.345 254.49 474.593 245.888 482.577 262.422C487.405 255.583 506.509 257.01 501.222 246.84C499.295 243.185 498.567 239.016 499.142 234.925C503.284 230.606 509.329 231.4 514.281 229.337C510.668 224.384 510.668 224.384 510.967 221.37C508.324 218.828 506.142 215.846 504.517 212.557C505.187 211.376 511.249 201.576 519.761 220.048C522.616 218.832 525.912 222.269 528.573 219.185C534.811 211.958 535.481 205.331 535.323 202.017C535.129 197.91 530.987 196.112 529.842 192.587C529.102 190.331 531.727 188.18 530.053 185.906C527.868 182.945 519.568 178.856 517.717 178.274C514.474 177.199 505.381 182.928 505.275 182.981L504.13 182.558C504.588 181.465 505.61 180.795 506.227 179.79L505.61 178.786C503.231 178.345 486.965 182.505 486.912 182.575C481.431 188.55 488.886 196.588 483.722 202.634C473.236 197.24 483 185.765 478.788 178.098C474.576 170.431 465.341 171.189 458.75 167.522H458.874L459.279 166.5L458.803 165.531H457.728L457.182 164.367L458.028 163.662L450.979 148.786C451.648 151.112 454.098 158.057 454.098 158.057C453.217 157.846 453.217 157.846 449.005 147.922C448.59 149.156 448.364 150.446 448.335 151.747C446.115 149.861 445.48 146.583 442.608 145.243C438.793 144.557 434.946 144.063 431.082 143.762C427.434 136.095 427.434 136.095 421.513 133.486C420.773 133.786 420.773 133.786 405.176 130.842C405.405 131.054 405.705 131.371 405.934 131.6C405.292 132.152 404.558 132.587 403.766 132.887L404.172 134.015C413.529 136.694 413.529 136.694 414.182 138.21C409.124 140.096 390.302 136.447 390.619 128.48C393.281 129.15 394.303 131.777 396.276 133.257C397.774 132.217 399.008 131.353 400.013 130.613C399.118 130.64 398.239 130.374 397.51 129.855V129.855C397.646 129.781 397.796 129.739 397.951 129.732C399.234 129.578 400.437 129.022 401.387 128.146C401.722 127.878 401.947 127.498 402.022 127.076C402.096 126.655 402.015 126.22 401.793 125.854C401.652 125.537 401.704 125.484 401.793 125.449C402.171 125.825 402.47 126.273 402.673 126.766C402.876 127.259 402.978 127.788 402.973 128.322C404.595 126.718 404.595 125.607 404.524 123.034C406.11 121.712 406.181 121.536 406.621 120.284C403.625 120.513 401.458 120.672 399.907 118.116C400.823 116.248 400.823 116.248 424.579 121.641C406.216 112.37 406.216 112.37 390.937 113.04C388.558 116.283 371.974 114.238 368.432 111.083C368.538 109.145 368.538 109.145 366.67 106.994L366.846 105.848L370.089 103.874L371.093 103.522C373.556 103.021 376.105 103.167 378.495 103.945C378.495 103.61 378.495 103.187 378.583 102.852C376.821 101.636 376.292 101.618 371.534 101.477C371.244 101.466 370.96 101.388 370.705 101.248C370.353 100.825 372.626 96.8767 377.103 96.5066C378.107 96.5066 378.107 96.5066 378.548 96.0835C378.548 95.1846 377.596 94.5501 377.896 93.5806C378.319 92.2763 379.94 91.9943 380.345 90.6899C380.504 90.1259 380.151 89.8263 379.235 89.1917C377.896 88.2399 377.896 88.2399 378.636 84.0272C380.486 73.4515 380.486 73.4516 384.557 77.1883C385.192 77.77 384.557 78.9509 385.368 79.3563C386.178 79.7617 387.394 78.7218 388.399 79.3563C390.708 80.925 390.708 80.925 391.183 80.9074C394.179 80.784 395.29 77.9286 397.457 76.5714C397.616 75.6901 394.99 71.2835 393.157 70.5432C394.373 69.609 396.065 69.7677 397.263 68.7806C397.545 68.5515 397.651 68.2695 397.827 67.3881C397.827 67.0885 398.021 66.3835 401.035 64.0744C401.44 63.7074 401.941 63.463 402.48 63.3694C405.863 63.105 408.965 61.2542 412.437 61.4481C412.913 64.5151 417.371 65.8723 415.961 69.7324C416.913 70.9663 418.922 70.8076 419.592 72.4292C420.262 74.0508 418.834 76.1131 419.416 77.9815C419.416 77.9815 421.918 85.5431 426.553 85.0319C427.557 84.9262 429.937 84.8557 430.078 86.583C430.563 86.8607 431.085 87.0684 431.628 87.2C434.272 91.113 433.391 97.4936 439.435 99.1681C440.158 96.2774 442.643 94.6382 444.246 92.3644C443.442 91.5656 442.827 90.597 442.446 89.5295C442.065 88.4621 441.927 87.3228 442.044 86.1953L440.493 85.6312C440.493 85.4373 440.299 85.0848 440.281 84.8733C440.675 84.6775 441.082 84.5068 441.497 84.3621C442.837 81.7006 445.903 82.5995 447.859 81.2599C449.815 79.9203 450.203 77.2412 452.071 75.7606C452.425 75.476 452.802 75.2224 453.199 75.0026C454.961 73.998 456.9 75.0026 458.75 74.8264C459.156 74.139 459.156 74.139 458.345 69.5385C458.063 67.8993 458.063 67.8993 461.605 66.3482C460.777 61.3424 446.308 56.8653 440.14 54.9441C440.14 53.1815 442.044 53.3401 442.713 52.2649C432.598 53.9218 432.598 53.9218 425.09 50.044C429.003 49.3918 429.813 49.2508 432.139 46.5188C428.157 46.5188 424.35 50.326 420.209 47.1181C420.451 46.8019 420.765 46.5481 421.125 46.3778C421.125 46.3778 418.587 44.8619 417.142 46.6774C410.181 46.6774 410.181 46.6774 408.049 45.7608C407.539 45.558 407.064 45.2786 406.639 44.9324C405.581 44.0511 406.251 42.4648 405.247 41.5482C404.242 40.6316 403.061 41.2662 402.074 40.755C401.493 40.3849 401.193 39.7503 400.7 39.2744C400.7 39.2744 404.084 32.0653 408.472 38.9924C412.331 39.6974 417.283 46.3954 419.944 41.5482C418.781 39.3625 413.582 39.5212 414.957 36.4542C417.777 36.4542 419.645 38.6575 422.006 39.6446C422.006 38.2345 418.323 35.8197 418.27 35.8021C419.016 35.4246 419.787 35.1006 420.579 34.8326C414.569 30.0031 414.569 30.0031 414.305 29.2628L414.728 28.6282C411.344 26.0019 411.344 26.0019 398.99 23.5695C399.579 23.2575 400.228 23.077 400.894 23.0407C409.705 22.0889 426.236 33.6164 426.377 33.6164C426.518 33.6164 426.377 34.0747 426.377 34.2862C425.496 34.5859 424.614 34.6916 423.698 34.956C423.698 35.1146 423.698 35.3614 423.698 35.5377C424.915 35.5848 426.112 35.8661 427.223 36.3661L427.381 36.7891L426.888 37.0888C429.69 39.4859 433.937 39.1687 436.457 41.9712C437.303 40.2086 437.303 40.2086 433.867 38.3226C435.171 37.4589 435.171 37.4589 441.127 39.4859C441.444 39.5917 443.348 40.0323 449.022 37.7233C449.199 37.0535 448.881 36.3485 449.022 35.6787C454.098 35.238 456.424 37.4413 461.094 41.8831C461.094 40.332 459.526 39.6269 459.226 38.2697C461.887 37.7762 464.654 39.1158 467.262 37.7409C465.747 37.0359 463.738 37.2474 462.698 35.6434L463.033 35.1323C463.755 35.2556 463.879 35.2733 465.588 34.4448C465.706 34.0471 465.865 33.663 466.064 33.2991C467.421 33.1229 468.513 33.9513 469.765 34.2862C469.419 33.9739 469.047 33.6909 468.654 33.4402C469.473 33.6644 470.265 33.9777 471.016 34.3743C469.99 33.3334 468.799 32.4698 467.491 31.8185L471.598 33.3696C471.598 33.3696 493.662 47.2943 502.544 55.1908C515.318 66.2256 527.084 78.3769 537.702 91.5007V91.5007Z" fill="#8282CB"/>
<path d="M448.618 244.795C450.098 245.183 449.094 247.281 447.719 248.021C446.233 248.679 444.621 249.003 442.996 248.973C442.855 248.832 442.996 248.338 445.164 246.699C447.331 245.06 448.019 244.848 448.618 244.795Z" fill="#8282CB"/>
<path d="M199.076 149.649C198.34 149.43 197.593 149.253 196.837 149.121C195.939 148.997 195.075 149.632 194.141 149.015C193.648 148.662 193.401 147.552 193.419 145.666C193.425 144.894 193.55 144.127 193.789 143.392C193.987 142.986 194.035 142.523 193.925 142.084C193.816 141.646 193.555 141.26 193.189 140.995C192.664 140.497 192.333 139.829 192.255 139.109C192.236 138.278 192.51 137.466 193.031 136.818C193.253 136.525 193.494 136.249 193.753 135.989C194.405 135.355 195.181 134.879 195.815 134.227C196.099 133.991 196.327 133.696 196.485 133.363C196.485 133.363 196.485 133.257 196.608 133.239C196.732 133.222 202.318 132.693 199.763 135.566C199.589 135.796 199.349 135.968 199.076 136.06C199.258 136.12 199.448 136.156 199.64 136.165C200.949 136.221 202.232 136.545 203.411 137.117C203.735 137.271 204.015 137.503 204.228 137.792C204.44 138.082 204.577 138.419 204.627 138.774C204.627 139.073 204.564 139.369 204.443 139.642C204.322 139.916 204.144 140.16 203.922 140.36C203.33 140.78 202.698 141.14 202.036 141.436L202.177 141.594C203.384 142.907 204.442 144.35 205.332 145.895C205.984 147.076 206.107 147.658 205.878 148.363C205.526 149.544 202.001 150.354 199.076 149.649Z" fill="#8282CB"/>
<path d="M171.249 225.089C171.147 225.115 171.041 225.119 170.938 225.101C170.835 225.083 170.736 225.043 170.65 224.984C170.65 224.984 169.328 224.261 169.293 224.208C169.081 223.856 169.628 223.309 170.738 222.763C171.848 222.216 174.069 221.776 173.61 222.957C173.049 223.883 172.228 224.625 171.249 225.089V225.089Z" fill="#8282CB"/>
<path d="M187.284 145.772C187.514 145.772 187.531 145.772 187.549 146.089L186.068 146.741C186.756 146.089 187.038 145.842 187.284 145.772Z" fill="#8282CB"/>
<path d="M130.715 180.812C128.089 184.144 124.846 193.539 123.789 197.258C125.058 191.388 127.948 177.552 129.446 171.735C136.495 148.627 136.583 148.186 141.782 136.254L147.527 124.091C147.756 123.668 147.968 123.245 148.215 122.822C147.47 124.898 146.593 126.923 145.589 128.886C146.117 128.251 146.505 127.529 146.981 126.876C146.593 129.133 145.095 130.86 144.144 132.852L144.567 132.975C149.008 125.695 152.162 117.746 156.691 110.537C154.242 113.586 152.779 117.358 149.906 120.126C150.206 118.363 156.85 106.765 161.802 100.737C163.401 99.0314 164.818 97.1648 166.032 95.1669C165.778 95.3639 165.537 95.5758 165.309 95.8015C165.757 95.0539 166.276 94.3514 166.86 93.704L167.283 93.845C168.528 92.6526 169.634 91.322 170.578 89.8791L169.803 90.496C169.803 89.1035 174.508 84.6441 174.878 84.3797C174.851 85.1202 174.651 85.8443 174.297 86.4949C176.059 85.1553 176.253 82.7934 177.91 81.4362C177.91 82.4408 177.046 83.1988 176.993 84.1682C178.209 85.4373 178.209 85.4373 178.421 86.4067C178.738 87.8521 177.046 97.2292 177.028 97.3173C175.495 103.575 176.253 105.302 176.341 105.478C178.65 109.991 178.65 109.991 181.91 110.925C183.091 111.277 183.196 111.63 183.126 113.057C183.126 113.234 181.875 131.953 174.314 131.23C171.935 131.001 171.759 127.229 171.671 125.413C171.283 125.977 163.811 141.453 162.859 145.807C162.436 147.869 162.049 149.826 160.286 150.46C158.936 148.219 158.257 145.638 158.33 143.022C159.211 137.382 158.436 137.047 156.727 136.324C156.286 135.196 156.268 134.72 158.824 131.336C160.586 129.009 160.586 129.009 161.961 122.84C162.472 120.496 159.634 118.768 160.762 116.318C163.688 109.902 163.688 109.902 163.723 109.585V108.898L163.37 108.616C161.855 109.797 157.467 115.666 157.467 116.918L157.943 116.794C156.991 128.269 156.991 128.269 154.154 133.662C151.686 138.351 145.941 139.796 143.439 144.467C143.994 144.108 144.503 143.682 144.954 143.198H145.395C145.305 143.715 145.187 144.227 145.042 144.732C146.853 143.219 148.78 141.852 150.805 140.642C149.554 144.837 146.963 148.557 146.4 152.981C148.761 152.047 147.704 148.504 150.347 147.799L150.752 148.116C150.752 148.116 149.713 154.497 149.536 154.973C149.36 155.448 148.25 158.815 148.779 159.873C150.206 159.22 150.206 159.22 150.541 159.203C150.911 159.591 151.158 160.049 151.51 160.454C151.51 160.578 151.404 160.736 151.369 160.86C157.96 158.004 157.96 158.004 158.242 158.639L159.388 158.886C160.673 157.484 162.172 156.294 163.829 155.36L160.762 157.123C161.735 155.637 163.222 154.563 164.939 154.109C165.838 153.827 166.049 153.774 167.565 150.002C168.675 147.235 169.768 143.375 168.728 140.766C168.305 139.691 168.323 134.509 169.503 133.945C169.644 133.945 173.151 132.623 173.151 134.561C172.484 139.737 171.346 144.84 169.75 149.808C169.381 150.53 169.12 151.302 168.975 152.099C169.204 152.223 169.257 152.24 170.279 152.099L172.64 151.694C174.491 149.103 177.064 147.076 178.473 144.168C179.002 142.585 179.706 141.065 180.571 139.638C181.86 137.961 183.56 136.644 185.505 135.813C183.743 135.073 179.742 129.644 183.408 128.181C184.049 127.946 184.709 127.769 185.382 127.652C187.831 127.123 188.272 127.035 188.078 126.418C187.673 125.184 184.783 123.616 186.457 122.893C186.457 122.893 191.092 121.359 192.343 122.752C192.442 122.923 192.491 123.118 192.484 123.316C192.783 124.832 192.184 126.348 192.484 127.863C192.783 129.379 194.017 129.908 193.964 131.283C193.647 131.547 192.854 131.741 190.792 131.089C190.052 130.842 189.4 130.631 189.03 131.089C187.69 132.587 190.246 133.698 190.14 135.196C190.147 136.218 189.869 137.221 189.337 138.093C188.804 138.965 188.039 139.671 187.126 140.131C184.677 141.788 184.36 142 183.989 142.511C183.989 142.969 184.465 143.322 184.377 143.815C184.095 145.366 183.126 146.688 182.967 148.257C183.108 149.773 184.536 148.363 185.558 147.34C185.999 146.9 185.999 146.9 187.479 146.248C187.479 148.222 185.805 149.773 186.087 151.8C186.228 152.893 187.373 153.104 188.959 153.28C189.382 153.28 190.034 153.404 189.981 153.88C189.928 154.356 189.594 155.043 186.28 156.101C184.906 156.541 182.033 157.458 182.227 158.41C183.031 158.194 183.866 158.122 184.694 158.198C184.716 158.315 184.716 158.434 184.694 158.551C185.11 158.48 185.537 158.548 185.91 158.745C186.827 159.132 187.285 160.102 188.149 160.507C189.012 160.913 190.422 161.265 191.497 161.829V162.111C191.18 162.305 191.092 162.358 187.796 163.081C188.067 163.589 188.398 164.062 188.783 164.491C192.184 163.098 192.59 162.499 193.7 160.877C193.54 161.751 193.334 162.616 193.083 163.468L193.823 164.473C194.709 164.544 195.599 164.544 196.484 164.473C197.788 162.816 197.788 162.816 200.449 161.811L201.313 162.693L199.745 165.46L200.908 165.795C186.316 175.965 194.563 191.318 194.704 191.441C202.053 188.251 208.521 183.439 215.729 180.055C215.579 180.92 215.331 181.766 214.988 182.575C214.988 182.769 221.28 203.127 218.971 204.802C221.844 210.742 221.844 210.742 222.179 211.27C216.804 212.698 215.676 213.033 213.614 214.285C213.819 215.591 213.937 216.91 213.966 218.233L200.273 218.462C196.749 219.238 194.387 215.236 195.198 211.711C190.422 204.326 190.316 204.326 184.624 204.114C182.28 197.628 182.28 197.628 181.575 197.381C178.544 196.253 177.821 200.007 175.636 200.783C172.411 197.945 169.944 196.235 167.776 200.007C164.225 208.796 161.131 217.762 158.507 226.87C158.956 227.693 159.14 228.635 159.035 229.566C158.806 230.13 157.89 230.219 157.995 231.047C158.101 231.875 158.612 232.387 158.665 233.145C158.687 233.332 158.654 233.522 158.569 233.692C158.485 233.861 158.353 234.001 158.189 234.096L157.925 234.202C158.436 236.458 160.04 236.141 166.084 234.907C165.19 237.788 163.966 240.556 162.436 243.156C161.132 241.394 161.696 239.102 160.674 237.269L159.652 237.798C158.277 236.758 157.343 235.295 156.022 234.273V234.079C155.683 233.966 155.372 233.782 155.11 233.539C154.849 233.296 154.643 232.999 154.506 232.669C154.425 232.432 154.36 232.191 154.312 231.946C154.154 231.135 154.189 230.289 154.03 229.461V229.284C153.836 229.972 153.59 230.783 153.378 231.4C153.183 230.303 153.299 229.173 153.713 228.139C153.59 227.716 153.466 227.31 153.378 226.87C153.114 225.495 153.519 225.107 153.977 224.948C154.272 224.877 154.573 224.842 154.876 224.843L156.462 220.524L155.881 219.608C155.864 219.77 155.829 219.93 155.775 220.084C155.775 220.084 154.718 222.868 154.612 222.974C154.118 222.974 153.378 219.572 153.149 217.686C153.049 216.832 152.996 215.973 152.991 215.113L150.171 222.463C150.171 222.586 150.171 222.586 150.171 238.327L149.131 252.04C148.754 251.312 148.43 250.558 148.162 249.784C147.46 246.894 147.041 243.942 146.911 240.971C145.589 231.47 145.589 231.47 144.479 231.118C143.016 232.016 140.39 235.172 140.601 237.992C139.965 237.455 139.376 236.866 138.839 236.229L137.641 236.564C133.729 228.879 137.042 219.872 133.2 212.169C132.443 212.203 131.722 212.495 131.156 212.998L131.966 213.826C131.601 214.982 131.001 216.05 130.204 216.964C130.287 218.241 130.74 219.465 131.508 220.489C131.076 222.091 130.728 223.715 130.468 225.354C125.78 224.472 130.186 218.462 127.878 215.589C126.027 215.818 125.921 216.488 125.886 218.004L126.838 218.85C126.556 220.031 126.556 220.031 126.838 223.82L127.807 224.525C127.437 232.44 122.978 240.054 126.133 248.197L127.296 248.409C129.869 244.972 127.067 237.586 133.024 237.11C133.339 237.838 133.867 238.453 134.539 238.873C135.121 238.432 135.896 237.868 136.513 237.498C136.572 238.25 136.433 239.004 136.108 239.684C137.729 240.318 139.192 239.085 140.778 239.278C141.187 240.059 141.529 240.872 141.8 241.711L140.866 242.381C141.782 246.699 143.474 254.719 139.879 260.818L138.822 260.306L138.469 259.178C137.288 261.135 137.57 263.655 136.055 265.489C135.537 264.863 135.099 264.177 134.751 263.444C134.413 264.157 133.94 264.797 133.358 265.33C138.011 281.193 138.645 283.714 141.906 287.345C144.091 286.376 144.302 285.759 144.249 283.291C144.973 283.09 145.743 283.14 146.435 283.432C153.713 280.259 149.219 269.631 157.009 266.758C159.37 268.838 159.282 272.257 161.22 274.566H162.436C163.635 272.803 175.301 251.194 175.812 248.726C175.971 247.951 175.055 246.963 174.438 246.505C172.993 245.342 172.993 245.342 170.455 235.929C171.276 234.806 172.158 233.729 173.098 232.704C175.019 233.321 175.019 233.321 180.782 229.672C181.568 230.035 182.307 230.491 182.985 231.029C190.034 224.984 199.727 231.593 206.847 225.953L208.027 225.442C210.477 225.089 211.305 224.984 212.75 221.124C213.085 220.648 213.103 220.648 213.12 220.648C213.577 220.796 214.019 220.985 214.442 221.212C216.627 222.534 216.398 225.583 218.548 226.94C221.227 228.615 224.699 227.346 227.36 229.284C228.135 229.848 228.364 231.276 228.735 232.175C232.7 241.834 232.7 241.834 235.784 242.187C238.837 242.639 241.807 243.542 244.595 244.866C246.904 246.717 264.368 261.734 264.386 261.752C266.589 266.634 264.756 272.046 266.395 276.998C267.77 281.141 274.361 281.035 274.167 286.464C273.902 294.625 272.404 302.627 271.488 310.7C271.118 314.102 264.174 327.744 262.13 328.326C251.979 330.846 241.212 330.476 231.519 335.094C231.193 335.301 230.93 335.593 230.761 335.94C229.475 338.108 231.73 340.382 230.497 342.55C229.263 344.718 226.761 344.718 225.034 346.075C225.034 350.429 225.034 350.429 228.03 353.619C236.171 362.538 236.171 362.538 236.542 365.781C237.123 370.875 237.916 377.855 248.878 389.929C253.953 395.499 260.967 398.425 266.712 403.061C271.999 407.379 274.801 413.936 279.93 418.431C299.896 436.057 300.372 436.233 303.051 437.573C305.102 438.507 306.911 439.9 308.338 441.644C302.734 445.804 293.57 443.407 290.556 442.561L278.396 439.036L262.624 433.536C258.817 431.615 255.839 428.407 251.891 426.697C247.38 424.741 242.304 424.811 237.793 422.784C227.06 417.92 214.248 405.282 212.803 403.66C207.04 397.174 192.308 389.277 187.99 387.039C181.099 383.267 169.38 371.175 165.75 366.116C166.86 365.253 166.86 365.253 169.274 364.953C169.539 364.089 169.539 364.089 165.327 355.417C163.758 352.209 163.371 348.649 162.26 345.282C159.388 336.593 154.682 328.59 152.409 319.654L145.131 291.575C144.884 292.615 144.884 292.615 145.695 296.757C144.868 296.377 144.17 295.765 143.686 294.995C145.324 317.539 158.507 336.099 165.08 356.915C162.454 356.651 162.454 356.651 161.555 357.233C151.07 346.446 151.07 346.446 150.206 344.894L150.823 346.058C150.453 345.423 149.959 344.577 149.607 343.925L149.237 343.22L146.911 338.69C145.871 336.61 144.584 334.001 141.483 326.775C141.624 327.163 141.765 327.533 141.906 327.885C139.368 321.575 136.125 313.784 134.01 307.562C132.248 301.199 129.534 292.739 127.983 286.287C127.613 284.331 127.261 282.515 126.926 280.823C126.697 275.359 126.556 274.513 123.401 255.988C123.411 256.076 123.411 256.165 123.401 256.252C122.203 229.937 122.203 229.937 121.921 228.738V228.879C121.833 220.542 120.969 217.669 121.78 209.05L125.305 191.247C126.456 187.468 128.289 183.931 130.715 180.812V180.812ZM174.949 151.659C174.843 151.659 174.808 151.659 173.927 152.205L175.055 151.782C175.055 151.782 175.002 151.676 174.949 151.659V151.659ZM153.361 214.672C153.379 214.725 153.41 214.773 153.449 214.813C153.755 215.608 153.991 216.428 154.154 217.263C154.228 217.55 154.374 217.814 154.577 218.029C154.78 218.245 155.035 218.406 155.317 218.497C155.463 218.535 155.595 218.615 155.696 218.728C155.796 218.841 155.861 218.982 155.881 219.132C155.889 219.167 155.889 219.203 155.881 219.238C158.136 217.105 159.934 215.219 161.961 198.086C161.332 197.626 160.587 197.351 159.811 197.293L153.184 214.531C153.253 214.565 153.313 214.613 153.361 214.672V214.672Z" fill="#8282CB"/>
</g>
<path d="M251.433 308.021C244.99 308.021 239.767 302.796 239.767 296.352C239.767 289.908 244.99 284.683 251.433 284.683C257.876 284.683 263.1 289.908 263.1 296.352C263.1 302.796 257.876 308.021 251.433 308.021Z" fill="#FF725E"/>
<path d="M169.679 127.828C164.93 127.828 161.079 123.977 161.079 119.227C161.079 114.476 164.93 110.625 169.679 110.625C174.429 110.625 178.279 114.476 178.279 119.227C178.279 123.977 174.429 127.828 169.679 127.828Z" fill="#FF725E"/>
<path d="M523.304 148.275C524.614 148.977 526.053 149.409 527.534 149.544C528.961 149.968 530.461 150.094 531.939 149.914C529.206 148.774 526.265 148.215 523.304 148.275Z" fill="#FF725E"/>
<path d="M488.903 143.674C491.699 144.459 494.57 144.943 497.468 145.119C500.339 145.587 503.25 145.759 506.156 145.631C503.354 144.852 500.477 144.374 497.574 144.203C494.71 143.724 491.804 143.547 488.903 143.674V143.674Z" fill="#FF725E"/>
<path d="M454.257 142.088C457.081 142.604 459.951 142.828 462.822 142.758C465.72 142.958 468.631 142.864 471.51 142.476C468.65 141.956 465.744 141.738 462.839 141.823C459.977 141.621 457.101 141.71 454.257 142.088V142.088Z" fill="#FF725E"/>
<path d="M419.681 144.749C425.46 144.425 431.215 143.76 436.916 142.758C434.012 142.502 431.086 142.615 428.21 143.093C425.307 143.272 422.44 143.829 419.681 144.749V144.749Z" fill="#FF725E"/>
<path d="M386.284 154.021C389.116 153.413 391.893 152.57 394.585 151.5C397.38 150.722 400.109 149.72 402.744 148.504C399.851 148.855 397.015 149.571 394.303 150.637C391.495 151.414 388.8 152.551 386.284 154.021V154.021Z" fill="#FF725E"/>
<path d="M355.321 169.602C357.988 168.469 360.558 167.119 363.004 165.566C365.605 164.286 368.093 162.788 370.441 161.089C367.671 161.981 365.025 163.219 362.564 164.773C359.95 166.06 357.515 167.684 355.321 169.602V169.602Z" fill="#FF725E"/>
<path d="M327.53 190.348C329.979 188.785 332.29 187.016 334.438 185.06C336.787 183.36 338.981 181.455 340.994 179.367C338.422 180.735 336.026 182.41 333.857 184.355C331.507 186.082 329.381 188.095 327.53 190.348V190.348Z" fill="#FF725E"/>
<path d="M303.175 215.025C305.451 213.222 307.53 211.183 309.378 208.944C311.451 206.91 313.306 204.665 314.912 202.246C312.635 204.048 310.556 206.086 308.709 208.327C306.633 210.358 304.778 212.603 303.175 215.025V215.025Z" fill="#FF725E"/>
<path d="M282.22 242.698C284.253 240.621 286.061 238.334 287.613 235.877C289.421 233.602 290.986 231.145 292.283 228.544C290.24 230.61 288.426 232.891 286.873 235.348C285.065 237.625 283.505 240.089 282.22 242.698V242.698Z" fill="#FF725E"/>
<path d="M264.563 272.574C266.351 270.284 267.898 267.815 269.18 265.207C270.719 262.741 271.989 260.117 272.969 257.381C271.188 259.673 269.646 262.142 268.369 264.748C266.828 267.215 265.552 269.839 264.563 272.574V272.574Z" fill="#FF725E"/>
<path d="M254.869 287.609C254.505 288.405 254.284 289.258 254.217 290.13L253.741 292.88C253.741 293.426 253.583 293.973 253.512 294.519L253.389 295.383V295.823V296.052V296.246L254.27 296.475C255.529 293.821 256.516 291.045 257.213 288.191C255.658 290.707 254.382 293.384 253.406 296.176L254.305 296.405V296.229V296V295.559L254.411 294.695C254.411 294.131 254.534 293.585 254.605 293.038L254.869 290.253C255.022 289.379 255.022 288.484 254.869 287.609Z" fill="#FF725E"/>
<path d="M257.178 255.23C256.585 257.886 256.289 260.599 256.297 263.321C255.993 266.021 255.993 268.746 256.297 271.446C256.88 268.795 257.17 266.088 257.16 263.373C257.464 260.668 257.47 257.937 257.178 255.23V255.23Z" fill="#FF725E"/>
<path d="M256.632 222.78C256.274 225.475 256.227 228.201 256.491 230.906C256.452 233.623 256.712 236.336 257.266 238.996C257.625 236.302 257.672 233.576 257.407 230.871C257.45 228.154 257.19 225.44 256.632 222.78V222.78Z" fill="#FF725E"/>
<path d="M252.438 190.595C252.428 193.316 252.723 196.03 253.32 198.685C253.61 201.387 254.201 204.047 255.082 206.617C255.091 203.896 254.796 201.182 254.201 198.527C253.911 195.825 253.32 193.165 252.438 190.595Z" fill="#FF725E"/>
<path d="M242.534 159.714C243.247 162.33 244.161 164.887 245.266 167.364C246.093 169.947 247.131 172.458 248.367 174.873C247.997 172.165 247.244 169.524 246.129 167.029C245.291 164.429 244.08 161.965 242.534 159.714V159.714Z" fill="#FF725E"/>
<path d="M223.623 133.61C223.447 133.804 226.09 136.289 229.033 139.62C230.719 141.733 232.519 143.751 234.426 145.666C233.24 143.198 231.649 140.946 229.72 139.003C228.019 136.863 225.955 135.037 223.623 133.61V133.61Z" fill="#FF725E"/>
<path d="M194.67 119.844C194.67 120.108 198.194 120.884 202.406 122.241C206.618 123.598 209.984 125.026 210.09 124.779C207.848 123.208 205.34 122.056 202.688 121.377C200.125 120.403 197.411 119.884 194.67 119.844V119.844Z" fill="#FF725E"/>
<path d="M169.696 119.227C171.146 119.57 172.651 119.618 174.12 119.368C175.613 119.399 177.099 119.135 178.49 118.592C177.042 118.234 175.535 118.186 174.067 118.451C172.572 118.409 171.085 118.673 169.696 119.227V119.227Z" fill="#FF725E"/>
<path d="M517.683 149.914C517.679 152.222 518.36 154.48 519.64 156.401C520.92 158.323 522.741 159.821 524.872 160.707C527.004 161.593 529.35 161.826 531.614 161.378C533.879 160.93 535.959 159.82 537.592 158.189C539.226 156.557 540.339 154.478 540.79 152.214C541.242 149.95 541.012 147.603 540.129 145.47C539.247 143.337 537.751 141.514 535.833 140.231C533.914 138.948 531.657 138.263 529.349 138.263C526.258 138.263 523.293 139.49 521.106 141.674C518.919 143.859 517.687 146.822 517.683 149.914V149.914Z" fill="#FF725E"/>
<path d="M378.477 443.478C379.143 453.586 382.792 463.269 388.961 471.304C395.13 479.338 403.542 485.363 413.134 488.616C422.726 491.868 433.068 492.203 442.85 489.578C452.632 486.953 461.417 481.485 468.093 473.867C474.769 466.248 479.036 456.821 480.355 446.777C481.674 436.733 479.986 426.524 475.503 417.439C471.021 408.355 463.947 400.804 455.174 395.741C446.401 390.678 436.324 388.33 426.218 388.995C412.664 389.891 400.022 396.134 391.069 406.351C382.117 416.567 377.587 429.922 378.477 443.478V443.478Z" fill="#FF725E"/>
<g opacity="0.1">
<path d="M426.218 388.995C439.775 388.106 453.129 392.638 463.345 401.596C473.56 410.554 479.8 423.203 480.691 436.762C480.691 436.762 444.881 440.728 435.294 426.838C425.707 412.949 426.218 388.995 426.218 388.995Z" fill="white"/>
</g>
<path d="M391.483 441.803C391.985 449.492 394.755 456.86 399.443 462.974C404.132 469.089 410.528 473.675 417.823 476.153C425.117 478.631 432.983 478.89 440.425 476.896C447.867 474.902 454.55 470.746 459.63 464.953C464.71 459.159 467.957 451.989 468.962 444.35C469.967 436.71 468.684 428.944 465.275 422.034C461.867 415.123 456.485 409.379 449.812 405.528C443.139 401.677 435.474 399.892 427.787 400.399C422.685 400.733 417.699 402.069 413.113 404.331C408.527 406.592 404.432 409.735 401.06 413.58C397.689 417.425 395.108 421.896 393.465 426.739C391.822 431.581 391.148 436.7 391.483 441.803Z" fill="#FF725E"/>
<g opacity="0.2">
<path d="M391.483 441.803C391.985 449.492 394.755 456.86 399.443 462.974C404.132 469.089 410.528 473.675 417.823 476.153C425.117 478.631 432.983 478.89 440.425 476.896C447.867 474.902 454.55 470.746 459.63 464.953C464.71 459.159 467.957 451.989 468.962 444.35C469.967 436.71 468.684 428.944 465.275 422.034C461.867 415.123 456.485 409.379 449.812 405.528C443.139 401.677 435.474 399.892 427.787 400.399C422.685 400.733 417.699 402.069 413.113 404.331C408.527 406.592 404.432 409.735 401.06 413.58C397.689 417.425 395.108 421.896 393.465 426.739C391.822 431.581 391.148 436.7 391.483 441.803Z" fill="black"/>
</g>
<path d="M390.566 443.495C391.064 451.079 393.799 458.345 398.425 464.374C403.052 470.404 409.362 474.925 416.558 477.367C423.754 479.809 431.512 480.062 438.852 478.094C446.191 476.125 452.782 472.024 457.792 466.309C462.801 460.594 466.003 453.521 466.993 445.986C467.983 438.451 466.716 430.791 463.354 423.975C459.991 417.16 454.683 411.495 448.101 407.697C441.519 403.899 433.959 402.138 426.376 402.638C416.211 403.308 406.728 407.988 400.012 415.65C393.297 423.312 389.899 433.328 390.566 443.495V443.495Z" fill="#FF725E"/>
<g opacity="0.2">
<path d="M390.566 443.495C391.064 451.079 393.799 458.345 398.425 464.374C403.052 470.404 409.362 474.925 416.558 477.367C423.754 479.809 431.512 480.062 438.852 478.094C446.191 476.125 452.782 472.024 457.792 466.309C462.801 460.594 466.003 453.521 466.993 445.986C467.983 438.451 466.716 430.791 463.354 423.975C459.991 417.16 454.683 411.495 448.101 407.697C441.519 403.899 433.959 402.138 426.376 402.638C416.211 403.308 406.728 407.988 400.012 415.65C393.297 423.312 389.899 433.328 390.566 443.495V443.495Z" fill="white"/>
</g>
<path d="M430.394 438.451L429.886 428.626C431.696 428.771 433.478 429.16 435.184 429.782C436.071 430.198 436.918 430.693 437.717 431.261L437.824 430.964L439.176 427.346L439.487 426.511L437.649 424.756L436.831 425.189C434.54 424.134 432.058 423.56 429.537 423.503L429.261 418.104L427.516 416.835L427.586 418.194L425.275 418.304L425.562 423.807C418.01 424.919 414.633 429.43 414.874 434.389C415.22 441.145 421.148 442.529 426.603 443.667L427.101 453.405C423.551 453.225 420.126 452.036 417.227 449.979L415.275 454.998C418.882 457.338 423.108 458.538 427.406 458.445L427.615 462.519L425.725 462.74L427.639 463.936L431.625 463.737L431.344 458.286C438.943 457.115 442.378 452.651 442.119 447.694C441.822 440.897 435.855 439.482 430.394 438.451ZM426.359 437.627C423.493 436.932 421.341 435.976 421.228 433.647C421.116 431.318 422.54 429.679 425.916 428.965L426.359 437.627ZM431.127 452.935L430.69 444.326C433.644 445.01 435.837 446.014 435.973 448.394C436.076 450.494 434.646 452.222 431.127 452.935V452.935Z" fill="#FF725E"/>
<g opacity="0.3">
<path d="M430.394 438.451L429.886 428.626C431.696 428.771 433.478 429.16 435.184 429.782C436.071 430.198 436.918 430.693 437.717 431.261L437.824 430.964L439.176 427.346L439.487 426.511L437.649 424.756L436.831 425.189C434.54 424.134 432.058 423.56 429.537 423.503L429.261 418.104L427.516 416.835L427.586 418.193L425.275 418.304L425.562 423.807C418.01 424.919 414.633 429.43 414.874 434.389C415.22 441.145 421.148 442.529 426.603 443.667L427.101 453.405C423.551 453.225 420.126 452.036 417.227 449.979L415.275 454.998C418.882 457.338 423.108 458.538 427.406 458.444L427.615 462.519L425.725 462.74L427.639 463.936L431.625 463.737L431.344 458.286C438.943 457.115 442.378 452.651 442.119 447.694C441.822 440.897 435.855 439.481 430.394 438.451ZM426.359 437.626C423.493 436.932 421.341 435.976 421.228 433.647C421.116 431.318 422.54 429.679 425.916 428.965L426.359 437.626ZM431.127 452.935L430.69 444.326C433.644 445.01 435.837 446.014 435.973 448.394C436.076 450.494 434.646 452.222 431.127 452.935V452.935Z" fill="black"/>
</g>
<path d="M432.654 456.643L432.918 462.095L428.932 462.295L428.656 456.896C424.366 456.999 420.145 455.803 416.546 453.466L418.477 448.431C421.411 450.423 424.853 451.535 428.397 451.638L427.902 441.918C422.446 440.781 416.555 439.41 416.173 432.64C415.914 427.684 419.29 423.172 426.843 422.06L426.573 416.555L430.56 416.356L430.96 421.757C434.451 421.726 437.894 422.575 440.971 424.226L439.232 429.238C436.744 427.949 434.015 427.192 431.218 427.015L431.709 436.842C437.152 437.875 443.155 439.286 443.438 446.121C443.671 451.009 440.218 455.476 432.654 456.643ZM427.604 436.026L427.161 427.365C423.697 428.088 422.364 429.894 422.473 432.047C422.582 434.199 424.739 435.349 427.604 436.026ZM437.22 446.811C437.101 444.429 434.906 443.408 431.935 442.725L432.372 451.334C435.908 450.62 437.321 448.893 437.22 446.811Z" fill="#FF725E"/>
<path d="M474.682 461.245C474.768 461.118 474.839 460.982 474.893 460.839L475.439 459.623C475.732 458.985 475.991 458.332 476.215 457.667C476.479 456.909 476.832 456.045 477.096 455.04C477.255 454.547 477.395 454.036 477.554 453.489C477.713 452.943 477.818 452.379 477.959 451.727C478.277 450.563 478.471 449.277 478.7 447.937C479.107 445.018 479.284 442.071 479.228 439.124C479.135 436.165 478.805 433.217 478.241 430.311C477.942 428.989 477.677 427.72 477.307 426.556C477.131 425.975 476.99 425.411 476.814 424.882C476.638 424.353 476.444 423.842 476.285 423.348C475.95 422.379 475.563 421.586 475.263 420.775C474.963 419.964 474.646 419.383 474.382 418.871C474.118 418.36 473.924 417.99 473.783 417.69C473.718 417.545 473.635 417.409 473.536 417.285C473.536 417.285 473.536 417.444 473.712 417.726C473.888 418.008 474.029 418.431 474.241 418.924C474.452 419.418 474.77 420.088 475.052 420.846C475.334 421.603 475.721 422.467 476.021 423.437L476.532 424.97C476.708 425.499 476.832 426.063 477.008 426.645C477.36 427.808 477.607 429.059 477.889 430.381C478.432 433.291 478.756 436.237 478.858 439.194C478.905 442.141 478.734 445.086 478.347 448.007C478.118 449.347 477.942 450.616 477.66 451.779C477.519 452.379 477.413 452.943 477.272 453.542C477.131 454.141 476.973 454.6 476.849 455.093C476.602 456.08 476.268 456.944 476.021 457.719C475.774 458.495 475.51 459.165 475.298 459.694L474.823 460.927C474.771 461.031 474.724 461.137 474.682 461.245V461.245Z" fill="white"/>
<path d="M424.208 399.624C424.628 399.623 425.047 399.582 425.459 399.5C425.847 399.5 426.34 399.377 426.904 399.324C427.468 399.271 428.12 399.201 428.843 399.183C429.565 399.165 430.341 399.095 431.187 399.183C432.033 399.271 432.949 399.183 433.883 399.289C435.928 399.435 437.96 399.73 439.963 400.17C441.962 400.624 443.929 401.213 445.849 401.933C446.73 402.303 447.611 402.638 448.316 403.025C449.033 403.342 449.733 403.695 450.413 404.083C451.048 404.4 451.594 404.753 452.176 405.052C452.757 405.352 453.092 405.599 453.427 405.828C453.763 406.071 454.116 406.289 454.484 406.48C454.178 406.195 453.847 405.935 453.497 405.705C453.18 405.458 452.775 405.176 452.299 404.859C451.823 404.541 451.277 404.189 450.643 403.836C450.008 403.484 449.321 403.096 448.545 402.726C447.77 402.356 446.959 401.985 446.078 401.615C444.148 400.844 442.163 400.219 440.139 399.747C438.114 399.303 436.058 399.015 433.989 398.883C433.037 398.883 432.121 398.795 431.275 398.883C430.429 398.971 429.636 398.883 428.913 398.989C428.191 399.095 427.539 399.13 426.975 399.201C426.411 399.271 425.917 399.359 425.512 399.43C425.073 399.464 424.638 399.529 424.208 399.624V399.624Z" fill="white"/>
<path d="M426.534 489.006C426.841 489.093 427.153 489.158 427.468 489.2C428.068 489.288 428.949 489.394 430.041 489.464C432.875 489.637 435.719 489.483 438.518 489.006C441.321 488.532 444.059 487.734 446.677 486.626C447.682 486.203 448.44 485.833 449.021 485.534C449.31 485.402 449.582 485.236 449.832 485.04C449.527 485.128 449.232 485.246 448.951 485.393C448.405 485.657 447.594 485.992 446.589 486.38C441.324 488.439 435.692 489.399 430.041 489.2C428.966 489.2 428.085 489.094 427.486 489.041C427.172 488.986 426.852 488.975 426.534 489.006V489.006Z" fill="white"/>
<path d="M370.246 522.266C370.246 522.266 364.325 519.2 359.091 520.363C353.857 521.526 334.841 533.9 334.841 533.9L308.16 528.912L299.542 576.89L370.246 599.117V522.266Z" fill="#FFBF9D"/>
<path d="M417 536.367C417 536.367 400.787 535.61 395.853 533.124C390.918 530.639 379.076 520.169 376.591 520.363C374.106 520.557 365.153 522.266 365.153 522.266L368.784 533.124C368.784 533.124 350.861 544 345.521 548.001C340.181 552.002 323.404 569.928 322.611 574.317C321.818 578.705 323.175 583.852 325.272 585.562C327.37 587.272 335 583.799 335 583.799C334.709 585.154 334.716 586.555 335.02 587.906C335.325 589.258 335.919 590.527 336.763 591.625C339.618 595.433 346.297 594.093 346.297 594.093C346.297 594.093 346.878 600.386 349.927 601.531C352.976 602.677 359.831 599.24 359.831 599.24C359.831 599.24 361.911 604.528 364.396 605.162C366.88 605.797 373.947 601.531 373.947 601.531C373.947 601.531 410.639 576.978 417.494 573.735L420.648 578.124L417 536.367Z" fill="#AE7461"/>
<path d="M334.841 584.593C335.123 584.593 335.969 581.349 338.083 577.789C340.198 574.228 342.613 571.867 342.419 571.655C340.337 573.177 338.59 575.111 337.286 577.337C335.983 579.562 335.15 582.032 334.841 584.593V584.593Z" fill="#6F4439"/>
<path d="M343.776 560.78C342.593 564.093 342.433 567.686 343.318 571.091C343.659 567.665 343.812 564.223 343.776 560.78V560.78Z" fill="#6F4439"/>
<path d="M388.17 543.612C388.17 543.612 383.412 528.365 381.685 526.462C379.958 524.558 364.062 520.363 364.062 520.363L359.127 533.124L362.652 536.879L370.265 536.367C370.265 536.367 375.023 548.953 388.17 543.612Z" fill="#FFBF9D"/>
<path d="M417.423 573.788C417.423 573.788 419.609 575.462 417.423 579.463C415.238 583.465 409.334 580.609 407.431 579.463C407.431 579.463 410.286 586.144 406.656 588.277C404.196 589.558 401.413 590.085 398.655 589.792C398.655 589.792 398.849 593.811 393.703 596.473C388.557 599.134 387.217 596.473 387.217 596.473C387.217 596.473 386.653 603.153 380.732 603.717C374.811 604.281 372.749 602.254 372.749 602.254L375.392 598.323C375.392 598.323 371.973 591.273 374.634 588.277C375.552 587.354 376.655 586.638 377.87 586.177C379.086 585.715 380.386 585.517 381.684 585.597C381.684 585.597 380.521 579.411 383.922 577.683C384.681 577.21 385.533 576.906 386.42 576.79C387.307 576.674 388.208 576.75 389.063 577.012C389.918 577.275 390.707 577.717 391.377 578.31C392.047 578.903 392.581 579.633 392.945 580.451C392.945 580.451 393.315 573.664 398.232 573.823C401.095 573.861 403.832 575.012 405.863 577.031L417.423 573.788Z" fill="#FFBF9D"/>
<path d="M392.945 580.415C393.362 582.245 394.135 583.976 395.218 585.509C396.033 587.195 397.164 588.709 398.549 589.969C397.926 588.215 397.066 586.554 395.993 585.033C395.184 583.367 394.159 581.814 392.945 580.415Z" fill="#FF9A6C"/>
<path d="M173.801 211.923C177.322 212.422 180.902 211.588 183.84 209.586C186.779 207.584 188.865 204.557 189.689 201.097C190.514 197.638 190.017 193.995 188.298 190.882C186.578 187.769 183.759 185.41 180.392 184.267C182.609 182.072 184.08 179.234 184.596 176.156C185.112 173.078 184.647 169.916 183.268 167.117C181.888 164.318 179.663 162.024 176.908 160.559C174.152 159.095 171.007 158.534 167.915 158.956C167.848 155.88 166.984 152.874 165.409 150.232C163.833 147.59 161.599 145.402 158.924 143.882C156.25 142.361 153.227 141.561 150.151 141.559C147.075 141.556 144.051 142.352 141.375 143.868C137.967 140.963 133.681 139.288 129.206 139.112C124.732 138.936 120.328 140.27 116.702 142.899C113.719 142.286 110.618 142.648 107.855 143.93C105.093 145.212 102.815 147.348 101.357 150.022C99.8986 152.696 99.3372 155.768 99.7552 158.785C100.173 161.802 101.549 164.605 103.679 166.782" fill="#263238"/>
<path d="M175.881 213.985C174.963 198.775 168.355 184.467 157.37 173.908C146.385 163.349 131.829 157.313 116.597 157H113.46C79.571 158.304 61.7365 187.792 63.9746 221.635L61.948 342.374L144.283 371.898L145.005 328.414C145.005 328.414 177.643 324.007 178.701 291.487C179.212 275.747 177.643 243.315 175.881 213.985Z" fill="#FFBF9D"/>
<path d="M145.27 328.326C130.186 328.014 115.507 323.384 102.974 314.983C102.974 314.983 112.526 338.602 145.04 336.346L145.27 328.326Z" fill="#FF9A6C"/>
<path d="M166.752 243.385C166.743 244.597 166.26 245.756 165.407 246.616C164.554 247.476 163.398 247.967 162.188 247.986C161.596 248.021 161.003 247.938 160.443 247.741C159.884 247.544 159.37 247.236 158.931 246.837C158.493 246.438 158.139 245.955 157.89 245.416C157.641 244.878 157.502 244.295 157.482 243.703C157.496 242.493 157.98 241.336 158.832 240.477C159.684 239.618 160.837 239.125 162.047 239.102C162.638 239.067 163.232 239.15 163.791 239.347C164.35 239.544 164.864 239.852 165.303 240.251C165.741 240.65 166.095 241.133 166.344 241.672C166.593 242.21 166.732 242.793 166.752 243.385V243.385Z" fill="#263238"/>
<path d="M168.514 229.743C167.915 230.342 164.46 227.663 159.455 227.575C154.45 227.487 150.75 229.919 150.221 229.337C149.957 229.055 150.556 227.962 152.177 226.834C154.374 225.383 156.965 224.644 159.596 224.719C162.195 224.769 164.712 225.639 166.787 227.205C168.355 228.386 168.849 229.478 168.514 229.743Z" fill="#263238"/>
<path d="M121.197 243.385C121.188 244.597 120.706 245.756 119.852 246.616C118.999 247.476 117.844 247.967 116.633 247.986C116.041 248.021 115.448 247.938 114.889 247.741C114.329 247.544 113.815 247.236 113.377 246.837C112.938 246.438 112.584 245.955 112.335 245.416C112.086 244.878 111.948 244.295 111.928 243.703C111.941 242.493 112.425 241.336 113.277 240.477C114.129 239.618 115.282 239.125 116.492 239.102C117.084 239.067 117.677 239.15 118.236 239.347C118.795 239.544 119.309 239.852 119.748 240.251C120.187 240.65 120.541 241.133 120.79 241.672C121.039 242.21 121.177 242.793 121.197 243.385V243.385Z" fill="#263238"/>
<path d="M119.417 229.69C118.818 230.271 115.346 227.592 110.359 227.504C105.372 227.416 101.548 229.848 101.107 229.267C100.86 228.985 101.459 227.91 103.081 226.764C105.281 225.32 107.869 224.583 110.5 224.649C113.099 224.699 115.615 225.569 117.69 227.134C119.171 228.315 119.699 229.425 119.417 229.69Z" fill="#263238"/>
<path d="M136.794 267.128C136.794 266.846 139.896 266.37 144.936 265.823C146.222 265.718 147.438 265.489 147.667 264.625C147.806 263.306 147.536 261.977 146.892 260.818C145.717 257.715 144.542 254.455 143.367 251.035C138.415 237.075 134.855 225.618 135.419 225.424C135.983 225.23 140.319 236.388 145.359 250.277L148.778 260.13C149.551 261.686 149.75 263.465 149.342 265.154C149.141 265.591 148.842 265.978 148.47 266.283C148.097 266.589 147.66 266.805 147.192 266.916C146.485 267.107 145.755 267.196 145.024 267.181C139.949 267.463 136.794 267.41 136.794 267.128Z" fill="#263238"/>
<path d="M121.267 212.698C120.58 213.95 116.333 212.487 111.063 212.205C105.794 211.923 101.335 212.716 100.877 211.394C100.683 210.759 101.635 209.631 103.556 208.662C106.031 207.484 108.77 206.968 111.504 207.164C114.244 207.317 116.892 208.206 119.17 209.737C120.827 210.865 121.584 212.099 121.267 212.698Z" fill="#263238"/>
<path d="M169.537 212.064C168.462 213.174 164.356 211.923 159.387 211.764C154.417 211.605 150.222 212.328 149.271 211.129C148.865 210.548 149.553 209.367 151.403 208.38C153.957 207.063 156.817 206.454 159.686 206.617C162.536 206.697 165.312 207.543 167.722 209.067C169.449 210.336 170.013 211.5 169.537 212.064Z" fill="#263238"/>
<path d="M173.06 198.985C173.06 198.985 164.883 178.451 155.155 173.498C143.383 167.487 138.008 180.442 126.729 177.023C115.451 173.603 104.225 167.875 92.4701 176.406C79.6053 185.73 85.4209 192.587 84.3283 207.005C79.9578 265.453 68.9434 281.793 66.4586 254.155C66.1766 251.141 57.8585 248.567 56.8716 235.771C55.6027 219.202 55.3736 199.091 59.3036 187.422C62.6167 177.587 68.3971 170.871 78.689 163.539C94.9022 151.958 116.843 152.152 131.717 153.95C146.591 155.748 174.929 173.515 173.06 198.985Z" fill="#263238"/>
<path d="M68.557 253.344C68.5445 252.153 68.2907 250.977 67.811 249.886C67.3313 248.796 66.6356 247.814 65.7659 247.001C64.8962 246.187 63.8706 245.558 62.7509 245.151C61.6313 244.745 60.4411 244.57 59.2519 244.637C53.1896 245.077 46.3519 248.391 46.5105 260.941C46.7572 283.203 69.0504 278.338 69.0856 277.704C69.1209 277.069 68.7332 262.616 68.557 253.344Z" fill="#FFBF9D"/>
<path d="M64.081 269.384C63.9753 269.384 63.6934 269.666 63.0413 269.966C62.1221 270.375 61.08 270.413 60.1335 270.071C57.772 269.225 55.7629 265.524 55.6043 261.505C55.519 259.601 55.8686 257.702 56.6265 255.953C56.824 255.255 57.1888 254.615 57.6894 254.09C58.19 253.565 58.8112 253.169 59.499 252.939C59.9447 252.814 60.42 252.85 60.842 253.04C61.264 253.23 61.6058 253.562 61.8077 253.979C62.1073 254.596 61.9662 255.036 62.0896 255.072C62.213 255.107 62.5655 254.701 62.3716 253.785C62.2502 253.232 61.9383 252.739 61.4905 252.392C60.8686 251.945 60.1004 251.75 59.3404 251.846C58.4248 252.04 57.5746 252.466 56.871 253.084C56.1674 253.701 55.6341 254.489 55.3224 255.371C54.3982 257.311 53.9626 259.447 54.0535 261.593C54.2473 266.07 56.5912 270.248 59.8163 271.129C60.4129 271.292 61.0383 271.322 61.6476 271.215C62.257 271.109 62.8352 270.868 63.3409 270.512C64.0458 269.93 64.1515 269.437 64.081 269.384Z" fill="#FF9A6C"/>
<path d="M69.8258 210.248C72.5106 212.51 75.7133 214.072 79.1484 214.796C82.673 215.201 86.6558 213.298 87.3079 209.86C87.6075 208.309 87.3079 206.511 88.2948 205.33C89.2817 204.15 91.8194 204.414 93.5817 204.661C96.8288 204.977 100.086 204.167 102.807 202.367C105.528 200.566 107.547 197.885 108.526 194.772C110.13 197.275 113.972 197.258 116.509 195.689C119.047 194.12 120.686 191.529 122.695 189.344C124.704 187.158 127.471 185.201 130.396 185.677C132.035 185.942 133.551 186.946 135.207 186.841C138.133 186.647 139.631 183.315 140.142 180.354C140.653 177.393 141.058 174.097 143.561 172.563C146.063 171.03 148.848 172.052 151.509 172.563C154.17 173.075 157.677 172.458 158.417 169.831C158.546 169.129 158.531 168.407 158.374 167.711C158.216 167.014 157.919 166.356 157.501 165.777C155.747 163.055 153.127 161.002 150.065 159.95C147.002 158.898 143.674 158.908 140.618 159.978C139.597 156.254 137.495 152.916 134.578 150.387C131.66 147.857 128.059 146.249 124.228 145.766C120.398 145.283 116.51 145.947 113.056 147.673C109.603 149.4 106.738 152.112 104.825 155.466C102.508 153.294 99.7027 151.71 96.6454 150.849C93.5882 149.989 90.3687 149.876 87.2587 150.52C84.1487 151.165 81.2393 152.548 78.7758 154.553C76.3123 156.558 74.3669 159.126 73.1037 162.041C70.3929 161.266 67.5142 161.307 64.8264 162.158C62.1386 163.009 59.7607 164.632 57.9888 166.825C56.2169 169.018 55.1295 171.685 54.8621 174.491C54.5948 177.298 55.1592 180.122 56.4852 182.61C52.4318 184.814 48.9248 188.709 48.7486 193.309C48.5724 197.91 52.9781 202.598 57.4368 201.47C56.4697 203.266 56.2301 205.366 56.7674 207.334C57.3047 209.301 58.5779 210.987 60.3234 212.043C62.069 213.098 64.1533 213.442 66.1451 213.003C68.137 212.564 69.8838 211.375 71.0242 209.684" fill="#263238"/>
<path d="M142.22 166.5C142.247 166.64 142.247 166.783 142.22 166.923C142.22 167.187 142.22 167.593 142.062 168.104C141.715 169.608 141.119 171.044 140.299 172.352C139.038 174.438 137.314 176.205 135.259 177.516C132.549 179.298 129.331 180.146 126.095 179.931L126.483 179.438C127.115 181.476 126.912 183.682 125.919 185.572C124.885 187.55 123.566 189.368 122.007 190.965C121.246 191.881 120.396 192.72 119.469 193.468C118.408 194.153 117.2 194.576 115.944 194.702C114.637 194.854 113.313 194.687 112.085 194.214C110.857 193.741 109.762 192.977 108.895 191.987L109.723 191.776C109.37 194.078 108.538 196.281 107.281 198.242C106.025 200.203 104.371 201.88 102.427 203.162C100.282 204.696 97.6963 205.488 95.0609 205.419C92.5941 205.236 90.1754 204.64 87.906 203.656L88.5051 203.409C87.2949 206.077 85.4347 208.398 83.0949 210.16C82.0244 211.046 80.7694 211.682 79.4216 212.02C78.0739 212.359 76.6675 212.392 75.3054 212.117C72.9847 211.555 70.877 210.331 69.2378 208.595C67.5986 206.858 66.4985 204.684 66.0709 202.334L66.5644 202.581C64.1963 203.775 61.4892 204.118 58.8983 203.55C56.9678 203.141 55.1582 202.291 53.6114 201.065C52.6526 200.284 51.8306 199.349 51.1794 198.298C50.9609 197.928 50.778 197.539 50.6331 197.134C51.4798 198.524 52.5657 199.754 53.8405 200.765C55.3651 201.894 57.1237 202.665 58.9864 203.021C61.4489 203.505 64.0025 203.138 66.2296 201.982L66.6525 201.752V202.228C67.0837 204.431 68.1464 206.46 69.7111 208.069C71.2757 209.678 73.2747 210.796 75.4641 211.288C76.7027 211.526 77.9788 211.483 79.1986 211.163C80.4185 210.843 81.5512 210.253 82.5133 209.437C84.7079 207.75 86.4515 205.546 87.5888 203.021L87.7649 202.616L88.1879 202.775C90.3663 203.698 92.6831 204.252 95.0433 204.414C97.4699 204.47 99.8497 203.741 101.828 202.334C103.662 201.119 105.224 199.536 106.413 197.685C107.602 195.834 108.393 193.755 108.736 191.582L108.895 190.542L109.582 191.371C110.356 192.247 111.331 192.923 112.425 193.337C113.518 193.752 114.696 193.894 115.856 193.75C116.972 193.659 118.049 193.296 118.993 192.693C119.873 191.998 120.676 191.212 121.39 190.348C122.91 188.819 124.204 187.08 125.232 185.184C125.689 184.342 125.976 183.418 126.076 182.466C126.175 181.513 126.086 180.55 125.813 179.632L125.655 179.103H126.201C129.298 179.355 132.392 178.588 135.012 176.917C137.027 175.695 138.738 174.032 140.017 172.052C141.068 170.343 141.814 168.465 142.22 166.5V166.5Z" fill="#455A64"/>
<path d="M119.557 268.855C120.35 268.943 119.434 274.143 123.276 278.708C127.118 283.273 132.775 283.626 132.686 284.366C132.686 284.719 131.277 285.177 128.897 284.824C125.82 284.32 123.019 282.747 120.985 280.383C119.031 278.114 118.032 275.176 118.2 272.186C118.394 269.948 119.17 268.749 119.557 268.855Z" fill="#263238"/>
<path d="M323.51 524.822C320.69 523.694 205.329 509.646 205.329 509.646L167.546 477.655L171.07 570.28L308.301 583.517L323.51 524.822Z" fill="#FF725E"/>
<path opacity="0.3" d="M184.253 491.756C185.38 492.32 194.721 500.569 194.721 500.569L191.866 571.902L184.253 491.756Z" fill="black"/>
<path d="M164.338 416.844L147.367 379.724L145.252 356.81C145.252 356.81 112.755 336.363 97.3173 328.608C85.5467 323.01 73.4603 318.101 61.1195 313.908V335.588L164.338 416.844Z" fill="#EBEBEB"/>
<path d="M22.6305 606.484C22.6305 606.484 13.4138 482.731 12.797 473.53C12.797 473.53 7.35134 407.397 19.1059 382.209C30.8605 357.021 57.1189 334.883 57.1189 334.883L59.5333 321.663L110.852 354.007L134.555 374.647C142.702 383.356 150.184 392.666 156.936 402.497C163.686 411.821 171.158 423.807 174.559 438.877C175.775 444.394 189.909 510.281 190.314 556.197C190.314 556.197 192.499 596.261 194.808 618.964C197.663 647.042 202.034 711.078 201.082 749.027L34.8082 743.933C-6.28885 737.676 0.936551 733.587 0.936551 733.587L22.6305 606.484Z" fill="#FF725E"/>
<path d="M61.1365 335.588C61.1365 335.588 61.5241 335.782 62.2995 336.099L65.6832 337.527C67.1283 338.232 68.8906 339.148 70.9702 340.224C73.0497 341.299 75.323 342.726 77.7726 344.471C91.3879 354.066 103.672 365.422 114.305 378.243L114.411 378.349H114.552L130.501 381.275L130.148 380.887C130.413 388.29 130.659 396.081 130.941 404.118V404.312L131.082 404.436C139.567 412.376 147.41 420.975 154.539 430.152C157.507 434.011 160.199 438.075 162.593 442.314L163.456 443.883L164.126 445.522C164.591 446.602 164.991 447.709 165.324 448.836C166.029 451.092 166.734 453.331 167.315 455.587C169.783 464.576 171.809 473.354 173.713 481.709C177.502 498.436 180.656 513.542 183.264 526.25C188.481 551.685 191.424 567.548 191.424 567.548C191.363 566.578 191.246 565.613 191.071 564.657C190.772 562.771 190.296 560.004 189.662 556.426C188.375 549.287 186.419 538.976 183.899 526.25C181.379 513.524 178.277 498.383 174.541 481.638C172.655 473.266 170.646 464.488 168.179 455.463C167.597 453.207 166.892 450.951 166.188 448.677C165.85 447.518 165.438 446.382 164.954 445.275L164.267 443.513L163.386 441.927C160.986 437.623 158.276 433.499 155.279 429.588C148.117 420.363 140.226 411.727 131.682 403.766L131.823 404.083C131.541 396.028 131.259 388.22 130.994 380.834V380.499H130.659L114.711 377.626L114.94 377.767C104.219 364.933 91.811 353.609 78.0546 344.101C75.5697 342.339 73.173 341.14 71.164 339.924C69.155 338.708 67.2693 337.985 65.8771 337.315L62.3525 336.011C61.9554 335.847 61.5494 335.706 61.1365 335.588V335.588Z" fill="#263238"/>
<path d="M116.966 433.378L114.975 598.535L140.105 759.374H73.8251C73.8251 759.374 43.6896 637.26 36.6756 611.578C29.8731 586.673 19.6694 461.227 18.753 455.058C18.4006 452.643 11.2103 409.318 32.3756 388.889" fill="#FF725E"/>
<path d="M32.3762 388.889L30.984 390.264C29.6633 391.652 28.4552 393.144 27.3712 394.724C23.2709 400.878 20.4538 407.796 19.0884 415.064C16.8803 426.546 16.4523 438.299 17.8195 449.911C18.824 456.68 19.3175 463.906 20.0577 471.627C20.7978 479.347 21.4851 487.49 22.2606 496.004C23.8466 513.101 25.6266 531.82 27.7942 551.914C28.9045 561.961 30.0499 572.36 31.4597 583.024C32.691 594.056 34.6396 604.995 37.293 615.773C48.3779 659.839 60.5555 708.434 73.3851 759.497L73.4732 759.832H140.652L140.564 759.303C131.259 699.991 122.677 645.227 115.346 598.464C115.874 548.459 116.332 507.179 116.632 478.377C116.755 463.994 116.861 452.731 116.932 445.046C116.932 441.221 116.932 438.296 116.932 436.233C116.932 434.171 116.932 433.237 116.932 433.237C116.932 433.237 116.932 434.259 116.826 436.233C116.72 438.207 116.738 441.151 116.667 445.046C116.562 452.731 116.385 463.994 116.174 478.36C115.786 507.161 115.222 548.441 114.553 598.447C121.831 645.209 130.413 699.974 139.613 759.303L140.053 758.792H73.7728L74.2133 759.145L38.1037 615.544C35.4457 604.808 33.4912 593.909 32.2528 582.918C30.8253 572.254 29.6622 561.873 28.5344 551.843C26.3491 531.749 24.5339 513.066 22.9126 495.951C22.1019 487.402 21.3442 479.259 20.6216 471.574C19.8991 463.889 19.3352 456.574 18.3306 449.858C16.9241 438.296 17.2926 426.586 19.4233 415.135C20.763 407.893 23.5178 400.987 27.5298 394.812C28.5903 393.227 29.7685 391.725 31.0544 390.317L32.3762 388.889Z" fill="#263238"/>
<path d="M195.389 625.715C195.409 625.568 195.409 625.42 195.389 625.274C195.389 624.939 195.389 624.534 195.389 624.022C195.389 622.824 195.248 621.202 195.143 619.158C194.861 614.857 194.473 608.776 193.997 601.302C192.975 586.232 191.53 565.415 189.503 542.449C187.477 519.482 185.115 498.736 183.212 483.753C182.243 476.262 181.45 470.199 180.815 466.021C180.516 463.994 180.269 462.39 180.093 461.21C180.093 460.698 179.952 460.293 179.899 459.958C179.953 459.945 180.001 459.912 180.034 459.866C180.066 459.82 180.08 459.764 180.073 459.709C180.067 459.653 180.04 459.601 179.998 459.564C179.956 459.527 179.902 459.506 179.846 459.506C179.79 459.506 179.736 459.527 179.694 459.564C179.652 459.601 179.625 459.653 179.618 459.709C179.612 459.764 179.626 459.82 179.658 459.866C179.69 459.912 179.738 459.945 179.793 459.958C179.793 460.293 179.793 460.716 179.916 461.21C180.057 462.39 180.234 464.012 180.463 466.057C180.974 470.322 181.679 476.368 182.56 483.806C184.322 498.806 186.543 519.552 188.587 542.519C190.631 565.486 192.112 586.267 193.345 601.338C193.944 608.811 194.438 614.874 194.773 619.158C194.966 621.202 195.107 622.824 195.213 624.005C195.213 624.516 195.301 624.939 195.354 625.274C195.346 625.422 195.358 625.57 195.389 625.715V625.715Z" fill="#263238"/>
<path d="M61.1366 368.055C62.8473 363.501 64.934 359.097 67.3751 354.888C70.0982 350.864 73.158 347.079 76.5215 343.572C75.2754 344.304 74.1466 345.219 73.1732 346.287C68.1366 351.193 64.353 357.238 62.1411 363.913C61.6024 365.236 61.2639 366.632 61.1366 368.055V368.055Z" fill="#263238"/>
<path d="M178.119 573.241C178.119 573.241 177.89 573.647 177.943 574.44C178.06 575.577 178.571 576.637 179.388 577.436C179.998 578.053 180.772 578.481 181.619 578.672C182.465 578.862 183.348 578.807 184.164 578.512C185.14 578.178 185.998 577.565 186.631 576.749C187.31 575.868 187.659 574.776 187.618 573.665C187.619 572.281 187.174 570.933 186.349 569.822C185.946 569.289 185.412 568.87 184.798 568.606C184.164 568.359 183.705 568.253 183.177 568.077H183.053C181.923 568.058 180.812 568.377 179.864 568.994C179.156 569.521 178.637 570.263 178.383 571.109C178.098 571.787 178.007 572.532 178.119 573.259C178.225 573.259 178.313 572.484 178.824 571.267C179.11 570.553 179.6 569.94 180.234 569.505C181.09 569.016 182.07 568.79 183.053 568.853H182.93C183.423 569.011 184.023 569.205 184.463 569.381C184.933 569.607 185.339 569.946 185.644 570.368C186.342 571.325 186.713 572.481 186.701 573.665C186.723 574.552 186.462 575.424 185.955 576.153C185.448 576.882 184.721 577.43 183.882 577.719C183.202 577.98 182.463 578.048 181.748 577.914C181.032 577.78 180.367 577.45 179.828 576.961C179.063 576.282 178.527 575.383 178.295 574.387C178.26 574.002 178.201 573.619 178.119 573.241V573.241Z" fill="#263238"/>
<path d="M39.8668 379.107C39.9725 379.265 42.1578 377.873 46.0172 376.392C48.3054 375.527 50.6639 374.861 53.0665 374.401C55.9726 373.863 58.9226 373.598 61.878 373.607C64.8409 373.682 67.7906 374.03 70.6895 374.647C73.05 375.171 75.3612 375.897 77.5978 376.815C81.422 378.419 83.572 379.865 83.6777 379.724C83.2374 379.295 82.7463 378.922 82.2151 378.613C81.6522 378.206 81.0635 377.835 80.4528 377.503C79.6305 377.034 78.7833 376.61 77.9151 376.234C75.6467 375.208 73.2864 374.4 70.8658 373.819C64.9553 372.398 58.8022 372.314 52.855 373.572C50.4367 374.074 48.0751 374.818 45.8058 375.793C44.9235 376.137 44.0641 376.538 43.2328 376.992C42.6233 377.306 42.0346 377.659 41.4705 378.049C40.8894 378.325 40.3497 378.681 39.8668 379.107V379.107Z" fill="#263238"/>
<g opacity="0.3">
<path d="M185.027 533.6C177.855 523.148 175.211 513.295 171.387 501.203C165.677 483.242 164.091 462.954 155.139 446.368C149.852 436.603 143.684 426.574 134.52 420.317C125.356 414.06 124.263 406.445 124.439 385.435C118.06 385.435 111.292 380.587 110.499 379.724C106.765 375.516 104.078 370.485 102.657 365.041L114.623 377.996C114.623 377.996 130.819 381.01 130.572 380.905C130.977 388.977 130.995 396.063 131.383 404.154C131.383 404.154 162.452 437.115 164.867 443.742C167.281 450.369 185.027 533.6 185.027 533.6Z" fill="black"/>
</g>
<g opacity="0.3">
<path d="M69.666 739.456C30.2961 664.915 18.048 566.896 20.3214 473.53C20.3214 473.53 31.6355 587.007 35.442 606.484C39.2486 625.961 69.666 739.456 69.666 739.456Z" fill="black"/>
</g>
<path d="M63.6582 323.584C63.9252 323.841 64.2208 324.066 64.5393 324.254L67.1652 326.017L76.8755 332.45L109.196 353.285L123.154 362.098L127.612 365.623C129.018 366.648 130.344 367.78 131.578 369.007C134.027 371.369 136.195 373.66 138.151 375.74L138.503 376.128L138.715 375.652C140.812 370.77 142.539 366.839 143.79 363.895C144.337 362.574 144.795 361.516 145.13 360.687C145.334 360.333 145.494 359.954 145.605 359.559C145.388 359.905 145.194 360.264 145.024 360.635L143.526 363.79L138.239 375.423L138.785 375.335C136.864 373.202 134.714 370.893 132.282 368.478C131.019 367.213 129.67 366.035 128.247 364.953L123.823 361.428L109.884 352.491L77.4042 331.869L67.5176 325.717L64.8037 324.078C64.4432 323.868 64.0585 323.702 63.6582 323.584V323.584Z" fill="#263238"/>
<path d="M630.75 283.767C635.297 271.288 639.809 258.72 642.152 245.642C644.496 232.563 644.602 218.832 640.39 206.212C639.756 204.308 634.24 191.423 632.231 191.564C630.786 191.653 633.993 203.585 633.27 204.802C625.939 216.417 623.543 230.624 624.159 244.355C624.88 257.697 627.091 270.916 630.75 283.767" fill="#263238"/>
<path d="M626.467 354.501L631.331 233.903C633.605 200.66 618.713 170.818 585.423 169.461H581.898C567.074 169.715 552.889 175.544 542.167 185.788C531.446 196.031 524.974 209.937 524.042 224.737C522.28 253.697 520.517 285.864 521.011 301.393C521.962 333.367 554.019 337.791 554.019 337.791C554.019 337.791 552.662 360.952 552.415 370.329C552.415 370.329 555.799 372.797 585.564 373.854C615.329 374.912 626.467 354.501 626.467 354.501Z" fill="#AE7461"/>
<path d="M553.932 337.862C568.699 337.564 583.072 333.037 595.346 324.818C595.346 324.818 585.6 348.243 553.65 345.97L553.932 337.862Z" fill="#6F4439"/>
<path d="M533.682 254.931C533.695 256.119 534.17 257.255 535.005 258.1C535.84 258.945 536.97 259.433 538.158 259.46C538.74 259.499 539.323 259.419 539.874 259.228C540.425 259.036 540.931 258.735 541.363 258.344C541.796 257.953 542.145 257.479 542.391 256.95C542.636 256.421 542.773 255.848 542.793 255.265C542.788 254.075 542.317 252.933 541.48 252.086C540.643 251.239 539.507 250.754 538.317 250.735C537.735 250.7 537.153 250.781 536.603 250.973C536.054 251.166 535.548 251.467 535.117 251.857C534.685 252.248 534.335 252.721 534.089 253.249C533.843 253.777 533.704 254.349 533.682 254.931Z" fill="#263238"/>
<path d="M577.916 256.094C577.93 257.285 578.406 258.424 579.245 259.27C580.084 260.115 581.219 260.601 582.41 260.624C582.99 260.659 583.572 260.578 584.121 260.386C584.669 260.193 585.174 259.892 585.604 259.501C586.034 259.11 586.382 258.637 586.626 258.109C586.871 257.581 587.007 257.01 587.027 256.429C587.023 255.238 586.551 254.096 585.714 253.249C584.877 252.402 583.742 251.917 582.551 251.899C581.97 251.863 581.387 251.944 580.838 252.137C580.288 252.329 579.783 252.63 579.351 253.021C578.919 253.412 578.57 253.885 578.323 254.412C578.077 254.94 577.939 255.512 577.916 256.094V256.094Z" fill="#263238"/>
<path d="M532.027 242.416C532.591 243.015 536.01 240.389 540.926 240.318C545.843 240.248 549.474 242.645 550.002 242.081C550.267 241.817 549.667 240.741 548.081 239.631C545.928 238.199 543.388 237.461 540.803 237.516C538.255 237.561 535.787 238.413 533.754 239.948C532.238 241.076 531.745 242.169 532.027 242.416Z" fill="#263238"/>
<path d="M579.309 243.685C579.89 244.267 583.309 241.658 588.209 241.587C593.108 241.517 596.773 243.897 597.284 243.35C597.549 243.068 596.967 242.01 595.363 240.9C593.215 239.458 590.672 238.719 588.085 238.785C585.537 238.83 583.07 239.682 581.036 241.217C579.52 242.345 579.027 243.421 579.309 243.685Z" fill="#263238"/>
<path d="M561.968 281.141C561.968 280.859 558.919 280.383 553.967 279.836C552.698 279.731 551.517 279.501 551.288 278.655C551.156 277.36 551.427 276.055 552.064 274.919L555.588 265.295C560.505 251.599 564.03 240.354 563.483 240.16C562.937 239.966 558.496 250.912 553.579 264.607L550.195 274.266C549.44 275.796 549.241 277.541 549.632 279.202C549.828 279.633 550.119 280.015 550.481 280.32C550.844 280.625 551.27 280.845 551.729 280.964C552.426 281.14 553.142 281.223 553.861 281.211C558.866 281.44 561.95 281.423 561.968 281.141Z" fill="#263238"/>
<path d="M579.274 226.147C579.873 227.434 584.701 226.358 590.517 226.535C596.333 226.711 601.091 227.857 601.761 226.535C602.043 225.935 601.126 224.772 599.135 223.644C596.494 222.287 593.577 221.551 590.609 221.493C587.64 221.435 584.697 222.056 582.005 223.309C579.978 224.402 579.009 225.601 579.274 226.147Z" fill="#263238"/>
<path d="M531.55 222.71C532.484 223.891 536.484 222.974 541.207 223.239C545.93 223.503 549.878 224.543 550.882 223.45C551.305 222.904 550.759 221.688 549.12 220.577C546.79 219.157 544.135 218.356 541.409 218.252C538.682 218.147 535.974 218.741 533.541 219.978C531.779 221.018 531.162 222.075 531.55 222.71Z" fill="#263238"/>
<path d="M629.129 257.328C629.675 257.081 650.982 250.453 650.664 272.31C650.347 294.166 628.459 289.354 628.442 288.737C628.424 288.121 629.129 257.328 629.129 257.328Z" fill="#AE7461"/>
<path d="M635.525 280.7C635.631 280.7 635.913 280.964 636.547 281.282C637.462 281.658 638.488 281.658 639.402 281.282C641.711 280.471 643.72 276.84 643.879 272.892C643.969 271.019 643.631 269.15 642.892 267.427C642.697 266.74 642.339 266.11 641.848 265.591C641.357 265.073 640.748 264.681 640.072 264.449C639.633 264.328 639.166 264.364 638.751 264.551C638.337 264.737 638 265.063 637.799 265.471C637.499 266.07 637.64 266.511 637.517 266.546C637.393 266.581 637.058 266.176 637.235 265.277C637.369 264.739 637.679 264.261 638.116 263.92C638.724 263.473 639.484 263.283 640.231 263.391C641.14 263.58 641.984 264.005 642.677 264.624C643.37 265.243 643.888 266.034 644.178 266.916C645.075 268.826 645.492 270.925 645.394 273.033C645.2 277.439 642.874 281.528 639.702 282.392C639.105 282.561 638.477 282.591 637.866 282.481C637.256 282.371 636.678 282.124 636.177 281.757C635.631 281.229 635.525 280.735 635.525 280.7Z" fill="#6F4439"/>
<path d="M538.917 189.432C535.392 187.387 546.301 176.177 555.095 172.44C568.383 166.782 588.579 163.627 600.562 167.293C615.066 171.77 626.997 179.314 634.046 192.763C641.095 206.212 643.457 221.758 642.664 236.828C642.435 241.464 641.836 246.276 639.28 250.119C636.108 254.895 630.187 257.804 630.293 264.466C630.344 265.677 630.156 266.886 629.739 268.023C629.321 269.161 628.683 270.204 627.861 271.094C623.754 275.253 619.049 271.094 616.793 267.075C612.194 258.403 611.894 248.162 611.7 238.344C611.559 231.294 611.453 224.243 613.568 217.581C614.731 213.967 616.529 210.53 617.481 206.882C618.071 205.069 618.26 203.149 618.035 201.256C617.81 199.363 617.175 197.542 616.176 195.918C615.648 195.275 615.058 194.684 614.414 194.156C611.427 191.422 607.767 189.534 603.808 188.685C599.85 187.836 595.736 188.057 591.892 189.326C579.556 193.398 558.302 199.408 552.91 195.107C545.155 188.903 543.358 184.937 543.358 184.937L538.917 189.432Z" fill="#263238"/>
<path d="M579.132 283.168C578.339 283.062 577.899 288.455 573.07 291.787C568.241 295.118 562.619 294.149 562.496 294.889C562.496 295.224 563.677 296.017 566.021 296.281C569.138 296.577 572.26 295.759 574.832 293.972C577.287 292.267 578.986 289.677 579.573 286.746C579.925 284.542 579.449 283.168 579.132 283.168Z" fill="#263238"/>
<path d="M539.71 388.096C539.71 391.057 529.912 456.591 528.22 473.53C525.541 500.269 518.474 632.73 520.836 644.187C523.197 655.644 523.726 657.741 523.726 657.741C523.726 657.741 651.881 662.553 667.53 663.928C683.179 665.303 689.806 664.845 693.612 646.972C697.419 629.099 692.925 542.977 692.925 520.363C692.925 495.951 695.974 476.456 697.243 443.107C698.371 414.2 691.286 396.469 677.54 379.653C663.794 362.838 638.047 344.507 638.047 344.507L627.261 328.766L550.936 369.236L549.174 360.035L544.539 374.365L539.71 388.096Z" fill="#455A64"/>
<g opacity="0.3">
<path d="M506.879 587.096C508.148 583.852 512.272 583.042 515.691 582.654C548.064 579.129 581.76 570.985 605.392 548.582C614.644 539.769 621.923 529.194 628.954 518.618C644.339 495.369 658.79 471.538 673.241 447.69L684.449 451.92C677.576 485.551 670.809 509.911 659.601 537.478C648.392 565.045 639.722 591.784 611.331 600.809C592.985 606.643 558.145 602.184 538.953 600.668C530.917 600.292 522.946 599.045 515.18 596.949C512.806 596.381 510.601 595.257 508.747 593.67C507.836 592.871 507.174 591.825 506.843 590.659C506.511 589.492 506.524 588.255 506.879 587.096V587.096Z" fill="black"/>
</g>
<path d="M688.396 443.178C687.551 444.659 622.786 583.024 593.866 588.717C564.947 594.411 475.069 595.768 457.534 592.419C439.999 589.07 420.209 583.518 420.209 583.518L416.684 531.714L445.903 530.886C445.903 530.886 513.029 527.272 522.511 524.681C531.992 522.09 540.134 513.189 548.716 513.665L599.823 394.812C599.823 394.812 632.919 363.984 656.675 373.467C680.431 382.949 695.34 430.822 688.396 443.178Z" fill="#455A64"/>
<path d="M606.501 385.487C606.501 385.487 607.418 384.641 609.021 383.161C614.708 377.942 621.56 374.158 629.006 372.127C634.423 370.639 640.066 370.143 645.66 370.664C651.244 371.27 656.675 372.869 661.697 375.388C665.797 377.449 669.583 380.084 672.94 383.214C675.211 385.323 677.271 387.649 679.091 390.158C680.377 391.921 681.029 392.979 681.1 392.943C681.004 392.658 680.874 392.386 680.712 392.133C680.412 391.639 680.025 390.863 679.39 389.965C677.661 387.346 675.645 384.928 673.381 382.755C667.639 377.047 660.478 372.975 652.636 370.961C644.795 368.947 636.558 369.063 628.777 371.298C624.288 372.565 620.013 374.49 616.088 377.009C613.442 378.698 610.99 380.672 608.775 382.896C608.15 383.49 607.562 384.12 607.012 384.782C606.813 384.995 606.642 385.232 606.501 385.487V385.487Z" fill="#263238"/>
<path d="M548.874 513.771C549.679 517.199 550.769 520.554 552.134 523.8C553.221 527.155 554.607 530.405 556.275 533.512C555.469 530.082 554.372 526.727 552.998 523.483C551.907 520.132 550.528 516.882 548.874 513.771V513.771Z" fill="#263238"/>
<path d="M549.051 373.837C549.66 373.582 550.249 373.282 550.813 372.938L555.607 370.135L555.272 369.976C556.223 374.806 557.14 381.892 558.796 390.388L558.902 390.952L559.396 390.634C566.445 386.175 574.992 381.063 584.068 375.564C590.835 371.528 597.162 367.421 602.995 363.895C608.828 360.37 614.203 357.356 618.715 354.818L629.359 348.984L632.267 347.344C632.619 347.179 632.951 346.972 633.254 346.728C632.877 346.833 632.516 346.987 632.179 347.186L629.201 348.666C626.628 349.971 622.909 351.91 618.362 354.36C613.816 356.81 608.423 359.806 602.502 363.279L583.539 374.894C574.463 380.376 565.916 385.47 558.867 390.07L559.466 390.335C557.704 381.892 556.735 374.806 555.642 369.994V369.677L555.378 369.853L550.655 372.779C550.087 373.079 549.55 373.434 549.051 373.837V373.837Z" fill="#263238"/>
<g opacity="0.3">
<path d="M622.521 352.385L582.658 382.086C573.847 388.625 564.894 395.27 554.461 398.619L555.043 370.911L559.131 390.299L622.521 352.385Z" fill="black"/>
</g>
<path d="M420.209 583.517C420.209 583.517 420.209 583.2 420.209 582.601C420.209 582.002 420.209 581.05 420.068 579.904C419.927 577.489 419.715 574.017 419.451 569.557C418.869 560.551 418.041 547.613 417.001 531.696L416.684 532.067L512.906 527.008L526.405 526.268H526.634L526.758 526.091C529.228 522.233 532.505 518.956 536.362 516.485C540.018 514.141 544.454 513.342 548.698 514.264L549.104 514.388L549.245 514.035L579.433 442.931L588.121 422.291C589.108 419.911 589.883 418.043 590.412 416.756C590.641 416.139 590.835 415.663 590.976 415.311C591.117 414.958 591.152 414.817 591.152 414.817C591.052 414.959 590.969 415.113 590.906 415.276L590.271 416.686C589.69 417.972 588.879 419.806 587.839 422.167L578.922 442.72L548.469 513.594L549.016 513.348C546.786 512.828 544.476 512.762 542.22 513.152C539.965 513.543 537.811 514.383 535.886 515.621C531.92 518.163 528.548 521.53 526 525.492L526.264 525.245L512.765 525.986L416.543 531.273H416.19V531.626C417.354 547.489 418.288 560.462 418.94 569.469C419.292 573.911 419.556 577.384 419.75 579.798C419.838 580.944 419.927 581.825 419.979 582.477C420.03 582.829 420.106 583.177 420.209 583.517V583.517Z" fill="#263238"/>
</svg>
