<svg width="821" height="728" viewBox="0 0 821 728" fill="none" xmlns="http://www.w3.org/2000/svg">
<g clip-path="url(#clip0_44_21373)">
<path d="M3.00041 528C3.00041 519.716 9.71614 513 18.0004 513H231.604C239.889 513 246.604 519.716 246.604 528V629.695C246.604 637.046 240.645 643.006 233.294 643.006H230.534C224.707 643.006 219.984 647.729 219.984 653.556C219.984 662.954 208.621 667.661 201.974 661.016L188.355 647.398C185.542 644.586 181.727 643.006 177.749 643.006H18.0004C9.71614 643.006 3.00041 636.29 3.00041 628.006V528Z" fill="#DEDEDE"/>
<path d="M0.000411987 515C0.000411987 506.716 6.71614 500 15.0004 500H228.604C236.889 500 243.604 506.716 243.604 515V616.695C243.604 624.046 237.645 630.006 230.294 630.006H227.534C221.707 630.006 216.984 634.729 216.984 640.556C216.984 649.954 205.621 654.661 198.974 648.016L185.355 634.398C182.542 631.586 178.727 630.006 174.749 630.006H15.0004C6.71614 630.006 0.000411987 623.29 0.000411987 615.006V515Z" fill="white"/>
<g clip-path="url(#clip1_44_21373)">
<path d="M19.79 554.005H15.79V615.555H19.79V554.005Z" fill="#4F4F4F"/>
<path d="M35.9999 548.695H27.9999V615.695H35.9999V548.695Z" fill="#FFC727"/>
<path d="M45.3 555.075H41.3V615.565H45.3V555.075Z" fill="#4F4F4F"/>
<path d="M58.0605 560.455H54.0605V615.565H58.0605V560.455Z" fill="#4F4F4F"/>
<path d="M70.8203 566.965H66.8203V615.555H70.8203V566.965Z" fill="#4F4F4F"/>
<path d="M83.5801 580.955H79.5801V615.565H83.5801V580.955Z" fill="#4F4F4F"/>
<path d="M96.34 597.005H92.34V615.555H96.34V597.005Z" fill="#4F4F4F"/>
<path d="M109.09 576.205H105.09V615.555H109.09V576.205Z" fill="#4F4F4F"/>
<path d="M121.85 563.475H117.85V615.565H121.85V563.475Z" fill="#4F4F4F"/>
<path d="M134.61 554.005H130.61V615.555H134.61V554.005Z" fill="#FFC727"/>
</g>
<path d="M24.7859 537.036C26.1952 537.092 27.2265 537.4 27.8799 537.96C28.5425 538.52 28.8739 539.281 28.8739 540.242C28.8739 540.671 28.7992 541.068 28.6499 541.432C28.5099 541.796 28.2905 542.109 27.9919 542.37C27.7025 542.631 27.3339 542.837 26.8859 542.986C26.4379 543.135 25.9059 543.21 25.2899 543.21C25.0472 543.21 24.7999 543.191 24.5479 543.154C24.2959 543.117 24.0625 543.07 23.8479 543.014C23.6332 542.958 23.4419 542.902 23.2739 542.846C23.1059 542.79 22.9845 542.743 22.9099 542.706L23.1619 541.572C23.3205 541.647 23.5772 541.745 23.9319 541.866C24.2959 541.987 24.7392 542.048 25.2619 542.048C25.6819 542.048 26.0319 542.001 26.3119 541.908C26.6012 541.815 26.8345 541.689 27.0119 541.53C27.1892 541.371 27.3152 541.189 27.3899 540.984C27.4739 540.769 27.5159 540.545 27.5159 540.312C27.5159 539.957 27.4552 539.645 27.3339 539.374C27.2125 539.094 26.9979 538.861 26.6899 538.674C26.3819 538.487 25.9712 538.347 25.4579 538.254C24.9445 538.151 24.2959 538.1 23.5119 538.1C23.5679 537.643 23.6099 537.213 23.6379 536.812C23.6752 536.411 23.7079 536.019 23.7359 535.636C23.7639 535.253 23.7872 534.875 23.8059 534.502C23.8245 534.119 23.8432 533.718 23.8619 533.298H28.5379V534.404H24.9959C24.9865 534.544 24.9725 534.735 24.9539 534.978C24.9352 535.211 24.9165 535.459 24.8979 535.72C24.8792 535.972 24.8605 536.219 24.8419 536.462C24.8232 536.705 24.8045 536.896 24.7859 537.036ZM30.6022 535.664C30.6022 535.244 30.6582 534.875 30.7702 534.558C30.8822 534.241 31.0362 533.975 31.2322 533.76C31.4376 533.536 31.6756 533.368 31.9462 533.256C32.2169 533.144 32.5109 533.088 32.8282 533.088C33.1456 533.088 33.4396 533.144 33.7102 533.256C33.9809 533.368 34.2142 533.536 34.4102 533.76C34.6156 533.975 34.7742 534.241 34.8862 534.558C34.9982 534.875 35.0542 535.244 35.0542 535.664C35.0542 536.084 34.9982 536.453 34.8862 536.77C34.7742 537.087 34.6156 537.358 34.4102 537.582C34.2142 537.797 33.9809 537.96 33.7102 538.072C33.4396 538.184 33.1456 538.24 32.8282 538.24C32.5109 538.24 32.2169 538.184 31.9462 538.072C31.6756 537.96 31.4376 537.797 31.2322 537.582C31.0362 537.358 30.8822 537.087 30.7702 536.77C30.6582 536.453 30.6022 536.084 30.6022 535.664ZM33.9622 535.664C33.9622 535.16 33.8642 534.768 33.6682 534.488C33.4722 534.199 33.1922 534.054 32.8282 534.054C32.4642 534.054 32.1842 534.199 31.9882 534.488C31.7922 534.768 31.6942 535.16 31.6942 535.664C31.6942 536.168 31.7922 536.565 31.9882 536.854C32.1842 537.134 32.4642 537.274 32.8282 537.274C33.1922 537.274 33.4722 537.134 33.6682 536.854C33.8642 536.565 33.9622 536.168 33.9622 535.664ZM36.7622 540.634C36.7622 540.214 36.8182 539.845 36.9302 539.528C37.0422 539.211 37.1962 538.945 37.3922 538.73C37.5976 538.506 37.8356 538.338 38.1062 538.226C38.3769 538.114 38.6709 538.058 38.9882 538.058C39.3056 538.058 39.5996 538.114 39.8702 538.226C40.1409 538.338 40.3742 538.506 40.5702 538.73C40.7756 538.945 40.9342 539.211 41.0462 539.528C41.1582 539.845 41.2142 540.214 41.2142 540.634C41.2142 541.054 41.1582 541.423 41.0462 541.74C40.9342 542.057 40.7756 542.328 40.5702 542.552C40.3742 542.767 40.1409 542.93 39.8702 543.042C39.5996 543.154 39.3056 543.21 38.9882 543.21C38.6709 543.21 38.3769 543.154 38.1062 543.042C37.8356 542.93 37.5976 542.767 37.3922 542.552C37.1962 542.328 37.0422 542.057 36.9302 541.74C36.8182 541.423 36.7622 541.054 36.7622 540.634ZM40.1222 540.634C40.1222 540.13 40.0242 539.738 39.8282 539.458C39.6322 539.169 39.3522 539.024 38.9882 539.024C38.6242 539.024 38.3442 539.169 38.1482 539.458C37.9522 539.738 37.8542 540.13 37.8542 540.634C37.8542 541.138 37.9522 541.535 38.1482 541.824C38.3442 542.104 38.6242 542.244 38.9882 542.244C39.3522 542.244 39.6322 542.104 39.8282 541.824C40.0242 541.535 40.1222 541.138 40.1222 540.634ZM39.2822 533.298L33.8082 543H32.5342L38.0082 533.298H39.2822Z" fill="#2D2E2F"/>
<path d="M126.164 542.048C126.995 542.048 127.587 541.885 127.942 541.558C128.306 541.231 128.488 540.793 128.488 540.242C128.488 539.887 128.413 539.589 128.264 539.346C128.115 539.103 127.919 538.912 127.676 538.772C127.433 538.623 127.149 538.52 126.822 538.464C126.505 538.399 126.178 538.366 125.842 538.366H125.506V537.302H125.968C126.201 537.302 126.439 537.279 126.682 537.232C126.934 537.185 127.163 537.101 127.368 536.98C127.573 536.859 127.741 536.695 127.872 536.49C128.003 536.275 128.068 536.009 128.068 535.692C128.068 535.431 128.021 535.207 127.928 535.02C127.835 534.833 127.709 534.679 127.55 534.558C127.401 534.437 127.223 534.353 127.018 534.306C126.822 534.25 126.612 534.222 126.388 534.222C125.94 534.222 125.557 534.287 125.24 534.418C124.932 534.549 124.671 534.684 124.456 534.824L123.952 533.83C124.064 533.755 124.204 533.676 124.372 533.592C124.549 533.499 124.745 533.415 124.96 533.34C125.175 533.265 125.403 533.205 125.646 533.158C125.898 533.102 126.159 533.074 126.43 533.074C126.943 533.074 127.387 533.139 127.76 533.27C128.133 533.391 128.441 533.569 128.684 533.802C128.927 534.026 129.109 534.297 129.23 534.614C129.351 534.922 129.412 535.258 129.412 535.622C129.412 536.126 129.267 536.56 128.978 536.924C128.689 537.279 128.339 537.549 127.928 537.736C128.18 537.811 128.423 537.918 128.656 538.058C128.889 538.198 129.09 538.375 129.258 538.59C129.435 538.805 129.575 539.052 129.678 539.332C129.79 539.612 129.846 539.925 129.846 540.27C129.846 540.69 129.771 541.082 129.622 541.446C129.482 541.801 129.258 542.109 128.95 542.37C128.651 542.631 128.273 542.837 127.816 542.986C127.359 543.135 126.817 543.21 126.192 543.21C125.949 543.21 125.697 543.191 125.436 543.154C125.184 543.117 124.946 543.07 124.722 543.014C124.498 542.958 124.302 542.902 124.134 542.846C123.966 542.79 123.845 542.743 123.77 542.706L124.022 541.572C124.181 541.647 124.442 541.745 124.806 541.866C125.179 541.987 125.632 542.048 126.164 542.048ZM131.602 535.664C131.602 535.244 131.658 534.875 131.77 534.558C131.882 534.241 132.036 533.975 132.232 533.76C132.438 533.536 132.676 533.368 132.946 533.256C133.217 533.144 133.511 533.088 133.828 533.088C134.146 533.088 134.44 533.144 134.71 533.256C134.981 533.368 135.214 533.536 135.41 533.76C135.616 533.975 135.774 534.241 135.886 534.558C135.998 534.875 136.054 535.244 136.054 535.664C136.054 536.084 135.998 536.453 135.886 536.77C135.774 537.087 135.616 537.358 135.41 537.582C135.214 537.797 134.981 537.96 134.71 538.072C134.44 538.184 134.146 538.24 133.828 538.24C133.511 538.24 133.217 538.184 132.946 538.072C132.676 537.96 132.438 537.797 132.232 537.582C132.036 537.358 131.882 537.087 131.77 536.77C131.658 536.453 131.602 536.084 131.602 535.664ZM134.962 535.664C134.962 535.16 134.864 534.768 134.668 534.488C134.472 534.199 134.192 534.054 133.828 534.054C133.464 534.054 133.184 534.199 132.988 534.488C132.792 534.768 132.694 535.16 132.694 535.664C132.694 536.168 132.792 536.565 132.988 536.854C133.184 537.134 133.464 537.274 133.828 537.274C134.192 537.274 134.472 537.134 134.668 536.854C134.864 536.565 134.962 536.168 134.962 535.664ZM137.762 540.634C137.762 540.214 137.818 539.845 137.93 539.528C138.042 539.211 138.196 538.945 138.392 538.73C138.598 538.506 138.836 538.338 139.106 538.226C139.377 538.114 139.671 538.058 139.988 538.058C140.306 538.058 140.6 538.114 140.87 538.226C141.141 538.338 141.374 538.506 141.57 538.73C141.776 538.945 141.934 539.211 142.046 539.528C142.158 539.845 142.214 540.214 142.214 540.634C142.214 541.054 142.158 541.423 142.046 541.74C141.934 542.057 141.776 542.328 141.57 542.552C141.374 542.767 141.141 542.93 140.87 543.042C140.6 543.154 140.306 543.21 139.988 543.21C139.671 543.21 139.377 543.154 139.106 543.042C138.836 542.93 138.598 542.767 138.392 542.552C138.196 542.328 138.042 542.057 137.93 541.74C137.818 541.423 137.762 541.054 137.762 540.634ZM141.122 540.634C141.122 540.13 141.024 539.738 140.828 539.458C140.632 539.169 140.352 539.024 139.988 539.024C139.624 539.024 139.344 539.169 139.148 539.458C138.952 539.738 138.854 540.13 138.854 540.634C138.854 541.138 138.952 541.535 139.148 541.824C139.344 542.104 139.624 542.244 139.988 542.244C140.352 542.244 140.632 542.104 140.828 541.824C141.024 541.535 141.122 541.138 141.122 540.634ZM140.282 533.298L134.808 543H133.534L139.008 533.298H140.282Z" fill="#2D2E2F"/>
<path d="M13.0345 510.766C13.0345 511.403 12.8457 512.025 12.4919 512.554C12.1382 513.084 11.6353 513.496 11.0471 513.74C10.4588 513.984 9.81152 514.047 9.18703 513.923C8.56253 513.799 7.98889 513.492 7.53865 513.042C7.08842 512.592 6.78178 512.018 6.65756 511.394C6.53334 510.769 6.5971 510.122 6.84077 509.534C7.08443 508.946 7.49708 508.443 8.02651 508.089C8.55593 507.736 9.17838 507.547 9.81511 507.547C10.6678 507.55 11.4846 507.891 12.0876 508.494C12.6906 509.097 13.0309 509.913 13.0345 510.766Z" fill="#3C3B41"/>
<path d="M22.5713 510.766C22.5739 511.406 22.3863 512.033 22.0321 512.567C21.6779 513.101 21.1731 513.517 20.5818 513.763C19.9905 514.01 19.3394 514.075 18.711 513.951C18.0826 513.826 17.5053 513.518 17.0524 513.065C16.5994 512.612 16.2912 512.035 16.1669 511.407C16.0426 510.778 16.1078 510.127 16.3542 509.536C16.6005 508.945 17.017 508.44 17.5507 508.086C18.0844 507.732 18.7113 507.544 19.3519 507.547C20.2046 507.55 21.0214 507.891 21.6244 508.494C22.2274 509.097 22.5677 509.913 22.5713 510.766Z" fill="#3C3B41"/>
<path d="M32.0941 510.766C32.0941 511.403 31.9052 512.025 31.5515 512.554C31.1977 513.084 30.6949 513.496 30.1067 513.74C29.5184 513.984 28.8711 514.047 28.2466 513.923C27.6221 513.799 27.0485 513.492 26.5982 513.042C26.148 512.592 25.8414 512.018 25.7171 511.394C25.5929 510.769 25.6567 510.122 25.9003 509.534C26.144 508.946 26.5567 508.443 27.0861 508.089C27.6155 507.736 28.2379 507.547 28.8747 507.547C29.7285 507.547 30.5473 507.886 31.1511 508.49C31.7548 509.093 32.0941 509.912 32.0941 510.766Z" fill="#3C3B41"/>
<path d="M241.115 519.49C241.115 519.693 187.13 519.842 120.564 519.842C53.9991 519.842 0.00012207 519.693 0.00012207 519.49C0.00012207 519.287 53.972 519.138 120.564 519.138C187.157 519.138 241.115 519.301 241.115 519.49Z" fill="#090810" fill-opacity="0.15"/>
<path d="M186.903 594.754L184.313 606.114C176.67 604.34 169.877 599.978 165.083 593.767C160.29 587.556 157.792 579.878 158.014 572.035C158.235 564.193 161.162 556.668 166.298 550.737C171.433 544.806 178.463 540.834 186.193 539.494L188.143 550.994C183.054 551.86 178.423 554.463 175.038 558.36C171.652 562.256 169.722 567.206 169.576 572.366C169.43 577.525 171.077 582.576 174.236 586.658C177.395 590.74 181.871 593.601 186.903 594.754Z" fill="black"/>
<path d="M224.613 563.924L213.373 567.034C212.076 562.328 209.27 558.177 205.386 555.218C201.503 552.259 196.756 550.656 191.873 550.654C190.623 550.654 189.375 550.761 188.143 550.974L186.193 539.474C194.485 538.075 203.001 539.797 210.096 544.309C217.192 548.821 222.364 555.802 224.613 563.904V563.924Z" fill="#FFC727"/>
<path d="M225.843 572.994C225.857 577.696 224.89 582.348 223.003 586.654L212.373 581.934C214.427 577.237 214.801 571.975 213.433 567.034L224.663 563.924C225.463 566.881 225.86 569.932 225.843 572.994Z" fill="#4F4F4F"/>
<path d="M223.003 586.654C220.352 592.705 215.997 597.853 210.469 601.469C204.94 605.085 198.478 607.012 191.872 607.014C189.328 607.018 186.792 606.733 184.312 606.164L186.902 594.804C188.542 595.182 190.22 595.369 191.902 595.364C196.253 595.366 200.508 594.096 204.145 591.71C207.782 589.323 210.642 585.925 212.372 581.934L223.003 586.654Z" fill="#2D2F31"/>
<path d="M198.296 575.133C197.727 573.355 195.573 572.053 192.362 571.589C190.444 571.311 189.135 570.687 188.885 569.896C188.831 569.611 188.868 569.321 188.991 569.062C189.113 568.803 189.316 568.585 189.576 568.435C190.688 567.586 192.973 567.049 195.807 568.367L196.646 566.713C195.474 566.17 194.204 565.85 192.916 565.775L192.615 563.001L190.603 563.1L190.899 565.89C189.912 566.063 188.995 566.451 188.222 567.023C187.662 567.393 187.242 567.913 187.014 568.517C186.787 569.121 186.764 569.782 186.947 570.415C187.252 571.309 188.321 572.887 192.14 573.438C194.456 573.775 196.034 574.581 196.355 575.594C196.425 575.921 196.389 576.256 196.251 576.556C196.113 576.856 195.88 577.108 195.58 577.279C194.346 578.146 191.671 578.52 188.26 576.706L187.309 578.307C188.875 579.176 190.625 579.703 192.417 579.845L192.718 582.619L194.73 582.52L194.431 579.738C195.315 579.588 196.142 579.257 196.851 578.768C197.468 578.382 197.935 577.829 198.193 577.181C198.45 576.532 198.486 575.819 198.296 575.133Z" fill="#2D2E2F"/>
</g>
<path d="M541.97 429.681C541.97 429.628 541.928 429.586 541.875 429.586C541.823 429.586 541.781 429.544 541.781 429.491V239.704C541.781 231.42 535.065 224.704 526.781 224.704H301.043C292.759 224.704 286.043 231.42 286.043 239.704V415.14C286.043 423.425 292.759 430.14 301.043 430.14H502.429C506.406 430.14 510.22 431.72 513.033 434.531L525.034 446.526C531.285 452.774 541.97 448.346 541.97 439.508V429.681Z" fill="#DEDEDE"/>
<path d="M565.536 646.645C565.536 646.645 569.491 628.874 569.249 627.648C569.007 626.422 569.249 600.015 569.249 600.015V573.004C569.249 573.004 568.921 566.717 566.019 565.75C564.378 565.161 562.582 565.161 560.941 565.75L559.076 587.736C559.076 587.736 554.239 586.285 553.998 589.463C553.756 592.641 547.451 611.483 548.419 618.253C549.386 625.023 549.887 635.42 549.887 635.42L548.332 642.483L565.536 646.645Z" fill="#FFBE9D"/>
<path d="M558.437 587.407C559.029 587.631 559.549 588.013 559.939 588.513C561.028 589.847 561.733 591.454 561.977 593.159C562.375 595.3 562.185 597.856 562.513 600.55C563.124 603.481 564.099 606.324 565.415 609.013C566.668 611.852 567.231 614.947 567.056 618.045C566.908 620.568 566.268 623.038 565.173 625.316C564.461 626.855 563.517 628.277 562.375 629.53C561.995 630.02 561.533 630.441 561.01 630.774C562.421 629.014 563.621 627.096 564.586 625.057C565.557 622.828 566.113 620.44 566.226 618.011C566.339 615.045 565.778 612.093 564.586 609.376C563.236 606.642 562.266 603.736 561.701 600.74C561.39 597.891 561.701 595.386 561.338 593.349C561.157 591.718 560.562 590.161 559.611 588.824C558.972 587.822 558.402 587.477 558.437 587.407Z" fill="#EB996E"/>
<path d="M462.765 514.215C463.162 514.319 477.533 519.897 467.947 531.589C458.36 543.281 448.602 531.244 448.861 530.898C449.12 530.553 462.765 514.215 462.765 514.215Z" fill="#FFBE9D"/>
<path d="M456.063 529.396C456.15 529.396 456.15 529.707 456.357 530.139C456.67 530.746 457.21 531.206 457.86 531.417C459.466 531.987 462.109 530.881 463.905 528.809C464.765 527.811 465.385 526.629 465.718 525.355C465.906 524.9 465.982 524.408 465.94 523.918C465.898 523.428 465.739 522.955 465.477 522.54C465.291 522.27 465.012 522.077 464.695 521.998C464.377 521.918 464.041 521.957 463.749 522.108C463.318 522.315 463.197 522.609 463.128 522.574C463.059 522.54 463.024 522.177 463.525 521.762C463.829 521.535 464.199 521.413 464.579 521.417C465.102 521.437 465.598 521.66 465.96 522.039C466.358 522.53 466.625 523.114 466.737 523.736C466.849 524.358 466.801 524.998 466.599 525.597C466.265 527.016 465.589 528.332 464.63 529.431C462.627 531.728 459.604 532.885 457.514 532.038C457.124 531.877 456.775 531.628 456.497 531.311C456.218 530.993 456.017 530.616 455.908 530.208C455.856 529.69 455.994 529.379 456.063 529.396Z" fill="#EB996E"/>
<path d="M474.192 446.842L472.465 445.529C464.258 439.221 453.975 436.236 443.665 437.167C433.355 438.098 423.775 442.878 416.831 450.555C403.427 465.356 388.815 481.884 382.407 490.433C369.159 508.118 384.601 524.318 384.601 524.318L367 542.469L407.711 574.972L472.949 502.125C488.511 485.131 491.586 461.919 474.192 446.842Z" fill="#FFBE9D"/>
<path d="M412.658 468.345C412.144 468.991 411.905 469.813 411.992 470.634C412.079 471.454 412.486 472.208 413.124 472.731C413.423 473.004 413.773 473.213 414.154 473.347C414.535 473.481 414.939 473.536 415.342 473.511C415.745 473.485 416.139 473.378 416.5 473.197C416.861 473.015 417.181 472.763 417.442 472.455C417.947 471.809 418.18 470.991 418.093 470.176C418.006 469.361 417.605 468.611 416.976 468.086C416.678 467.815 416.328 467.606 415.948 467.472C415.568 467.338 415.165 467.282 414.762 467.306C414.36 467.33 413.967 467.434 413.605 467.613C413.244 467.791 412.922 468.04 412.658 468.345Z" fill="#263238"/>
<path d="M437.081 486.582C436.577 487.229 436.343 488.046 436.43 488.861C436.517 489.677 436.918 490.426 437.547 490.952C437.846 491.224 438.196 491.433 438.577 491.567C438.958 491.701 439.362 491.757 439.765 491.731C440.168 491.705 440.562 491.598 440.923 491.417C441.284 491.236 441.604 490.983 441.865 490.675C442.378 490.032 442.617 489.213 442.529 488.395C442.442 487.577 442.036 486.826 441.399 486.306C441.101 486.034 440.75 485.824 440.369 485.691C439.988 485.557 439.584 485.501 439.181 485.527C438.778 485.553 438.384 485.659 438.024 485.841C437.663 486.022 437.342 486.274 437.081 486.582Z" fill="#263238"/>
<path d="M414.471 462.87C414.471 463.44 417.511 463.492 420.188 465.564C422.865 467.637 423.815 470.503 424.368 470.4C424.627 470.4 424.765 469.536 424.368 468.241C423.821 466.539 422.759 465.048 421.328 463.975C419.926 462.902 418.222 462.297 416.457 462.248C415.162 462.231 414.436 462.611 414.471 462.87Z" fill="#263238"/>
<path d="M440.674 481.729C440.777 482.299 443.748 482.161 446.563 484.061C449.379 485.961 450.502 488.758 451.037 488.62C451.296 488.62 451.382 487.74 450.916 486.479C450.265 484.811 449.113 483.387 447.617 482.403C446.152 481.411 444.411 480.909 442.643 480.969C441.33 481.056 440.622 481.47 440.674 481.729Z" fill="#263238"/>
<path d="M416.181 495.546C415.112 494.006 413.846 492.613 412.416 491.401C411.776 490.796 411.241 490.157 411.483 489.674C411.725 489.19 412.554 488.534 413.504 487.947L419.566 484.268C428.116 478.983 434.887 474.424 434.662 474.078C434.438 473.733 427.339 477.74 418.789 483.042L412.778 486.807C411.932 487.394 410.792 487.929 410.36 489.225C410.273 489.544 410.259 489.879 410.319 490.205C410.378 490.531 410.511 490.839 410.706 491.107C411.012 491.5 411.366 491.854 411.759 492.161C413.089 493.466 414.574 494.603 416.181 495.546Z" fill="#263238"/>
<path d="M452.315 469.364C452.091 470.313 455.182 471.781 458.274 474.355C461.366 476.928 463.456 479.536 464.389 479.156C464.803 478.949 464.803 477.912 464.181 476.462C463.341 474.585 462.062 472.938 460.45 471.66C454.837 469.053 455.424 468.966 454.992 469.001C453.438 468.759 452.436 468.914 452.315 469.364Z" fill="#263238"/>
<path d="M424.61 453.112C424.61 454.097 426.959 454.839 429.222 456.566C431.485 458.293 433.022 460.141 433.954 459.83C434.369 459.675 434.559 458.829 434.162 457.62C433.611 456.06 432.584 454.713 431.225 453.769C429.896 452.79 428.299 452.241 426.648 452.197C425.318 452.231 424.627 452.663 424.61 453.112Z" fill="#263238"/>
<path d="M492.422 487.498C494.895 486.133 496.732 483.849 497.534 481.14C498.335 478.431 498.038 475.516 496.705 473.025C499.175 472.369 499.659 468.897 498.588 466.583C497.517 464.269 495.531 462.438 494.563 460.072C494.036 458.329 493.632 456.552 493.354 454.753C492.708 452.245 491.408 449.954 489.588 448.112C487.767 446.271 485.491 444.945 482.991 444.27C484.476 440.988 482.818 436.947 480.055 434.598C477.126 432.445 473.768 430.949 470.209 430.211C469.08 426.43 467.074 422.968 464.354 420.108C462.98 418.695 461.316 417.599 459.475 416.895C457.635 416.191 455.663 415.896 453.697 416.032C451.736 416.231 449.888 417.045 448.418 418.357C446.947 419.669 445.93 421.412 445.51 423.338C443.935 421.98 441.964 421.168 439.89 421.023C437.816 420.878 435.75 421.407 434.002 422.532C432.253 423.657 430.915 425.316 430.188 427.264C429.46 429.211 429.382 431.342 429.965 433.337C428.365 433.89 426.97 434.912 425.962 436.272C424.954 437.631 424.381 439.263 424.317 440.954C424.317 444.321 426.925 443.302 426.925 443.302L436.355 440.919C437.839 442.433 439.458 443.809 441.192 445.029C443.886 447.261 447.033 448.882 450.415 449.779C452.632 450.113 454.876 450.24 457.117 450.159C459.464 450.196 461.806 450.38 464.129 450.711C467.414 451.832 470.412 453.659 472.913 456.064C475.414 458.469 477.356 461.394 478.604 464.631C481.229 471.091 479.174 481.194 474.976 487.584C469.459 496.206 463.334 504.424 456.65 512.177C454.647 514.474 452.436 517.6 453.956 520.243C454.235 520.759 454.631 521.201 455.114 521.534C455.597 521.867 456.151 522.082 456.733 522.159C457.314 522.237 457.906 522.175 458.459 521.98C459.012 521.785 459.511 521.462 459.915 521.037C461.749 519.255 463.479 517.37 465.097 515.39L467.014 516.668C475.132 510.105 480.348 502.229 486.186 493.56C487.327 491.875 488.332 490.102 489.192 488.258C490.311 488.246 491.414 487.986 492.422 487.498Z" fill="#263238"/>
<path d="M485.323 466.065C484.61 460.613 482.135 455.543 478.276 451.627C475.177 448.216 471.129 445.81 466.651 444.719C464.42 444.188 462.098 444.152 459.851 444.615C457.604 445.077 455.486 446.027 453.645 447.396L438.791 439.952C440.387 444.337 443.532 447.986 447.633 450.213C451.734 452.44 456.508 453.09 461.055 452.042C462.035 454.792 463.683 457.256 465.851 459.212C468.018 461.168 470.638 462.556 473.474 463.25C472.99 466.562 473.371 469.943 474.582 473.063C475.793 476.184 477.791 478.937 480.383 481.056C482.256 479.073 483.67 476.702 484.524 474.111C485.377 471.52 485.65 468.773 485.323 466.065Z" fill="#263238"/>
<path d="M442.09 445.392C441.715 445.099 441.408 444.728 441.192 444.304C440.518 443.169 440.155 441.876 440.138 440.556C440.103 439.541 440.271 438.529 440.633 437.58C440.995 436.631 441.543 435.764 442.245 435.03C443.144 434.106 444.246 433.404 445.463 432.978C446.68 432.552 447.979 432.415 449.258 432.577L448.809 433.32C447.606 431.583 447.123 429.447 447.462 427.362C447.705 425.633 448.527 424.038 449.793 422.837C450.978 421.737 452.475 421.031 454.077 420.816C455.417 420.58 456.796 420.708 458.07 421.188C459.343 421.669 460.464 422.482 461.314 423.545C461.965 424.375 462.334 425.392 462.368 426.446C462.368 427.237 462.14 428.01 461.711 428.674C460.986 429.779 460.174 429.918 460.191 429.866C460.678 429.485 461.088 429.017 461.4 428.484C461.761 427.754 461.894 426.933 461.783 426.126C461.672 425.32 461.322 424.565 460.779 423.959C459.895 422.933 458.735 422.182 457.437 421.795C456.139 421.408 454.757 421.401 453.455 421.776C452.153 422.15 450.986 422.89 450.092 423.908C449.198 424.925 448.615 426.178 448.412 427.517C448.132 429.328 448.545 431.178 449.569 432.698L450.208 433.614L449.12 433.441C447.979 433.281 446.817 433.387 445.723 433.749C444.63 434.112 443.635 434.721 442.815 435.531C441.506 436.852 440.757 438.627 440.725 440.487C440.733 442.215 441.204 443.909 442.09 445.392Z" fill="white"/>
<path d="M486.463 492.938C484.27 492.862 482.154 492.114 480.4 490.796C478.469 489.744 476.917 488.113 475.961 486.133C476.185 485.96 478.016 488.137 480.918 489.985C483.82 491.832 486.532 492.731 486.463 492.938Z" fill="white"/>
<path d="M484.563 497.411C482.314 497.756 480.014 497.317 478.051 496.167C475.937 495.32 474.184 493.763 473.094 491.763C474.82 493.038 476.613 494.22 478.465 495.304C481.644 496.893 484.58 497.117 484.563 497.411Z" fill="white"/>
<path d="M385.799 524.508C393.777 530.875 403.47 534.723 413.643 535.561C413.643 535.561 397.527 544.197 381.257 529.223L385.799 524.508Z" fill="#EB996E"/>
<path d="M309.594 424.65C309.594 424.65 329.474 419.797 330.683 420.039C331.892 420.281 358.319 420.039 358.319 420.039H389.289C389.289 420.039 395.576 420.367 396.56 423.269C397.15 424.91 397.15 426.705 396.56 428.346L370.652 430.211C370.652 430.211 372.103 435.047 368.924 435.289C365.746 435.531 346.902 441.817 340.131 440.85C333.361 439.883 322.945 439.399 322.945 439.399L315.898 440.954L309.594 424.65Z" fill="#FFBE9D"/>
<path d="M370.997 430.764C370.997 430.764 370.582 430.246 369.65 429.538C368.317 428.591 366.766 427.997 365.142 427.811C363.086 427.5 360.582 427.811 357.732 427.465C354.738 426.891 351.834 425.921 349.096 424.581C346.386 423.357 343.432 422.766 340.459 422.854C338.031 422.96 335.642 423.51 333.412 424.478C331.378 425.45 329.46 426.649 327.695 428.053C328.032 427.532 328.452 427.071 328.939 426.688C330.192 425.558 331.606 424.621 333.136 423.908C335.672 422.739 338.43 422.129 341.222 422.12C344.015 422.111 346.777 422.703 349.32 423.856C352.002 425.171 354.84 426.14 357.766 426.74C360.478 427.085 363.034 426.895 365.176 427.293C366.88 427.526 368.483 428.232 369.805 429.331C370.326 429.69 370.739 430.186 370.997 430.764Z" fill="#EB996E"/>
<path d="M395.438 711.721C395.438 711.721 445.061 681.135 457.618 679.132C470.175 677.128 499.072 685.746 502.803 705.037C504.944 716.073 485.392 860.886 486.584 864.513C487.776 868.14 415.577 863.235 415.577 863.235L423.678 782.755C423.678 782.755 386.991 816.225 365.263 825.275C343.534 834.324 333.257 834.031 333.257 834.031L295.258 761.391L395.438 711.721Z" fill="#263238"/>
<path d="M406.647 499.535C408.667 498.844 409.963 499.691 411.656 500.537C412.474 500.918 413.173 501.515 413.679 502.263C414.184 503.012 414.476 503.884 414.523 504.785C414.584 505.774 414.3 506.752 413.721 507.555C413.142 508.358 412.302 508.936 411.345 509.189C409.982 509.607 408.521 509.575 407.178 509.099C405.834 508.623 404.679 507.729 403.883 506.547C403.583 505.908 403.417 505.215 403.394 504.51C403.372 503.804 403.494 503.102 403.752 502.445C404.011 501.789 404.401 501.192 404.899 500.691C405.397 500.191 405.991 499.798 406.647 499.535Z" fill="#EB996E"/>
<path d="M405.092 508.274C406.222 508.628 407.377 508.9 408.547 509.086C409.773 509.151 410.987 508.811 412.001 508.119C412.608 507.694 413.088 507.114 413.392 506.439C413.696 505.764 413.812 505.02 413.728 504.285C413.628 503.539 413.373 502.822 412.981 502.179C412.588 501.537 412.066 500.984 411.448 500.554C410.474 499.773 409.239 499.391 407.994 499.483C407.139 499.564 406.312 499.835 405.576 500.278C405.04 500.571 404.729 500.761 404.695 500.71C404.66 500.658 404.885 500.381 405.386 499.984C406.114 499.386 406.992 498.998 407.925 498.862C409.348 498.656 410.795 499.022 411.949 499.881C412.677 500.368 413.293 501.005 413.755 501.75C414.216 502.495 414.514 503.329 414.626 504.198C414.727 505.089 414.58 505.991 414.202 506.804C413.825 507.617 413.23 508.311 412.485 508.809C411.288 509.582 409.854 509.901 408.443 509.707C407.521 509.598 406.63 509.311 405.818 508.861C405.334 508.481 405.058 508.309 405.092 508.274Z" fill="#263238"/>
<path d="M544.619 631.828L522.821 665.781L480.729 622.139C480.729 622.139 471.989 608.737 464.492 599.238C458.951 592.256 452.9 585.692 446.391 579.602L445.458 580.413L414.472 611.811L421.864 643.33C421.864 643.33 486.912 699.597 494.616 704.986C502.319 710.374 525.982 726.764 537.537 723.69C549.093 720.615 569.319 644.159 569.319 644.159L544.619 631.828Z" fill="#455A64"/>
<path d="M283.874 550.587L263.424 613.141C263.424 613.141 220.761 713.154 226.806 736.452C239.346 741.633 297.623 774.81 333.895 762.945C346.243 758.978 357.674 752.587 367.521 744.147C377.367 735.707 385.431 725.388 391.24 713.793V702.637L455.32 597.753L446.321 579.601L420.413 563.505L407.994 562.296C401.468 561.654 395.279 559.093 390.207 554.938C385.135 550.782 381.407 545.218 379.494 538.947L377.663 532.919L346.055 508.05L283.874 550.587Z" fill="#455A64"/>
<path d="M310.474 423.355C310.474 423.355 223.318 449.261 213.749 457.015C204.18 464.77 194.749 475.132 199.085 490.658C203.42 506.184 283.287 557.581 283.287 557.581L351.047 512.488C351.047 512.488 338.231 499.414 322.617 494.112C312.771 490.779 266.568 479.709 266.568 479.709L323.342 456.393L310.474 423.355Z" fill="#455A64"/>
<path d="M391.102 700.184C390.787 700.44 390.446 700.66 390.083 700.84L387.06 702.568C385.747 703.327 384.141 704.208 382.224 705.141C380.306 706.073 378.147 707.248 375.677 708.336C373.208 709.424 370.496 710.685 367.594 711.79C364.692 712.895 361.497 714.156 358.146 715.382C343.542 720.517 328.39 723.936 312.996 725.572C309.438 725.9 306.087 726.245 302.909 726.366C299.731 726.487 296.794 726.643 294.1 726.677C291.406 726.712 288.918 726.677 286.828 726.677C284.738 726.677 282.856 726.539 281.353 726.418L277.898 726.176C277.491 726.168 277.086 726.116 276.689 726.021C277.091 725.972 277.497 725.972 277.898 726.021L281.353 726.107C282.856 726.107 284.687 726.228 286.828 726.211C288.97 726.194 291.388 726.211 294.065 726.211C296.743 726.211 299.696 726.055 302.84 725.796C305.983 725.537 309.352 725.261 312.892 724.916C320.549 723.966 328.153 722.629 335.675 720.909C343.654 719.078 351.22 716.868 357.87 714.605C361.221 713.413 364.399 712.308 367.318 711.151C370.237 709.994 372.966 708.837 375.418 707.697C377.871 706.557 380.065 705.555 381.999 704.64C383.934 703.725 385.575 702.913 386.905 702.205L389.996 700.65C390.349 700.459 390.719 700.303 391.102 700.184Z" fill="#263238"/>
<path d="M435.354 624.868C435.171 625.266 434.945 625.642 434.68 625.99L432.573 629.099C431.657 630.463 430.517 632.087 429.118 633.917C427.719 635.748 426.165 637.907 424.265 640.135C422.365 642.363 420.378 644.85 418.047 647.371C415.715 649.893 413.193 652.552 410.499 655.333C398.588 667.164 385.242 677.457 370.772 685.971C367.421 687.87 364.243 689.736 361.169 691.255C358.094 692.775 355.244 694.226 352.532 695.452C349.821 696.678 347.437 697.663 345.295 698.561C343.154 699.459 341.288 700.167 339.751 700.72L336.21 701.963C335.804 702.132 335.381 702.259 334.949 702.343C335.324 702.115 335.724 701.929 336.141 701.79L339.595 700.392C341.115 699.804 342.964 699.062 345.071 698.112C347.178 697.162 349.631 696.178 352.222 694.865C354.812 693.552 357.731 692.24 360.737 690.599C363.742 688.958 366.938 687.145 370.271 685.245C384.618 676.682 397.89 666.438 409.808 654.728C412.502 652 415.11 649.443 417.39 646.87C419.67 644.297 421.795 641.948 423.677 639.72C425.56 637.492 427.132 635.42 428.617 633.624C430.103 631.828 431.26 630.17 432.21 628.892C433.16 627.614 433.937 626.646 434.455 625.887C434.73 625.525 435.03 625.185 435.354 624.868Z" fill="#263238"/>
<path d="M270.973 528.774C272.128 529.96 273.126 531.289 273.943 532.729C276.073 536.114 277.811 539.73 279.125 543.506C280.442 547.284 281.317 551.202 281.733 555.181C281.988 556.815 282.029 558.476 281.854 560.12C281.525 558.516 281.277 556.897 281.112 555.267C280.503 551.368 279.55 547.53 278.262 543.8C276.951 540.085 275.322 536.491 273.391 533.058C272.5 531.68 271.692 530.249 270.973 528.774Z" fill="#263238"/>
<path d="M453.127 630.204C453.127 630.342 451.158 630.964 447.945 632.259C439.796 635.629 432.394 640.577 426.165 646.818C423.781 649.202 422.434 650.825 422.313 650.721C422.192 650.618 422.555 650.255 423.125 649.478C423.927 648.402 424.786 647.37 425.699 646.387C431.783 639.797 439.35 634.753 447.773 631.672C449.034 631.199 450.32 630.796 451.625 630.463C452.107 630.29 452.615 630.203 453.127 630.204Z" fill="#263238"/>
<path d="M530.179 654.797C529.548 656.342 528.779 657.828 527.882 659.236C526.362 661.913 524.203 665.591 521.785 669.598C519.367 673.605 517.121 677.266 515.463 679.857C514.645 681.313 513.69 682.69 512.613 683.967C513.252 682.422 514.026 680.937 514.928 679.529C516.448 676.834 518.589 673.173 521.007 669.166C523.426 665.159 525.671 661.515 527.329 658.908C528.153 657.454 529.107 656.078 530.179 654.797Z" fill="#263238"/>
<path d="M527.427 417.213V426.804C527.427 435.197 517.28 439.401 511.344 433.468L499.343 421.473C496.437 418.568 492.495 416.936 488.386 416.936H287C278.992 416.936 272.5 410.444 272.5 402.436V227C272.5 218.992 278.992 212.5 287 212.5H512.751C520.759 212.5 527.251 218.992 527.251 227V416.794C527.251 416.958 527.318 417.107 527.427 417.213Z" fill="white" stroke="#DADADB"/>
<path d="M528.032 234.589C528.032 234.779 470.773 234.941 400.163 234.941C329.553 234.941 272.294 234.779 272.294 234.589C272.294 234.4 329.526 234.238 400.163 234.238C470.8 234.238 528.032 234.387 528.032 234.589Z" fill="#DADADB"/>
<path d="M287.133 223.499C287.13 224.135 286.939 224.756 286.584 225.283C286.229 225.811 285.725 226.221 285.136 226.463C284.548 226.705 283.901 226.766 283.277 226.641C282.654 226.515 282.081 226.207 281.633 225.757C281.184 225.306 280.878 224.732 280.755 224.108C280.632 223.484 280.697 222.838 280.941 222.25C281.185 221.663 281.597 221.161 282.127 220.808C282.656 220.455 283.278 220.266 283.914 220.266C284.338 220.266 284.757 220.35 285.149 220.512C285.54 220.675 285.896 220.913 286.195 221.214C286.494 221.514 286.731 221.871 286.892 222.263C287.053 222.655 287.135 223.075 287.133 223.499Z" fill="#3C3B41"/>
<path d="M296.67 223.499C296.67 224.139 296.48 224.764 296.124 225.296C295.768 225.828 295.263 226.242 294.671 226.486C294.08 226.731 293.429 226.794 292.801 226.668C292.174 226.542 291.598 226.233 291.146 225.78C290.695 225.326 290.388 224.749 290.265 224.121C290.141 223.493 290.207 222.843 290.454 222.252C290.701 221.662 291.117 221.158 291.651 220.804C292.184 220.451 292.811 220.263 293.451 220.266C294.306 220.27 295.124 220.612 295.728 221.218C296.331 221.824 296.67 222.644 296.67 223.499Z" fill="#3C3B41"/>
<path d="M306.206 223.499C306.206 224.138 306.016 224.763 305.661 225.295C305.306 225.826 304.801 226.24 304.21 226.485C303.619 226.73 302.969 226.794 302.342 226.669C301.715 226.544 301.139 226.237 300.687 225.784C300.235 225.332 299.927 224.756 299.802 224.129C299.677 223.502 299.741 222.852 299.986 222.262C300.231 221.671 300.645 221.166 301.177 220.811C301.708 220.456 302.333 220.266 302.973 220.266C303.83 220.266 304.653 220.607 305.259 221.213C305.865 221.819 306.206 222.641 306.206 223.499Z" fill="#3C3B41"/>
<g clip-path="url(#clip2_44_21373)">
<path d="M502 245H292C289.239 245 287 247.239 287 250V281C287 283.761 289.239 286 292 286H502C504.761 286 507 283.761 507 281V250C507 247.239 504.761 245 502 245Z" fill="#FBFBFB"/>
<path d="M305.189 270.806C310.382 270.806 314.591 266.596 314.591 261.403C314.591 256.21 310.382 252 305.189 252C299.996 252 295.786 256.21 295.786 261.403C295.786 266.596 299.996 270.806 305.189 270.806Z" fill="#D4D4D4"/>
<path d="M325.676 253.341C325.692 253.302 325.72 253.268 325.755 253.244C325.791 253.22 325.832 253.208 325.875 253.208C325.918 253.208 325.96 253.22 325.995 253.244C326.031 253.268 326.058 253.302 326.074 253.341L326.889 255.3C326.904 255.337 326.929 255.369 326.961 255.392C326.994 255.416 327.032 255.43 327.071 255.433L329.186 255.602C329.378 255.617 329.455 255.856 329.309 255.981L327.698 257.362C327.668 257.387 327.645 257.421 327.633 257.459C327.621 257.496 327.619 257.537 327.628 257.575L328.121 259.639C328.131 259.681 328.128 259.724 328.113 259.764C328.098 259.804 328.072 259.839 328.038 259.864C328.003 259.889 327.962 259.903 327.92 259.905C327.877 259.906 327.835 259.895 327.799 259.873L325.987 258.767C325.954 258.747 325.915 258.736 325.875 258.736C325.835 258.736 325.797 258.747 325.763 258.767L323.952 259.874C323.915 259.896 323.873 259.907 323.831 259.905C323.788 259.903 323.747 259.889 323.712 259.864C323.678 259.839 323.652 259.805 323.637 259.765C323.622 259.725 323.62 259.681 323.63 259.64L324.122 257.575C324.131 257.537 324.13 257.496 324.117 257.459C324.105 257.421 324.083 257.387 324.052 257.362L322.441 255.981C322.409 255.953 322.385 255.916 322.374 255.875C322.362 255.834 322.363 255.791 322.376 255.751C322.389 255.71 322.414 255.674 322.448 255.648C322.481 255.622 322.521 255.606 322.564 255.602L324.679 255.433C324.719 255.43 324.757 255.416 324.789 255.392C324.821 255.369 324.846 255.337 324.861 255.3L325.676 253.342V253.341Z" fill="#FFC727"/>
<path d="M334.876 253.341C334.892 253.302 334.92 253.268 334.955 253.244C334.991 253.22 335.032 253.207 335.075 253.207C335.118 253.207 335.16 253.22 335.195 253.244C335.231 253.268 335.258 253.302 335.274 253.341L336.089 255.3C336.104 255.337 336.129 255.369 336.161 255.392C336.194 255.415 336.231 255.429 336.271 255.433L338.386 255.602C338.578 255.617 338.655 255.856 338.509 255.981L336.898 257.362C336.868 257.387 336.845 257.421 336.833 257.458C336.821 257.496 336.819 257.536 336.828 257.575L337.321 259.639C337.331 259.681 337.328 259.724 337.313 259.764C337.298 259.804 337.272 259.839 337.238 259.864C337.203 259.889 337.162 259.903 337.12 259.905C337.077 259.906 337.035 259.895 336.999 259.873L335.187 258.767C335.154 258.747 335.115 258.736 335.075 258.736C335.035 258.736 334.997 258.747 334.963 258.767L333.151 259.873C333.115 259.896 333.073 259.907 333.031 259.905C332.988 259.903 332.947 259.889 332.912 259.864C332.878 259.839 332.852 259.804 332.837 259.764C332.822 259.724 332.82 259.681 332.829 259.64L333.322 257.575C333.331 257.536 333.33 257.496 333.317 257.458C333.305 257.421 333.282 257.387 333.252 257.362L331.641 255.981C331.609 255.953 331.585 255.916 331.574 255.875C331.562 255.834 331.563 255.791 331.576 255.75C331.589 255.71 331.614 255.674 331.648 255.648C331.681 255.621 331.721 255.605 331.764 255.602L333.879 255.433C333.919 255.429 333.957 255.415 333.989 255.392C334.021 255.369 334.046 255.337 334.061 255.3L334.876 253.341V253.341Z" fill="#FFC727"/>
<path d="M344.076 253.341C344.092 253.302 344.12 253.268 344.155 253.244C344.191 253.22 344.232 253.207 344.275 253.207C344.318 253.207 344.36 253.22 344.395 253.244C344.431 253.268 344.458 253.302 344.474 253.341L345.289 255.3C345.304 255.337 345.329 255.369 345.361 255.392C345.394 255.415 345.432 255.429 345.471 255.433L347.586 255.602C347.778 255.617 347.855 255.856 347.709 255.981L346.098 257.362C346.068 257.387 346.045 257.421 346.033 257.458C346.021 257.496 346.019 257.536 346.028 257.575L346.521 259.639C346.531 259.681 346.528 259.724 346.513 259.764C346.498 259.804 346.472 259.839 346.438 259.864C346.403 259.889 346.362 259.903 346.32 259.905C346.277 259.906 346.235 259.895 346.199 259.873L344.387 258.767C344.354 258.747 344.315 258.736 344.275 258.736C344.236 258.736 344.197 258.747 344.163 258.767L342.352 259.873C342.315 259.896 342.273 259.907 342.231 259.905C342.188 259.903 342.147 259.889 342.113 259.864C342.078 259.839 342.052 259.804 342.037 259.764C342.022 259.724 342.02 259.681 342.03 259.64L342.522 257.575C342.531 257.536 342.53 257.496 342.517 257.458C342.505 257.421 342.483 257.387 342.452 257.362L340.841 255.981C340.809 255.953 340.785 255.916 340.774 255.875C340.762 255.834 340.763 255.791 340.776 255.75C340.789 255.71 340.814 255.674 340.848 255.648C340.881 255.621 340.921 255.605 340.964 255.602L343.079 255.433C343.119 255.429 343.157 255.415 343.189 255.392C343.221 255.369 343.246 255.337 343.261 255.3L344.076 253.341V253.341Z" fill="#FFC727"/>
<path d="M353.276 253.341C353.292 253.302 353.32 253.268 353.355 253.244C353.391 253.22 353.433 253.207 353.475 253.207C353.518 253.207 353.56 253.22 353.595 253.244C353.631 253.268 353.658 253.302 353.675 253.341L354.489 255.3C354.504 255.337 354.53 255.369 354.562 255.392C354.594 255.415 354.632 255.429 354.671 255.433L356.787 255.602C356.978 255.617 357.055 255.856 356.91 255.981L355.298 257.362C355.268 257.387 355.246 257.421 355.233 257.458C355.221 257.496 355.219 257.536 355.228 257.575L355.721 259.639C355.731 259.681 355.728 259.724 355.713 259.764C355.699 259.804 355.672 259.839 355.638 259.864C355.604 259.889 355.562 259.903 355.52 259.905C355.477 259.906 355.435 259.895 355.399 259.873L353.588 258.767C353.554 258.747 353.515 258.736 353.475 258.736C353.436 258.736 353.397 258.747 353.363 258.767L351.552 259.873C351.515 259.896 351.473 259.907 351.431 259.905C351.388 259.903 351.347 259.889 351.313 259.864C351.278 259.839 351.252 259.804 351.237 259.764C351.222 259.724 351.22 259.681 351.23 259.64L351.722 257.575C351.731 257.536 351.73 257.496 351.717 257.458C351.705 257.421 351.683 257.387 351.653 257.362L350.041 255.981C350.009 255.953 349.985 255.916 349.974 255.875C349.962 255.834 349.963 255.791 349.977 255.75C349.99 255.71 350.014 255.674 350.048 255.648C350.081 255.621 350.122 255.605 350.164 255.602L352.279 255.433C352.319 255.429 352.357 255.415 352.389 255.392C352.421 255.369 352.446 255.337 352.461 255.3L353.276 253.341V253.341Z" fill="#C2C2C2"/>
<path d="M362.476 253.341C362.492 253.302 362.52 253.268 362.555 253.244C362.591 253.22 362.633 253.207 362.675 253.207C362.718 253.207 362.76 253.22 362.795 253.244C362.831 253.268 362.859 253.302 362.875 253.341L363.689 255.3C363.705 255.337 363.73 255.369 363.762 255.392C363.794 255.415 363.832 255.429 363.871 255.433L365.987 255.602C366.178 255.617 366.255 255.856 366.11 255.981L364.498 257.362C364.468 257.387 364.446 257.421 364.433 257.458C364.421 257.496 364.419 257.536 364.428 257.575L364.921 259.639C364.931 259.681 364.928 259.724 364.914 259.764C364.899 259.804 364.872 259.839 364.838 259.864C364.804 259.889 364.762 259.903 364.72 259.905C364.677 259.906 364.635 259.895 364.599 259.873L362.788 258.767C362.754 258.747 362.715 258.736 362.675 258.736C362.636 258.736 362.597 258.747 362.563 258.767L360.752 259.873C360.716 259.896 360.673 259.907 360.631 259.905C360.588 259.903 360.547 259.889 360.513 259.864C360.478 259.839 360.452 259.804 360.437 259.764C360.423 259.724 360.42 259.681 360.43 259.64L360.922 257.575C360.932 257.536 360.93 257.496 360.918 257.458C360.905 257.421 360.883 257.387 360.853 257.362L359.241 255.981C359.209 255.953 359.186 255.916 359.174 255.875C359.163 255.834 359.163 255.791 359.177 255.75C359.19 255.71 359.215 255.674 359.248 255.648C359.281 255.621 359.322 255.605 359.364 255.602L361.479 255.433C361.519 255.429 361.557 255.415 361.589 255.392C361.621 255.369 361.646 255.337 361.661 255.3L362.476 253.341V253.341Z" fill="#C2C2C2"/>
<path d="M494.775 264.2H323.775C322.394 264.2 321.275 265.319 321.275 266.7C321.275 268.081 322.394 269.2 323.775 269.2H494.775C496.156 269.2 497.275 268.081 497.275 266.7C497.275 265.319 496.156 264.2 494.775 264.2Z" fill="#D5D5D5"/>
<path d="M443.275 272.2H324.275C322.618 272.2 321.275 273.543 321.275 275.2C321.275 276.857 322.618 278.2 324.275 278.2H443.275C444.932 278.2 446.275 276.857 446.275 275.2C446.275 273.543 444.932 272.2 443.275 272.2Z" fill="#D5D5D5"/>
<path d="M502 290H292C289.239 290 287 292.239 287 295V324C287 326.761 289.239 329 292 329H502C504.761 329 507 326.761 507 324V295C507 292.239 504.761 290 502 290Z" fill="#FBFBFB"/>
<path d="M305.189 315.806C310.382 315.806 314.591 311.596 314.591 306.403C314.591 301.21 310.382 297 305.189 297C299.996 297 295.786 301.21 295.786 306.403C295.786 311.596 299.996 315.806 305.189 315.806Z" fill="#D4D4D4"/>
<path d="M325.676 298.341C325.692 298.302 325.72 298.268 325.755 298.244C325.791 298.22 325.832 298.208 325.875 298.208C325.918 298.208 325.96 298.22 325.995 298.244C326.031 298.268 326.058 298.302 326.074 298.341L326.889 300.3C326.904 300.337 326.929 300.369 326.961 300.392C326.994 300.416 327.032 300.43 327.071 300.433L329.186 300.602C329.378 300.617 329.455 300.856 329.309 300.981L327.698 302.362C327.668 302.387 327.645 302.421 327.633 302.459C327.621 302.496 327.619 302.537 327.628 302.575L328.121 304.639C328.131 304.681 328.128 304.724 328.113 304.764C328.098 304.804 328.072 304.839 328.038 304.864C328.003 304.889 327.962 304.903 327.92 304.905C327.877 304.906 327.835 304.895 327.799 304.873L325.987 303.767C325.954 303.747 325.915 303.736 325.875 303.736C325.835 303.736 325.797 303.747 325.763 303.767L323.952 304.874C323.915 304.896 323.873 304.907 323.831 304.905C323.788 304.903 323.747 304.889 323.712 304.864C323.678 304.839 323.652 304.805 323.637 304.765C323.622 304.725 323.62 304.681 323.63 304.64L324.122 302.575C324.131 302.537 324.13 302.496 324.117 302.459C324.105 302.421 324.083 302.387 324.052 302.362L322.441 300.981C322.409 300.953 322.385 300.916 322.374 300.875C322.362 300.834 322.363 300.791 322.376 300.751C322.389 300.71 322.414 300.674 322.448 300.648C322.481 300.622 322.521 300.606 322.564 300.602L324.679 300.433C324.719 300.43 324.757 300.416 324.789 300.392C324.821 300.369 324.846 300.337 324.861 300.3L325.676 298.342V298.341Z" fill="#FFC727"/>
<path d="M334.876 298.341C334.892 298.302 334.92 298.268 334.955 298.244C334.991 298.22 335.032 298.207 335.075 298.207C335.118 298.207 335.16 298.22 335.195 298.244C335.231 298.268 335.258 298.302 335.274 298.341L336.089 300.3C336.104 300.337 336.129 300.369 336.161 300.392C336.194 300.415 336.231 300.429 336.271 300.433L338.386 300.602C338.578 300.617 338.655 300.856 338.509 300.981L336.898 302.362C336.868 302.387 336.845 302.421 336.833 302.458C336.821 302.496 336.819 302.536 336.828 302.575L337.321 304.639C337.331 304.681 337.328 304.724 337.313 304.764C337.298 304.804 337.272 304.839 337.238 304.864C337.203 304.889 337.162 304.903 337.12 304.905C337.077 304.906 337.035 304.895 336.999 304.873L335.187 303.767C335.154 303.747 335.115 303.736 335.075 303.736C335.035 303.736 334.997 303.747 334.963 303.767L333.151 304.873C333.115 304.896 333.073 304.907 333.031 304.905C332.988 304.903 332.947 304.889 332.912 304.864C332.878 304.839 332.852 304.804 332.837 304.764C332.822 304.724 332.82 304.681 332.829 304.64L333.322 302.575C333.331 302.536 333.33 302.496 333.317 302.458C333.305 302.421 333.282 302.387 333.252 302.362L331.641 300.981C331.609 300.953 331.585 300.916 331.574 300.875C331.562 300.834 331.563 300.791 331.576 300.75C331.589 300.71 331.614 300.674 331.648 300.648C331.681 300.621 331.721 300.605 331.764 300.602L333.879 300.433C333.919 300.429 333.957 300.415 333.989 300.392C334.021 300.369 334.046 300.337 334.061 300.3L334.876 298.341V298.341Z" fill="#FFC727"/>
<path d="M344.076 298.341C344.092 298.302 344.12 298.268 344.155 298.244C344.191 298.22 344.232 298.207 344.275 298.207C344.318 298.207 344.36 298.22 344.395 298.244C344.431 298.268 344.458 298.302 344.474 298.341L345.289 300.3C345.304 300.337 345.329 300.369 345.361 300.392C345.394 300.415 345.432 300.429 345.471 300.433L347.586 300.602C347.778 300.617 347.855 300.856 347.709 300.981L346.098 302.362C346.068 302.387 346.045 302.421 346.033 302.458C346.021 302.496 346.019 302.536 346.028 302.575L346.521 304.639C346.531 304.681 346.528 304.724 346.513 304.764C346.498 304.804 346.472 304.839 346.438 304.864C346.403 304.889 346.362 304.903 346.32 304.905C346.277 304.906 346.235 304.895 346.199 304.873L344.387 303.767C344.354 303.747 344.315 303.736 344.275 303.736C344.236 303.736 344.197 303.747 344.163 303.767L342.352 304.873C342.315 304.896 342.273 304.907 342.231 304.905C342.188 304.903 342.147 304.889 342.113 304.864C342.078 304.839 342.052 304.804 342.037 304.764C342.022 304.724 342.02 304.681 342.03 304.64L342.522 302.575C342.531 302.536 342.53 302.496 342.517 302.458C342.505 302.421 342.483 302.387 342.452 302.362L340.841 300.981C340.809 300.953 340.785 300.916 340.774 300.875C340.762 300.834 340.763 300.791 340.776 300.75C340.789 300.71 340.814 300.674 340.848 300.648C340.881 300.621 340.921 300.605 340.964 300.602L343.079 300.433C343.119 300.429 343.157 300.415 343.189 300.392C343.221 300.369 343.246 300.337 343.261 300.3L344.076 298.341V298.341Z" fill="#C2C2C2"/>
<path d="M353.276 298.341C353.292 298.302 353.32 298.268 353.355 298.244C353.391 298.22 353.433 298.207 353.475 298.207C353.518 298.207 353.56 298.22 353.595 298.244C353.631 298.268 353.658 298.302 353.675 298.341L354.489 300.3C354.504 300.337 354.53 300.369 354.562 300.392C354.594 300.415 354.632 300.429 354.671 300.433L356.787 300.602C356.978 300.617 357.055 300.856 356.91 300.981L355.298 302.362C355.268 302.387 355.246 302.421 355.233 302.458C355.221 302.496 355.219 302.536 355.228 302.575L355.721 304.639C355.731 304.681 355.728 304.724 355.713 304.764C355.699 304.804 355.672 304.839 355.638 304.864C355.604 304.889 355.562 304.903 355.52 304.905C355.477 304.906 355.435 304.895 355.399 304.873L353.588 303.767C353.554 303.747 353.515 303.736 353.475 303.736C353.436 303.736 353.397 303.747 353.363 303.767L351.552 304.873C351.515 304.896 351.473 304.907 351.431 304.905C351.388 304.903 351.347 304.889 351.313 304.864C351.278 304.839 351.252 304.804 351.237 304.764C351.222 304.724 351.22 304.681 351.23 304.64L351.722 302.575C351.731 302.536 351.73 302.496 351.717 302.458C351.705 302.421 351.683 302.387 351.653 302.362L350.041 300.981C350.009 300.953 349.985 300.916 349.974 300.875C349.962 300.834 349.963 300.791 349.977 300.75C349.99 300.71 350.014 300.674 350.048 300.648C350.081 300.621 350.122 300.605 350.164 300.602L352.279 300.433C352.319 300.429 352.357 300.415 352.389 300.392C352.421 300.369 352.446 300.337 352.461 300.3L353.276 298.341V298.341Z" fill="#C2C2C2"/>
<path d="M362.476 298.341C362.492 298.302 362.52 298.268 362.555 298.244C362.591 298.22 362.633 298.207 362.675 298.207C362.718 298.207 362.76 298.22 362.795 298.244C362.831 298.268 362.859 298.302 362.875 298.341L363.689 300.3C363.705 300.337 363.73 300.369 363.762 300.392C363.794 300.415 363.832 300.429 363.871 300.433L365.987 300.602C366.178 300.617 366.255 300.856 366.11 300.981L364.498 302.362C364.468 302.387 364.446 302.421 364.433 302.458C364.421 302.496 364.419 302.536 364.428 302.575L364.921 304.639C364.931 304.681 364.928 304.724 364.914 304.764C364.899 304.804 364.872 304.839 364.838 304.864C364.804 304.889 364.762 304.903 364.72 304.905C364.677 304.906 364.635 304.895 364.599 304.873L362.788 303.767C362.754 303.747 362.715 303.736 362.675 303.736C362.636 303.736 362.597 303.747 362.563 303.767L360.752 304.873C360.716 304.896 360.673 304.907 360.631 304.905C360.588 304.903 360.547 304.889 360.513 304.864C360.478 304.839 360.452 304.804 360.437 304.764C360.423 304.724 360.42 304.681 360.43 304.64L360.922 302.575C360.932 302.536 360.93 302.496 360.918 302.458C360.905 302.421 360.883 302.387 360.853 302.362L359.241 300.981C359.209 300.953 359.186 300.916 359.174 300.875C359.163 300.834 359.163 300.791 359.177 300.75C359.19 300.71 359.215 300.674 359.248 300.648C359.281 300.621 359.322 300.605 359.364 300.602L361.479 300.433C361.519 300.429 361.557 300.415 361.589 300.392C361.621 300.369 361.646 300.337 361.661 300.3L362.476 298.341V298.341Z" fill="#C2C2C2"/>
<path d="M470.775 309.2H323.775C322.394 309.2 321.275 310.319 321.275 311.7C321.275 313.081 322.394 314.2 323.775 314.2H470.775C472.156 314.2 473.275 313.081 473.275 311.7C473.275 310.319 472.156 309.2 470.775 309.2Z" fill="#D5D5D5"/>
<path d="M494.275 317.2H324.275C322.618 317.2 321.275 318.543 321.275 320.2C321.275 321.857 322.618 323.2 324.275 323.2H494.275C495.932 323.2 497.275 321.857 497.275 320.2C497.275 318.543 495.932 317.2 494.275 317.2Z" fill="#D5D5D5"/>
<path d="M502 333H292C289.239 333 287 335.239 287 338V369C287 371.761 289.239 374 292 374H502C504.761 374 507 371.761 507 369V338C507 335.239 504.761 333 502 333Z" fill="#FBFBFB"/>
<path d="M305.189 358.806C310.382 358.806 314.591 354.596 314.591 349.403C314.591 344.21 310.382 340 305.189 340C299.996 340 295.786 344.21 295.786 349.403C295.786 354.596 299.996 358.806 305.189 358.806Z" fill="#D4D4D4"/>
<path d="M325.676 341.341C325.692 341.302 325.72 341.268 325.755 341.244C325.791 341.22 325.832 341.208 325.875 341.208C325.918 341.208 325.96 341.22 325.995 341.244C326.031 341.268 326.058 341.302 326.074 341.341L326.889 343.3C326.904 343.337 326.929 343.369 326.961 343.392C326.994 343.416 327.032 343.43 327.071 343.433L329.186 343.602C329.378 343.617 329.455 343.856 329.309 343.981L327.698 345.362C327.668 345.387 327.645 345.421 327.633 345.459C327.621 345.496 327.619 345.537 327.628 345.575L328.121 347.639C328.131 347.681 328.128 347.724 328.113 347.764C328.098 347.804 328.072 347.839 328.038 347.864C328.003 347.889 327.962 347.903 327.92 347.905C327.877 347.906 327.835 347.895 327.799 347.873L325.987 346.767C325.954 346.747 325.915 346.736 325.875 346.736C325.835 346.736 325.797 346.747 325.763 346.767L323.952 347.874C323.915 347.896 323.873 347.907 323.831 347.905C323.788 347.903 323.747 347.889 323.712 347.864C323.678 347.839 323.652 347.805 323.637 347.765C323.622 347.725 323.62 347.681 323.63 347.64L324.122 345.575C324.131 345.537 324.13 345.496 324.117 345.459C324.105 345.421 324.083 345.387 324.052 345.362L322.441 343.981C322.409 343.953 322.385 343.916 322.374 343.875C322.362 343.834 322.363 343.791 322.376 343.751C322.389 343.71 322.414 343.674 322.448 343.648C322.481 343.622 322.521 343.606 322.564 343.602L324.679 343.433C324.719 343.43 324.757 343.416 324.789 343.392C324.821 343.369 324.846 343.337 324.861 343.3L325.676 341.342V341.341Z" fill="#F74040"/>
<path d="M334.876 341.341C334.892 341.302 334.92 341.268 334.955 341.244C334.991 341.22 335.032 341.207 335.075 341.207C335.118 341.207 335.16 341.22 335.195 341.244C335.231 341.268 335.258 341.302 335.274 341.341L336.089 343.3C336.104 343.337 336.129 343.369 336.161 343.392C336.194 343.415 336.231 343.429 336.271 343.433L338.386 343.602C338.578 343.617 338.655 343.856 338.509 343.981L336.898 345.362C336.868 345.387 336.845 345.421 336.833 345.458C336.821 345.496 336.819 345.536 336.828 345.575L337.321 347.639C337.331 347.681 337.328 347.724 337.313 347.764C337.298 347.804 337.272 347.839 337.238 347.864C337.203 347.889 337.162 347.903 337.12 347.905C337.077 347.906 337.035 347.895 336.999 347.873L335.187 346.767C335.154 346.747 335.115 346.736 335.075 346.736C335.035 346.736 334.997 346.747 334.963 346.767L333.151 347.873C333.115 347.896 333.073 347.907 333.031 347.905C332.988 347.903 332.947 347.889 332.912 347.864C332.878 347.839 332.852 347.804 332.837 347.764C332.822 347.724 332.82 347.681 332.829 347.64L333.322 345.575C333.331 345.536 333.33 345.496 333.317 345.458C333.305 345.421 333.282 345.387 333.252 345.362L331.641 343.981C331.609 343.953 331.585 343.916 331.574 343.875C331.562 343.834 331.563 343.791 331.576 343.75C331.589 343.71 331.614 343.674 331.648 343.648C331.681 343.621 331.721 343.605 331.764 343.602L333.879 343.433C333.919 343.429 333.957 343.415 333.989 343.392C334.021 343.369 334.046 343.337 334.061 343.3L334.876 341.341V341.341Z" fill="#C2C2C2"/>
<path d="M344.076 341.341C344.092 341.302 344.12 341.268 344.155 341.244C344.191 341.22 344.232 341.207 344.275 341.207C344.318 341.207 344.36 341.22 344.395 341.244C344.431 341.268 344.458 341.302 344.474 341.341L345.289 343.3C345.304 343.337 345.329 343.369 345.361 343.392C345.394 343.415 345.432 343.429 345.471 343.433L347.586 343.602C347.778 343.617 347.855 343.856 347.709 343.981L346.098 345.362C346.068 345.387 346.045 345.421 346.033 345.458C346.021 345.496 346.019 345.536 346.028 345.575L346.521 347.639C346.531 347.681 346.528 347.724 346.513 347.764C346.498 347.804 346.472 347.839 346.438 347.864C346.403 347.889 346.362 347.903 346.32 347.905C346.277 347.906 346.235 347.895 346.199 347.873L344.387 346.767C344.354 346.747 344.315 346.736 344.275 346.736C344.236 346.736 344.197 346.747 344.163 346.767L342.352 347.873C342.315 347.896 342.273 347.907 342.231 347.905C342.188 347.903 342.147 347.889 342.113 347.864C342.078 347.839 342.052 347.804 342.037 347.764C342.022 347.724 342.02 347.681 342.03 347.64L342.522 345.575C342.531 345.536 342.53 345.496 342.517 345.458C342.505 345.421 342.483 345.387 342.452 345.362L340.841 343.981C340.809 343.953 340.785 343.916 340.774 343.875C340.762 343.834 340.763 343.791 340.776 343.75C340.789 343.71 340.814 343.674 340.848 343.648C340.881 343.621 340.921 343.605 340.964 343.602L343.079 343.433C343.119 343.429 343.157 343.415 343.189 343.392C343.221 343.369 343.246 343.337 343.261 343.3L344.076 341.341V341.341Z" fill="#C2C2C2"/>
<path d="M353.276 341.341C353.292 341.302 353.32 341.268 353.355 341.244C353.391 341.22 353.433 341.207 353.475 341.207C353.518 341.207 353.56 341.22 353.595 341.244C353.631 341.268 353.658 341.302 353.675 341.341L354.489 343.3C354.504 343.337 354.53 343.369 354.562 343.392C354.594 343.415 354.632 343.429 354.671 343.433L356.787 343.602C356.978 343.617 357.055 343.856 356.91 343.981L355.298 345.362C355.268 345.387 355.246 345.421 355.233 345.458C355.221 345.496 355.219 345.536 355.228 345.575L355.721 347.639C355.731 347.681 355.728 347.724 355.713 347.764C355.699 347.804 355.672 347.839 355.638 347.864C355.604 347.889 355.562 347.903 355.52 347.905C355.477 347.906 355.435 347.895 355.399 347.873L353.588 346.767C353.554 346.747 353.515 346.736 353.475 346.736C353.436 346.736 353.397 346.747 353.363 346.767L351.552 347.873C351.515 347.896 351.473 347.907 351.431 347.905C351.388 347.903 351.347 347.889 351.313 347.864C351.278 347.839 351.252 347.804 351.237 347.764C351.222 347.724 351.22 347.681 351.23 347.64L351.722 345.575C351.731 345.536 351.73 345.496 351.717 345.458C351.705 345.421 351.683 345.387 351.653 345.362L350.041 343.981C350.009 343.953 349.985 343.916 349.974 343.875C349.962 343.834 349.963 343.791 349.977 343.75C349.99 343.71 350.014 343.674 350.048 343.648C350.081 343.621 350.122 343.605 350.164 343.602L352.279 343.433C352.319 343.429 352.357 343.415 352.389 343.392C352.421 343.369 352.446 343.337 352.461 343.3L353.276 341.341V341.341Z" fill="#C2C2C2"/>
<path d="M362.476 341.341C362.492 341.302 362.52 341.268 362.555 341.244C362.591 341.22 362.633 341.207 362.675 341.207C362.718 341.207 362.76 341.22 362.795 341.244C362.831 341.268 362.859 341.302 362.875 341.341L363.689 343.3C363.705 343.337 363.73 343.369 363.762 343.392C363.794 343.415 363.832 343.429 363.871 343.433L365.987 343.602C366.178 343.617 366.255 343.856 366.11 343.981L364.498 345.362C364.468 345.387 364.446 345.421 364.433 345.458C364.421 345.496 364.419 345.536 364.428 345.575L364.921 347.639C364.931 347.681 364.928 347.724 364.914 347.764C364.899 347.804 364.872 347.839 364.838 347.864C364.804 347.889 364.762 347.903 364.72 347.905C364.677 347.906 364.635 347.895 364.599 347.873L362.788 346.767C362.754 346.747 362.715 346.736 362.675 346.736C362.636 346.736 362.597 346.747 362.563 346.767L360.752 347.873C360.716 347.896 360.673 347.907 360.631 347.905C360.588 347.903 360.547 347.889 360.513 347.864C360.478 347.839 360.452 347.804 360.437 347.764C360.423 347.724 360.42 347.681 360.43 347.64L360.922 345.575C360.932 345.536 360.93 345.496 360.918 345.458C360.905 345.421 360.883 345.387 360.853 345.362L359.241 343.981C359.209 343.953 359.186 343.916 359.174 343.875C359.163 343.834 359.163 343.791 359.177 343.75C359.19 343.71 359.215 343.674 359.248 343.648C359.281 343.621 359.322 343.605 359.364 343.602L361.479 343.433C361.519 343.429 361.557 343.415 361.589 343.392C361.621 343.369 361.646 343.337 361.661 343.3L362.476 341.341V341.341Z" fill="#C2C2C2"/>
<path d="M494.775 352.2H323.775C322.394 352.2 321.275 353.319 321.275 354.7C321.275 356.081 322.394 357.2 323.775 357.2H494.775C496.156 357.2 497.275 356.081 497.275 354.7C497.275 353.319 496.156 352.2 494.775 352.2Z" fill="#D5D5D5"/>
<path d="M443.275 360.2H324.275C322.618 360.2 321.275 361.543 321.275 363.2C321.275 364.857 322.618 366.2 324.275 366.2H443.275C444.932 366.2 446.275 364.857 446.275 363.2C446.275 361.543 444.932 360.2 443.275 360.2Z" fill="#D5D5D5"/>
<path d="M502 378H292C289.239 378 287 380.239 287 383V414C287 416.761 289.239 419 292 419H502C504.761 419 507 416.761 507 414V383C507 380.239 504.761 378 502 378Z" fill="#FBFBFB"/>
<path d="M305.189 403.806C310.382 403.806 314.591 399.596 314.591 394.403C314.591 389.21 310.382 385 305.189 385C299.996 385 295.786 389.21 295.786 394.403C295.786 399.596 299.996 403.806 305.189 403.806Z" fill="#D4D4D4"/>
<path d="M325.676 386.341C325.692 386.302 325.72 386.268 325.755 386.244C325.791 386.22 325.832 386.208 325.875 386.208C325.918 386.208 325.96 386.22 325.995 386.244C326.031 386.268 326.058 386.302 326.074 386.341L326.889 388.3C326.904 388.337 326.929 388.369 326.961 388.392C326.994 388.416 327.032 388.43 327.071 388.433L329.186 388.602C329.378 388.617 329.455 388.856 329.309 388.981L327.698 390.362C327.668 390.387 327.645 390.421 327.633 390.459C327.621 390.496 327.619 390.537 327.628 390.575L328.121 392.639C328.131 392.681 328.128 392.724 328.113 392.764C328.098 392.804 328.072 392.839 328.038 392.864C328.003 392.889 327.962 392.903 327.92 392.905C327.877 392.906 327.835 392.895 327.799 392.873L325.987 391.767C325.954 391.747 325.915 391.736 325.875 391.736C325.835 391.736 325.797 391.747 325.763 391.767L323.952 392.874C323.915 392.896 323.873 392.907 323.831 392.905C323.788 392.903 323.747 392.889 323.712 392.864C323.678 392.839 323.652 392.805 323.637 392.765C323.622 392.725 323.62 392.681 323.63 392.64L324.122 390.575C324.131 390.537 324.13 390.496 324.117 390.459C324.105 390.421 324.083 390.387 324.052 390.362L322.441 388.981C322.409 388.953 322.385 388.916 322.374 388.875C322.362 388.834 322.363 388.791 322.376 388.751C322.389 388.71 322.414 388.674 322.448 388.648C322.481 388.622 322.521 388.606 322.564 388.602L324.679 388.433C324.719 388.43 324.757 388.416 324.789 388.392C324.821 388.369 324.846 388.337 324.861 388.3L325.676 386.342V386.341Z" fill="#F74040"/>
<path d="M334.876 386.341C334.892 386.302 334.92 386.268 334.955 386.244C334.991 386.22 335.032 386.207 335.075 386.207C335.118 386.207 335.16 386.22 335.195 386.244C335.231 386.268 335.258 386.302 335.274 386.341L336.089 388.3C336.104 388.337 336.129 388.369 336.161 388.392C336.194 388.415 336.231 388.429 336.271 388.433L338.386 388.602C338.578 388.617 338.655 388.856 338.509 388.981L336.898 390.362C336.868 390.387 336.845 390.421 336.833 390.458C336.821 390.496 336.819 390.536 336.828 390.575L337.321 392.639C337.331 392.681 337.328 392.724 337.313 392.764C337.298 392.804 337.272 392.839 337.238 392.864C337.203 392.889 337.162 392.903 337.12 392.905C337.077 392.906 337.035 392.895 336.999 392.873L335.187 391.767C335.154 391.747 335.115 391.736 335.075 391.736C335.035 391.736 334.997 391.747 334.963 391.767L333.151 392.873C333.115 392.896 333.073 392.907 333.031 392.905C332.988 392.903 332.947 392.889 332.912 392.864C332.878 392.839 332.852 392.804 332.837 392.764C332.822 392.724 332.82 392.681 332.829 392.64L333.322 390.575C333.331 390.536 333.33 390.496 333.317 390.458C333.305 390.421 333.282 390.387 333.252 390.362L331.641 388.981C331.609 388.953 331.585 388.916 331.574 388.875C331.562 388.834 331.563 388.791 331.576 388.75C331.589 388.71 331.614 388.674 331.648 388.648C331.681 388.621 331.721 388.605 331.764 388.602L333.879 388.433C333.919 388.429 333.957 388.415 333.989 388.392C334.021 388.369 334.046 388.337 334.061 388.3L334.876 386.341V386.341Z" fill="#C2C2C2"/>
<path d="M344.076 386.341C344.092 386.302 344.12 386.268 344.155 386.244C344.191 386.22 344.232 386.207 344.275 386.207C344.318 386.207 344.36 386.22 344.395 386.244C344.431 386.268 344.458 386.302 344.474 386.341L345.289 388.3C345.304 388.337 345.329 388.369 345.361 388.392C345.394 388.415 345.432 388.429 345.471 388.433L347.586 388.602C347.778 388.617 347.855 388.856 347.709 388.981L346.098 390.362C346.068 390.387 346.045 390.421 346.033 390.458C346.021 390.496 346.019 390.536 346.028 390.575L346.521 392.639C346.531 392.681 346.528 392.724 346.513 392.764C346.498 392.804 346.472 392.839 346.438 392.864C346.403 392.889 346.362 392.903 346.32 392.905C346.277 392.906 346.235 392.895 346.199 392.873L344.387 391.767C344.354 391.747 344.315 391.736 344.275 391.736C344.236 391.736 344.197 391.747 344.163 391.767L342.352 392.873C342.315 392.896 342.273 392.907 342.231 392.905C342.188 392.903 342.147 392.889 342.113 392.864C342.078 392.839 342.052 392.804 342.037 392.764C342.022 392.724 342.02 392.681 342.03 392.64L342.522 390.575C342.531 390.536 342.53 390.496 342.517 390.458C342.505 390.421 342.483 390.387 342.452 390.362L340.841 388.981C340.809 388.953 340.785 388.916 340.774 388.875C340.762 388.834 340.763 388.791 340.776 388.75C340.789 388.71 340.814 388.674 340.848 388.648C340.881 388.621 340.921 388.605 340.964 388.602L343.079 388.433C343.119 388.429 343.157 388.415 343.189 388.392C343.221 388.369 343.246 388.337 343.261 388.3L344.076 386.341V386.341Z" fill="#C2C2C2"/>
<path d="M353.276 386.341C353.292 386.302 353.32 386.268 353.355 386.244C353.391 386.22 353.433 386.207 353.475 386.207C353.518 386.207 353.56 386.22 353.595 386.244C353.631 386.268 353.658 386.302 353.675 386.341L354.489 388.3C354.504 388.337 354.53 388.369 354.562 388.392C354.594 388.415 354.632 388.429 354.671 388.433L356.787 388.602C356.978 388.617 357.055 388.856 356.91 388.981L355.298 390.362C355.268 390.387 355.246 390.421 355.233 390.458C355.221 390.496 355.219 390.536 355.228 390.575L355.721 392.639C355.731 392.681 355.728 392.724 355.713 392.764C355.699 392.804 355.672 392.839 355.638 392.864C355.604 392.889 355.562 392.903 355.52 392.905C355.477 392.906 355.435 392.895 355.399 392.873L353.588 391.767C353.554 391.747 353.515 391.736 353.475 391.736C353.436 391.736 353.397 391.747 353.363 391.767L351.552 392.873C351.515 392.896 351.473 392.907 351.431 392.905C351.388 392.903 351.347 392.889 351.313 392.864C351.278 392.839 351.252 392.804 351.237 392.764C351.222 392.724 351.22 392.681 351.23 392.64L351.722 390.575C351.731 390.536 351.73 390.496 351.717 390.458C351.705 390.421 351.683 390.387 351.653 390.362L350.041 388.981C350.009 388.953 349.985 388.916 349.974 388.875C349.962 388.834 349.963 388.791 349.977 388.75C349.99 388.71 350.014 388.674 350.048 388.648C350.081 388.621 350.122 388.605 350.164 388.602L352.279 388.433C352.319 388.429 352.357 388.415 352.389 388.392C352.421 388.369 352.446 388.337 352.461 388.3L353.276 386.341V386.341Z" fill="#C2C2C2"/>
<path d="M362.476 386.341C362.492 386.302 362.52 386.268 362.555 386.244C362.591 386.22 362.633 386.207 362.675 386.207C362.718 386.207 362.76 386.22 362.795 386.244C362.831 386.268 362.859 386.302 362.875 386.341L363.689 388.3C363.705 388.337 363.73 388.369 363.762 388.392C363.794 388.415 363.832 388.429 363.871 388.433L365.987 388.602C366.178 388.617 366.255 388.856 366.11 388.981L364.498 390.362C364.468 390.387 364.446 390.421 364.433 390.458C364.421 390.496 364.419 390.536 364.428 390.575L364.921 392.639C364.931 392.681 364.928 392.724 364.914 392.764C364.899 392.804 364.872 392.839 364.838 392.864C364.804 392.889 364.762 392.903 364.72 392.905C364.677 392.906 364.635 392.895 364.599 392.873L362.788 391.767C362.754 391.747 362.715 391.736 362.675 391.736C362.636 391.736 362.597 391.747 362.563 391.767L360.752 392.873C360.716 392.896 360.673 392.907 360.631 392.905C360.588 392.903 360.547 392.889 360.513 392.864C360.478 392.839 360.452 392.804 360.437 392.764C360.423 392.724 360.42 392.681 360.43 392.64L360.922 390.575C360.932 390.536 360.93 390.496 360.918 390.458C360.905 390.421 360.883 390.387 360.853 390.362L359.241 388.981C359.209 388.953 359.186 388.916 359.174 388.875C359.163 388.834 359.163 388.791 359.177 388.75C359.19 388.71 359.215 388.674 359.248 388.648C359.281 388.621 359.322 388.605 359.364 388.602L361.479 388.433C361.519 388.429 361.557 388.415 361.589 388.392C361.621 388.369 361.646 388.337 361.661 388.3L362.476 386.341V386.341Z" fill="#C2C2C2"/>
<path d="M494.775 397.2H323.775C322.394 397.2 321.275 398.319 321.275 399.7C321.275 401.081 322.394 402.2 323.775 402.2H494.775C496.156 402.2 497.275 401.081 497.275 399.7C497.275 398.319 496.156 397.2 494.775 397.2Z" fill="#D5D5D5"/>
<path d="M443.275 405.2H324.275C322.618 405.2 321.275 406.543 321.275 408.2C321.275 409.857 322.618 411.2 324.275 411.2H443.275C444.932 411.2 446.275 409.857 446.275 408.2C446.275 406.543 444.932 405.2 443.275 405.2Z" fill="#D5D5D5"/>
</g>
<path d="M199.02 336H99C90.7157 336 84 342.716 84 351V438.048C84 446.333 90.7157 453.048 99 453.048H199.02C207.304 453.048 214.02 446.333 214.02 438.048V351C214.02 342.716 207.304 336 199.02 336Z" fill="#DEDEDE"/>
<path d="M203.02 331H103C94.7157 331 88 337.716 88 346V433.048C88 441.333 94.7157 448.048 103 448.048H203.02C211.304 448.048 218.02 441.333 218.02 433.048V346C218.02 337.716 211.304 331 203.02 331Z" fill="white"/>
<path d="M103 331.5H203.02C211.028 331.5 217.52 337.992 217.52 346V433.048C217.52 441.056 211.028 447.548 203.02 447.548H103C94.9919 447.548 88.5 441.056 88.5 433.048V346C88.5 337.992 94.9919 331.5 103 331.5Z" stroke="#2D2E2F" stroke-opacity="0.05"/>
<path d="M217.289 353.222C217.289 353.411 188.626 353.574 153.294 353.574C117.962 353.574 89.285 353.411 89.285 353.222C89.285 353.033 117.935 352.87 153.294 352.87C188.653 352.87 217.289 353.019 217.289 353.222Z" fill="#DADADB"/>
<path d="M102.5 344.498C102.5 345.135 102.311 345.757 101.958 346.287C101.604 346.816 101.101 347.229 100.513 347.472C99.9246 347.716 99.2773 347.78 98.6528 347.655C98.0283 347.531 97.4547 347.225 97.0045 346.775C96.5542 346.324 96.2476 345.751 96.1234 345.126C95.9992 344.502 96.0629 343.855 96.3066 343.266C96.5503 342.678 96.9629 342.176 97.4923 341.822C98.0217 341.468 98.6442 341.279 99.2809 341.279C100.135 341.279 100.954 341.618 101.557 342.222C102.161 342.826 102.5 343.645 102.5 344.498Z" fill="#DADADB"/>
<path d="M112.037 344.498C112.04 345.139 111.852 345.766 111.498 346.299C111.144 346.833 110.639 347.249 110.048 347.496C109.456 347.742 108.805 347.807 108.177 347.683C107.548 347.559 106.971 347.251 106.518 346.798C106.065 346.345 105.757 345.768 105.633 345.139C105.508 344.511 105.574 343.86 105.82 343.269C106.066 342.677 106.483 342.173 107.017 341.818C107.55 341.464 108.177 341.277 108.818 341.279C109.672 341.279 110.49 341.618 111.094 342.222C111.698 342.826 112.037 343.645 112.037 344.498Z" fill="#DADADB"/>
<path d="M121.614 344.498C121.614 345.135 121.425 345.757 121.071 346.287C120.717 346.816 120.215 347.229 119.626 347.472C119.038 347.716 118.391 347.78 117.766 347.656C117.142 347.531 116.568 347.225 116.118 346.775C115.668 346.324 115.361 345.751 115.237 345.126C115.113 344.502 115.176 343.855 115.42 343.266C115.664 342.678 116.076 342.176 116.606 341.822C117.135 341.468 117.758 341.279 118.394 341.279C118.818 341.278 119.237 341.36 119.628 341.521C120.02 341.682 120.375 341.919 120.675 342.218C120.974 342.517 121.211 342.873 121.372 343.264C121.533 343.656 121.615 344.075 121.614 344.498Z" fill="#DADADB"/>
<path d="M107.147 363.087L102.058 363.014C101.529 363.006 101.094 363.428 101.087 363.957L101.014 369.046C101.006 369.575 101.428 370.009 101.957 370.017L107.046 370.09C107.575 370.098 108.009 369.675 108.017 369.147L108.09 364.058C108.098 363.529 107.675 363.094 107.147 363.087Z" fill="#15A800" stroke="#E6E6E6" stroke-width="1.51931" stroke-miterlimit="10"/>
<path d="M200.604 363H114.604C113.223 363 112.104 364.119 112.104 365.5C112.104 366.881 113.223 368 114.604 368H200.604C201.985 368 203.104 366.881 203.104 365.5C203.104 364.119 201.985 363 200.604 363Z" fill="#EAEAEA"/>
<path d="M174.104 371H115.104C113.447 371 112.104 372.343 112.104 374C112.104 375.657 113.447 377 115.104 377H174.104C175.761 377 177.104 375.657 177.104 374C177.104 372.343 175.761 371 174.104 371Z" fill="#EAEAEA"/>
<path d="M107.147 386.087L102.058 386.014C101.529 386.006 101.094 386.428 101.087 386.957L101.014 392.046C101.006 392.575 101.428 393.009 101.957 393.017L107.046 393.09C107.575 393.098 108.009 392.675 108.017 392.147L108.09 387.058C108.098 386.529 107.675 386.094 107.147 386.087Z" fill="#15A800" stroke="#E6E6E6" stroke-width="1.51931" stroke-miterlimit="10"/>
<path d="M200.604 386H114.604C113.223 386 112.104 387.119 112.104 388.5C112.104 389.881 113.223 391 114.604 391H200.604C201.985 391 203.104 389.881 203.104 388.5C203.104 387.119 201.985 386 200.604 386Z" fill="#EAEAEA"/>
<path d="M189.104 394H115.104C113.447 394 112.104 395.343 112.104 397C112.104 398.657 113.447 400 115.104 400H189.104C190.761 400 192.104 398.657 192.104 397C192.104 395.343 190.761 394 189.104 394Z" fill="#EAEAEA"/>
<path d="M159.104 403H115.104C113.447 403 112.104 404.343 112.104 406C112.104 407.657 113.447 409 115.104 409H159.104C160.761 409 162.104 407.657 162.104 406C162.104 404.343 160.761 403 159.104 403Z" fill="#EAEAEA"/>
<path d="M107.147 418.087L102.058 418.014C101.529 418.006 101.094 418.428 101.087 418.957L101.014 424.046C101.006 424.575 101.428 425.009 101.957 425.017L107.046 425.09C107.575 425.098 108.009 424.675 108.017 424.147L108.09 419.058C108.098 418.529 107.675 418.094 107.147 418.087Z" fill="#15A800" stroke="#E6E6E6" stroke-width="1.51931" stroke-miterlimit="10"/>
<path d="M146.604 418H114.604C113.223 418 112.104 419.119 112.104 420.5C112.104 421.881 113.223 423 114.604 423H146.604C147.985 423 149.104 421.881 149.104 420.5C149.104 419.119 147.985 418 146.604 418Z" fill="#EAEAEA"/>
<path d="M189.104 426H115.104C113.447 426 112.104 427.343 112.104 429C112.104 430.657 113.447 432 115.104 432H189.104C190.761 432 192.104 430.657 192.104 429C192.104 427.343 190.761 426 189.104 426Z" fill="#EAEAEA"/>
<path d="M183.104 435H115.104C113.447 435 112.104 436.343 112.104 438C112.104 439.657 113.447 441 115.104 441H183.104C184.761 441 186.104 439.657 186.104 438C186.104 436.343 184.761 435 183.104 435Z" fill="#EAEAEA"/>
<g filter="url(#filter0_d_44_21373)">
<path d="M750.466 544.082C758.75 544.082 765.466 550.797 765.466 559.082V659.087C765.466 667.371 758.75 674.087 750.466 674.087H611.183C607.205 674.087 603.39 675.667 600.577 678.48L595.548 683.509C587.154 691.901 572.804 685.957 572.804 674.087V672.383V559.082C572.804 550.797 579.52 544.082 587.804 544.082H750.466Z" fill="#DEDEDE"/>
</g>
<path d="M761.162 546C761.162 537.992 754.67 531.5 746.662 531.5H584C575.992 531.5 569.5 537.992 569.5 546V659.301V661.006C569.5 672.43 583.312 678.151 591.391 670.074L596.42 665.045C599.327 662.138 603.269 660.506 607.379 660.506H746.662C754.67 660.506 761.162 654.014 761.162 646.006V546Z" fill="white" stroke="#DADADB"/>
<path d="M762.744 554.534C762.744 554.723 719.391 554.886 665.919 554.886C612.448 554.886 569.081 554.723 569.081 554.534C569.081 554.345 612.367 554.182 665.919 554.182C719.472 554.182 762.744 554.345 762.744 554.534Z" fill="#DADADB"/>
<path d="M582.297 545.81C582.3 546.451 582.112 547.077 581.758 547.611C581.403 548.145 580.899 548.561 580.307 548.808C579.716 549.054 579.065 549.119 578.437 548.995C577.808 548.87 577.231 548.562 576.778 548.109C576.325 547.656 576.017 547.079 575.893 546.451C575.768 545.823 575.833 545.172 576.08 544.58C576.326 543.989 576.743 543.484 577.276 543.13C577.81 542.776 578.437 542.588 579.077 542.591C579.93 542.595 580.747 542.935 581.35 543.538C581.953 544.141 582.293 544.957 582.297 545.81Z" fill="#3C3B41"/>
<path d="M591.833 545.81C591.828 546.451 591.632 547.076 591.27 547.606C590.909 548.135 590.398 548.545 589.803 548.783C589.208 549.022 588.555 549.078 587.928 548.944C587.301 548.811 586.728 548.494 586.281 548.034C585.834 547.574 585.535 546.992 585.42 546.361C585.305 545.731 585.38 545.08 585.636 544.492C585.892 543.905 586.317 543.406 586.857 543.06C587.397 542.715 588.027 542.537 588.668 542.551C589.518 542.568 590.327 542.921 590.92 543.531C591.512 544.141 591.841 544.96 591.833 545.81Z" fill="#3C3B41"/>
<path d="M601.356 545.81C601.348 546.445 601.153 547.063 600.794 547.587C600.435 548.111 599.93 548.518 599.341 548.755C598.752 548.993 598.106 549.051 597.484 548.922C596.862 548.793 596.293 548.483 595.846 548.032C595.4 547.58 595.098 547.006 594.977 546.383C594.856 545.76 594.922 545.114 595.166 544.529C595.411 543.943 595.824 543.442 596.352 543.09C596.881 542.739 597.502 542.551 598.137 542.551C598.563 542.551 598.985 542.635 599.378 542.8C599.771 542.964 600.128 543.205 600.428 543.508C600.727 543.811 600.963 544.171 601.123 544.566C601.282 544.961 601.361 545.384 601.356 545.81Z" fill="#3C3B41"/>
<path d="M586.836 570.2C588.236 570.2 589.305 570.457 590.042 570.97C590.789 571.483 591.162 572.267 591.162 573.322C591.162 574.638 590.513 575.529 589.216 575.996C589.393 576.211 589.594 576.472 589.818 576.78C590.042 577.088 590.271 577.424 590.504 577.788C590.737 578.143 590.961 578.511 591.176 578.894C591.391 579.267 591.582 579.636 591.75 580H589.776C589.599 579.664 589.407 579.328 589.202 578.992C588.997 578.647 588.787 578.315 588.572 577.998C588.367 577.671 588.161 577.368 587.956 577.088C587.751 576.799 587.559 576.542 587.382 576.318C587.251 576.327 587.139 576.332 587.046 576.332C586.953 576.332 586.864 576.332 586.78 576.332H585.926V580H584.162V570.438C584.591 570.345 585.049 570.284 585.534 570.256C586.019 570.219 586.453 570.2 586.836 570.2ZM586.962 571.726C586.589 571.726 586.243 571.74 585.926 571.768V574.904H586.696C587.125 574.904 587.503 574.881 587.83 574.834C588.157 574.787 588.427 574.703 588.642 574.582C588.866 574.461 589.034 574.297 589.146 574.092C589.258 573.887 589.314 573.625 589.314 573.308C589.314 573.009 589.258 572.757 589.146 572.552C589.034 572.347 588.871 572.183 588.656 572.062C588.451 571.941 588.203 571.857 587.914 571.81C587.625 571.754 587.307 571.726 586.962 571.726ZM599.913 580C599.782 579.617 599.647 579.239 599.507 578.866C599.367 578.493 599.231 578.11 599.101 577.718H595.013C594.882 578.11 594.747 578.497 594.607 578.88C594.476 579.253 594.345 579.627 594.215 580H592.381C592.745 578.964 593.09 578.007 593.417 577.13C593.743 576.253 594.061 575.422 594.369 574.638C594.686 573.854 594.999 573.107 595.307 572.398C595.615 571.689 595.932 570.989 596.259 570.298H597.925C598.251 570.989 598.569 571.689 598.877 572.398C599.185 573.107 599.493 573.854 599.801 574.638C600.118 575.422 600.44 576.253 600.767 577.13C601.103 578.007 601.453 578.964 601.817 580H599.913ZM597.057 572.174C596.842 572.669 596.595 573.271 596.315 573.98C596.044 574.689 595.759 575.459 595.461 576.29H598.653C598.354 575.459 598.065 574.685 597.785 573.966C597.505 573.247 597.262 572.65 597.057 572.174ZM603.043 570.298H604.807V580H603.043V570.298ZM613.893 570.298V571.824H610.911V580H609.133V571.824H606.151V570.298H613.893ZM615.238 570.298H617.002V580H615.238V570.298ZM625.864 580C625.547 579.468 625.192 578.899 624.8 578.292C624.408 577.676 624.002 577.06 623.582 576.444C623.162 575.819 622.733 575.217 622.294 574.638C621.865 574.05 621.454 573.523 621.062 573.056V580H619.326V570.298H620.768C621.141 570.69 621.543 571.157 621.972 571.698C622.401 572.23 622.831 572.785 623.26 573.364C623.699 573.943 624.119 574.526 624.52 575.114C624.931 575.693 625.295 576.234 625.612 576.738V570.298H627.362V580H625.864ZM634.225 571.628C633.227 571.628 632.461 571.941 631.929 572.566C631.407 573.182 631.145 574.041 631.145 575.142C631.145 575.665 631.206 576.145 631.327 576.584C631.458 577.013 631.645 577.382 631.887 577.69C632.139 577.998 632.447 578.241 632.811 578.418C633.185 578.586 633.619 578.67 634.113 578.67C634.421 578.67 634.687 578.661 634.911 578.642C635.135 578.614 635.313 578.581 635.443 578.544V575.058H637.207V579.72C636.965 579.813 636.554 579.916 635.975 580.028C635.397 580.14 634.729 580.196 633.973 580.196C633.273 580.196 632.634 580.084 632.055 579.86C631.477 579.636 630.982 579.309 630.571 578.88C630.17 578.451 629.857 577.923 629.633 577.298C629.409 576.673 629.297 575.954 629.297 575.142C629.297 574.33 629.419 573.611 629.661 572.986C629.913 572.361 630.254 571.833 630.683 571.404C631.113 570.965 631.617 570.634 632.195 570.41C632.774 570.186 633.39 570.074 634.043 570.074C634.491 570.074 634.888 570.107 635.233 570.172C635.588 570.228 635.891 570.293 636.143 570.368C636.395 570.443 636.601 570.522 636.759 570.606C636.927 570.69 637.044 570.751 637.109 570.788L636.577 572.23C636.297 572.062 635.947 571.922 635.527 571.81C635.117 571.689 634.683 571.628 634.225 571.628ZM646.826 580.21C646.098 580.21 645.444 580.098 644.866 579.874C644.287 579.65 643.797 579.323 643.396 578.894C642.994 578.455 642.686 577.923 642.472 577.298C642.257 576.673 642.15 575.954 642.15 575.142C642.15 574.33 642.271 573.611 642.514 572.986C642.766 572.361 643.106 571.833 643.536 571.404C643.965 570.965 644.469 570.634 645.048 570.41C645.626 570.186 646.247 570.074 646.91 570.074C647.311 570.074 647.675 570.107 648.002 570.172C648.328 570.228 648.613 570.293 648.856 570.368C649.098 570.443 649.299 570.522 649.458 570.606C649.616 570.69 649.728 570.751 649.794 570.788L649.276 572.23C649.052 572.09 648.73 571.959 648.31 571.838C647.899 571.707 647.451 571.642 646.966 571.642C646.546 571.642 646.154 571.717 645.79 571.866C645.426 572.006 645.108 572.221 644.838 572.51C644.576 572.799 644.371 573.163 644.222 573.602C644.072 574.041 643.998 574.549 643.998 575.128C643.998 575.641 644.054 576.113 644.166 576.542C644.287 576.971 644.469 577.345 644.712 577.662C644.954 577.97 645.262 578.213 645.636 578.39C646.009 578.558 646.457 578.642 646.98 578.642C647.605 578.642 648.114 578.581 648.506 578.46C648.898 578.329 649.201 578.208 649.416 578.096L649.892 579.538C649.78 579.613 649.626 579.687 649.43 579.762C649.243 579.837 649.019 579.911 648.758 579.986C648.496 580.051 648.202 580.103 647.876 580.14C647.549 580.187 647.199 580.21 646.826 580.21ZM652.637 575.142C652.637 575.674 652.703 576.159 652.833 576.598C652.964 577.027 653.151 577.396 653.393 577.704C653.645 578.003 653.949 578.236 654.303 578.404C654.658 578.572 655.059 578.656 655.507 578.656C655.946 578.656 656.343 578.572 656.697 578.404C657.052 578.236 657.351 578.003 657.593 577.704C657.845 577.396 658.037 577.027 658.167 576.598C658.298 576.159 658.363 575.674 658.363 575.142C658.363 574.61 658.298 574.129 658.167 573.7C658.037 573.261 657.845 572.893 657.593 572.594C657.351 572.286 657.052 572.048 656.697 571.88C656.343 571.712 655.946 571.628 655.507 571.628C655.059 571.628 654.658 571.712 654.303 571.88C653.949 572.048 653.645 572.286 653.393 572.594C653.151 572.902 652.964 573.271 652.833 573.7C652.703 574.129 652.637 574.61 652.637 575.142ZM660.211 575.142C660.211 575.973 660.085 576.705 659.833 577.34C659.591 577.975 659.255 578.507 658.825 578.936C658.405 579.356 657.911 579.673 657.341 579.888C656.772 580.103 656.165 580.21 655.521 580.21C654.877 580.21 654.266 580.103 653.687 579.888C653.118 579.673 652.619 579.356 652.189 578.936C651.769 578.507 651.433 577.975 651.181 577.34C650.929 576.705 650.803 575.973 650.803 575.142C650.803 574.311 650.929 573.583 651.181 572.958C651.433 572.323 651.774 571.791 652.203 571.362C652.642 570.933 653.146 570.611 653.715 570.396C654.285 570.181 654.887 570.074 655.521 570.074C656.156 570.074 656.758 570.181 657.327 570.396C657.897 570.611 658.391 570.933 658.811 571.362C659.241 571.791 659.581 572.323 659.833 572.958C660.085 573.583 660.211 574.311 660.211 575.142ZM664.26 570.298C664.466 570.653 664.694 571.087 664.946 571.6C665.198 572.113 665.455 572.655 665.716 573.224C665.978 573.784 666.234 574.358 666.486 574.946C666.748 575.525 666.986 576.061 667.2 576.556C667.415 576.061 667.648 575.525 667.9 574.946C668.152 574.358 668.409 573.784 668.67 573.224C668.932 572.655 669.188 572.113 669.44 571.6C669.692 571.087 669.921 570.653 670.126 570.298H671.722C671.806 571.007 671.886 571.763 671.96 572.566C672.035 573.359 672.1 574.176 672.156 575.016C672.222 575.847 672.278 576.687 672.324 577.536C672.38 578.376 672.427 579.197 672.464 580H670.728C670.691 578.871 670.644 577.709 670.588 576.514C670.542 575.319 670.467 574.162 670.364 573.042C670.262 573.257 670.14 573.513 670 573.812C669.86 574.111 669.711 574.437 669.552 574.792C669.394 575.137 669.23 575.497 669.062 575.87C668.904 576.243 668.745 576.607 668.586 576.962C668.437 577.307 668.297 577.634 668.166 577.942C668.036 578.241 667.924 578.497 667.83 578.712H666.514C666.421 578.497 666.309 578.236 666.178 577.928C666.048 577.62 665.903 577.293 665.744 576.948C665.595 576.593 665.436 576.229 665.268 575.856C665.11 575.483 664.951 575.123 664.792 574.778C664.634 574.433 664.484 574.111 664.344 573.812C664.204 573.504 664.083 573.247 663.98 573.042C663.878 574.162 663.798 575.319 663.742 576.514C663.696 577.709 663.654 578.871 663.616 580H661.88C661.918 579.197 661.96 578.367 662.006 577.508C662.062 576.649 662.118 575.8 662.174 574.96C662.24 574.111 662.31 573.289 662.384 572.496C662.459 571.703 662.538 570.97 662.622 570.298H664.26ZM677.263 570.2C678.673 570.2 679.751 570.457 680.497 570.97C681.253 571.483 681.631 572.286 681.631 573.378C681.631 573.947 681.529 574.437 681.323 574.848C681.127 575.249 680.838 575.581 680.455 575.842C680.073 576.094 679.606 576.281 679.055 576.402C678.505 576.523 677.875 576.584 677.165 576.584H676.283V580H674.519V570.438C674.93 570.345 675.383 570.284 675.877 570.256C676.381 570.219 676.843 570.2 677.263 570.2ZM677.389 571.726C676.941 571.726 676.573 571.74 676.283 571.768V575.072H677.137C677.987 575.072 678.64 574.955 679.097 574.722C679.555 574.479 679.783 574.027 679.783 573.364C679.783 573.047 679.723 572.781 679.601 572.566C679.48 572.351 679.312 572.183 679.097 572.062C678.883 571.941 678.626 571.857 678.327 571.81C678.038 571.754 677.725 571.726 677.389 571.726ZM689.053 580C688.923 579.617 688.787 579.239 688.647 578.866C688.507 578.493 688.372 578.11 688.241 577.718H684.153C684.023 578.11 683.887 578.497 683.747 578.88C683.617 579.253 683.486 579.627 683.355 580H681.521C681.885 578.964 682.231 578.007 682.557 577.13C682.884 576.253 683.201 575.422 683.509 574.638C683.827 573.854 684.139 573.107 684.447 572.398C684.755 571.689 685.073 570.989 685.399 570.298H687.065C687.392 570.989 687.709 571.689 688.017 572.398C688.325 573.107 688.633 573.854 688.941 574.638C689.259 575.422 689.581 576.253 689.907 577.13C690.243 578.007 690.593 578.964 690.957 580H689.053ZM686.197 572.174C685.983 572.669 685.735 573.271 685.455 573.98C685.185 574.689 684.9 575.459 684.601 576.29H687.793C687.495 575.459 687.205 574.685 686.925 573.966C686.645 573.247 686.403 572.65 686.197 572.174ZM698.721 580C698.404 579.468 698.049 578.899 697.657 578.292C697.265 577.676 696.859 577.06 696.439 576.444C696.019 575.819 695.59 575.217 695.151 574.638C694.722 574.05 694.311 573.523 693.919 573.056V580H692.183V570.298H693.625C693.999 570.69 694.4 571.157 694.829 571.698C695.259 572.23 695.688 572.785 696.117 573.364C696.556 573.943 696.976 574.526 697.377 575.114C697.788 575.693 698.152 576.234 698.469 576.738V570.298H700.219V580H698.721ZM705.809 574.596C706.229 573.896 706.639 573.187 707.041 572.468C707.442 571.749 707.806 571.026 708.133 570.298H710.093C709.57 571.287 709.024 572.272 708.455 573.252C707.895 574.223 707.293 575.203 706.649 576.192V580H704.885V576.22C704.241 575.221 703.634 574.232 703.065 573.252C702.495 572.272 701.949 571.287 701.427 570.298H703.499C703.825 571.026 704.185 571.749 704.577 572.468C704.969 573.187 705.379 573.896 705.809 574.596Z" fill="#3C3B41"/>
<path d="M592.989 589.044C593.026 588.955 593.088 588.878 593.169 588.824C593.25 588.77 593.344 588.741 593.441 588.741C593.538 588.741 593.633 588.77 593.714 588.824C593.794 588.878 593.857 588.955 593.894 589.044L595.743 593.492C595.777 593.575 595.834 593.647 595.907 593.7C595.98 593.753 596.066 593.785 596.156 593.792L600.957 594.176C601.392 594.211 601.567 594.753 601.237 595.036L597.579 598.17C597.51 598.229 597.46 598.305 597.432 598.39C597.404 598.476 597.4 598.567 597.42 598.655L598.539 603.341C598.561 603.435 598.555 603.533 598.522 603.624C598.488 603.714 598.428 603.793 598.35 603.85C598.272 603.907 598.179 603.939 598.082 603.943C597.986 603.947 597.89 603.922 597.808 603.871L593.696 601.361C593.62 601.314 593.531 601.289 593.441 601.289C593.351 601.289 593.263 601.314 593.186 601.361L589.075 603.872C588.993 603.923 588.897 603.948 588.801 603.944C588.704 603.94 588.611 603.908 588.532 603.851C588.454 603.794 588.395 603.715 588.361 603.625C588.328 603.534 588.322 603.435 588.344 603.341L589.462 598.655C589.483 598.567 589.479 598.476 589.451 598.39C589.423 598.305 589.372 598.229 589.304 598.17L585.646 595.036C585.573 594.973 585.52 594.89 585.494 594.797C585.468 594.704 585.47 594.605 585.499 594.513C585.529 594.421 585.586 594.34 585.661 594.28C585.737 594.221 585.829 594.184 585.925 594.176L590.727 593.792C590.816 593.785 590.903 593.753 590.975 593.7C591.048 593.647 591.105 593.575 591.14 593.492L592.989 589.045V589.044Z" fill="#FFC727"/>
<path d="M613.872 589.044C613.909 588.955 613.971 588.878 614.052 588.824C614.132 588.77 614.227 588.741 614.324 588.741C614.421 588.741 614.516 588.77 614.597 588.824C614.677 588.878 614.74 588.955 614.777 589.044L616.626 593.492C616.66 593.575 616.717 593.647 616.79 593.7C616.863 593.753 616.949 593.785 617.039 593.792L621.84 594.176C622.275 594.211 622.45 594.753 622.12 595.036L618.462 598.17C618.393 598.229 618.342 598.305 618.315 598.39C618.287 598.476 618.283 598.567 618.303 598.655L619.421 603.341C619.444 603.435 619.438 603.533 619.405 603.624C619.371 603.714 619.311 603.793 619.233 603.85C619.155 603.907 619.062 603.939 618.965 603.943C618.869 603.947 618.773 603.922 618.691 603.871L614.579 601.361C614.502 601.314 614.414 601.289 614.324 601.289C614.234 601.289 614.146 601.314 614.069 601.361L609.958 603.872C609.876 603.923 609.78 603.948 609.683 603.944C609.587 603.94 609.494 603.908 609.415 603.851C609.337 603.794 609.278 603.715 609.244 603.625C609.211 603.534 609.205 603.435 609.227 603.341L610.345 598.655C610.366 598.567 610.362 598.476 610.334 598.39C610.306 598.305 610.255 598.229 610.187 598.17L606.529 595.036C606.456 594.973 606.403 594.89 606.377 594.797C606.351 594.704 606.353 594.605 606.382 594.513C606.412 594.421 606.469 594.34 606.544 594.28C606.62 594.221 606.712 594.184 606.808 594.176L611.61 593.792C611.699 593.785 611.785 593.753 611.858 593.7C611.931 593.647 611.988 593.575 612.023 593.492L613.872 589.045V589.044Z" fill="#FFC727"/>
<path d="M634.755 589.044C634.791 588.955 634.854 588.878 634.935 588.824C635.015 588.77 635.11 588.741 635.207 588.741C635.304 588.741 635.399 588.77 635.48 588.824C635.56 588.878 635.623 588.955 635.66 589.044L637.509 593.492C637.543 593.575 637.6 593.647 637.673 593.7C637.746 593.753 637.832 593.785 637.922 593.792L642.723 594.176C643.157 594.211 643.333 594.753 643.003 595.036L639.345 598.17C639.276 598.229 639.225 598.305 639.197 598.39C639.169 598.476 639.166 598.567 639.186 598.655L640.304 603.341C640.327 603.435 640.321 603.533 640.287 603.624C640.254 603.714 640.194 603.793 640.116 603.85C640.038 603.907 639.945 603.939 639.848 603.943C639.751 603.947 639.656 603.922 639.573 603.871L635.462 601.361C635.385 601.314 635.297 601.289 635.207 601.289C635.117 601.289 635.029 601.314 634.952 601.361L630.841 603.872C630.758 603.923 630.663 603.948 630.566 603.944C630.47 603.94 630.376 603.908 630.298 603.851C630.22 603.794 630.16 603.715 630.127 603.625C630.093 603.534 630.087 603.435 630.11 603.341L631.228 598.655C631.249 598.567 631.245 598.476 631.217 598.39C631.189 598.305 631.138 598.229 631.07 598.17L627.412 595.036C627.338 594.973 627.285 594.89 627.259 594.797C627.233 594.704 627.235 594.605 627.265 594.513C627.295 594.421 627.351 594.34 627.427 594.28C627.503 594.221 627.595 594.184 627.691 594.176L632.492 593.792C632.582 593.785 632.668 593.753 632.741 593.7C632.814 593.647 632.871 593.575 632.906 593.492L634.755 589.045V589.044Z" fill="#FFC727"/>
<path d="M655.638 589.044C655.674 588.955 655.737 588.878 655.818 588.824C655.898 588.77 655.993 588.741 656.09 588.741C656.187 588.741 656.282 588.77 656.362 588.824C656.443 588.878 656.506 588.955 656.543 589.044L658.392 593.492C658.426 593.575 658.483 593.647 658.556 593.7C658.629 593.753 658.715 593.785 658.805 593.792L663.606 594.176C664.04 594.211 664.216 594.753 663.885 595.036L660.227 598.17C660.159 598.229 660.108 598.305 660.08 598.39C660.052 598.476 660.048 598.567 660.069 598.655L661.187 603.341C661.21 603.435 661.204 603.533 661.17 603.624C661.137 603.714 661.077 603.793 660.999 603.85C660.921 603.907 660.827 603.939 660.731 603.943C660.634 603.947 660.539 603.922 660.456 603.871L656.345 601.361C656.268 601.314 656.18 601.289 656.09 601.289C656 601.289 655.912 601.314 655.835 601.361L651.724 603.872C651.641 603.923 651.546 603.948 651.449 603.944C651.353 603.94 651.259 603.908 651.181 603.851C651.103 603.794 651.043 603.715 651.01 603.625C650.976 603.534 650.97 603.435 650.993 603.341L652.111 598.655C652.132 598.567 652.128 598.476 652.1 598.39C652.072 598.305 652.021 598.229 651.953 598.17L648.295 595.036C648.221 594.973 648.168 594.89 648.142 594.797C648.116 594.704 648.118 594.605 648.148 594.513C648.178 594.421 648.234 594.34 648.31 594.28C648.386 594.221 648.478 594.184 648.574 594.176L653.375 593.792C653.465 593.785 653.551 593.753 653.624 593.7C653.697 593.647 653.754 593.575 653.789 593.492L655.638 589.045V589.044Z" fill="#FFC727"/>
<path d="M676.52 589.044C676.557 588.955 676.62 588.878 676.7 588.824C676.781 588.77 676.876 588.741 676.973 588.741C677.07 588.741 677.165 588.77 677.245 588.824C677.326 588.878 677.389 588.955 677.425 589.044L679.274 593.492C679.309 593.575 679.366 593.647 679.439 593.7C679.512 593.753 679.598 593.785 679.688 593.792L684.489 594.176C684.923 594.211 685.099 594.753 684.768 595.036L681.11 598.17C681.042 598.229 680.991 598.305 680.963 598.39C680.935 598.476 680.931 598.567 680.952 598.655L682.07 603.341C682.092 603.435 682.087 603.533 682.053 603.624C682.02 603.714 681.96 603.793 681.882 603.85C681.804 603.907 681.71 603.939 681.614 603.943C681.517 603.947 681.422 603.922 681.339 603.871L677.228 601.361C677.151 601.314 677.063 601.289 676.973 601.289C676.883 601.289 676.795 601.314 676.718 601.361L672.607 603.872C672.524 603.923 672.429 603.948 672.332 603.944C672.235 603.94 672.142 603.908 672.064 603.851C671.986 603.794 671.926 603.715 671.893 603.625C671.859 603.534 671.853 603.435 671.876 603.341L672.994 598.655C673.015 598.567 673.011 598.476 672.983 598.39C672.955 598.305 672.904 598.229 672.835 598.17L669.177 595.036C669.104 594.973 669.051 594.89 669.025 594.797C668.999 594.704 669.001 594.605 669.031 594.513C669.061 594.421 669.117 594.34 669.193 594.28C669.269 594.221 669.36 594.184 669.457 594.176L674.258 593.792C674.348 593.785 674.434 593.753 674.507 593.7C674.58 593.647 674.637 593.575 674.671 593.492L676.52 589.045V589.044Z" fill="#EBEBEB"/>
<path d="M665.454 611.883H585.628C584.176 611.883 583 613.059 583 614.511C583 615.962 584.176 617.138 585.628 617.138H665.454C666.906 617.138 668.082 615.962 668.082 614.511C668.082 613.059 666.906 611.883 665.454 611.883Z" fill="#D4D4D4"/>
<path d="M727.5 623.138H585.5C584.119 623.138 583 624.258 583 625.638C583 627.019 584.119 628.138 585.5 628.138H727.5C728.881 628.138 730 627.019 730 625.638C730 624.258 728.881 623.138 727.5 623.138Z" fill="#D4D4D4"/>
<path d="M694.5 634.138H585.5C584.119 634.138 583 635.258 583 636.638C583 638.019 584.119 639.138 585.5 639.138H694.5C695.881 639.138 697 638.019 697 636.638C697 635.258 695.881 634.138 694.5 634.138Z" fill="#D4D4D4"/>
<path d="M679.5 645.138H585.5C584.119 645.138 583 646.258 583 647.638C583 649.019 584.119 650.138 585.5 650.138H679.5C680.881 650.138 682 649.019 682 647.638C682 646.258 680.881 645.138 679.5 645.138Z" fill="#D4D4D4"/>
<defs>
<filter id="filter0_d_44_21373" x="568.804" y="544.082" width="200.662" height="151.356" filterUnits="userSpaceOnUse" color-interpolation-filters="sRGB">
<feFlood flood-opacity="0" result="BackgroundImageFix"/>
<feColorMatrix in="SourceAlpha" type="matrix" values="0 0 0 0 0 0 0 0 0 0 0 0 0 0 0 0 0 0 127 0" result="hardAlpha"/>
<feOffset dy="4"/>
<feGaussianBlur stdDeviation="2"/>
<feComposite in2="hardAlpha" operator="out"/>
<feColorMatrix type="matrix" values="0 0 0 0 0 0 0 0 0 0 0 0 0 0 0 0 0 0 0.25 0"/>
<feBlend mode="normal" in2="BackgroundImageFix" result="effect1_dropShadow_44_21373"/>
<feBlend mode="normal" in="SourceGraphic" in2="effect1_dropShadow_44_21373" result="shape"/>
</filter>
<clipPath id="clip0_44_21373">
<rect width="244" height="179" fill="white" transform="translate(0 500)"/>
</clipPath>
<clipPath id="clip1_44_21373">
<rect width="130" height="67" fill="white" transform="translate(13 548.695)"/>
</clipPath>
<clipPath id="clip2_44_21373">
<rect width="220" height="171" fill="white" transform="translate(287 245)"/>
</clipPath>
</defs>
</svg>
