<svg width="242" height="294" viewBox="0 0 242 294" fill="none" xmlns="http://www.w3.org/2000/svg">
<g clip-path="url(#clip0_92_7384)">
<path d="M57.5205 0L60.6148 5.65384L66.2755 8.74435L60.6148 11.8348L57.5205 17.4887L54.4263 11.8348L48.7656 8.74435L54.4263 5.65384L57.5205 0Z" fill="#F5F5F5"/>
<path d="M186.6 153.135L188.922 157.372L193.164 159.691L188.922 162.011L186.6 166.248L184.277 162.011L180.035 159.691L184.277 157.372L186.6 153.135Z" fill="#EBEBEB"/>
<path d="M193.165 132.2L194.214 134.118L196.128 135.159L194.214 136.206L193.165 138.117L192.116 136.206L190.203 135.159L192.116 134.118L193.165 132.2Z" fill="#E0E0E0"/>
<path d="M35.4115 2.12848L36.4605 4.03945L38.3738 5.08719L36.4605 6.12834L35.4115 8.0459L34.3625 6.12834L32.4492 5.08719L34.3625 4.03945L35.4115 2.12848Z" fill="#E0E0E0"/>
<path d="M213.434 110.222L215.934 109.727L219.893 101.042L218.903 96.054C218.903 96.054 222.723 95.0524 223.567 101.675C224.412 108.297 224.57 106.538 224.57 106.538C224.57 106.538 232.784 104.943 233.609 105.517C234.209 105.938 236.05 114.044 237.013 118.445C237.28 119.5 237.185 120.614 236.744 121.609C236.302 122.604 235.54 123.423 234.579 123.934C234.305 124.069 234.014 124.167 233.714 124.224C231.669 124.633 220.876 125.042 220.876 125.042L216.554 125.898L213.434 110.222Z" fill="#E0E0E0"/>
<path d="M206 110.274L210.928 127.064L215.217 126.214L211.892 109.464L206 110.274Z" fill="#E0E0E0"/>
<path d="M178.521 86.8505C178.619 86.8482 178.715 86.824 178.803 86.7797C178.891 86.7354 178.968 86.6721 179.028 86.5945C179.088 86.5168 179.13 86.4267 179.15 86.3307C179.171 86.2348 179.17 86.1355 179.147 86.0399C179.081 85.7171 178.903 84.8999 178.837 84.5639C178.745 84.096 178.633 83.9708 178.178 83.76C176.995 83.2172 176.056 82.2574 175.539 81.0648C173.52 76.9134 174.819 71.6879 179.807 69.2695C184.221 67.1213 187.962 68.6106 189.703 72.2348C192.006 76.9727 191.854 81.9874 188.74 83.503C188.352 83.7164 187.919 83.8358 187.476 83.8516C187.033 83.8674 186.593 83.7791 186.191 83.5938C185.788 83.4085 185.435 83.1314 185.159 82.7849C184.884 82.4384 184.693 82.032 184.604 81.5986C184.089 79.2791 183.944 76.5707 183.218 75.0683C182.558 73.7504 181.292 72.9531 179.801 73.6779C178.039 74.5346 177.511 77.0386 178.699 79.4702C179.122 80.3694 179.732 81.1689 180.487 81.816C180.487 81.816 182.4 90.3034 182.73 91.7926C183.39 94.7513 185.514 97.7232 185.719 98.0593C185.748 98.0966 185.787 98.1249 185.832 98.1409C185.876 98.1568 185.925 98.1598 185.971 98.1494C186.017 98.1391 186.06 98.1158 186.093 98.0824C186.127 98.0489 186.15 98.0067 186.161 97.9605C186.22 97.6705 187.058 94.0726 186.51 91.1469C186.359 90.3166 185.468 86.0663 185.468 86.0663C186.57 86.8768 188.707 87.0284 190.482 86.1651C195.76 83.5952 197.014 77.0386 193.873 70.594C191.505 65.7243 185.158 63.1939 178.884 66.2449C171.066 70.0405 169.852 77.546 172.121 82.2114C173.493 85.0383 175.77 87.0547 178.521 86.8505Z" fill="white"/>
<path d="M9.76809 220.348C9.84022 220.655 9.81976 220.976 9.70928 221.272C9.59881 221.567 9.40327 221.822 9.14735 222.007C8.89143 222.191 8.58661 222.295 8.27135 222.307C7.95608 222.318 7.64452 222.236 7.37597 222.071C7.10743 221.905 6.89395 221.664 6.76247 221.378C6.63098 221.091 6.58741 220.772 6.63722 220.461C6.68704 220.15 6.82802 219.861 7.04237 219.63C7.25672 219.398 7.53484 219.236 7.84161 219.162C8.04614 219.112 8.25854 219.104 8.4665 219.136C8.67446 219.169 8.87384 219.243 9.05305 219.353C9.23227 219.464 9.38776 219.608 9.51051 219.779C9.63326 219.95 9.72081 220.144 9.76809 220.348Z" fill="white"/>
<path d="M153.875 294L62.9019 293.967C57.6526 293.967 52.6183 291.884 48.9065 288.177C45.1947 284.469 43.1094 279.441 43.1094 274.198L43.149 46.4102C43.149 43.8108 43.6622 41.2369 44.6594 38.8359C45.6565 36.4349 47.1179 34.2538 48.9601 32.4176C50.8022 30.5814 52.9887 29.1261 55.3947 28.135C57.8006 27.1438 60.3786 26.6363 62.9811 26.6415L153.948 26.6942C159.197 26.6942 164.231 28.777 167.943 32.4843C171.655 36.1917 173.74 41.2199 173.74 46.4629L173.701 274.198C173.705 276.8 173.195 279.377 172.2 281.781C171.206 284.185 169.745 286.37 167.904 288.21C166.062 290.049 163.875 291.508 161.467 292.501C159.06 293.495 156.48 294.004 153.875 294Z" fill="#263238"/>
<path d="M153.846 34.6808H136.204C135.047 34.7085 133.947 35.1923 133.145 36.0268C132.342 36.8613 131.903 37.9787 131.923 39.1354V42.3313C131.936 42.9056 131.835 43.4769 131.627 44.0124C131.419 44.5479 131.107 45.0371 130.709 45.4521C130.312 45.8671 129.836 46.1997 129.309 46.4308C128.783 46.6619 128.216 46.787 127.641 46.799H93.2612C92.6859 46.7862 92.1187 46.6602 91.5921 46.4284C91.0655 46.1966 90.5898 45.8634 90.1922 45.4479C89.7946 45.0324 89.4828 44.5427 89.2747 44.0068C89.0666 43.4709 88.9663 42.8993 88.9794 42.3247V39.109C89.0024 37.9495 88.565 36.8279 87.7627 35.9896C86.9604 35.1512 85.8584 34.6641 84.6976 34.6347H78.4828H63.0511C61.2289 34.6303 59.4238 34.9851 57.739 35.6786C56.0543 36.3721 54.523 37.3907 53.233 38.6761C51.943 39.9615 50.9195 41.4885 50.2211 43.1695C49.5228 44.8506 49.1634 46.6527 49.1634 48.4728L49.1172 270.811C49.1172 274.481 50.5769 278.001 53.1752 280.596C55.7734 283.191 59.2975 284.649 62.972 284.649L153.767 284.702C155.586 284.702 157.388 284.344 159.069 283.648C160.75 282.953 162.277 281.934 163.564 280.649C164.85 279.364 165.871 277.838 166.567 276.159C167.263 274.48 167.622 272.681 167.622 270.864L167.668 48.5189C167.668 44.8545 166.213 41.3397 163.622 38.7455C161.031 36.1513 157.515 34.6895 153.846 34.6808Z" fill="white"/>
<path d="M155.176 52.7432C155.176 52.8025 152.88 52.8684 150.056 52.8881C147.232 52.9079 144.93 52.8881 144.93 52.8288C144.93 52.7695 147.219 52.697 150.049 52.6773C152.88 52.6575 155.176 52.6839 155.176 52.7432Z" fill="#263238"/>
<path d="M155.195 55.3591C155.195 55.4184 152.906 55.4843 150.076 55.5107C147.245 55.5371 144.949 55.5107 144.949 55.4448C144.949 55.3789 147.245 55.3196 150.076 55.2932C152.906 55.2669 155.195 55.2998 155.195 55.3591Z" fill="#263238"/>
<path d="M155.221 57.9749C155.221 58.0342 152.925 58.1067 150.095 58.1264C147.265 58.1462 144.975 58.1264 144.969 58.0605C144.962 57.9946 147.265 57.9353 150.095 57.909C152.925 57.8826 155.221 57.9156 155.221 57.9749Z" fill="#263238"/>
<path d="M58.6941 60.5316H58.9646H59.7101L62.4679 60.4657L62.3887 60.5382C62.3887 59.932 62.3887 59.2664 62.3557 58.5613C62.3557 58.1923 62.3557 57.8431 62.3557 57.4148C62.3992 57.1934 62.5122 56.9916 62.6783 56.8388C62.8444 56.6859 63.055 56.5899 63.2794 56.5647C63.728 56.5647 64.1173 56.5647 64.5989 56.5647C64.8512 56.6054 65.0808 56.7346 65.2464 56.929C65.412 57.1234 65.5029 57.3704 65.5028 57.6256C65.5028 58.5613 65.5028 59.53 65.5357 60.5382L65.4104 60.413H68.8873L68.7553 60.5448C68.7553 59.1478 68.7553 57.6981 68.7158 56.2155C68.7158 55.8464 68.7158 55.484 68.7158 55.115C68.7008 54.951 68.6491 54.7924 68.5646 54.651C68.4801 54.5096 68.3649 54.3889 68.2275 54.2979L66.7101 52.7955L65.2389 51.3524L64.5329 50.6539C64.2888 50.4167 64.0975 50.1728 63.8138 50.1135C63.6778 50.0778 63.5356 50.0728 63.3975 50.0991C63.2594 50.1253 63.1288 50.182 63.0155 50.2651C62.8044 50.443 62.5801 50.6934 62.3557 50.924L61.1022 52.1827C60.3171 52.9932 59.499 53.7378 58.9052 54.4429C58.729 54.8584 58.6697 55.3141 58.7337 55.7608C58.7337 56.1891 58.7337 56.5977 58.7337 56.9799C58.7337 57.7311 58.7337 58.39 58.7337 58.9567C58.7337 59.5234 58.7337 59.8727 58.7337 60.2153C58.7432 60.3667 58.7432 60.5186 58.7337 60.67C58.726 60.5317 58.726 60.3931 58.7337 60.2549C58.7337 59.9188 58.7337 59.5037 58.7337 59.0094C58.7337 58.5152 58.7337 57.7772 58.6875 57.0326C58.6875 56.6372 58.6875 56.2221 58.6875 55.7806C58.6875 55.5565 58.6875 55.3325 58.6875 55.1216C58.6859 54.8673 58.752 54.6172 58.8789 54.3967C59.5386 53.6126 60.2907 52.9141 61.0824 52.0772L62.3228 50.8054C62.5471 50.588 62.7252 50.3705 62.9825 50.1465C63.1244 50.0385 63.2889 49.964 63.4638 49.9286C63.6386 49.8933 63.8192 49.8979 63.9919 49.9422C64.3204 50.0627 64.61 50.2699 64.8298 50.5418L65.5424 51.2403L67.0136 52.6835L68.5376 54.1727C68.6804 54.3007 68.8107 54.4419 68.9269 54.5944C69.0411 54.7693 69.105 54.9722 69.1116 55.1809C69.1116 55.5499 69.1116 55.9189 69.1116 56.2879C69.1116 57.7706 69.1116 59.2203 69.1446 60.6173V60.7491H69.0126H65.5357H65.2916V60.6239C65.2916 59.6157 65.2916 58.647 65.2916 57.7113C65.296 57.5102 65.2277 57.3143 65.0993 57.1594C64.9709 57.0046 64.7909 56.901 64.5923 56.8678C64.1899 56.8678 63.7148 56.8678 63.3256 56.8678C63.1478 56.8856 62.9801 56.9588 62.8463 57.0771C62.7125 57.1953 62.6193 57.3527 62.5801 57.5268C62.5801 57.876 62.5801 58.278 62.5801 58.6338C62.5801 59.3521 62.5801 60.0242 62.5801 60.6107V60.6898H62.5009H59.6969H58.9646C58.8692 60.6466 58.7786 60.5936 58.6941 60.5316Z" fill="#263238"/>
<path d="M118.727 234.271C118.41 234.321 118.09 234.343 117.77 234.337L115.171 234.39C112.98 234.423 109.945 234.443 106.594 234.443C103.242 234.443 100.207 234.443 98.017 234.39L95.4176 234.337C95.0974 234.343 94.7773 234.321 94.4609 234.271C94.7769 234.218 95.0973 234.196 95.4176 234.205L98.017 234.146C100.207 234.146 103.242 234.1 106.594 234.1C109.945 234.1 112.974 234.1 115.171 234.146L117.77 234.205C118.09 234.195 118.411 234.217 118.727 234.271Z" fill="#455A64"/>
<path d="M156.843 240.228C156.843 240.327 142.876 240.4 125.65 240.4C108.424 240.4 94.457 240.327 94.457 240.228C94.457 240.129 108.424 240.057 125.65 240.057C142.876 240.057 156.843 240.136 156.843 240.228Z" fill="#455A64"/>
<path d="M137.348 245.862C137.348 245.961 127.748 246.034 115.906 246.034C104.063 246.034 94.457 245.961 94.457 245.862C94.457 245.763 104.056 245.691 115.906 245.691C127.755 245.691 137.348 245.744 137.348 245.862Z" fill="#455A64"/>
<path d="M158.076 256.755L156.136 254.811L154.289 256.65V251.088H158.069L158.076 256.755ZM156.136 254.567L156.196 254.627L157.905 256.34V251.266H154.467V256.241L156.136 254.567Z" fill="#263238"/>
<path d="M106.464 256.03L105.804 255.727C105.41 255.912 104.961 255.944 104.545 255.816C104.129 255.688 103.776 255.41 103.555 255.035C103.333 254.661 103.26 254.218 103.348 253.792C103.437 253.366 103.681 252.989 104.034 252.734C104.386 252.478 104.821 252.364 105.254 252.412C105.687 252.46 106.086 252.668 106.373 252.994C106.661 253.321 106.816 253.743 106.808 254.178C106.8 254.612 106.631 255.029 106.332 255.345L106.464 256.03ZM104.874 252.327C104.423 252.359 104.001 252.561 103.694 252.892C103.387 253.224 103.219 253.66 103.223 254.112C103.227 254.564 103.404 254.997 103.717 255.322C104.03 255.648 104.455 255.843 104.907 255.866C105.208 255.845 105.5 255.752 105.758 255.596L106.266 255.82L106.147 255.325C106.38 255.072 106.533 254.756 106.589 254.416C106.644 254.077 106.599 253.728 106.459 253.414C106.318 253.1 106.089 252.833 105.8 252.647C105.51 252.461 105.172 252.364 104.828 252.367L104.874 252.327Z" fill="#263238"/>
<path d="M110.859 255.747L110.081 253.836L108.609 252.518H112.172L110.859 255.747ZM108.939 252.63L110.193 253.777L110.853 255.404L111.974 252.604L108.939 252.63Z" fill="#263238"/>
<path d="M112.087 252.482L110.141 253.747L110.213 253.857L112.159 252.592L112.087 252.482Z" fill="#263238"/>
<path d="M100.849 252.887C100.797 252.633 100.656 252.405 100.452 252.245C100.248 252.084 99.9931 252.001 99.7334 252.009C99.4736 252.018 99.2253 252.118 99.0323 252.292C98.8393 252.466 98.7141 252.702 98.6787 252.959C98.6431 252.699 98.5155 252.46 98.319 252.286C98.1225 252.111 97.8699 252.013 97.607 252.008C97.3441 252.003 97.0882 252.093 96.8854 252.26C96.6827 252.427 96.5465 252.661 96.5015 252.92C96.4507 253.299 96.5475 253.684 96.772 253.994C96.9949 254.299 97.2566 254.574 97.5505 254.811C97.9529 255.16 98.3158 255.47 98.7117 255.839C99.1075 255.483 99.4374 255.147 99.8332 254.791C100.123 254.549 100.381 254.27 100.599 253.961C100.819 253.649 100.909 253.264 100.849 252.887Z" fill="#E8505B"/>
<path d="M162.048 261.678C162.048 261.678 162.048 261.46 162.048 261.058C162.048 260.656 162.048 260.043 162.048 259.253C162.048 257.665 162.048 255.299 162.015 252.294C162.015 246.238 161.982 237.428 161.956 226.377L162.068 226.489L56.567 226.549L56.7386 226.377C56.7386 238.647 56.7386 250.541 56.7386 261.678L56.5736 261.513L132.069 261.585L154.105 261.632H160.043H161.573H162.101H161.593H160.082H154.204L132.201 261.678L56.5934 261.757H56.4219V261.678C56.4219 250.541 56.4219 238.647 56.4219 226.377V226.206H56.6066L162.108 226.265H162.22V226.377C162.22 237.454 162.174 246.291 162.16 252.367C162.16 255.385 162.16 257.711 162.16 259.299C162.16 260.076 162.16 260.669 162.16 261.078C162.16 261.487 162.048 261.678 162.048 261.678Z" fill="#263238"/>
<path d="M60.9354 232.286L60.8008 255.626L90.0273 255.794L90.1619 232.454L60.9354 232.286Z" fill="#EBEBEB"/>
<path d="M90.1541 232.433H89.5933H87.9967H81.9996L60.8875 232.387L61.0459 232.236C61.0129 239.188 60.9733 247.148 60.9337 255.569C60.9667 255.615 60.6104 255.246 60.7622 255.398H62.7744H64.7537H68.7122L76.2993 255.444L89.9826 255.543L89.844 255.688C89.91 248.676 89.9694 242.864 90.0156 238.779C90.0156 236.749 90.0618 235.155 90.075 234.041C90.075 233.507 90.075 233.092 90.075 232.789C90.075 232.486 90.075 232.348 90.075 232.348C90.075 232.348 90.075 232.479 90.075 232.756C90.075 233.033 90.075 233.461 90.075 233.988C90.075 235.089 90.075 236.677 90.075 238.693C90.075 242.799 90.075 248.644 90.075 255.688V255.826H89.9298L76.2465 255.773L68.6594 255.734H64.7009H62.7216H60.7094L60.5312 255.556C60.5906 247.128 60.6368 239.168 60.683 232.222V232.064H60.8413L82.0194 232.255L87.9571 232.334H89.5208H89.9166L90.1541 232.433Z" fill="#263238"/>
<path d="M61.938 233.761L61.8203 254.162L88.9951 254.318L89.1127 233.917L61.938 233.761Z" fill="#E0E0E0"/>
<path d="M61.8047 254.145L71.3711 241.52L77.2033 249.487L81.2146 245.263L88.9799 254.297L61.8047 254.145Z" fill="#F5F5F5"/>
<path d="M79.7571 240.011C79.7558 240.435 79.6286 240.849 79.3916 241.2C79.1546 241.552 78.8185 241.825 78.4258 241.986C78.0332 242.147 77.6016 242.187 77.1857 242.103C76.7699 242.018 76.3885 241.813 76.0898 241.512C75.7911 241.21 75.5886 240.828 75.5079 240.411C75.4272 239.995 75.4719 239.565 75.6364 239.174C75.8009 238.783 76.0778 238.45 76.432 238.217C76.7862 237.983 77.2018 237.86 77.6261 237.863C77.9074 237.863 78.1857 237.92 78.4452 238.028C78.7046 238.137 78.9401 238.295 79.1381 238.495C79.336 238.694 79.4926 238.931 79.5988 239.191C79.7051 239.451 79.7589 239.73 79.7571 240.011Z" fill="#F5F5F5"/>
<path d="M110.216 81.0379C110.111 81.0556 110.004 81.0556 109.899 81.0379L109.008 81.0709L105.71 81.1302C102.932 81.1302 99.112 81.1763 94.85 81.1763C90.588 81.1763 86.768 81.1763 83.9905 81.1302L80.6917 81.0709L79.7945 81.0379C79.6919 81.0562 79.5869 81.0562 79.4844 81.0379C79.5858 81.0129 79.6901 81.0018 79.7945 81.005H80.6917L83.9905 80.9523C86.768 80.9193 90.588 80.8995 94.85 80.8995C99.112 80.8995 102.932 80.8995 105.71 80.9523L109.008 81.005H109.899C110.005 81.0022 110.112 81.0133 110.216 81.0379Z" fill="#263238"/>
<path d="M153.385 210.048L150.509 207.162L147.758 209.897V201.633H153.379L153.385 210.048ZM150.509 206.806L150.595 206.892L153.135 209.435V201.897H148.015V209.29L150.509 206.806Z" fill="#263238"/>
<path d="M80.2494 209.178L78.9299 208.579C78.1615 208.936 77.2875 208.994 76.4787 208.741C75.6699 208.489 74.9844 207.944 74.5563 207.213C74.1283 206.483 73.9883 205.619 74.1639 204.791C74.3394 203.963 74.8179 203.23 75.5056 202.736C76.1934 202.242 77.0411 202.021 77.883 202.118C78.7248 202.214 79.5003 202.621 80.0579 203.258C80.6155 203.896 80.915 204.718 80.898 205.564C80.8809 206.41 80.5485 207.22 79.9657 207.834L80.2494 209.178ZM77.1024 201.897C76.6449 201.901 76.1927 201.995 75.7716 202.173C75.3504 202.352 74.9686 202.611 74.6479 202.937C74.3272 203.263 74.0738 203.649 73.9024 204.072C73.7309 204.496 73.6447 204.949 73.6486 205.406C73.6525 205.863 73.7464 206.314 73.9251 206.735C74.1038 207.156 74.3636 207.537 74.6899 207.857C75.0161 208.178 75.4023 208.431 75.8264 208.602C76.2505 208.773 76.7043 208.859 77.1618 208.856C77.7552 208.82 78.3307 208.639 78.8375 208.328L78.8969 208.295L79.8865 208.737L79.6622 207.762L79.7084 207.716C80.1667 207.216 80.4687 206.593 80.5771 205.925C80.6856 205.256 80.5958 204.57 80.3188 203.951C80.0418 203.333 79.5897 202.809 79.0182 202.444C78.4466 202.079 77.7807 201.889 77.1024 201.897Z" fill="#263238"/>
<path d="M88.9023 208.605L87.3585 204.843L84.4688 202.207L91.4885 202.154L88.9023 208.605ZM85.1219 202.457L87.5894 204.718L88.9089 207.92L91.1124 202.411L85.1219 202.457Z" fill="#263238"/>
<path d="M91.3502 202.143L87.5234 204.629L87.6638 204.845L91.4905 202.358L91.3502 202.143Z" fill="#263238"/>
<path d="M69.2024 203.031C69.1028 202.526 68.8269 202.073 68.4239 201.753C68.021 201.433 67.5173 201.267 67.0027 201.283C66.4881 201.3 65.9962 201.499 65.6149 201.844C65.2335 202.19 64.9874 202.659 64.9206 203.169C64.845 202.661 64.5914 202.197 64.2049 201.858C63.8185 201.52 63.3244 201.329 62.8105 201.321C62.2966 201.312 61.7963 201.486 61.3986 201.811C61.0009 202.136 60.7317 202.592 60.6389 203.096C60.5397 203.842 60.731 204.597 61.1732 205.205C61.6159 205.805 62.1324 206.348 62.7105 206.82C63.4956 207.479 64.2147 208.138 64.9998 208.843C65.7651 208.144 66.4249 207.485 67.1968 206.78C67.767 206.301 68.2746 205.752 68.7076 205.146C69.137 204.53 69.314 203.773 69.2024 203.031Z" fill="#E8505B"/>
<path d="M68.5603 85.8023C71.191 85.8023 73.3237 83.6722 73.3237 81.0447C73.3237 78.4171 71.191 76.287 68.5603 76.287C65.9295 76.287 63.7969 78.4171 63.7969 81.0447C63.7969 83.6722 65.9295 85.8023 68.5603 85.8023Z" fill="#EBEBEB"/>
<path d="M151.593 182.768C151.593 182.867 131.629 182.946 107.007 182.946C82.3848 182.946 62.4141 182.867 62.4141 182.768C62.4141 182.669 82.3782 182.596 107.007 182.596C131.635 182.596 151.593 182.675 151.593 182.768Z" fill="#455A64"/>
<path d="M151.593 175.354C151.593 175.447 131.629 175.526 107.007 175.526C82.3848 175.526 62.4141 175.447 62.4141 175.354C62.4141 175.262 82.3782 175.183 107.007 175.183C131.635 175.183 151.593 175.262 151.593 175.354Z" fill="#455A64"/>
<path d="M110.952 190.287C110.952 190.379 100.086 190.458 86.6863 190.458C73.2868 190.458 62.4141 190.379 62.4141 190.287C62.4141 190.194 73.2802 190.115 86.6863 190.115C100.093 190.115 110.952 190.194 110.952 190.287Z" fill="#455A64"/>
<path d="M104.968 271.094C104.961 271.469 104.844 271.833 104.631 272.141C104.417 272.449 104.118 272.687 103.769 272.825C103.421 272.963 103.039 272.996 102.672 272.918C102.306 272.84 101.97 272.655 101.708 272.387C101.446 272.119 101.27 271.78 101.201 271.412C101.131 271.044 101.173 270.663 101.32 270.319C101.466 269.974 101.712 269.68 102.025 269.475C102.339 269.269 102.706 269.161 103.081 269.164C103.332 269.166 103.58 269.218 103.811 269.317C104.041 269.415 104.25 269.558 104.426 269.738C104.601 269.917 104.739 270.129 104.832 270.362C104.925 270.595 104.971 270.844 104.968 271.094Z" fill="#263238"/>
<path d="M110.81 271.121C110.802 271.493 110.684 271.855 110.471 272.161C110.258 272.467 109.96 272.703 109.613 272.84C109.266 272.977 108.886 273.009 108.521 272.931C108.156 272.853 107.823 272.669 107.562 272.402C107.301 272.136 107.125 271.798 107.056 271.432C106.987 271.066 107.028 270.687 107.173 270.344C107.319 270.001 107.562 269.709 107.874 269.503C108.185 269.298 108.55 269.189 108.923 269.19C109.174 269.192 109.423 269.243 109.654 269.342C109.885 269.44 110.094 269.583 110.27 269.762C110.445 269.942 110.583 270.154 110.676 270.388C110.769 270.621 110.814 270.87 110.81 271.121Z" fill="#263238"/>
<path d="M116.708 271.147C116.701 271.52 116.583 271.882 116.37 272.187C116.157 272.493 115.858 272.73 115.511 272.866C115.164 273.003 114.784 273.035 114.419 272.957C114.055 272.879 113.721 272.695 113.46 272.429C113.2 272.162 113.024 271.824 112.955 271.458C112.886 271.092 112.926 270.714 113.072 270.37C113.217 270.027 113.461 269.735 113.772 269.529C114.083 269.324 114.448 269.215 114.822 269.216C115.073 269.219 115.32 269.271 115.551 269.369C115.782 269.468 115.991 269.611 116.166 269.79C116.342 269.97 116.48 270.182 116.573 270.415C116.666 270.648 116.712 270.896 116.708 271.147Z" fill="#263238"/>
<path d="M162.686 90.454H57.1719V154.9H162.686V90.454Z" fill="#E0E0E0"/>
<path d="M66.9102 154.913L97.1466 114.493L115.89 139.771L128.597 126.249L153.509 154.887L66.9102 154.913Z" fill="#F5F5F5"/>
<path d="M123.839 109.531C123.84 110.879 123.441 112.197 122.693 113.318C121.944 114.439 120.879 115.314 119.632 115.83C118.386 116.347 117.014 116.483 115.69 116.221C114.367 115.959 113.15 115.31 112.196 114.358C111.241 113.405 110.591 112.191 110.327 110.869C110.063 109.547 110.198 108.177 110.714 106.931C111.23 105.686 112.104 104.621 113.226 103.872C114.348 103.123 115.668 102.724 117.017 102.724C118.825 102.724 120.559 103.441 121.839 104.717C123.118 105.993 123.837 107.725 123.839 109.531Z" fill="#F5F5F5"/>
<path d="M162.4 214.793C162.4 213.416 162.334 155.197 162.242 69.0056L162.4 69.1637H56.8991L57.0706 68.9924C57.0706 123.514 57.0706 173.971 57.0706 214.78L56.9254 214.641L162.44 214.78L56.9254 214.925H56.7869V214.78C56.7869 173.971 56.7869 123.514 56.7539 68.9924V68.821H56.9386H162.44H162.598V68.9726C162.565 112.114 162.539 148.574 162.519 174.261C162.519 187.084 162.486 197.212 162.479 204.144C162.479 207.597 162.479 210.253 162.479 212.052C162.479 212.941 162.479 213.62 162.479 214.081C162.479 214.543 162.4 214.793 162.4 214.793Z" fill="#263238"/>
<path d="M112.793 232.881L115.129 225.046C115.538 223.346 116.079 221.343 116.804 219.056C117.464 217.001 119.14 214.839 120.671 213.284C123.052 210.866 124.187 210.852 125.784 209.568C125.929 209.475 126.094 209.337 126.232 209.264C126.534 209.1 126.799 208.876 127.011 208.605C128.39 207.116 127.064 204.803 124.26 205.027C122.155 205.192 118.711 205.792 113.116 211.558C113.044 211.65 112.971 211.722 112.905 211.808C109.969 215.623 107.212 204.737 106.71 200.685C106.613 200.057 106.375 199.459 106.015 198.935C105.655 198.411 105.182 197.974 104.63 197.658C104.078 197.341 103.462 197.153 102.827 197.107C102.193 197.06 101.556 197.157 100.964 197.39L87.3333 203.756C86.0333 203.379 84.6469 203.425 83.3748 203.887C82.421 204.222 81.6262 204.899 81.1455 205.787C80.6649 206.676 80.5329 207.711 80.7754 208.691L86.3107 230.707L70.0742 284.675H105.074L112.793 232.881Z" fill="#FFBE9D"/>
<path d="M139.713 183.315L128.893 204.493L123.483 202.991L96.3015 225.086C95.1921 225.992 93.7723 226.431 92.3442 226.308C90.9161 226.185 89.5925 225.51 88.655 224.427L78.2969 212.414C78.2969 212.414 99.178 203.432 103.038 195.999C106.897 188.566 102.437 186.873 102.437 186.873L112.261 175.723L139.713 183.315Z" fill="#E8505B"/>
<path d="M125.677 140.061C125.677 140.061 109.843 136.562 87.5503 115.159C65.2572 93.7561 54.7936 65.309 52.0952 65.4671C49.3968 65.6253 37.4553 60.0835 14.7994 109.301C-7.85649 158.518 1.06996 169.925 5.56287 169.859C10.0558 169.793 40.6749 161.246 59.7945 163.414C78.9141 165.582 103.49 175.539 103.49 175.539L125.677 140.061Z" fill="#E8505B"/>
<path d="M159.316 166.887L153.913 177.147L151.491 181.76C149.893 184.796 147.189 187.104 143.938 188.207C140.686 189.311 137.134 189.126 134.015 187.69L100.07 175.875L119.863 130.803L153.774 148.851C156.894 150.519 159.227 153.35 160.265 156.729C161.303 160.107 160.962 163.759 159.316 166.887Z" fill="#E8505B"/>
<g opacity="0.4">
<path d="M159.316 166.887L153.913 177.147L151.491 181.76C149.893 184.796 147.189 187.104 143.938 188.207C140.686 189.311 137.134 189.126 134.015 187.69L100.07 175.875L119.863 130.803L153.774 148.851C156.894 150.519 159.227 153.35 160.265 156.729C161.303 160.107 160.962 163.759 159.316 166.887Z" fill="black"/>
</g>
<path d="M16.6083 110.197C4.55462 136.858 -0.466091 160.62 5.39251 163.263C11.2511 165.905 25.7854 146.439 37.8391 119.771C49.8928 93.1035 54.9135 69.3548 49.0549 66.7057C43.1963 64.0567 28.662 83.5355 16.6083 110.197Z" fill="#E8505B"/>
<g opacity="0.5">
<path d="M16.6083 110.197C4.55462 136.858 -0.466091 160.62 5.39251 163.263C11.2511 165.905 25.7854 146.439 37.8391 119.771C49.8928 93.1035 54.9135 69.3548 49.0549 66.7057C43.1963 64.0567 28.662 83.5355 16.6083 110.197Z" fill="black"/>
</g>
<path d="M162.228 181.72L153.031 178.834L158.725 168.021L165.619 172.304L162.228 181.72Z" fill="#E8505B"/>
<g opacity="0.6">
<path d="M158.725 168.02L153.031 178.833L154.918 179.427L159.55 168.534L158.725 168.02Z" fill="black"/>
</g>
<path d="M152.378 170.511C152.246 170.808 147.654 169.029 142.125 166.558C136.596 164.087 132.229 161.793 132.354 161.497C132.48 161.2 137.078 162.986 142.613 165.484C148.149 167.981 152.516 170.215 152.378 170.511Z" fill="#E8505B"/>
<path d="M155.213 164.073C155.068 164.363 150.912 162.617 145.931 160.165C140.95 157.714 137.031 155.493 137.176 155.197C137.321 154.9 141.471 156.653 146.452 159.104C151.433 161.556 155.359 163.776 155.213 164.073Z" fill="#E8505B"/>
<path d="M148.817 177.265C148.771 177.424 147.676 177.173 145.934 176.606C145.063 176.336 144.027 175.994 142.886 175.605C141.744 175.216 140.577 174.597 139.316 174.023C134.283 171.691 130.436 169.411 130.562 169.134C130.687 168.857 134.824 170.643 139.798 172.956C141.052 173.523 142.213 174.142 143.308 174.597C144.403 175.051 145.386 175.453 146.211 175.822C147.86 176.58 148.863 177.107 148.817 177.265Z" fill="#E8505B"/>
<path d="M41.1828 104.273C41.1828 104.273 27.4204 95.7462 19.8926 114.322C12.3648 132.898 26.8398 135.949 26.8398 135.949C33.0906 126.118 37.9193 115.454 41.1828 104.273Z" fill="#E8505B"/>
<g opacity="0.5">
<path d="M55.8218 82.1318C55.9076 82.1318 55.7097 83.4102 55.2874 85.6836C54.8652 87.957 54.2318 91.2452 53.3478 95.2912L51.4345 101.795C51.087 102.959 50.7285 104.165 50.3591 105.413L49.7983 107.304C49.5938 107.963 49.3233 108.563 49.0858 109.202L45.9783 117.215C45.7078 117.913 45.4307 118.612 45.1602 119.317C44.8897 120.022 44.5005 120.694 44.1904 121.392L42.1452 125.61L40.0933 129.82C39.7437 130.479 39.4336 131.217 39.0575 131.863C38.6815 132.509 38.2856 133.181 37.9096 133.807L33.5222 141.207C33.166 141.787 32.8625 142.387 32.4666 142.94L31.3252 144.555L29.1349 147.639L25.1764 153.154C22.5373 156.337 20.3338 158.848 18.8163 160.594C18.071 161.539 17.2479 162.421 16.3555 163.23C16.9757 162.201 17.682 161.227 18.4667 160.317C19.9313 158.452 21.9963 155.843 24.5298 152.634L28.3234 147.079L30.4478 143.988C30.8172 143.461 31.1867 142.921 31.5628 142.374C31.9388 141.827 32.2225 141.227 32.5854 140.641L36.9199 133.247L38.0481 131.31C38.4374 130.651 38.7079 129.992 39.0707 129.28L41.1028 125.096C41.7625 123.679 42.4685 122.289 43.1414 120.911C43.4581 120.252 43.8407 119.554 44.1046 118.855L44.9293 116.773L48.0829 108.866C48.3271 108.207 48.6041 107.62 48.8153 106.988C49.0264 106.355 49.2045 105.736 49.3959 105.116L50.5174 101.538L52.5429 95.1133L54.8322 85.6243C55.0619 84.4341 55.3929 83.2657 55.8218 82.1318Z" fill="black"/>
</g>
<g opacity="0.4">
<path d="M81.5781 210.938C82.8383 213.218 84.1182 215.551 85.9721 217.35C87.826 219.149 90.3594 220.427 92.9984 220.163C95.6374 219.9 98.0455 217.752 98.0719 215.155C99.3123 216.085 101.219 215.584 102.248 214.417C103.277 213.251 103.614 211.637 103.733 210.088C105.422 211.083 107.77 210.299 108.898 208.698C109.416 207.864 109.744 206.926 109.858 205.951C109.972 204.976 109.87 203.988 109.558 203.057C108.915 201.204 108.002 199.457 106.847 197.871C108.166 197.976 109.525 198.069 110.686 197.482C111.848 196.896 112.666 195.354 111.96 194.247C111.496 193.629 110.823 193.2 110.066 193.041C108.028 192.382 106.603 191.894 104.478 192.138C103.99 192.138 105.329 197.726 92.022 205.357C84.1248 209.871 81.5781 210.938 81.5781 210.938Z" fill="black"/>
</g>
<path d="M111.543 218.978C111.543 219.037 110.652 218.866 109.214 218.905C107.345 218.95 105.507 219.39 103.821 220.198C102.135 221.006 100.641 222.162 99.4365 223.59C98.5063 224.684 98.117 225.481 98.0312 225.448C98.0861 225.243 98.1729 225.047 98.2886 224.869C98.5711 224.367 98.8909 223.886 99.2452 223.432C100.431 221.929 101.946 220.717 103.675 219.89C105.403 219.063 107.298 218.643 109.214 218.661C109.789 218.665 110.363 218.718 110.929 218.819C111.142 218.835 111.349 218.889 111.543 218.978Z" fill="#EB996E"/>
<path d="M82.4453 207.373C84.5895 209.429 86.0542 211.702 88.3039 213.771C89.3265 214.714 90.9429 216.493 92.2624 216.73C93.5819 216.967 94.5056 216.789 95.0466 215.511C95.4886 214.476 94.6969 213.06 94.1559 212.216C92.7243 209.969 91.352 208.216 90.2832 206.47C89.7752 205.653 90.4283 205.482 90.6658 205.864C91.695 206.931 93.2389 207.841 94.1625 209.02C95.4292 210.608 95.6535 212.724 98.9655 212.051C99.4084 211.98 99.8286 211.806 100.193 211.544C101.44 210.589 101.512 208.908 100.971 207.59C100.504 206.573 99.8807 205.635 99.1238 204.81C100.536 206.398 102.073 208.104 104.316 208.249C104.95 208.326 105.592 208.204 106.153 207.901C106.714 207.597 107.168 207.127 107.45 206.556C108.11 205.053 107.166 203.597 106.21 202.424C104.516 200.339 102.632 198.415 100.582 196.678C99.8162 196.035 98.8505 195.679 97.8505 195.67C96.6894 195.67 95.2115 195.881 94.5518 196.882C94.1749 197.365 93.9004 197.92 93.745 198.513C93.5896 199.105 93.5566 199.723 93.6479 200.329C93.6479 200.329 90.745 198.859 88.4095 200.395C86.9718 201.403 85.9387 202.888 85.4934 204.585L82.4453 207.373Z" fill="#FFBE9D"/>
<path d="M97.9142 195.038C97.4499 194.499 97.1619 193.832 97.0888 193.125C97.0156 192.418 97.1609 191.706 97.5052 191.084C98 190.115 98.6201 189.173 99.2535 188.962C102.018 188.033 114.105 190.122 113.992 192.797C113.88 195.473 112.996 196.751 106.445 195.809C105.29 195.644 103.483 195.42 103.483 195.42L101.899 197.792L97.9142 195.038Z" fill="#FFBE9D"/>
<path d="M100.079 206.253C98.4926 203.641 96.1796 201.546 93.4219 200.224C93.8718 200.296 94.3052 200.448 94.7018 200.672C96.6877 201.631 98.3551 203.141 99.5048 205.021C99.771 205.393 99.9656 205.81 100.079 206.253Z" fill="#EB996E"/>
<path d="M102.111 198.023C102.052 198.076 101.254 197.43 100.165 196.764C99.7097 196.476 99.2383 196.214 98.7531 195.98C98.377 195.809 98.1263 195.763 98.1329 195.71C98.1395 195.657 98.4166 195.631 98.8323 195.756C99.3675 195.928 99.8777 196.169 100.35 196.474C101.465 197.153 102.197 197.95 102.111 198.023Z" fill="#EB996E"/>
<path d="M104.143 195.532C103.357 195.623 102.56 195.533 101.814 195.268C101.269 195.102 100.762 194.828 100.323 194.464C99.9931 194.181 99.8546 193.95 99.8876 193.917C100.522 194.327 101.202 194.663 101.913 194.919C102.669 195.073 103.414 195.278 104.143 195.532Z" fill="#EB996E"/>
<path d="M92.4002 209.568C91.9835 209.131 91.6142 208.652 91.2984 208.138C90.5451 206.92 89.5929 205.838 88.4812 204.935C87.3291 204.093 85.9012 203.717 84.4832 203.881C83.9015 203.985 83.3359 204.164 82.8008 204.415C82.8008 204.415 82.9195 204.276 83.19 204.111C83.5753 203.878 84.0002 203.717 84.4436 203.637C85.1821 203.518 85.937 203.547 86.6642 203.722C87.3914 203.897 88.0764 204.216 88.6792 204.658C89.8272 205.58 90.786 206.714 91.5029 207.999C91.8456 208.496 92.1458 209.021 92.4002 209.568Z" fill="#EB996E"/>
<path d="M101.643 236.255C100.015 236.601 98.3667 236.837 96.7077 236.96C95.0579 237.199 93.3935 237.323 91.7266 237.33C93.3561 236.984 95.007 236.749 96.6681 236.624C98.3161 236.39 99.978 236.266 101.643 236.255Z" fill="#EB996E"/>
<path d="M205.573 17.1064L206.319 18.4639L207.678 19.2085L206.319 19.9531L205.573 21.3106L204.828 19.9531L203.469 19.2085L204.828 18.4639L205.573 17.1064Z" fill="#E8505B"/>
<path d="M221.144 50.8258L221.889 52.1833L223.255 52.9279L221.889 53.6725L221.144 55.0299L220.398 53.6725L219.039 52.9279L220.398 52.1833L221.144 50.8258Z" fill="#E8505B"/>
<path d="M185.14 25.4884L186.855 28.625L190.002 30.3449L186.855 32.0648L185.14 35.2014L183.418 32.0648L180.277 30.3449L183.418 28.625L185.14 25.4884Z" fill="#E8505B"/>
<path d="M225.38 194.181L227.102 197.318L230.236 199.031L227.102 200.744L225.38 203.874L223.665 200.744L220.531 199.031L223.665 197.318L225.38 194.181Z" fill="#E8505B"/>
</g>
<defs>
<clipPath id="clip0_92_7384">
<rect width="242" height="294" fill="white"/>
</clipPath>
</defs>
</svg>
