<svg width="442" height="446" viewBox="0 0 442 446" fill="none" xmlns="http://www.w3.org/2000/svg">
<path d="M64.3603 142.849L49.3603 136.689C49.3603 136.689 44.1803 149.279 31.0103 144.119C28.4521 143.176 26.2522 141.458 24.7176 139.204C23.183 136.951 22.3903 134.274 22.4503 131.549C22.4646 129.259 23.0212 127.004 24.0745 124.971C25.1279 122.937 26.6479 121.182 28.5103 119.849C32.7703 116.699 40.0803 114.759 49.4503 120.699L63.1803 87.3188L48.3503 81.2188L40.2103 101.019C40.2103 101.019 17.2103 97.8488 7.80025 120.759C-1.19975 142.679 17.1203 156.169 27.3503 160.379C33.8003 163.019 53.7703 169.419 64.3603 142.849Z" fill="#F5F5F5"/>
<path d="M56.8231 60.1406L51.0469 74.1895L66.0946 80.3763L71.8709 66.3274L56.8231 60.1406Z" fill="#F5F5F5"/>
<path d="M59.2804 140.771L44.2804 134.611C44.2804 134.611 39.1004 147.191 25.9304 142.041C23.3731 141.097 21.174 139.378 19.6397 137.125C18.1053 134.872 17.312 132.196 17.3704 129.471C17.3851 127.179 17.9429 124.924 18.9981 122.89C20.0532 120.857 21.5757 119.102 23.4404 117.771C27.7004 114.621 34.8404 113.101 44.2104 119.041L58.1104 85.2406L43.2904 79.1406L35.1504 98.9406C35.1504 98.9406 12.1504 95.7706 2.72043 118.651C-6.27957 140.571 11.2804 153.771 19.7204 157.201C26.1304 159.851 48.7204 167.301 59.2804 140.771Z" fill="#E0E0E0"/>
<path d="M51.7401 58.037L45.9639 72.0859L61.0116 78.2728L66.7878 64.2239L51.7401 58.037Z" fill="#E0E0E0"/>
<path d="M419.09 399.4L409.8 400.17C409.8 400.17 410.45 407.97 402.35 408.79C400.791 408.974 399.214 408.668 397.836 407.916C396.458 407.163 395.348 406.001 394.66 404.59C394.064 403.416 393.753 402.117 393.753 400.8C393.753 399.483 394.064 398.184 394.66 397.01C396.02 394.28 399.26 391.37 405.61 391.95L403.9 371.25L394.7 372.02L395.7 384.29C395.7 384.29 383.09 388.7 384.27 402.9C385.4 416.49 398.33 418.6 404.67 418.07C408.72 417.77 420.63 415.77 419.09 399.4Z" fill="#F5F5F5"/>
<path d="M403.286 360.716L393.926 361.465L394.625 370.205L403.985 369.456L403.286 360.716Z" fill="#F5F5F5"/>
<path d="M415.94 399.639L406.64 400.419C406.64 400.419 407.29 408.219 399.19 409.029C397.633 409.217 396.056 408.915 394.679 408.164C393.302 407.413 392.195 406.25 391.51 404.839C390.914 403.665 390.603 402.366 390.603 401.049C390.603 399.732 390.914 398.433 391.51 397.259C392.87 394.529 396.13 391.879 402.51 392.459L400.77 371.459L391.58 372.229L392.58 384.499C392.58 384.499 379.97 388.899 381.15 403.109C382.28 416.699 394.73 418.849 399.94 418.409C403.96 418.119 417.48 416.029 415.94 399.639Z" fill="#E0E0E0"/>
<path d="M399.727 358.465L390.399 359.24L391.123 367.95L400.451 367.175L399.727 358.465Z" fill="#E0E0E0"/>
<path d="M365.1 62.2781L383.51 55.0081C383.51 55.0081 377.4 39.5481 393.36 32.9281C396.413 31.5962 399.806 31.2503 403.065 31.9387C406.324 32.627 409.287 34.3154 411.54 36.7681C413.463 38.7927 414.88 41.243 415.676 43.9192C416.472 46.5955 416.624 49.4219 416.12 52.1681C415.03 58.5481 410.24 66.4481 396.97 69.1681L413.16 110.168L431.37 102.978L421.72 78.6481C421.72 78.6481 444.72 61.9681 433.58 33.8281C422.94 6.90814 395.38 10.5581 382.81 15.5281C374.91 18.6481 351.92 29.9281 365.1 62.2781Z" fill="#F5F5F5"/>
<path d="M434.966 111.438L416.485 118.736L423.299 135.99L441.78 128.691L434.966 111.438Z" fill="#F5F5F5"/>
<path d="M357.72 65.1774L376.14 57.9074C376.14 57.9074 370.03 42.4474 385.99 35.8274C389.04 34.4919 392.431 34.1411 395.69 34.8241C398.948 35.507 401.913 37.1896 404.17 39.6374C406.095 41.6665 407.514 44.1219 408.31 46.8034C409.106 49.4849 409.257 52.3165 408.75 55.0674C407.72 61.4474 402.72 68.8274 389.42 71.5474L405.82 113.057L424.02 105.867L414.42 81.5474C414.42 81.5474 437.35 64.8674 426.23 36.7674C415.6 9.76736 388.99 13.0874 378.65 17.1674C370.72 20.2874 344.58 32.8274 357.72 65.1774Z" fill="#E0E0E0"/>
<path d="M427.625 114.33L409.144 121.629L415.957 138.882L434.438 131.584L427.625 114.33Z" fill="#E0E0E0"/>
<path d="M215.778 40.7215C217.472 21.6267 203.335 4.77116 184.202 3.07365C165.068 1.37615 148.184 15.4794 146.49 34.5742C144.796 53.6691 158.933 70.5245 178.067 72.222C197.2 73.9195 214.084 59.8163 215.778 40.7215Z" fill="white"/>
<path d="M203.47 64.2797L203.9 63.9197L205.12 62.7697L206.02 61.9397C206.34 61.6297 206.66 61.2497 207.02 60.8497L208.17 59.5697C208.589 59.0701 208.983 58.5494 209.35 58.0097C211.356 55.3037 212.935 52.3053 214.03 49.1197C215.526 44.9077 216.188 40.4447 215.98 35.9797C215.98 35.3597 215.91 34.7297 215.88 34.0997C215.85 33.4697 215.69 32.8397 215.6 32.1897C215.51 31.5397 215.44 30.8997 215.27 30.2597C215.1 29.6197 214.94 28.9697 214.78 28.2597L214.21 26.4097V26.2997C213.98 25.6497 213.74 24.9897 213.51 24.2997C213.28 23.6097 212.91 23.0197 212.61 22.3697C212.319 21.7053 211.985 21.0606 211.61 20.4397C210.88 19.147 210.065 17.9042 209.17 16.7197C208.71 16.1297 208.28 15.4997 207.78 14.9197L205.63 12.5897L205.4 12.3697L204.52 11.5897C203.92 11.0797 203.34 10.5297 202.72 10.0297C201.445 9.04556 200.109 8.14373 198.72 7.32969C197.288 6.49377 195.801 5.75543 194.27 5.11969C193.48 4.80969 192.67 4.56969 191.87 4.27969C191.47 4.15969 191.07 3.98969 190.66 3.88969L189.34 3.76969C187.993 3.42608 186.622 3.17879 185.24 3.02969L183.15 2.76969L180.9 2.67969H180.24L178.9 2.74969L177.56 2.82969L176.23 3.01969L174.89 3.22969L174.22 3.32969L173.56 3.48969L168.65 4.97969L168.31 5.09969C164.838 6.50627 161.599 8.42783 158.7 10.7997C155.853 13.2388 153.392 16.0944 151.4 19.2697L151.24 19.5497C150.6 20.8197 149.55 22.8897 148.9 24.1597L148.63 24.7797L148.41 25.4197L147.97 26.7697L147.54 28.0497L147.24 29.3597L146.93 30.6597L146.78 31.3097L146.48 33.5397L146.29 35.6297C146.19 37.0145 146.19 38.4048 146.29 39.7897L146.36 41.0697C146.36 41.4997 146.48 41.9197 146.53 42.3397C146.67 43.1797 146.77 44.0197 146.94 44.8397C147.291 46.4635 147.756 48.0607 148.33 49.6197C148.902 51.1436 149.57 52.6299 150.33 54.0697C150.71 54.7697 151.15 55.4297 151.55 56.0697L152.16 57.0697L152.34 57.3297L154.25 59.8497C154.74 60.4497 155.25 60.9797 155.79 61.5397C156.796 62.6129 157.875 63.6153 159.02 64.5397C159.56 65.0378 160.127 65.5052 160.72 65.9397C161.31 66.3397 161.87 66.7797 162.47 67.1497L164.29 68.1997L166.09 69.1197L167.93 69.9397C168.534 70.1954 169.152 70.4191 169.78 70.6097C170.39 70.8097 171 71.0297 171.6 71.2097L173.44 71.6397C177.8 72.6235 182.31 72.7525 186.72 72.0197C190.048 71.4966 193.276 70.4645 196.29 68.9597C196.886 68.6954 197.467 68.3983 198.03 68.0697L199.49 67.1697C199.94 66.8897 200.37 66.6397 200.74 66.3897L201.74 65.6397L203.04 64.6397C203.34 64.4097 203.48 64.2797 203.48 64.2797L203.02 64.6097L201.69 65.6097C201.39 65.8197 201.07 66.0697 200.69 66.3297C200.31 66.5897 199.89 66.8197 199.44 67.0997L197.97 67.9797C197.402 68.2995 196.818 68.5899 196.22 68.8497C193.218 70.2957 190.016 71.2802 186.72 71.7697C182.339 72.4703 177.864 72.321 173.54 71.3297L171.72 70.9297C171.11 70.7497 170.52 70.5297 169.91 70.3297C169.3 70.1297 168.67 69.9497 168.08 69.6597L166.26 68.8397L164.54 67.9597H164.46L162.67 66.9597C162.07 66.5897 161.52 66.1497 160.94 65.7497C160.344 65.3518 159.773 64.9176 159.23 64.4497C158.098 63.5253 157.032 62.5229 156.04 61.4497C155.54 60.8997 155.04 60.3697 154.52 59.7797L152.63 57.2697C152.568 57.1903 152.511 57.1068 152.46 57.0197L151.85 56.0197C151.46 55.3497 151.02 54.6997 150.65 54.0197C149.915 52.5964 149.273 51.1266 148.73 49.6197C148.151 48.0383 147.687 46.4174 147.34 44.7697C147.17 43.9597 147.08 43.1297 146.94 42.2997C146.89 41.8797 146.79 41.4697 146.77 41.0497L146.72 39.7697C146.61 38.0548 146.61 36.3346 146.72 34.6197C146.84 33.7597 146.96 32.8997 147.07 32.0297L147.16 31.3797L147.31 30.7397L147.61 29.4597L147.92 28.1597L148.34 26.8997L148.77 25.6297L148.99 24.9997L149.26 24.3797L151.61 19.7697L151.76 19.5197C155.651 13.1569 161.516 8.24055 168.46 5.51969L168.78 5.39969L173.65 3.92969L174.3 3.75969L174.96 3.65969L176.29 3.45969L177.6 3.25969L178.93 3.18969L180.25 3.11969H180.91H181.56L184.17 3.21969C185.877 3.39583 187.571 3.68648 189.24 4.08969L190.48 4.37969C190.89 4.46969 191.28 4.63969 191.68 4.75969C192.47 5.03969 193.28 5.27969 194.05 5.57969C195.568 6.20875 197.041 6.94044 198.46 7.76969C199.852 8.56528 201.188 9.45397 202.46 10.4297C203.08 10.9197 203.65 11.4297 204.24 11.9697L205.12 12.7397L205.34 12.9497L207.47 15.2497C207.97 15.8197 208.4 16.4497 208.86 17.0297C209.747 18.2225 210.555 19.4719 211.28 20.7697C211.647 21.3881 211.981 22.0257 212.28 22.6797C212.57 23.3197 212.91 23.9397 213.17 24.5897L213.87 26.5397C213.99 26.8597 214.11 27.1797 214.22 27.5397V27.6297C214.46 28.5797 214.7 29.5197 214.94 30.4397C215.12 31.0797 215.16 31.7297 215.28 32.3597C215.4 32.9897 215.48 33.6297 215.56 34.2497C215.64 34.8697 215.63 35.4997 215.66 36.1097C215.887 40.5397 215.252 44.9716 213.79 49.1597C212.719 52.3321 211.171 55.323 209.2 58.0297C208.78 58.5797 208.46 59.1497 208.04 59.5997L206.92 60.7697C206.57 61.1697 206.26 61.5497 205.92 61.8697L205.04 62.7097L203.84 63.8397C203.6 64.1397 203.47 64.2797 203.47 64.2797Z" fill="#E0E0E0"/>
<path d="M210.78 83.4394C210.201 84.2074 209.436 84.8154 208.557 85.2064C207.679 85.5974 206.715 85.7585 205.757 85.6745C204.799 85.5905 203.878 85.2642 203.081 84.7262C202.284 84.1883 201.636 83.4564 201.2 82.5994C200.719 81.6605 200.513 80.6053 200.605 79.5546C200.697 78.504 201.084 77.5005 201.72 76.6594C202.635 75.5023 203.965 74.7481 205.428 74.5573C206.891 74.3666 208.37 74.7544 209.551 75.6382C210.732 76.522 211.521 77.8319 211.751 79.2891C211.98 80.7462 211.632 82.2353 210.78 83.4394Z" fill="white"/>
<path d="M209.88 84.3798C209.88 84.3798 209.99 84.3198 210.17 84.1698C210.439 83.9451 210.68 83.6901 210.89 83.4098C211.551 82.5257 211.944 81.4696 212.02 80.3681C212.096 79.2667 211.853 78.1666 211.32 77.1998C210.812 76.2884 210.07 75.529 209.17 74.9998C208.176 74.4087 207.024 74.1364 205.87 74.2198C204.626 74.2882 203.437 74.7577 202.481 75.5581C201.526 76.3584 200.855 77.4466 200.57 78.6598C200.294 79.7835 200.36 80.964 200.76 82.0498C201.124 83.0271 201.742 83.89 202.55 84.5498C203.254 85.1193 204.084 85.5135 204.97 85.6998C206.246 85.9777 207.578 85.8045 208.74 85.2098C209.055 85.0565 209.347 84.8614 209.61 84.6298C209.8 84.4798 209.89 84.3898 209.88 84.3798C209.87 84.3698 209.47 84.6898 208.67 85.0598C207.529 85.5782 206.249 85.7014 205.03 85.4098C204.325 85.242 203.661 84.9365 203.074 84.5111C202.488 84.0856 201.991 83.5485 201.613 82.9306C201.235 82.3126 200.983 81.6261 200.871 80.9103C200.758 80.1946 200.789 79.4637 200.96 78.7598C201.235 77.6334 201.862 76.6242 202.751 75.8794C203.64 75.1347 204.743 74.6933 205.9 74.6198C206.976 74.5445 208.049 74.7954 208.98 75.3398C209.811 75.8185 210.501 76.5084 210.98 77.3398C211.501 78.2543 211.752 79.2976 211.704 80.3488C211.656 81.4001 211.312 82.4163 210.71 83.2798C210.25 84.0398 209.84 84.3498 209.88 84.3798Z" fill="#E0E0E0"/>
<path d="M170.48 31.9498H175.72C175.718 31.3509 175.835 30.7575 176.066 30.2049C176.297 29.6523 176.636 29.1517 177.065 28.7328C177.493 28.314 178.001 27.9855 178.558 27.7668C179.116 27.5482 179.712 27.4438 180.31 27.4598C181.195 27.4278 182.067 27.6727 182.806 28.1603C183.544 28.6479 184.112 29.3539 184.43 30.1798C184.706 30.8682 184.815 31.6118 184.749 32.3503C184.683 33.0889 184.444 33.8013 184.05 34.4298C183.16 35.8998 181.21 37.2398 177.67 36.6198V48.4698H182.86V41.4698C184.994 40.8454 186.863 39.5373 188.18 37.7467C189.497 35.9561 190.19 33.7824 190.15 31.5598C190.15 23.8698 183.26 22.0898 180.31 22.0898C178.06 22.1398 170.38 22.6798 170.48 31.9498Z" fill="#E0E0E0"/>
<path d="M182.93 50.9102H177.66V55.8402H182.93V50.9102Z" fill="#E0E0E0"/>
<path d="M110.19 180.41H115.45C115.448 179.811 115.565 179.218 115.796 178.665C116.027 178.112 116.366 177.612 116.795 177.193C117.223 176.774 117.731 176.446 118.288 176.227C118.846 176.008 119.442 175.904 120.04 175.92C120.922 175.889 121.791 176.134 122.528 176.619C123.264 177.105 123.831 177.807 124.15 178.63C124.431 179.318 124.543 180.064 124.479 180.804C124.415 181.545 124.175 182.26 123.78 182.89C122.89 184.36 120.93 185.7 117.39 185.07V196.92H122.59V189.98C124.724 189.355 126.593 188.047 127.91 186.257C129.227 184.466 129.92 182.292 129.88 180.07C129.88 172.38 122.99 170.59 120.04 170.59C117.78 170.59 110.09 171.14 110.19 180.41Z" fill="#E0E0E0"/>
<path d="M122.651 199.371H117.381V204.301H122.651V199.371Z" fill="#E0E0E0"/>
<path d="M346.011 218.859L340.12 215.119C340.12 215.119 336.97 220.119 331.77 216.889C330.751 216.296 329.943 215.398 329.461 214.321C328.978 213.245 328.845 212.045 329.08 210.889C329.258 209.918 329.663 209.003 330.263 208.219C330.863 207.435 331.64 206.804 332.53 206.379C334.58 205.379 337.731 205.259 341.261 208.479L349.701 195.179L343.87 191.469L338.921 199.269C338.921 199.269 329.401 196.189 323.671 205.199C318.191 213.829 324.67 220.739 327.97 222.849C330.5 224.479 339.521 229.339 346.011 218.859Z" fill="#E0E0E0"/>
<path d="M349.062 183.207L345.551 188.736L351.468 192.495L354.98 186.965L349.062 183.207Z" fill="#E0E0E0"/>
<path d="M112.43 34.1507L107.54 36.0807C107.765 36.6357 107.876 37.2304 107.867 37.8294C107.857 38.4283 107.726 39.0191 107.482 39.5662C107.238 40.1134 106.887 40.6058 106.448 41.0138C106.01 41.4218 105.493 41.7371 104.93 41.9407C104.121 42.2986 103.221 42.3946 102.355 42.2153C101.488 42.036 100.7 41.5903 100.1 40.9407C99.5886 40.4036 99.2122 39.7527 99.0018 39.0416C98.7915 38.3305 98.7531 37.5795 98.8899 36.8507C99.1799 35.1507 100.5 33.1907 104.03 32.4707L99.6699 21.4707L94.8399 23.3807L97.3899 29.7707C95.6353 31.1365 94.3778 33.0406 93.8105 35.1905C93.2432 37.3404 93.3976 39.6171 94.2499 41.6707C97.0699 48.8207 104.14 47.9507 106.88 46.8707C108.98 46.0707 115.93 42.7707 112.43 34.1507Z" fill="#E0E0E0"/>
<path d="M97.0622 14.261L92.1611 16.2109L93.9852 20.7958L98.8863 18.8459L97.0622 14.261Z" fill="#E0E0E0"/>
<path d="M103.821 325.01C103.821 325.01 95.2814 317.01 91.9914 314.86C88.7014 312.71 81.3414 309.8 78.5914 309.53C75.8414 309.26 62.9714 312.99 62.9714 312.99C62.9714 312.99 43.9714 311.31 40.7814 313.53C37.5914 315.75 37.8514 318.05 39.1914 319.74C40.5314 321.43 45.6614 320.89 51.3414 320.98C57.0214 321.07 58.5314 321.6 58.5314 321.6L50.2814 330.39L71.7214 336.34L84.7214 335.85L89.4214 341.77L103.821 325.01Z" fill="#FFBF9D"/>
<path d="M38.7207 305.159L39.2407 324.079L40.1507 326.429L49.4907 337.819L72.2707 336.309L54.1207 329.239L47.6707 324.339L45.1707 316.249C45.1707 316.249 45.9307 303.769 38.7207 305.159Z" fill="#FFBF9D"/>
<path d="M40.301 326.868H34.721C34.721 326.868 27.481 314.958 20.861 319.008L22.381 321.358C22.381 321.358 19.381 320.008 17.501 322.518L35.761 338.518H36.601L56.051 337.268L40.301 326.868Z" fill="#FFBF9D"/>
<path d="M43.6111 330.49C43.0894 330.539 42.5652 330.559 42.0411 330.55C40.7209 330.563 39.4148 330.824 38.1911 331.32L38.0111 331.41L37.8911 331.24C37.3211 330.44 36.6311 329.59 35.8911 328.7C34.4211 326.87 33.0811 325.22 31.9611 323.84C31.388 323.194 30.8695 322.501 30.4111 321.77C31.0943 322.312 31.7148 322.929 32.2611 323.61C33.3311 324.8 34.7811 326.47 36.3211 328.38C37.0411 329.28 37.7211 330.13 38.3211 330.98L38.0111 330.9C39.2999 330.387 40.6876 330.171 42.0711 330.27C42.5939 330.241 43.1171 330.316 43.6111 330.49Z" fill="#FF9A6C"/>
<path d="M83.0713 319.479C80.8678 320.227 78.7221 321.137 76.6513 322.199C74.6771 323.432 72.7985 324.813 71.0312 326.329C71.3976 325.742 71.8531 325.215 72.3813 324.769C73.5832 323.604 74.9272 322.596 76.3813 321.769C77.8391 320.939 79.3943 320.294 81.0113 319.849C81.6731 319.613 82.369 319.488 83.0713 319.479Z" fill="#FF9A6C"/>
<path d="M64.8706 314.578C64.0829 315.706 63.2104 316.773 62.2606 317.768C61.4442 318.881 60.5414 319.927 59.5605 320.898C60.1223 319.621 60.9004 318.45 61.8605 317.438C62.6925 316.319 63.7107 315.352 64.8706 314.578Z" fill="#FF9A6C"/>
<path d="M45.8509 333.129C45.6947 332.999 45.5508 332.855 45.4209 332.699L44.2409 331.389L42.4109 329.289L41.2709 327.979C40.8208 327.496 40.4064 326.982 40.0309 326.439C39.1867 325.152 38.7319 323.648 38.7209 322.109C38.7209 320.499 38.6509 318.779 38.6209 316.969C38.5609 313.339 38.4909 309.349 38.4209 305.159V304.929H38.6309L39.2409 304.849C39.9129 304.769 40.5941 304.845 41.2322 305.071C41.8702 305.296 42.4479 305.665 42.9209 306.149C43.768 307.095 44.3842 308.225 44.7209 309.449C45.3074 311.672 45.5369 313.974 45.4009 316.269V316.189C46.3309 319.249 47.1509 321.989 47.8509 324.289L47.7809 324.199L52.4709 327.869L53.7209 328.869C53.8708 328.977 54.0083 329.101 54.1309 329.239C54.1309 329.239 53.9609 329.159 53.6609 328.949L52.3609 328.019L47.5709 324.479V324.419C46.8509 322.129 45.9909 319.419 45.0209 316.349V316.269C45.1324 314.029 44.8928 311.785 44.3109 309.619C44.0152 308.468 43.4534 307.403 42.6709 306.509C42.25 306.081 41.7361 305.755 41.169 305.557C40.6019 305.359 39.9969 305.295 39.4009 305.369L38.8509 305.439L39.0609 305.179C39.1209 309.369 39.1709 313.359 39.2109 316.989C39.2509 320.619 38.8009 323.989 40.4409 326.279C40.7678 326.799 41.1286 327.297 41.5209 327.769L42.6309 329.109C43.3109 329.929 43.9009 330.649 44.3909 331.259L45.4909 332.629C45.6309 332.78 45.7518 332.948 45.8509 333.129Z" fill="#FF9A6C"/>
<path d="M36.6413 338.528C36.2864 338.561 35.9313 338.465 35.6413 338.258C34.857 337.783 34.1376 337.208 33.5013 336.548C31.4204 334.391 29.5081 332.077 27.7813 329.628C25.7213 326.768 23.9913 324.148 22.7213 322.218C22.1113 321.218 21.6313 320.458 21.3113 319.898C21.117 319.626 20.9652 319.326 20.8613 319.008C21.0989 319.242 21.3071 319.504 21.4813 319.788L23.0313 322.008C24.3413 323.898 26.1313 326.498 28.1913 329.318C29.9078 331.757 31.7642 334.094 33.7513 336.318C34.3508 336.986 35.0215 337.586 35.7513 338.108C36.0349 338.274 36.3328 338.415 36.6413 338.528Z" fill="#FF9A6C"/>
<path d="M69.8709 326.32L59.8209 325.64L56.8209 317.41L56.2709 311.87C56.1535 310.559 55.5495 309.339 54.5779 308.451C53.6063 307.563 52.3374 307.07 51.0209 307.07H50.9209L51.4809 320.64L53.5509 329.07L61.7209 333.89H71.7209L69.8709 326.32Z" fill="#FFBF9D"/>
<path d="M69.8709 326.32L59.8209 325.64L56.8209 317.41L56.2709 311.87C56.1535 310.559 55.5495 309.339 54.5779 308.451C53.6063 307.563 52.3374 307.07 51.0209 307.07H50.9209L51.4809 320.64L53.5509 329.07L61.7209 333.89" fill="#FFBF9D"/>
<path d="M61.7207 333.889C61.5157 333.811 61.3182 333.714 61.1307 333.599L59.4907 332.689L53.4907 329.229H53.4207V329.159C52.8107 326.739 52.1007 323.879 51.3107 320.739V320.689C51.1307 316.609 50.9307 311.999 50.7207 307.119V306.859H50.9807C51.0707 306.859 51.1807 306.859 51.2807 306.859C52.4895 306.902 53.6506 307.341 54.5849 308.109C55.5192 308.878 56.1749 309.932 56.4507 311.109C56.5687 311.653 56.6456 312.204 56.6807 312.759L56.8307 314.359C56.9407 315.359 57.0307 316.439 57.1307 317.429V317.369C58.2307 320.439 59.2207 323.219 60.1307 325.629L59.9607 325.499L67.3107 326.079L69.3107 326.269C69.5434 326.28 69.7745 326.314 70.0007 326.369C69.768 326.393 69.5334 326.393 69.3007 326.369L67.3007 326.279L59.9507 325.869H59.7207V325.759C58.8307 323.359 57.8107 320.589 56.7207 317.539V317.479C56.6207 316.479 56.5107 315.479 56.4007 314.409C56.3507 313.879 56.2907 313.349 56.2407 312.809C56.2045 312.278 56.131 311.75 56.0207 311.229C55.7692 310.162 55.1739 309.207 54.3265 308.512C53.479 307.816 52.4264 307.418 51.3307 307.379H50.9207L51.1707 307.109C51.3607 311.979 51.5507 316.599 51.7107 320.679C52.4707 323.829 53.1507 326.679 53.7107 329.119L53.6207 328.999L59.5607 332.599L61.1607 333.599C61.3592 333.671 61.5475 333.769 61.7207 333.889Z" fill="#FF9A6C"/>
<path d="M285.141 166.189C276.531 133.359 268.581 95.1888 220.571 98.5888C220.571 98.5888 190.991 104.279 176.951 126.109C168.681 138.949 161.521 194.309 160.101 238.029C160.041 239.809 160.781 252.219 160.731 253.959L287.791 264.539H310.721C310.721 264.539 309.291 241.349 302.391 218.849C295.641 196.979 288.191 177.769 285.141 166.189Z" fill="#263238"/>
<path d="M214.192 111.099L217.192 108.229L249.642 121.309C251.907 121.435 254.042 122.406 255.627 124.029C257.211 125.653 258.13 127.811 258.202 130.079L257.912 235.818C257.912 242.988 256.522 249.199 252.192 254.909L247.632 260.909C237.242 274.629 215.862 273.499 207.632 258.389C207.136 257.528 206.753 256.607 206.492 255.649C206.285 254.872 206.121 254.084 206.002 253.288C205.002 244.779 205.002 237.399 205.002 237.399C204.422 228.059 204.232 224.229 204.232 224.319C204.232 224.409 184.352 222.029 178.982 196.519C176.312 183.829 176.812 166.369 177.562 149.189C178.582 125.439 195.082 111.069 214.192 111.099Z" fill="#FFBF9D"/>
<path d="M222.541 166.179C222.577 167.038 222.948 167.85 223.574 168.44C224.199 169.03 225.031 169.353 225.891 169.339C226.312 169.352 226.732 169.281 227.125 169.129C227.518 168.978 227.877 168.749 228.18 168.456C228.483 168.163 228.724 167.813 228.889 167.425C229.054 167.037 229.14 166.62 229.141 166.199C229.105 165.34 228.736 164.53 228.113 163.938C227.489 163.346 226.66 163.02 225.801 163.029C225.379 163.016 224.958 163.087 224.563 163.239C224.169 163.391 223.809 163.621 223.505 163.915C223.201 164.209 222.959 164.56 222.794 164.949C222.628 165.338 222.542 165.756 222.541 166.179Z" fill="#263238"/>
<path d="M188.661 167.06C188.692 167.92 189.06 168.734 189.684 169.326C190.309 169.919 191.14 170.243 192.001 170.23C192.422 170.242 192.842 170.169 193.235 170.017C193.628 169.865 193.987 169.636 194.29 169.344C194.594 169.052 194.836 168.702 195.003 168.315C195.169 167.927 195.257 167.511 195.261 167.09C195.227 166.228 194.858 165.415 194.232 164.822C193.606 164.23 192.773 163.906 191.911 163.92C191.49 163.906 191.07 163.977 190.677 164.129C190.284 164.281 189.925 164.51 189.622 164.803C189.319 165.095 189.078 165.446 188.913 165.834C188.748 166.221 188.662 166.638 188.661 167.06Z" fill="#263238"/>
<path d="M180.941 156.008C181.371 156.418 183.771 154.438 187.321 154.278C190.871 154.118 193.561 155.748 193.931 155.278C194.111 155.078 193.651 154.278 192.481 153.548C190.888 152.564 189.03 152.093 187.161 152.198C185.315 152.28 183.545 152.954 182.111 154.118C181.061 155.028 180.721 155.828 180.941 156.008Z" fill="#263238"/>
<path d="M216.141 154.77C216.611 155.13 218.811 152.92 222.321 152.39C225.831 151.86 228.681 153.22 228.991 152.73C229.151 152.51 228.621 151.8 227.371 151.16C225.689 150.345 223.797 150.066 221.951 150.36C220.121 150.637 218.426 151.488 217.111 152.79C216.171 153.77 215.921 154.64 216.141 154.77Z" fill="#263238"/>
<path d="M204.561 182.209C204.561 182.009 202.341 181.739 198.741 181.459C197.831 181.409 196.961 181.279 196.741 180.669C196.613 179.736 196.777 178.786 197.211 177.949C197.951 175.709 198.731 173.369 199.541 170.949C202.771 160.949 205.061 152.729 204.661 152.599C204.261 152.469 201.311 160.489 198.081 170.499C197.301 172.969 196.561 175.319 195.861 177.569C195.571 178.619 195.041 179.819 195.571 181.149C195.717 181.462 195.932 181.737 196.201 181.954C196.469 182.171 196.784 182.323 197.121 182.399C197.63 182.509 198.15 182.556 198.671 182.539C202.321 182.509 204.551 182.419 204.561 182.209Z" fill="#263238"/>
<path d="M204.211 224.338C216.337 223.92 228.109 220.139 238.211 213.418C238.211 213.418 230.451 231.658 204.591 230.548L204.211 224.338Z" fill="#FF9A6C"/>
<path d="M215.651 189.43C215.132 188.834 214.497 188.349 213.786 188.005C213.074 187.662 212.3 187.466 211.511 187.43C209.281 187.3 207.711 187.58 206.511 189.34C206.277 189.775 206.134 190.252 206.091 190.744C206.048 191.236 206.106 191.731 206.261 192.2C206.521 192.61 206.331 192.62 206.731 192.91C208.181 193.926 209.82 194.644 211.551 195.02C213.271 195.41 215.251 195.02 216.141 193.61C216.492 192.946 216.633 192.19 216.546 191.444C216.458 190.697 216.146 189.995 215.651 189.43Z" fill="#FF9A6C"/>
<path d="M215.292 138.5C215.752 139.4 218.802 138.5 222.562 138.4C226.322 138.3 229.452 139 229.812 138.07C229.972 137.63 229.312 136.81 227.972 136.07C226.242 135.17 224.31 134.732 222.362 134.8C220.436 134.839 218.556 135.388 216.912 136.39C215.652 137.21 215.092 138.06 215.292 138.5Z" fill="#263238"/>
<path d="M181.451 149.589C182.111 150.359 184.521 149.399 187.451 149.219C190.381 149.039 192.901 149.479 193.451 148.609C193.681 148.189 193.251 147.399 192.121 146.689C190.621 145.83 188.892 145.457 187.171 145.619C185.445 145.731 183.798 146.382 182.461 147.479C181.451 148.359 181.151 149.209 181.451 149.589Z" fill="#263238"/>
<path d="M257.551 175.21C257.551 175.21 243.891 178.51 224.551 136.76C217.951 122.55 205.141 108.23 205.141 108.23L217.141 106.5C217.141 106.5 252.991 116.6 253.591 117.05C254.191 117.5 262.641 135.59 262.641 135.59L257.551 175.21Z" fill="#263238"/>
<path d="M253.071 173.539C252.981 171.619 254.971 166.989 256.841 166.599C261.841 165.599 270.981 165.509 271.711 178.339C272.711 195.869 254.901 193.249 254.841 192.749C254.781 192.249 253.391 180.149 253.071 173.539Z" fill="#FFBF9D"/>
<path d="M259.822 185.769C259.892 185.709 260.132 185.969 260.662 186.179C261.408 186.447 262.229 186.415 262.952 186.089C264.762 185.309 266.152 182.279 266.062 179.089C266.016 177.583 265.641 176.105 264.962 174.759C264.766 174.222 264.443 173.739 264.019 173.354C263.596 172.969 263.085 172.693 262.532 172.549C262.175 172.476 261.803 172.529 261.482 172.701C261.16 172.873 260.909 173.152 260.772 173.489C260.562 173.989 260.702 174.339 260.602 174.369C260.502 174.399 260.212 174.099 260.312 173.369C260.384 172.928 260.606 172.525 260.942 172.229C261.169 172.034 261.432 171.885 261.717 171.792C262.002 171.7 262.303 171.665 262.602 171.689C263.33 171.789 264.021 172.073 264.607 172.516C265.194 172.96 265.657 173.546 265.952 174.219C266.78 175.698 267.236 177.355 267.282 179.049C267.372 182.589 265.752 185.999 263.282 186.869C262.819 187.033 262.326 187.091 261.838 187.039C261.35 186.987 260.88 186.826 260.462 186.569C259.872 186.229 259.722 185.839 259.822 185.769Z" fill="#FF9A6C"/>
<path d="M217.911 190.139C217.861 190.589 214.861 190.519 211.311 191.209C207.761 191.899 204.981 193.009 204.761 192.619C204.541 192.229 207.171 190.389 211.021 189.679C214.871 188.969 217.991 189.769 217.911 190.139Z" fill="#263238"/>
<path d="M354.911 325.988C354.911 325.988 369.591 313.418 373.851 313.078C378.111 312.738 389.291 314.828 389.291 314.828C389.291 314.828 396.361 314.888 399.871 314.448C403.536 313.866 407.281 314.05 410.871 314.988C411.931 315.308 413.261 317.938 410.141 319.738C408.821 320.498 395.981 321.368 395.981 321.368L428.101 330.538L423.931 333.978C423.368 334.446 422.663 334.71 421.931 334.728L375.721 336.368L373.601 341.538L354.911 325.988Z" fill="#FFBF9D"/>
<path d="M389.971 326H404.971C404.971 326 410.231 319 412.131 316.11C413.801 313.56 415.801 312.81 417.551 313.41C418.007 313.577 418.388 313.904 418.621 314.33C418.788 314.637 418.875 314.981 418.875 315.33C418.875 315.68 418.788 316.023 418.621 316.33L412.021 328.64L415.481 327.48C415.481 327.48 422.401 320.7 423.751 319.13C425.101 317.56 430.021 310.96 434.381 315.77L428.381 322.49L434.381 318.23C434.381 318.23 439.201 314.09 441.771 319.02L423.771 334.18" fill="#FFBF9D"/>
<path d="M374.352 319.769C374.543 319.676 374.744 319.606 374.952 319.559C375.533 319.364 376.133 319.226 376.742 319.149C379.009 318.846 381.315 319.086 383.472 319.849C384.978 320.37 386.429 321.04 387.802 321.849C388.542 322.289 389.292 322.769 390.052 323.299L391.192 324.109C391.552 324.369 392.002 324.709 392.292 324.869C396.092 325.159 400.442 325.419 404.992 325.739L404.772 325.829C406.182 324.159 407.562 322.339 408.902 320.449C409.432 319.709 409.902 318.959 410.412 318.219C410.922 317.479 411.352 316.709 411.892 316.009C412.407 315.283 412.996 314.613 413.652 314.009C413.985 313.719 414.351 313.467 414.742 313.259C415.16 313.019 415.641 312.91 416.122 312.949H416.032C416.445 312.88 416.867 312.895 417.275 312.992C417.682 313.09 418.065 313.27 418.402 313.519C418.7 313.804 418.928 314.155 419.065 314.545C419.202 314.934 419.246 315.35 419.192 315.759V315.809C416.332 320.929 413.842 325.389 411.922 328.809C411.712 329.442 411.366 330.02 410.908 330.504C410.45 330.988 409.891 331.365 409.272 331.609C408.377 331.982 407.421 332.185 406.452 332.209C405.855 332.242 405.258 332.242 404.662 332.209C404.453 332.215 404.245 332.195 404.042 332.149H404.662C405.062 332.149 405.662 332.149 406.442 332.079C407.382 332.023 408.306 331.803 409.172 331.429C409.742 331.187 410.255 330.825 410.674 330.368C411.093 329.911 411.409 329.369 411.602 328.779L418.722 315.649V315.739C418.764 315.409 418.729 315.074 418.619 314.76C418.51 314.446 418.329 314.162 418.092 313.929C417.509 313.526 416.79 313.368 416.092 313.489H416.012C415.66 313.484 415.313 313.577 415.012 313.759C414.648 313.942 414.311 314.174 414.012 314.449C413.38 315.011 412.813 315.641 412.322 316.329C411.322 317.729 410.422 319.329 409.322 320.769C407.972 322.679 406.582 324.489 405.152 326.179L405.072 326.279H404.942C400.362 325.939 396.102 325.679 392.182 325.329C391.734 325.093 391.312 324.812 390.922 324.489L389.792 323.679C389.052 323.149 388.312 322.679 387.592 322.229C386.249 321.423 384.828 320.753 383.352 320.229C381.245 319.448 378.987 319.161 376.752 319.389C376.151 319.451 375.556 319.558 374.972 319.709C374.767 319.744 374.559 319.764 374.352 319.769Z" fill="#FF9A6C"/>
<path d="M434.411 315.77C434.258 316.069 434.062 316.345 433.831 316.59C433.421 317.1 432.831 317.83 432.081 318.71C430.601 320.49 428.521 322.92 426.191 325.58C423.861 328.24 421.861 330.76 420.131 332.34C419.467 332.98 418.744 333.556 417.971 334.06C417.697 334.262 417.383 334.405 417.051 334.48C417.307 334.265 417.578 334.068 417.861 333.89C418.569 333.331 419.238 332.723 419.861 332.07C421.491 330.45 423.391 327.88 425.771 325.25C428.151 322.62 430.231 320.19 431.771 318.47L433.631 316.47C433.859 316.203 434.121 315.968 434.411 315.77Z" fill="#FF9A6C"/>
<path d="M426.181 316.469C425.651 317.244 425.041 317.961 424.361 318.609C423.191 319.889 421.541 321.609 419.701 323.529C418.191 325.089 416.781 326.529 415.701 327.619C414.51 328.101 413.264 328.437 411.991 328.619C412.312 328.458 412.647 328.328 412.991 328.229L415.611 327.229L415.531 327.279C416.611 326.119 417.991 324.669 419.531 323.119C421.371 321.219 423.061 319.519 424.301 318.309C424.875 317.644 425.504 317.028 426.181 316.469Z" fill="#FF9A6C"/>
<path d="M305.141 251.367C305.141 251.367 326.701 256.927 328.811 286.227C330.021 302.927 321.131 356.557 321.131 356.557L352.971 323.857L381.351 343.597C381.351 343.597 342.721 390.767 333.841 397.897C324.961 405.027 310.721 416.407 306.121 415.477C301.521 414.547 301.501 393.267 301.501 393.267V275.767L305.141 251.367Z" fill="#FF725E"/>
<path d="M150.141 254.957C150.141 254.957 130.961 261.267 131.721 298.767C132.481 336.267 131.891 348.857 131.891 348.857L103.141 318.427L79.2812 344.767C79.2812 344.767 106.001 384.467 124.691 403.767C142.311 421.937 157.971 406.157 163.061 393.377C167.181 383.027 170.501 343.667 170.501 343.667L150.141 254.957Z" fill="#FF725E"/>
<g opacity="0.3">
<path d="M306.811 318.867C308.551 307.867 309.011 295.957 304.001 285.867C291.711 316.247 292.261 351.137 296.661 383.327L306.401 411.177C312.541 392.517 306.711 372.637 306.841 353.177C306.921 342.087 305.081 329.837 306.811 318.867Z" fill="black"/>
</g>
<path d="M146.151 278.818C146.151 278.818 158.971 365.058 161.451 372.608C163.931 380.158 163.931 402.418 163.931 402.418C163.931 402.418 150.481 427.478 149.651 444.888L311.721 445.228L301.191 373.658C300.856 369.139 300.776 364.605 300.951 360.078C301.631 347.468 302.601 320.438 306.221 303.818C310.421 284.498 304.761 251.438 304.761 251.438L256.351 239.508C244.891 255.978 216.351 256.198 205.031 239.508L150.391 254.958L146.151 278.818Z" fill="#FF725E"/>
<path d="M304.371 370.239C304.488 369.958 304.65 369.698 304.851 369.469C305.191 368.999 305.701 368.319 306.341 367.469C308.004 365.301 309.866 363.292 311.901 361.469C313.972 359.688 316.281 358.204 318.761 357.059C319.761 356.639 320.501 356.319 321.051 356.139C321.332 356.017 321.628 355.933 321.931 355.889C322.041 356.099 317.021 357.709 312.241 361.889C310.238 363.692 308.361 365.63 306.621 367.689C305.933 368.591 305.181 369.443 304.371 370.239Z" fill="#263238"/>
<path d="M154.291 368.408C154.191 368.408 153.821 366.658 152.591 364.028C151.006 360.593 148.69 357.546 145.806 355.099C142.922 352.651 139.538 350.863 135.891 349.858C133.091 349.078 131.271 348.998 131.291 348.858C131.713 348.805 132.139 348.805 132.561 348.858C133.715 348.958 134.859 349.152 135.981 349.438C139.726 350.36 143.207 352.136 146.151 354.628C149.08 357.132 151.399 360.272 152.931 363.808C153.393 364.87 153.77 365.967 154.061 367.088C154.196 367.516 154.273 367.96 154.291 368.408Z" fill="#263238"/>
<path d="M155.331 321.678C155.064 321.587 154.813 321.451 154.591 321.278C154.141 320.998 153.501 320.558 152.731 319.978C150.739 318.468 148.876 316.795 147.161 314.978C145.456 313.161 143.857 311.248 142.371 309.248C141.707 308.451 141.124 307.59 140.631 306.678C141.352 307.409 142.021 308.191 142.631 309.018C143.851 310.488 145.531 312.508 147.521 314.618C149.224 316.415 151.034 318.108 152.941 319.688C153.774 320.306 154.572 320.971 155.331 321.678Z" fill="#263238"/>
<path d="M268.461 368.357C268.461 368.357 268.461 368.427 268.331 368.557L267.911 369.107C267.511 369.577 266.981 370.317 266.201 371.177C264.036 373.651 261.697 375.967 259.201 378.107C255.482 381.298 251.52 384.193 247.351 386.767C242.261 389.897 237.003 392.744 231.601 395.297C225.861 398.027 220.321 400.457 215.301 402.717C210.281 404.977 205.791 407.047 202.081 408.917C198.371 410.787 195.411 412.387 193.391 413.547C192.391 414.107 191.611 414.547 191.081 414.887L190.471 415.227C190.331 415.297 190.261 415.337 190.251 415.327C190.306 415.27 190.37 415.223 190.441 415.187L191.021 414.797C191.541 414.467 192.291 413.967 193.291 413.367C195.291 412.157 198.211 410.487 201.911 408.587C205.611 406.687 210.101 404.587 215.111 402.277C220.121 399.967 225.651 397.557 231.371 394.827C236.758 392.28 242.009 389.453 247.101 386.357C251.254 383.828 255.212 380.99 258.941 377.867C261.458 375.763 263.833 373.495 266.051 371.077C266.851 370.247 267.411 369.527 267.821 369.077L268.291 368.567L268.461 368.357Z" fill="#263238"/>
<path d="M150.021 443.538V443.328C150.021 443.158 150.021 442.958 150.021 442.698C150.021 442.118 150.111 441.308 150.171 440.258C150.557 437.217 151.169 434.209 152.001 431.258C155.074 420.92 159.259 410.945 164.481 401.508V401.638C163.831 392.258 162.861 381.778 161.741 370.758C159.601 349.938 157.361 331.138 155.741 317.518C154.921 310.738 154.251 305.238 153.741 301.408C153.521 299.528 153.351 298.048 153.221 297.018L153.101 295.878C153.088 295.749 153.088 295.618 153.101 295.488C153.142 295.612 153.169 295.739 153.181 295.868C153.221 296.148 153.281 296.528 153.361 297.008C153.501 298.008 153.711 299.498 153.971 301.378C154.481 305.208 155.201 310.698 156.101 317.478C157.831 331.078 160.101 349.878 162.271 370.698C163.391 381.698 164.351 392.218 164.961 401.608V401.678V401.738C159.735 411.137 155.509 421.058 152.351 431.338C151.479 434.272 150.81 437.262 150.351 440.288C150.261 441.288 150.181 442.138 150.131 442.708C150.131 442.968 150.131 443.178 150.061 443.338C150.058 443.407 150.044 443.474 150.021 443.538Z" fill="#263238"/>
<path d="M308.211 280.828C308.226 280.971 308.226 281.115 308.211 281.258C308.211 281.568 308.211 281.978 308.211 282.518C308.211 283.618 308.211 285.248 308.121 287.338C308.011 291.528 307.581 297.578 306.831 305.038C306.081 312.498 305.021 321.348 303.921 331.188C302.821 341.028 301.741 351.858 301.401 363.278C301.164 374.006 301.903 384.734 303.611 395.328C305.051 405.128 306.751 413.878 308.061 421.258C309.371 428.638 310.391 434.608 310.951 438.758C311.251 440.838 311.421 442.458 311.541 443.548C311.541 444.078 311.631 444.548 311.661 444.798C311.675 444.941 311.675 445.085 311.661 445.228C311.62 445.091 311.593 444.951 311.581 444.808C311.581 444.498 311.481 444.088 311.401 443.568C311.251 442.468 311.051 440.858 310.711 438.788C310.101 434.648 309.061 428.678 307.711 421.318C306.361 413.958 304.611 405.208 303.141 395.398C301.404 384.777 300.647 374.018 300.881 363.258C301.231 351.818 302.341 340.978 303.451 331.138C304.561 321.298 305.701 312.448 306.451 304.998C307.201 297.548 307.721 291.518 307.901 287.328C308.031 285.238 308.041 283.618 308.081 282.518C308.081 281.978 308.081 281.568 308.081 281.258C308.111 281.111 308.155 280.967 308.211 280.828Z" fill="#263238"/>
<g opacity="0.3">
<path d="M153.572 299.309C150.807 326.927 154.01 354.816 162.962 381.089L153.572 299.309Z" fill="black"/>
</g>
<g opacity="0.3">
<path d="M253.821 394.859C241.541 406.139 229.221 415.779 214.111 421.149C225.501 422.149 236.991 417.759 245.791 410.469C254.591 403.179 260.861 395.469 264.891 384.809L253.821 394.859Z" fill="black"/>
</g>
<path d="M239.831 407.279C239.731 407.179 247.371 400.168 256.891 391.628C266.411 383.088 274.211 376.258 274.301 376.368C274.391 376.478 266.761 383.478 257.241 392.018C247.721 400.558 239.931 407.389 239.831 407.279Z" fill="#263238"/>
<path d="M266.991 195.649C266.991 196.889 266.623 198.102 265.934 199.133C265.244 200.165 264.265 200.968 263.118 201.443C261.972 201.917 260.711 202.04 259.494 201.798C258.278 201.555 257.161 200.957 256.284 200.079C255.408 199.201 254.811 198.083 254.57 196.866C254.33 195.649 254.455 194.388 254.931 193.243C255.407 192.097 256.213 191.118 257.245 190.431C258.277 189.743 259.491 189.377 260.731 189.379C261.554 189.379 262.369 189.541 263.129 189.856C263.889 190.172 264.58 190.634 265.161 191.216C265.743 191.798 266.204 192.49 266.518 193.25C266.832 194.011 266.992 194.826 266.991 195.649Z" fill="#455A64"/>
<path d="M304.301 277.988C302.454 262.655 300.608 247.322 298.761 231.988L259.111 219.988C258.341 247.348 253.551 278.068 246.671 304.558C261.338 309.306 276.84 310.921 292.171 309.298C292.838 301.898 293.504 294.498 294.171 287.098C295.158 292.678 296.158 298.255 297.171 303.828C301.331 301.498 303.781 296.828 304.611 292.158C305.441 287.488 304.871 282.768 304.301 277.988Z" fill="#263238"/>
<path d="M273.271 309.509C273.271 309.509 273.271 309.319 273.391 308.939C273.511 308.559 273.611 307.939 273.781 307.249C274.131 305.749 274.641 303.569 275.301 300.779C276.601 295.149 278.521 287.019 280.391 276.869C282.672 264.985 284.116 252.955 284.711 240.869C285.473 226.087 284.126 211.271 280.711 196.869C277.331 182.435 271.076 168.831 262.321 156.869C261.321 155.519 260.321 154.149 259.201 152.869C258.081 151.589 257.091 150.339 255.961 149.189L254.311 147.439L252.631 145.769C251.531 144.649 250.391 143.619 249.291 142.579C244.841 138.459 240.491 134.839 236.601 131.439C232.711 128.039 229.241 124.909 226.361 121.979C225.631 121.249 224.971 120.509 224.361 119.829C223.751 119.149 223.081 118.459 222.521 117.829C221.961 117.199 221.391 116.529 220.871 115.919L219.461 114.119C218.541 112.999 217.851 111.919 217.201 111.009C216.551 110.099 216.071 109.299 215.681 108.639L214.801 107.159C214.601 106.819 214.511 106.639 214.511 106.639C214.511 106.639 214.631 106.799 214.851 107.129L215.771 108.589C216.171 109.229 216.671 110.029 217.331 110.919C217.991 111.809 218.691 112.919 219.621 113.999L221.041 115.779L222.701 117.669C223.271 118.339 223.891 119.009 224.561 119.669C225.231 120.329 225.881 121.089 226.621 121.799C229.501 124.709 232.991 127.799 236.891 131.189C240.791 134.579 245.151 138.189 249.631 142.289C250.731 143.289 251.891 144.369 252.991 145.479L254.681 147.149L256.341 148.909C257.481 150.059 258.511 151.349 259.601 152.599C260.691 153.849 261.711 155.209 262.761 156.599C271.554 168.609 277.829 182.273 281.211 196.769C284.646 211.222 285.993 226.093 285.211 240.929C284.591 253.019 283.108 265.05 280.771 276.929C278.851 287.089 276.881 295.209 275.521 300.829C274.831 303.629 274.281 305.829 273.901 307.279C273.711 307.999 273.561 308.549 273.461 308.949C273.361 309.349 273.271 309.509 273.271 309.509Z" fill="#455A64"/>
</svg>
