<svg width="352" height="347" viewBox="0 0 352 347" fill="none" xmlns="http://www.w3.org/2000/svg">
<g clip-path="url(#clip0_127_7420)">
<path d="M266.676 210.92H273.575V203.144H266.676V210.92Z" fill="white"/>
<path d="M302.379 170.833H295.875V180.228H302.379V170.833Z" fill="#FAFAFA"/>
<path d="M302.379 205.23H295.875V214.626H302.379V205.23Z" fill="#FAFAFA"/>
<path d="M276.879 215.069C276.776 215.069 276.697 205.381 276.697 193.433C276.697 181.485 276.776 171.797 276.879 171.797C276.982 171.797 277.061 181.485 277.061 193.433C277.061 205.381 276.982 215.069 276.879 215.069Z" fill="#E0E0E0"/>
<path d="M246.309 283.974H258.207V270.556H246.309V283.974Z" fill="white"/>
<path d="M307.884 214.815H296.667V231.03H307.884V214.815Z" fill="#FAFAFA"/>
<path d="M307.884 274.167H296.667V290.382H307.884V274.167Z" fill="#FAFAFA"/>
<path d="M334.873 56.5625L340.165 67.2539L352 68.9686L343.437 77.2973L345.457 89.0476L334.873 83.5004L324.298 89.0476L326.318 77.2973L317.754 68.9686L329.589 67.2539L334.873 56.5625Z" fill="#EBEBEB"/>
<path d="M19.8201 194.649L23.1551 201.39L30.6173 202.472L25.2227 207.719L26.4902 215.131L19.8201 211.631L13.158 215.131L14.4254 207.719L9.03076 202.472L16.493 201.39L19.8201 194.649Z" fill="#EBEBEB"/>
<path d="M23.9631 135.938L31.3619 150.904L47.9183 153.299L35.9407 164.954L38.7687 181.398L23.9631 173.638L9.14954 181.398L11.9776 164.954L0 153.299L16.5563 150.904L23.9631 135.938Z" fill="#EBEBEB"/>
<path d="M330.168 104.852L333.352 111.3L340.49 112.335L335.333 117.36L336.545 124.448L330.168 121.098L323.783 124.448L325.003 117.36L319.838 112.335L326.975 111.3L330.168 104.852Z" fill="#EBEBEB"/>
<path d="M225.419 0.347656L228.612 6.79568L235.749 7.83084L230.584 12.8486L231.804 19.9367L225.419 16.5941L219.042 19.9367L220.262 12.8486L215.097 7.83084L222.235 6.79568L225.419 0.347656Z" fill="#EBEBEB"/>
<path d="M298.442 69.3638L300.533 73.5834L305.199 74.263L301.824 77.5502L302.616 82.1887L298.442 79.9919L294.259 82.1887L295.059 77.5502L291.684 74.263L296.35 73.5834L298.442 69.3638Z" fill="#EBEBEB"/>
<path d="M105.707 282.48L109.771 290.699L118.873 292.018L112.29 298.419L113.843 307.459L105.707 303.192L97.5714 307.459L99.1241 298.419L92.5411 292.018L101.635 290.699L105.707 282.48Z" fill="#EBEBEB"/>
<path d="M116.449 274.302L118.128 277.7L121.883 278.245L119.166 280.892L119.808 284.622L116.449 282.86L113.082 284.622L113.724 280.892L111.007 278.245L114.769 277.7L116.449 274.302Z" fill="#EBEBEB"/>
<path d="M266.683 242.82L270.264 250.051L278.257 251.204L272.474 256.838L273.837 264.78L266.683 261.026L259.53 264.78L260.893 256.838L255.11 251.204L263.103 250.051L266.683 242.82Z" fill="#FF725E"/>
<path d="M283.747 236.412L285.434 239.817L289.205 240.363L286.48 243.018L287.121 246.763L283.747 244.993L280.38 246.763L281.022 243.018L278.297 240.363L282.067 239.817L283.747 236.412Z" fill="#FF725E"/>
<path d="M261.384 48.2258L264.204 39.4862C261.517 34.0871 260.7 27.9512 261.883 22.0398C263.067 16.1284 266.182 10.7755 270.742 6.81973C275.302 2.86391 281.048 0.528697 287.081 0.179925C293.114 -0.168847 299.093 1.48853 304.08 4.8924C309.067 8.29628 312.782 13.2543 314.642 18.9898C316.502 24.7253 316.402 30.9141 314.357 36.5868C312.313 42.2594 308.44 47.0954 303.345 50.337C298.25 53.5786 292.221 55.0427 286.203 54.5C280.33 54.1009 274.773 51.7019 270.462 47.7043L261.384 48.2258Z" fill="#FAFAFA"/>
<path d="M261.384 48.2259L261.986 48.1785L263.737 48.052L270.462 47.5937C273.796 50.6693 277.902 52.7881 282.345 53.7257C283.716 54.0297 285.109 54.2278 286.512 54.3183L288.73 54.4052C289.474 54.4052 290.243 54.3183 291.011 54.2788C297.96 53.6498 304.4 50.3757 308.993 45.1362C311.582 42.2257 313.504 38.7877 314.626 35.0612C315.775 31.0791 316.008 26.8896 315.307 22.8052C315.133 21.7552 314.889 20.7178 314.578 19.6997C314.437 19.184 314.265 18.6774 314.063 18.1825C313.865 17.6768 313.691 17.1711 313.477 16.6732C312.594 14.6635 311.478 12.7645 310.15 11.0154C309.488 10.1435 308.771 9.31478 308.003 8.5342C307.63 8.13619 307.234 7.76145 306.815 7.41212C306.411 7.05653 306.023 6.66933 305.595 6.34535L304.296 5.38131L303.646 4.90719L302.949 4.49629L301.579 3.70609C301.111 3.44532 300.62 3.24777 300.145 3.01071C296.504 1.29201 292.523 0.409753 288.495 0.428898C284.467 0.448044 280.495 1.36811 276.871 3.12134C270.591 6.12989 265.714 11.436 263.253 17.9376C263.119 18.3011 262.992 18.6645 262.865 19.0201C262.722 19.371 262.608 19.7331 262.525 20.1027C262.342 20.8297 262.168 21.5488 261.994 22.2521C261.753 23.6301 261.589 25.0203 261.503 26.4164C261.325 30.9325 262.278 35.4216 264.275 39.4784L262.152 45.9422L261.59 47.6174C261.463 47.9967 261.392 48.1943 261.392 48.1943C261.392 48.1943 261.439 48.0125 261.558 47.6411L262.065 45.9817L264.101 39.431V39.4942C262.051 35.4299 261.059 30.9161 261.218 26.369C261.292 24.9573 261.448 23.551 261.685 22.1572C261.859 21.446 262.041 20.7191 262.216 19.9842C262.3 19.6105 262.411 19.2435 262.548 18.8858C262.683 18.5223 262.81 18.1588 262.945 17.7874C264.267 14.2427 266.314 11.0105 268.954 8.2955C271.594 5.58053 274.771 3.4419 278.282 2.015C281.794 0.588102 285.565 -0.095989 289.355 0.0060366C293.146 0.108062 296.874 0.993982 300.303 2.60771C300.786 2.83687 301.285 3.04232 301.761 3.31099L303.155 4.1407L303.852 4.5595L304.518 5.04152L305.832 6.01347C306.268 6.35325 306.664 6.74045 307.076 7.09604C307.498 7.4528 307.9 7.83268 308.28 8.23393C309.059 9.03045 309.786 9.87499 310.459 10.7626C311.812 12.5216 312.953 14.434 313.857 16.4599C314.071 16.9656 314.245 17.4872 314.443 17.9929C314.653 18.508 314.831 19.0359 314.974 19.5733C315.287 20.6095 315.531 21.6654 315.703 22.7341C316.418 26.8791 316.18 31.1322 315.006 35.1718C313.881 38.9692 311.937 42.4753 309.31 45.4444C304.647 50.7336 298.124 54.0323 291.09 54.6581C290.298 54.6581 289.506 54.7687 288.777 54.7687L286.535 54.6739C285.119 54.5751 283.713 54.3691 282.329 54.0576C277.87 53.0835 273.761 50.9142 270.446 47.7834H270.51L263.721 48.139L261.994 48.218C261.574 48.2259 261.384 48.2259 261.384 48.2259Z" fill="#263238"/>
<path d="M273.156 26.3609L277.647 22.481L285.22 30.2329L302.181 16.1357L305.777 20.5925L284.04 38.2534L273.156 26.3609Z" fill="#FF725E"/>
<path d="M214.384 242.48L62.4782 276.254C61.599 276.454 60.6887 276.479 59.7998 276.327C58.9108 276.175 58.0608 275.849 57.2987 275.368C56.5366 274.887 55.8774 274.26 55.3592 273.524C54.841 272.788 54.474 271.956 54.2793 271.078L5.01436 50.4148C4.8181 49.5404 4.7967 48.6361 4.95138 47.7535C5.10606 46.8709 5.43378 46.0274 5.91577 45.2713C6.39776 44.5153 7.02455 43.8615 7.76024 43.3475C8.49592 42.8334 9.32605 42.4692 10.2031 42.2757L162.109 8.50262C162.986 8.30677 163.893 8.28533 164.779 8.43953C165.664 8.59373 166.51 8.92054 167.269 9.40127C168.027 9.882 168.683 10.5072 169.2 11.2411C169.716 11.975 170.082 12.8033 170.277 13.6784L219.573 234.341C219.769 235.216 219.791 236.12 219.636 237.003C219.481 237.885 219.154 238.729 218.672 239.485C218.19 240.241 217.563 240.895 216.827 241.409C216.092 241.923 215.261 242.287 214.384 242.48Z" fill="#E0E0E0"/>
<path d="M214.384 242.48L214.891 242.338C215.384 242.178 215.859 241.969 216.309 241.714C217.048 241.281 217.701 240.715 218.234 240.047C218.962 239.13 219.439 238.041 219.621 236.886C219.735 236.187 219.735 235.475 219.621 234.776C219.494 234.041 219.296 233.267 219.122 232.461C218.757 230.88 218.329 229.079 217.933 227.166C217.073 223.336 216.082 218.93 214.963 213.946C210.503 194.057 204.055 165.278 196.085 129.711C192.125 111.932 187.752 92.4532 183.07 71.5367C180.736 61.085 178.32 50.2856 175.822 39.1385C174.581 33.565 173.318 27.9151 172.035 22.1888C171.386 19.3282 170.744 16.444 170.086 13.544C169.729 12.0985 168.895 10.8147 167.719 9.89897C166.542 8.98319 165.091 8.48858 163.599 8.49461C162.854 8.51107 162.115 8.6172 161.396 8.81069L159.178 9.30062L154.718 10.2963L145.719 12.2955L127.404 16.3729L89.6655 24.7885L10.2585 42.4257C8.58005 42.7968 7.10937 43.7986 6.15197 45.2231C5.19458 46.6475 4.82406 48.3851 5.11738 50.0749C5.83825 53.4332 6.61457 56.7995 7.35129 60.1499C8.85113 66.8403 10.3378 73.4911 11.8112 80.1024L20.5251 119.146C26.2445 144.741 31.758 169.395 37.0101 192.943C42.2621 216.491 47.2449 238.774 51.9187 259.722C52.4996 262.356 53.0779 264.948 53.6535 267.498C53.9466 268.778 54.2081 270.074 54.517 271.331C54.8498 272.568 55.5316 273.684 56.4816 274.547C57.4255 275.396 58.5889 275.966 59.8404 276.19C60.461 276.291 61.0923 276.31 61.7178 276.246C62.3357 276.167 62.9615 276.016 63.5794 275.874L70.9545 274.238L98.9418 268.027L183.403 249.308L206.376 244.235L212.349 242.923L214.384 242.48L212.357 242.954L206.384 244.298L183.411 249.426L98.9656 268.257L71.0099 274.491L63.6348 276.135C63.017 276.269 62.3991 276.427 61.7495 276.514C61.1 276.58 60.4446 276.559 59.8008 276.451C58.4902 276.224 57.2719 275.628 56.2895 274.734C55.307 273.839 54.6014 272.683 54.2556 271.402C53.9387 270.129 53.6773 268.849 53.3842 267.569C52.8086 265.004 52.2276 262.412 51.6414 259.794C46.9676 238.877 41.9691 216.53 36.7091 193.014C31.4491 169.498 25.9356 144.812 20.2082 119.217L11.4943 80.1814C10.0209 73.5754 8.53426 66.9193 7.03442 60.2131C6.28979 56.8627 5.52138 53.5122 4.79259 50.1223C4.48764 48.3521 4.878 46.5327 5.88259 45.0421C6.88719 43.5514 8.4288 42.5041 10.1873 42.1176L89.6021 24.4566L127.365 16.0963L145.672 12.0268L154.671 10.0276L159.139 8.98453L161.357 8.49461C162.089 8.3052 162.842 8.20439 163.599 8.19434C165.145 8.19793 166.646 8.71476 167.865 9.66335C169.084 10.6119 169.952 11.9383 170.332 13.4334C170.982 16.3413 171.631 19.2176 172.273 22.086C173.567 27.8176 174.839 33.4596 176.091 39.0121C178.568 50.1539 180.979 60.9533 183.324 71.4102C187.989 92.3268 192.331 111.805 196.299 129.593C204.221 165.152 210.638 193.954 215.074 213.851C216.175 218.822 217.157 223.247 218.013 227.071C218.432 228.992 218.805 230.754 219.185 232.374C219.359 233.164 219.557 233.954 219.676 234.689C219.795 235.395 219.795 236.116 219.676 236.823C219.496 237.999 219.009 239.108 218.266 240.039C217.725 240.707 217.068 241.272 216.325 241.706C215.869 241.962 215.385 242.166 214.884 242.314L214.384 242.48Z" fill="#263238"/>
<g opacity="0.3">
<path d="M70.1781 268.438L208.586 236.878L204.205 209.813L196.363 194.649L63.9596 246.534L70.1781 268.438Z" fill="black"/>
</g>
<g opacity="0.3">
<path d="M127.959 16.5942L133.195 25.2153L134.217 29.7827L130.66 30.5729L127.959 16.5942Z" fill="black"/>
</g>
<path d="M12.8965 51.6949L60.9177 266.629L211.438 233.164L202.851 194.737L163.416 18.23L12.8965 51.6949Z" fill="white"/>
<path d="M12.8965 51.6949L163.408 18.1035H163.535V18.2378C176.891 77.969 193.55 152.508 211.58 233.172V233.338H211.422L60.9098 266.787H60.7672V266.637C32.4947 139.715 13.1817 52.9829 12.8885 51.7028C13.1817 53.0145 32.6215 139.723 61.0603 266.637L60.8781 266.526L211.39 233.045L211.263 233.243C193.257 152.595 176.614 78.0559 163.282 18.309L163.44 18.4117L12.8965 51.6949Z" fill="#263238"/>
<path d="M55.2734 26.1208L121.654 11.3685C122.952 11.08 124.311 11.3177 125.434 12.0293C126.556 12.7409 127.349 13.8681 127.638 15.163L131.473 32.3319L55.2887 49.2631L51.4574 32.1096C51.3116 31.4663 51.2948 30.8006 51.4079 30.1508C51.521 29.501 51.7618 28.8799 52.1165 28.3233C52.4711 27.7667 52.9326 27.2855 53.4744 26.9075C54.0162 26.5295 54.6276 26.2621 55.2734 26.1208Z" fill="#263238"/>
<path d="M96.3117 8.31299L76.9274 12.6196L82.9003 28.6922L97.5 25.4445L96.3117 8.31299Z" fill="#263238"/>
<path d="M121.661 11.3554C121.661 11.4423 106.84 14.8165 88.5169 18.8939C70.194 22.9713 55.3092 26.219 55.2854 26.1321C55.2617 26.0452 70.1069 22.6711 88.4456 18.5936C106.784 14.5162 121.614 11.2922 121.661 11.3554Z" fill="#455A64"/>
<path d="M56.228 45.3336C56.1409 45.3336 55.3725 42.2518 54.5169 38.4115C53.6614 34.5711 53.0277 31.434 53.1227 31.4103C53.2178 31.3866 53.9783 34.4921 54.8338 38.3403C55.6893 42.1886 56.3152 45.3336 56.228 45.3336Z" fill="#455A64"/>
<path d="M127.848 27.6652C127.212 25.5865 126.683 23.4765 126.264 21.3436C125.74 19.2589 125.322 17.1489 125.012 15.022C125.647 17.0877 126.176 19.1844 126.597 21.3041C127.122 23.4018 127.54 25.5249 127.848 27.6652Z" fill="#455A64"/>
<path d="M124.83 31.4182C124.83 31.5051 109.612 34.9662 90.8062 39.1463C72.0001 43.3265 56.7429 46.6532 56.7033 46.5584C56.6637 46.4636 71.913 43.0104 90.7666 38.8302C109.62 34.6501 124.782 31.3313 124.83 31.4182Z" fill="#455A64"/>
<path d="M84.7383 93.939C84.7383 94.0338 74.4797 96.3886 61.7654 99.2175C49.0511 102.046 38.7925 104.251 38.737 104.164C38.6816 104.077 49.0352 101.715 61.7099 98.8935C74.3846 96.0725 84.7145 93.8521 84.7383 93.939Z" fill="#263238"/>
<path d="M161.349 85.3335C161.349 85.4283 134.518 91.4733 101.382 98.838C68.2453 106.203 41.3512 112.105 41.3353 112.018C41.3195 111.932 68.1581 105.879 101.31 98.514C134.463 91.1493 161.333 85.2465 161.349 85.3335Z" fill="#263238"/>
<path d="M163.004 92.7457C163.004 92.8326 136.166 98.8776 103.029 106.25C69.893 113.623 43.0068 119.518 42.983 119.423C42.9593 119.328 69.8138 113.291 102.958 105.926C136.102 98.5615 162.981 92.635 163.004 92.7457Z" fill="#263238"/>
<path d="M164.652 100.11C164.652 100.197 137.821 106.242 104.685 113.607C71.5486 120.972 44.6545 126.882 44.6308 126.787C44.607 126.693 71.4615 120.655 104.614 113.283C137.766 105.91 164.628 100.023 164.652 100.11Z" fill="#263238"/>
<path d="M166.3 107.499C166.3 107.586 139.469 113.631 106.333 120.995C73.1963 128.36 46.3022 134.263 46.2864 134.176C46.2705 134.089 73.1092 128.044 106.261 120.671C139.414 113.299 166.284 107.404 166.3 107.499Z" fill="#263238"/>
<path d="M167.956 114.871C167.956 114.966 141.117 121.011 107.98 128.376C74.844 135.741 47.942 141.651 47.942 141.564C47.942 141.477 74.7728 135.432 107.917 128.06C141.061 120.687 167.932 114.792 167.956 114.871Z" fill="#263238"/>
<path d="M167.774 134.926L77.1383 155.069L78.8231 162.613L169.459 142.47L167.774 134.926Z" fill="#E0E0E0"/>
<path d="M172.793 157.408L82.1567 177.551L83.8415 185.094L174.477 164.951L172.793 157.408Z" fill="#E0E0E0"/>
<path d="M110.048 234.191C110.048 234.286 102.411 236.064 92.9529 238.142C83.4945 240.22 75.8104 241.872 75.7946 241.785C75.7787 241.698 83.4232 239.92 92.8816 237.834C102.34 235.748 110.024 234.112 110.048 234.191Z" fill="#263238"/>
<path d="M127.111 230.129C125.044 230.765 122.944 231.292 120.821 231.71C118.731 232.229 116.616 232.643 114.484 232.951C116.55 232.317 118.646 231.789 120.766 231.37C124.244 230.604 127.095 230.043 127.111 230.129Z" fill="#263238"/>
<path d="M183.625 212.389C183.625 212.476 176.756 214.088 168.249 215.977C159.741 217.866 152.817 219.327 152.801 219.24C152.785 219.154 159.661 217.549 168.177 215.653C176.693 213.756 183.609 212.303 183.625 212.389Z" fill="#263238"/>
<path d="M176.273 233.188C176.273 233.188 176.345 232.974 176.424 232.563C176.529 231.956 176.496 231.332 176.329 230.738C176.047 229.799 175.681 228.886 175.236 228.012C174.604 226.852 174.234 225.568 174.15 224.251C174.169 223.44 174.358 222.642 174.704 221.908C175.051 221.175 175.547 220.522 176.162 219.991C176.883 219.395 177.745 218.992 178.665 218.822C179.586 218.652 180.535 218.72 181.422 219.019C182.396 219.315 183.265 219.883 183.926 220.655C184.278 221.071 184.486 221.589 184.52 222.133C184.529 222.425 184.444 222.712 184.277 222.953C184.11 223.193 183.87 223.374 183.593 223.468C183.075 223.635 182.545 223.765 182.009 223.855L180.424 224.179C179.363 224.393 178.285 224.582 177.176 224.725C175.028 225.034 172.848 225.047 170.696 224.764C169.724 224.555 168.709 224.719 167.853 225.223C167.172 225.907 166.595 226.687 166.141 227.538C165.866 227.957 165.483 228.295 165.032 228.518C164.574 228.719 164.057 228.742 163.583 228.581C162.768 228.219 161.993 227.774 161.27 227.253C160.934 227.031 160.552 226.887 160.153 226.835C159.779 226.793 159.403 226.885 159.091 227.095C158.543 227.595 158.09 228.19 157.752 228.85C157.392 229.416 156.9 229.887 156.318 230.222C155.736 230.558 155.081 230.748 154.409 230.778C153.393 230.818 152.401 230.467 151.637 229.798C151.157 229.384 150.78 228.865 150.536 228.281C150.45 228.08 150.389 227.871 150.354 227.656C150.354 227.656 150.425 227.87 150.599 228.257C150.856 228.815 151.238 229.307 151.716 229.695C152.461 230.324 153.419 230.647 154.394 230.596C155.034 230.563 155.657 230.375 156.209 230.049C156.761 229.723 157.226 229.268 157.562 228.723C157.911 228.032 158.383 227.411 158.956 226.89C159.317 226.64 159.755 226.525 160.192 226.566C160.626 226.63 161.041 226.784 161.412 227.016C162.123 227.518 162.882 227.95 163.678 228.304C164.085 228.441 164.528 228.421 164.921 228.249C165.324 228.049 165.662 227.74 165.896 227.356C166.367 226.483 166.965 225.684 167.67 224.985C168.109 224.673 168.623 224.482 169.16 224.432C169.686 224.376 170.217 224.376 170.744 224.432C172.872 224.707 175.028 224.694 177.153 224.393C178.246 224.251 179.315 224.053 180.377 223.848L181.961 223.531C182.47 223.438 182.972 223.314 183.466 223.16C183.683 223.091 183.872 222.954 184.003 222.768C184.135 222.583 184.202 222.36 184.195 222.133C184.159 221.66 183.976 221.21 183.672 220.845C183.047 220.103 182.222 219.555 181.296 219.264C180.455 218.98 179.557 218.913 178.683 219.071C177.81 219.228 176.992 219.605 176.305 220.165C175.715 220.666 175.236 221.285 174.901 221.982C174.565 222.679 174.38 223.438 174.356 224.211C174.428 225.499 174.773 226.757 175.37 227.901C175.808 228.788 176.161 229.714 176.424 230.667C176.579 231.278 176.592 231.915 176.463 232.532C176.426 232.757 176.362 232.977 176.273 233.188Z" fill="#263238"/>
<path d="M192.647 223.073C192.514 223.127 192.376 223.169 192.235 223.2L191.031 223.484L186.611 224.503C182.888 225.373 177.739 226.589 172.075 228.02C166.411 229.45 161.301 230.833 157.618 231.844L153.245 233.045L152.049 233.361C151.912 233.404 151.771 233.436 151.629 233.456C151.756 233.387 151.892 233.334 152.033 233.298L153.205 232.927C154.227 232.603 155.709 232.137 157.546 231.623C161.23 230.548 166.324 229.134 171.996 227.672C177.667 226.21 182.817 225.056 186.564 224.258C188.433 223.855 189.954 223.539 191.008 223.334L192.22 223.105C192.361 223.081 192.504 223.071 192.647 223.073Z" fill="#263238"/>
<path d="M127.664 49.6857L66.1396 63.3589L68.715 74.8896L130.239 61.2165L127.664 49.6857Z" fill="#E0E0E0"/>
<path d="M185.866 236.799L205.75 341.556L223.914 308.075L258.342 328.233L221.791 226.227L185.866 236.799Z" fill="#FF725E"/>
<g opacity="0.3">
<path d="M192.56 272.035C194.452 272.39 196.403 272.282 198.244 271.719C200.084 271.156 201.76 270.155 203.128 268.803C204.942 266.938 206.146 264.393 208.427 263.145C210.479 262.023 213.006 262.181 215.264 262.805C217.521 263.429 219.644 264.464 221.902 265.049C224.13 265.615 226.448 265.734 228.722 265.397C230.996 265.061 233.18 264.276 235.147 263.09L229.412 247.207L202.795 243.888L190.12 259.099L192.56 272.035Z" fill="black"/>
</g>
<path d="M222.623 303.919C222.512 303.919 219.549 293.061 216.008 279.62C212.467 266.179 209.671 255.242 209.798 255.219C209.924 255.195 212.863 266.06 216.404 279.517C219.945 292.974 222.734 303.887 222.623 303.919Z" fill="#263238"/>
<path d="M188.782 242.252L168.906 347L150.734 313.52L116.306 333.678L152.857 231.679L188.782 242.252Z" fill="#FF725E"/>
<g opacity="0.3">
<path d="M141.925 262.188C141.925 262.188 147.581 266.826 154.322 264.693C161.064 262.559 165.254 262.101 168.906 264.693C172.558 267.285 182.436 275.716 182.436 275.716L184.726 263.634L171.457 245.459L157.61 248.249L147.755 249.205L144.088 256.135L141.925 262.188Z" fill="black"/>
</g>
<path d="M305.318 147.696C305.318 155.211 295.693 161.683 294.283 168.787C292.833 176.104 299.218 185.752 296.421 192.493C293.625 199.233 282.162 201.651 278.099 207.744C274.035 213.836 276.174 225.246 270.969 230.446C265.765 235.645 254.334 233.457 248.21 237.558C242.087 241.659 239.789 252.99 232.921 255.835C226.172 258.624 216.5 252.255 209.156 253.701C202.027 255.108 195.547 264.709 188.013 264.709C180.48 264.709 173.984 255.108 166.862 253.701C159.527 252.255 149.854 258.624 143.097 255.835C136.34 253.046 133.924 241.611 127.816 237.558C121.709 233.504 110.27 235.638 105.049 230.446C99.8291 225.254 102.031 213.852 97.9199 207.744C93.8086 201.635 82.4489 199.344 79.605 192.493C76.7611 185.642 83.1935 176.112 81.7439 168.787C80.3338 161.675 70.701 155.211 70.701 147.696C70.701 140.182 80.3338 133.702 81.7439 126.598C83.1935 119.281 76.8007 109.632 79.605 102.892C82.4093 96.1517 93.864 93.7337 97.9199 87.6491C101.976 81.5646 99.8449 70.1462 105.049 64.9388C110.254 59.7314 121.685 61.9281 127.816 57.827C133.948 53.7259 136.229 42.3944 143.097 39.5576C149.965 36.7208 159.519 43.1372 166.862 41.6912C173.992 40.2846 180.48 30.6758 188.013 30.6758C195.547 30.6758 202.035 40.2846 209.156 41.6912C216.492 43.1372 226.164 36.7603 232.921 39.5576C239.789 42.3944 242.102 53.7812 248.21 57.827C254.318 61.8728 265.757 59.7472 270.969 64.9388C276.182 70.1304 273.987 81.533 278.099 87.6491C282.21 93.7653 293.57 96.041 296.421 102.892C299.273 109.743 292.833 119.273 294.283 126.598C295.693 133.702 305.318 140.158 305.318 147.696Z" fill="#FF725E"/>
<path d="M160.565 82.1016C160.565 82.1016 160.478 81.9989 160.351 81.7776C160.224 81.5564 160.026 81.2008 159.812 80.8136C159.345 79.976 158.703 78.7433 157.943 77.2103C156.414 74.1443 154.433 69.8298 152.524 64.9622C150.615 60.0946 149.15 55.5746 148.191 52.319C147.716 50.6675 147.351 49.3321 147.122 48.368C147.019 47.9413 146.931 47.5778 146.868 47.2934C146.827 47.171 146.806 47.043 146.805 46.9141C146.866 47.0293 146.914 47.1513 146.947 47.2776L147.272 48.3285C147.581 49.3005 147.985 50.6122 148.468 52.2005C149.498 55.464 151.011 59.9444 152.904 64.8437C154.798 69.7429 156.746 74.0179 158.204 77.1155L159.955 80.7741L160.422 81.7697C160.48 81.8758 160.527 81.9869 160.565 82.1016Z" fill="#263238"/>
<path d="M171.005 78.143C170.867 77.8671 170.763 77.5751 170.696 77.2737C170.53 76.7048 170.308 75.8751 170.047 74.8478C169.524 72.8012 168.875 69.9407 168.288 66.7641C167.702 63.5875 167.29 60.6875 167.053 58.5855C166.926 57.5346 166.847 56.6812 166.799 56.0885C166.763 55.784 166.763 55.4763 166.799 55.1719C166.89 55.4652 166.951 55.7671 166.981 56.0727L167.361 58.546C167.678 60.6401 168.154 63.5243 168.716 66.693C169.279 69.8617 169.904 72.7222 170.348 74.7846C170.562 75.7487 170.736 76.5705 170.879 77.2342C170.951 77.5322 170.994 77.8366 171.005 78.143Z" fill="#263238"/>
<path d="M189.423 76.3177C189.304 76.3177 189.011 67.4516 188.766 56.5232C188.52 45.5947 188.409 36.7208 188.52 36.7129C188.631 36.705 188.932 45.571 189.178 56.5153C189.423 67.4595 189.534 76.3177 189.423 76.3177Z" fill="#263238"/>
<path d="M207.96 58.1037C208.071 58.1037 206.788 62.5683 205.1 68.0049C203.413 73.4414 201.932 77.8112 201.852 77.7796C201.773 77.748 203.025 73.315 204.712 67.8784C206.399 62.4419 207.841 58.0721 207.96 58.1037Z" fill="#263238"/>
<path d="M215.517 81.0111C215.533 80.8804 215.568 80.7526 215.62 80.6319L215.977 79.5888C216.294 78.688 216.769 77.392 217.403 75.7958C218.646 72.635 220.421 68.2178 222.449 63.3976C224.477 58.5774 226.362 54.2392 227.748 51.11C228.43 49.5928 228.992 48.3443 229.42 47.4119L229.887 46.4162C230.006 46.195 230.069 46.0765 230.085 46.0844C230.056 46.2087 230.017 46.3304 229.966 46.4479L229.562 47.4751L228.018 51.2286C226.663 54.4368 224.849 58.767 222.829 63.5636C220.809 68.3601 219.019 72.6904 217.672 75.9065L216.127 79.652L215.692 80.6635C215.648 80.7861 215.59 80.9028 215.517 81.0111Z" fill="#263238"/>
<path d="M225.388 86.1635C225.508 85.8841 225.659 85.619 225.839 85.3733C226.156 84.8676 226.631 84.1485 227.218 83.2714C228.406 81.5251 230.117 79.1387 232.105 76.5942C234.094 74.0498 236.003 71.853 237.413 70.2726C238.118 69.4824 238.704 68.8582 239.116 68.4315C239.314 68.1947 239.54 67.9825 239.789 67.7993C239.636 68.0689 239.45 68.3184 239.235 68.5421C238.807 69.0636 238.268 69.7037 237.65 70.4623C236.296 72.0901 234.434 74.3422 232.446 76.8866C230.458 79.431 228.723 81.7779 227.471 83.4848L225.99 85.4998C225.813 85.7413 225.611 85.9638 225.388 86.1635Z" fill="#263238"/>
<path d="M239.821 97.9371C239.742 97.8581 246.016 91.9158 253.819 84.6697C261.622 77.4236 268.022 71.6156 268.078 71.6946C268.133 71.7737 261.891 77.7239 254.08 84.97C246.269 92.2161 239.9 98.0241 239.821 97.9371Z" fill="#263238"/>
<path d="M264.996 100.395C264.232 100.877 263.439 101.31 262.62 101.691C261.13 102.481 259.11 103.58 256.876 104.852C254.643 106.124 252.583 107.183 251.054 107.894C250.262 108.25 249.676 108.526 249.232 108.684C249.015 108.797 248.783 108.877 248.543 108.921C249.307 108.439 250.1 108.007 250.919 107.625C252.409 106.835 254.429 105.737 256.663 104.465C258.896 103.192 260.956 102.094 262.485 101.422C263.277 101.067 263.863 100.79 264.307 100.632C264.522 100.516 264.755 100.436 264.996 100.395Z" fill="#263238"/>
<path d="M288.278 110.027C288.318 110.138 280.855 112.856 271.642 116.104C262.43 119.352 254.88 121.888 254.848 121.786C254.817 121.683 262.263 118.957 271.484 115.709C280.705 112.461 288.238 109.925 288.278 110.027Z" fill="#263238"/>
<path d="M295.693 152.279C295.693 152.39 287.573 151.718 277.584 150.77C267.594 149.822 259.498 148.96 259.514 148.842C259.53 148.723 267.626 149.411 277.623 150.359C287.62 151.307 295.701 152.169 295.693 152.279Z" fill="#263238"/>
<path d="M289.728 190.177C289.68 190.28 282.099 186.803 272.799 182.425C263.499 178.048 255.997 174.405 256.045 174.302C256.092 174.199 263.673 177.668 272.973 182.054C282.273 186.439 289.775 190.074 289.728 190.177Z" fill="#263238"/>
<path d="M264.79 226.234C264.703 226.305 259.245 219.975 252.583 212.105C245.921 204.235 240.597 197.779 240.7 197.708C240.803 197.637 246.246 203.958 252.908 211.836C259.57 219.715 264.877 226.155 264.79 226.234Z" fill="#263238"/>
<path d="M243.972 231.03C243.726 230.757 243.506 230.46 243.315 230.145C242.911 229.561 242.34 228.699 241.659 227.633C240.281 225.491 238.435 222.496 236.486 219.138C234.537 215.78 232.874 212.682 231.733 210.446C231.155 209.316 230.687 208.399 230.386 207.759C230.207 207.434 230.059 207.092 229.943 206.74C230.167 207.035 230.363 207.349 230.529 207.68C230.909 208.375 231.4 209.26 231.994 210.311C233.222 212.532 234.933 215.598 236.874 218.956C238.815 222.315 240.621 225.325 241.936 227.498C242.554 228.541 243.077 229.403 243.481 230.082C243.679 230.379 243.844 230.697 243.972 231.03Z" fill="#263238"/>
<path d="M231.044 249.126C231.044 249.126 230.965 249.023 230.838 248.802L230.323 247.838C229.871 246.992 229.261 245.76 228.533 244.227C227.075 241.153 225.198 236.838 223.415 231.955C221.633 227.071 220.286 222.567 219.454 219.312C219.019 217.668 218.662 216.325 218.488 215.4C218.401 214.974 218.33 214.61 218.266 214.326C218.235 214.201 218.216 214.074 218.211 213.946C218.275 214.059 218.321 214.182 218.345 214.31L218.646 215.361C218.924 216.341 219.288 217.644 219.732 219.233C220.666 222.496 222.053 226.985 223.835 231.876C225.617 236.767 227.439 241.058 228.834 244.163L230.497 247.822C230.672 248.217 230.822 248.549 230.949 248.818C230.993 248.916 231.025 249.02 231.044 249.126Z" fill="#263238"/>
<path d="M204.855 236.412C204.683 235.503 204.57 234.585 204.514 233.662C204.332 231.963 204.039 229.616 203.611 227.048C203.183 224.48 202.684 222.172 202.304 220.505C202.055 219.612 201.865 218.704 201.734 217.787C201.852 218.007 201.942 218.24 202.003 218.482C202.161 218.94 202.359 219.604 202.589 220.434C203.041 222.085 203.579 224.385 204.015 226.985C204.394 229.187 204.659 231.408 204.807 233.638C204.863 234.491 204.894 235.218 204.894 235.669C204.915 235.917 204.901 236.167 204.855 236.412Z" fill="#263238"/>
<path d="M187.72 259.162C187.702 259.028 187.702 258.892 187.72 258.759C187.72 258.443 187.72 258.055 187.72 257.597C187.72 256.586 187.72 255.124 187.72 253.322C187.784 249.711 187.95 244.733 188.235 239.241C188.52 233.749 188.877 228.771 189.17 225.175C189.312 223.374 189.447 221.92 189.55 220.916C189.606 220.458 189.645 220.071 189.677 219.762C189.686 219.625 189.713 219.49 189.756 219.359C189.775 219.496 189.775 219.634 189.756 219.77C189.756 220.078 189.756 220.466 189.701 220.932C189.637 221.999 189.558 223.437 189.455 225.191C189.241 228.85 188.956 233.796 188.663 239.257C188.37 244.717 188.164 249.727 188.029 253.33C187.966 255.084 187.91 256.491 187.871 257.597C187.871 258.063 187.823 258.443 187.807 258.759C187.798 258.897 187.769 259.032 187.72 259.162Z" fill="#263238"/>
<path d="M173.794 219.359C173.788 220.04 173.709 220.719 173.556 221.382C173.35 222.615 173.017 224.314 172.582 226.171C172.146 228.028 171.687 229.703 171.322 230.912C171.164 231.573 170.933 232.214 170.633 232.824C170.704 232.149 170.839 231.482 171.037 230.833L172.178 226.092C172.59 224.314 172.97 222.702 173.271 221.351C173.381 220.672 173.556 220.005 173.794 219.359Z" fill="#263238"/>
<path d="M148.611 207.325C147.573 209.036 146.416 210.673 145.149 212.224C143.986 213.856 142.719 215.41 141.354 216.878C142.39 215.165 143.547 213.528 144.816 211.979C145.973 210.343 147.241 208.788 148.611 207.325Z" fill="#263238"/>
<path d="M135.405 198.443C135.485 198.514 130.573 204.274 124.426 211.299C118.279 218.324 113.217 223.942 113.13 223.887C113.042 223.832 117.962 218.055 124.109 211.031C130.256 204.006 135.318 198.364 135.405 198.443Z" fill="#263238"/>
<path d="M128.791 188.636C126.848 190.505 124.81 192.272 122.683 193.931C119.237 196.759 116.385 198.988 116.346 198.901C118.29 197.036 120.328 195.271 122.453 193.614C124.481 191.85 126.596 190.189 128.791 188.636Z" fill="#263238"/>
<path d="M121.059 173.852C121.107 173.955 114.262 177.353 105.762 181.43C97.2624 185.507 90.3468 188.739 90.2913 188.637C90.2359 188.534 97.0882 185.144 105.588 181.059C114.088 176.973 121.012 173.749 121.059 173.852Z" fill="#263238"/>
<path d="M117.954 166.479C117.726 166.579 117.487 166.648 117.241 166.684C116.774 166.795 116.1 166.937 115.268 167.087C113.597 167.404 111.268 167.751 108.686 168.012C106.103 168.273 103.75 168.383 102.047 168.407C101.2 168.407 100.51 168.407 100.035 168.407C99.7872 168.423 99.5385 168.399 99.2983 168.336C100.207 168.211 101.122 168.14 102.039 168.123C103.734 168.02 106.071 167.862 108.646 167.601C111.22 167.34 113.542 167.04 115.221 166.811C116.123 166.636 117.036 166.525 117.954 166.479Z" fill="#263238"/>
<path d="M115.443 149.45C114.981 149.488 114.518 149.488 114.056 149.45L110.286 149.261C107.117 149.103 102.713 148.96 97.8565 148.984C93.0005 149.008 88.5961 149.205 85.4195 149.395L81.6567 149.624C81.1966 149.677 80.733 149.693 80.2704 149.672C80.7204 149.564 81.1789 149.495 81.6408 149.466C82.5281 149.363 83.8114 149.237 85.3957 149.103C88.5644 148.842 92.9847 148.605 97.8486 148.573C102.713 148.542 107.125 148.739 110.309 148.968C111.894 149.087 113.185 149.197 114.072 149.292C114.532 149.313 114.99 149.366 115.443 149.45Z" fill="#263238"/>
<path d="M116.995 134.5C116.995 134.61 111.838 133.275 105.541 131.521C99.2428 129.766 94.165 128.265 94.1967 128.154C94.2284 128.044 99.3537 129.371 105.651 131.126C111.949 132.88 117.027 134.389 116.995 134.5Z" fill="#263238"/>
<path d="M120.315 121.983C120.187 121.976 120.062 121.949 119.942 121.904L118.889 121.588C117.986 121.304 116.679 120.861 115.086 120.284C110.926 118.76 106.848 117.019 102.871 115.069C98.8951 113.116 95.0265 110.953 91.2816 108.589C89.8478 107.681 88.6992 106.922 87.9228 106.377L87.0356 105.737C86.8376 105.587 86.7346 105.508 86.7425 105.492C86.8623 105.54 86.9765 105.601 87.0831 105.673L88.0179 106.242C88.8101 106.748 89.9825 107.467 91.4321 108.344C94.3394 110.099 98.4111 112.414 103.053 114.666C107.695 116.918 112.021 118.751 115.189 119.984C116.774 120.592 118.049 121.074 118.944 121.406L119.966 121.793C120.087 121.847 120.204 121.91 120.315 121.983Z" fill="#263238"/>
<path d="M127.769 109.34C127.705 109.427 123.697 106.724 118.817 103.295C113.938 99.8654 110.032 97.0128 110.103 96.9179C110.175 96.8231 114.175 99.5335 119.063 102.963C123.951 106.392 127.832 109.269 127.769 109.34Z" fill="#263238"/>
<path d="M112.013 70.9521C112.013 70.9521 112.124 71.0154 112.314 71.1655L113.106 71.8609L116.029 74.4369L125.622 82.979L135.255 91.4736L138.17 94.0576L138.962 94.7766C139.058 94.855 139.143 94.9453 139.216 95.0453C139.216 95.0453 139.105 94.99 138.907 94.8399L138.115 94.184C137.394 93.6072 136.372 92.7537 135.112 91.6949C132.593 89.5771 129.155 86.6139 125.392 83.2872C121.63 79.9604 118.263 76.8944 115.886 74.6503C114.682 73.5282 113.716 72.6195 113.05 71.9715L112.298 71.2287C112.108 71.0549 111.997 70.9601 112.013 70.9521Z" fill="#263238"/>
<path d="M136.72 71.6714C136.72 71.6714 136.934 71.8452 137.259 72.2166C137.584 72.588 138.051 73.1333 138.598 73.797C139.699 75.172 141.164 77.1159 142.685 79.3284C144.206 81.541 145.482 83.6113 146.361 85.1364C146.805 85.9266 147.153 86.5192 147.375 86.9538C147.512 87.17 147.619 87.404 147.692 87.6492C147.111 86.8952 146.582 86.1032 146.108 85.2786C145.165 83.793 143.85 81.7622 142.337 79.5497C140.824 77.3371 139.398 75.3853 138.376 73.9709C137.779 73.2379 137.226 72.47 136.72 71.6714Z" fill="#263238"/>
<g opacity="0.2">
<path d="M105.057 64.9465L139.525 95.0451L148.088 88.2099L128.094 57.645C128.094 57.645 126.557 58.7671 122.548 59.905C118.722 61.0034 107.355 61.2957 105.057 64.9465Z" fill="black"/>
</g>
<g opacity="0.2">
<path d="M143.422 39.4866L160.248 81.5014L171.005 78.1431L167.417 41.6991C167.417 41.6991 165.571 42.1337 161.46 41.6122C157.475 41.1065 147.819 37.3372 143.422 39.4866Z" fill="black"/>
</g>
<g opacity="0.3">
<path d="M188.291 30.6914L189.423 76.3175L199.5 76.7995L209.703 41.7779C207.583 41.358 205.567 40.5256 203.769 39.3283C200.284 37.0999 193.17 30.32 188.291 30.6914Z" fill="black"/>
</g>
<g opacity="0.2">
<path d="M232.24 39.3125L215.517 81.3748L224.596 85.713L247.608 57.3764C245.878 55.9199 244.403 54.1868 243.243 52.2481C241.073 48.7475 237.334 40.7112 232.24 39.3125Z" fill="black"/>
</g>
<g opacity="0.2">
<path d="M271.516 65.5552L240.368 97.9533L247.307 107.286L277.742 87.0249C276.74 85.1836 276.062 83.1843 275.738 81.1142C275.009 77.1632 274.906 69.9882 271.516 65.5552Z" fill="black"/>
</g>
<g opacity="0.2">
<path d="M296.104 102.11L254.159 119.328L257.637 130.02L294.132 126.069C294.132 126.069 293.902 124.947 294.385 120.845C294.845 116.871 299.059 107.989 296.104 102.11Z" fill="black"/>
</g>
<g opacity="0.2">
<path d="M305.397 147.696L259.665 149.277L259.285 159.336L294.14 169.514C294.371 168.066 294.837 166.664 295.518 165.365C298.117 160.529 305.397 153.702 305.397 147.696Z" fill="black"/>
</g>
<g opacity="0.2">
<path d="M296.96 190.825L254.856 174.46L250.602 183.618L279.255 206.242C280.761 204.803 282.428 203.541 284.222 202.48C287.708 200.26 295.994 196.665 296.96 190.825Z" fill="black"/>
</g>
<g opacity="0.2">
<path d="M235.036 190.177L224.611 198.869C225.404 199.66 239.29 223.239 247.854 237.795C247.965 237.699 248.081 237.609 248.202 237.526C253.835 233.765 263.863 235.274 269.519 231.552L235.036 190.177Z" fill="black"/>
<path d="M215.882 206.677L200.323 211.971L207.691 254.105C208.169 253.936 208.659 253.802 209.156 253.701C216.492 252.255 226.164 258.624 232.921 255.835C233.846 255.439 234.706 254.907 235.472 254.255L215.882 206.677Z" fill="black"/>
<path d="M187.475 264.693L189.954 209.648L176.487 206.242L166.482 253.654L166.847 253.717C173.818 255.069 180.163 264.219 187.475 264.693Z" fill="black"/>
<path d="M153.649 200.3C153.649 200.3 135.873 224.053 126.573 236.839C127.003 237.055 127.421 237.295 127.824 237.558C133.932 241.635 136.237 252.99 143.105 255.835C143.422 255.961 143.747 256.064 144.072 256.159L168.906 209.269L153.649 200.3Z" fill="black"/>
<path d="M135.405 181.177L97.4922 207.167C97.6348 207.357 97.7932 207.538 97.92 207.736C102.039 213.868 99.8449 225.239 105.049 230.438C105.53 230.909 106.061 231.325 106.634 231.679C120.029 216.618 144.08 189.577 144.951 188.637L135.405 181.177Z" fill="black"/>
<path d="M126.715 162.615L81.8864 169.838C82.6073 177.013 76.9354 186.068 79.605 192.485C79.7658 192.877 79.9593 193.255 80.1833 193.615C95.8682 185.823 128.64 169.616 130.003 169.529L126.715 162.615Z" fill="black"/>
<path d="M124.267 137.708L81.8944 125.516C81.8548 125.879 81.8072 126.243 81.7439 126.598C80.3338 133.71 70.701 140.182 70.701 147.696C70.7032 148.197 70.7456 148.696 70.8278 149.19H122.548L124.267 137.708Z" fill="black"/>
<path d="M79.7793 102.568C95.6227 111.031 126.573 128.155 126.573 128.155L134.193 113.718L98.4032 86.8511C98.2447 87.1276 98.0942 87.4121 97.9199 87.6413C93.8878 93.6389 82.8529 95.9779 79.7793 102.568Z" fill="black"/>
</g>
<path d="M305.318 147.696L305.27 147.19C305.251 146.695 305.182 146.202 305.064 145.721C304.603 143.826 303.798 142.031 302.688 140.426C301.325 138.245 299.265 135.804 297.142 132.714C295.943 131.07 295.023 129.242 294.417 127.301C293.902 125.036 293.902 122.684 294.417 120.419C294.861 118.008 295.582 115.527 296.208 112.896C296.833 110.264 297.42 107.42 296.833 104.512C296.502 103.04 295.826 101.667 294.861 100.506C293.826 99.3227 292.644 98.2765 291.344 97.3921C288.714 95.5273 285.688 94.0417 282.796 92.0978C281.3 91.1357 279.941 89.9768 278.756 88.6525C277.593 87.2151 276.747 85.548 276.277 83.7612C275.263 80.1658 275.033 76.3254 274.265 72.4851C273.929 70.5296 273.267 68.644 272.308 66.9063C271.266 65.1568 269.685 63.7903 267.8 63.0106C265.855 62.2309 263.819 61.6999 261.74 61.4302C259.641 61.0825 257.486 60.8375 255.332 60.4582C253.124 60.1407 250.983 59.4654 248.994 58.459C247.022 57.2764 245.352 55.6534 244.115 53.7178C242.8 51.8372 241.667 49.8143 240.463 47.8151C239.309 45.7695 237.927 43.8609 236.343 42.1256C234.711 40.3702 232.484 39.2807 230.093 39.0675C227.651 38.9774 225.209 39.2626 222.853 39.9131C220.476 40.4899 218.036 41.1932 215.541 41.6594C213.019 42.2524 210.387 42.2035 207.889 41.5172C205.453 40.5641 203.175 39.2508 201.132 37.6215C199.016 36.0411 196.957 34.4607 194.699 33.0541C192.441 31.6476 189.883 30.6282 187.221 30.9285H186.722C186.556 30.9285 186.397 30.9996 186.239 31.0312C185.914 31.1102 185.581 31.1656 185.264 31.2604C184.626 31.4628 184.002 31.7056 183.395 31.9874C182.17 32.5687 180.993 33.2478 179.878 34.0182C177.628 35.5986 175.497 37.3212 173.184 38.8858C172.032 39.69 170.813 40.3933 169.54 40.9877C168.235 41.5699 166.838 41.9203 165.413 42.0229C162.554 42.0412 159.709 41.6391 156.968 40.8297C154.209 40.0438 151.394 39.4653 148.547 39.0992C147.126 38.9597 145.691 39.0558 144.301 39.3836C142.917 39.7676 141.64 40.4653 140.57 41.4223C138.384 43.3267 136.863 45.887 135.342 48.3998C133.906 51.0311 132.227 53.5231 130.328 55.8435C129.322 56.9929 128.114 57.949 126.763 58.6645C125.384 59.3148 123.935 59.8079 122.445 60.1342C119.467 60.7901 116.425 61.0667 113.423 61.604C110.42 62.1413 107.355 62.9869 105.184 65.0888C104.136 66.202 103.328 67.5169 102.808 68.9529C102.283 70.4012 101.898 71.8962 101.659 73.4175C101.104 76.4677 100.867 79.5968 100.075 82.6707C99.7342 84.2308 99.1657 85.7324 98.3873 87.1274C97.5672 88.5096 96.492 89.7242 95.2186 90.707C92.7154 92.7141 89.8715 94.1997 87.1464 95.8591C85.7812 96.6787 84.4713 97.5868 83.2252 98.5774C81.9856 99.5656 80.943 100.777 80.1516 102.149C79.397 103.546 79.0151 105.114 79.0426 106.701C79.0706 108.296 79.259 109.884 79.605 111.442C80.2704 114.603 81.2765 117.708 81.8151 120.924C82.1345 122.575 82.1986 124.264 82.0053 125.934C81.7804 127.6 81.2429 129.208 80.4209 130.675C78.7653 133.56 76.6106 136.096 74.7015 138.783C73.721 140.107 72.8671 141.52 72.1507 143.002C71.3658 144.449 70.9548 146.067 70.9548 147.712C70.9548 149.357 71.3658 150.975 72.1507 152.422C72.8659 153.905 73.7199 155.318 74.7015 156.641C76.6106 159.328 78.7653 161.864 80.4209 164.749C81.2278 166.188 81.7647 167.763 82.0053 169.395C82.2065 171.042 82.1531 172.711 81.8468 174.342C81.3161 177.589 80.31 180.703 79.6367 183.864C79.2936 185.422 79.1052 187.01 79.0742 188.605C79.043 190.194 79.4222 191.764 80.1754 193.164C80.9606 194.54 82.001 195.755 83.241 196.744C84.4871 197.734 85.797 198.642 87.1623 199.462C89.8873 201.121 92.7075 202.623 95.2424 204.614C96.5137 205.599 97.5885 206.813 98.4111 208.194C99.1953 209.583 99.7642 211.083 100.098 212.643C100.843 215.724 101.097 218.854 101.683 221.904C101.929 223.424 102.316 224.919 102.839 226.368C103.347 227.804 104.142 229.121 105.176 230.24C107.37 232.366 110.46 233.211 113.423 233.749C116.385 234.286 119.467 234.539 122.445 235.219C123.938 235.546 125.388 236.039 126.771 236.688C128.12 237.406 129.328 238.362 130.335 239.509C132.216 241.834 133.879 244.325 135.302 246.953C136.823 249.466 138.344 252.026 140.531 253.931C141.599 254.886 142.873 255.583 144.254 255.969C145.656 256.322 147.107 256.44 148.547 256.317C151.389 255.936 154.198 255.347 156.952 254.555C159.695 253.739 162.543 253.334 165.405 253.354C166.831 253.461 168.227 253.814 169.532 254.397C170.804 254.993 172.023 255.696 173.176 256.499C175.489 258.079 177.612 259.825 179.87 261.358C180.981 262.134 182.154 262.816 183.379 263.397C183.987 263.677 184.611 263.92 185.249 264.124C185.573 264.211 185.898 264.274 186.223 264.353L186.714 264.456H187.205C189.875 264.756 192.441 263.666 194.691 262.33C196.941 260.995 199.009 259.312 201.116 257.763C203.162 256.134 205.443 254.821 207.881 253.867C210.38 253.185 213.01 253.136 215.533 253.725C218.028 254.199 220.437 254.902 222.845 255.479C225.205 256.122 227.648 256.408 230.093 256.325C232.481 256.103 234.703 255.012 236.336 253.259C237.915 251.517 239.296 249.606 240.455 247.562C241.651 245.57 242.784 243.547 244.099 241.659C245.343 239.726 247.015 238.104 248.986 236.918C250.974 235.91 253.116 235.237 255.324 234.926C257.486 234.539 259.633 234.294 261.732 233.954C263.813 233.672 265.849 233.127 267.792 232.334C269.675 231.552 271.255 230.186 272.3 228.439C273.254 226.699 273.912 224.814 274.249 222.86C275.041 219.02 275.247 215.171 276.269 211.576C276.735 209.79 277.58 208.124 278.748 206.692C279.93 205.364 281.289 204.205 282.788 203.247C285.68 201.303 288.706 199.818 291.328 197.953C292.634 197.07 293.819 196.021 294.853 194.832C295.817 193.673 296.49 192.303 296.818 190.833C297.094 189.414 297.134 187.959 296.936 186.527C296.773 185.153 296.524 183.792 296.192 182.449C295.558 179.818 294.845 177.337 294.401 174.926C293.886 172.661 293.886 170.309 294.401 168.044C295.01 166.104 295.931 164.276 297.126 162.631C299.273 159.541 301.341 157.1 302.672 154.919C303.783 153.314 304.589 151.52 305.048 149.624C305.167 149.143 305.236 148.65 305.254 148.154L305.302 147.657C305.302 147.657 305.302 147.823 305.302 148.154C305.286 148.652 305.223 149.147 305.112 149.632C304.661 151.543 303.854 153.352 302.735 154.966C301.38 157.163 299.329 159.612 297.19 162.702C296.001 164.335 295.094 166.153 294.504 168.083C293.989 170.325 293.989 172.653 294.504 174.895C294.948 177.265 295.669 179.77 296.311 182.402C296.656 183.755 296.92 185.127 297.103 186.511C297.3 187.962 297.26 189.435 296.984 190.873C296.653 192.376 295.969 193.779 294.988 194.966C293.944 196.168 292.748 197.231 291.431 198.127C288.785 200.007 285.767 201.501 282.891 203.437C281.423 204.389 280.091 205.534 278.93 206.843C277.786 208.252 276.96 209.891 276.506 211.647C275.5 215.203 275.278 219.043 274.502 222.907C274.167 224.893 273.5 226.808 272.53 228.573C271.46 230.372 269.837 231.779 267.903 232.587C265.94 233.391 263.883 233.944 261.78 234.231C259.673 234.579 257.518 234.824 255.371 235.211C253.192 235.521 251.077 236.186 249.113 237.178C247.197 238.338 245.571 239.919 244.36 241.801C243.061 243.674 241.928 245.689 240.724 247.696C239.559 249.761 238.167 251.691 236.573 253.448C234.889 255.26 232.592 256.386 230.125 256.609C227.645 256.707 225.166 256.421 222.774 255.764C220.357 255.187 217.949 254.492 215.478 254.025C213.01 253.449 210.437 253.495 207.992 254.16C205.591 255.104 203.345 256.401 201.33 258.008C199.23 259.549 197.163 261.208 194.881 262.599C194.287 262.915 193.725 263.286 193.107 263.547C192.798 263.689 192.497 263.84 192.188 263.966L191.229 264.306C189.93 264.751 188.549 264.913 187.181 264.78L186.667 264.74C186.5 264.74 186.334 264.669 186.16 264.638C185.827 264.559 185.486 264.495 185.161 264.401C184.503 264.198 183.86 263.95 183.236 263.658C181.993 263.069 180.801 262.38 179.672 261.595C177.398 260.015 175.267 258.292 172.978 256.736C171.841 255.949 170.64 255.256 169.389 254.665C168.124 254.104 166.77 253.764 165.389 253.662C162.565 253.649 159.754 254.051 157.047 254.855C154.264 255.672 151.423 256.277 148.547 256.665C147.078 256.808 145.596 256.709 144.159 256.372C142.719 255.972 141.391 255.247 140.277 254.255C138.027 252.287 136.491 249.703 134.97 247.182C133.56 244.575 131.911 242.104 130.042 239.802C129.069 238.689 127.898 237.765 126.589 237.076C125.239 236.436 123.819 235.953 122.358 235.637C119.411 234.989 116.377 234.713 113.351 234.168C111.827 233.915 110.329 233.523 108.876 232.998C107.402 232.459 106.054 231.626 104.915 230.549C103.833 229.396 103.005 228.032 102.483 226.542C101.948 225.07 101.553 223.552 101.302 222.006C100.748 218.933 100.51 215.803 99.7182 212.769C99.3892 211.249 98.8338 209.787 98.0704 208.431C97.2687 207.091 96.2205 205.914 94.981 204.962C92.5253 202.994 89.6893 201.509 86.9563 199.841C85.5775 199.012 84.2544 198.093 82.9955 197.091C81.7141 196.067 80.6389 194.809 79.8268 193.385C79.0446 191.929 78.6517 190.296 78.6861 188.644C78.7049 187.009 78.8961 185.38 79.2564 183.785C79.9298 180.624 80.9358 177.463 81.4587 174.302C81.7577 172.71 81.8085 171.082 81.6092 169.474C81.3692 167.877 80.8319 166.338 80.0248 164.938C78.4405 162.094 76.2541 159.573 74.3292 156.862C73.326 155.512 72.4483 154.073 71.7071 152.564C70.9013 151.062 70.4797 149.384 70.4797 147.68C70.4797 145.977 70.9013 144.299 71.7071 142.797C72.4382 141.292 73.308 139.858 74.3054 138.514C76.2304 135.804 78.3771 133.283 79.9932 130.446C80.7994 129.043 81.3367 127.502 81.5775 125.902C81.7623 124.294 81.7089 122.667 81.4191 121.074C80.8883 117.914 79.8823 114.753 79.2089 111.592C78.8551 109.998 78.6666 108.372 78.6465 106.74C78.6149 105.088 79.0105 103.455 79.7951 101.999C80.6125 100.581 81.6869 99.327 82.9638 98.3008C84.2208 97.2967 85.5441 96.378 86.9246 95.551C89.6576 93.8836 92.4698 92.3902 94.9493 90.4305C96.1865 89.4782 97.232 88.3012 98.0308 86.9615C98.7905 85.6019 99.3431 84.1372 99.6706 82.6154C100.407 79.581 100.661 76.4598 101.255 73.3859C101.503 71.8407 101.895 70.3221 102.427 68.8501C102.905 67.3434 103.736 65.9723 104.853 64.8507C105.969 63.7292 107.337 62.8897 108.844 62.4021C110.297 61.877 111.795 61.4855 113.32 61.2326C116.346 60.6874 119.38 60.4424 122.327 59.7708C123.785 59.4454 125.203 58.9632 126.557 58.3326C127.863 57.6378 129.03 56.7113 130.003 55.5985C131.871 53.2961 133.521 50.8253 134.93 48.2181C136.451 45.6973 137.988 43.1134 140.245 41.1537C141.365 40.146 142.705 39.4128 144.159 39.0122C145.596 38.6789 147.078 38.5802 148.547 38.7199C151.405 39.101 154.23 39.6926 157 40.4899C159.705 41.3002 162.517 41.705 165.341 41.691C166.71 41.5822 168.05 41.2401 169.302 40.6796C170.557 40.0964 171.758 39.4036 172.891 38.6092C175.188 37.0288 177.319 35.2983 179.592 33.7574C180.72 32.9703 181.912 32.2804 183.157 31.695C183.78 31.4054 184.42 31.1547 185.074 30.9443C185.407 30.8495 185.748 30.7942 186.08 30.7151L186.579 30.6045H187.094C188.462 30.4757 189.842 30.6372 191.142 31.0786L192.101 31.4184C192.41 31.5449 192.711 31.695 193.02 31.8372C193.646 32.1059 194.208 32.4694 194.794 32.7855C197.084 34.1762 199.143 35.8356 201.25 37.3765C203.264 38.9822 205.507 40.2792 207.905 41.2248C210.349 41.8931 212.923 41.9393 215.391 41.3591C217.862 40.9008 220.27 40.2054 222.686 39.6286C225.079 38.9723 227.558 38.6845 230.038 38.7752C232.504 39.0012 234.8 40.1266 236.486 41.936C238.081 43.6971 239.476 45.629 240.645 47.6965C241.849 49.6957 242.974 51.7186 244.273 53.5835C245.482 55.4691 247.108 57.0532 249.026 58.2141C250.989 59.21 253.104 59.8749 255.284 60.1817C257.431 60.5689 259.586 60.8138 261.693 61.1615C263.795 61.4523 265.852 62.0044 267.816 62.8051C269.75 63.6125 271.374 65.0165 272.45 66.8114C273.418 68.578 274.085 70.4926 274.423 72.4772C275.215 76.3412 275.421 80.1816 276.419 83.7375C276.878 85.4919 277.704 87.1293 278.843 88.5419C280.001 89.8548 281.334 91.0033 282.804 91.9556C285.68 93.8915 288.706 95.385 291.344 97.2657C292.661 98.1615 293.857 99.2239 294.9 100.426C295.883 101.611 296.569 103.011 296.905 104.512C297.181 105.952 297.221 107.428 297.024 108.882C296.842 110.263 296.577 111.633 296.231 112.983C295.598 115.622 294.869 118.095 294.425 120.498C293.91 122.739 293.91 125.068 294.425 127.309C295.015 129.239 295.922 131.058 297.111 132.69C299.242 135.788 301.293 138.222 302.656 140.426C303.773 142.042 304.579 143.85 305.032 145.76C305.144 146.245 305.207 146.74 305.222 147.238C305.318 147.522 305.318 147.696 305.318 147.696Z" fill="#263238"/>
<path d="M165.975 256.317C166.086 256.317 163.163 268.17 159.448 282.726C155.732 297.281 152.627 309.063 152.516 309.039C152.405 309.016 155.328 297.186 159.044 282.623C162.759 268.06 165.896 256.254 165.975 256.317Z" fill="#263238"/>
<path d="M188.005 219.423C227.722 219.423 259.918 187.306 259.918 147.688C259.918 108.071 227.722 75.9541 188.005 75.9541C148.289 75.9541 116.092 108.071 116.092 147.688C116.092 187.306 148.289 219.423 188.005 219.423Z" fill="white"/>
<path d="M143.731 122.837C142.741 123.824 137.291 133.718 136.792 141.88C136.293 150.043 137.473 195.859 137.473 195.859L137.687 198.901C150.631 214.002 197.686 236.475 240.067 198.822L242.443 170.636L235.448 110.968L211.129 105.033L205.433 95.8276L167.472 104.694L164.082 112.675L143.731 122.837Z" fill="#455A64"/>
<path d="M202.827 71.8371C204.498 65.6341 206.138 59.3915 206.716 52.9988C207.295 46.6061 206.764 40 204.213 34.1051C203.825 33.2122 200.617 27.2462 199.65 27.3963C198.961 27.4991 201.036 33.1095 200.72 33.7179C197.67 39.6207 197.115 46.5508 197.995 53.1331C198.902 59.5253 200.522 65.7963 202.827 71.8292" fill="#263238"/>
<path d="M202.193 47.3409C201.892 31.2446 192.243 18.0088 176.123 18.7594L174.634 18.9175C167.423 19.6757 160.763 23.1135 155.978 28.547C151.193 33.9805 148.634 41.0116 148.809 48.2418C149.157 62.1888 149.712 77.5976 150.591 85.0097C152.405 100.347 168.019 101.122 168.019 101.122L168.74 111.213L175.354 118.38L206.019 99.415L202.193 47.3409Z" fill="#FFBF9D"/>
<path d="M168.059 101.24C168.059 101.24 177.826 100.79 187.483 93.2197C187.483 93.2197 184.251 107.135 168.74 107.364L168.059 101.24Z" fill="#FF9A6C"/>
<path d="M157.673 60.7502C157.728 61.3271 158.007 61.8594 158.452 62.232C158.897 62.6047 159.471 62.7877 160.05 62.7415C160.332 62.7345 160.609 62.6713 160.866 62.5556C161.124 62.4399 161.355 62.2742 161.547 62.068C161.739 61.8619 161.887 61.6195 161.984 61.3552C162.081 61.0909 162.123 60.81 162.109 60.529C162.053 59.953 161.773 59.4219 161.328 59.0496C160.884 58.6774 160.311 58.4936 159.733 58.5377C159.451 58.5436 159.172 58.6061 158.915 58.7214C158.657 58.8367 158.425 59.0025 158.233 59.2089C158.041 59.4153 157.893 59.6581 157.796 59.9228C157.7 60.1876 157.658 60.469 157.673 60.7502Z" fill="#263238"/>
<path d="M152.778 54.2709C153.079 54.5238 154.616 53.1252 156.984 52.8802C159.353 52.6352 161.206 53.6704 161.436 53.3148C161.547 53.1805 161.214 52.6905 160.398 52.2164C159.3 51.6193 158.045 51.3738 156.802 51.5131C155.571 51.6396 154.412 52.1514 153.491 52.975C152.817 53.6151 152.627 54.1524 152.778 54.2709Z" fill="#263238"/>
<path d="M178.578 58.9807C178.633 59.5576 178.913 60.0899 179.357 60.4625C179.802 60.8351 180.376 61.0182 180.955 60.972C181.237 60.965 181.515 60.9018 181.772 60.7861C182.029 60.6705 182.26 60.5047 182.452 60.2985C182.644 60.0923 182.793 59.85 182.889 59.5857C182.986 59.3214 183.028 59.0405 183.015 58.7595C182.96 58.182 182.681 57.649 182.236 57.2751C181.792 56.9012 181.218 56.7163 180.638 56.7603C180.356 56.7684 180.078 56.8325 179.821 56.9491C179.564 57.0656 179.332 57.2321 179.141 57.4389C178.949 57.6457 178.8 57.8886 178.704 58.1533C178.607 58.4181 178.565 58.6994 178.578 58.9807Z" fill="#263238"/>
<path d="M176.059 52.7855C176.36 53.0462 177.905 51.6397 180.266 51.3947C182.626 51.1498 184.496 52.1849 184.718 51.8372C184.829 51.695 184.504 51.2051 183.688 50.7389C182.588 50.1387 181.329 49.893 180.084 50.0356C178.851 50.1567 177.691 50.6691 176.772 51.4975C176.107 52.1296 175.917 52.6748 176.059 52.7855Z" fill="#263238"/>
<path d="M169.484 71.821C169.484 71.6867 167.987 71.5839 165.571 71.5286C164.961 71.5286 164.375 71.4733 164.232 71.0703C164.113 70.4544 164.187 69.8167 164.446 69.2449L165.745 64.5038C167.536 57.708 168.764 52.145 168.494 52.0739C168.225 52.0028 166.538 57.4552 164.747 64.2588L163.527 69.0395C163.229 69.798 163.207 70.6368 163.464 71.4101C163.572 71.6159 163.726 71.7942 163.914 71.9312C164.103 72.0682 164.32 72.1603 164.549 72.2003C164.894 72.2425 165.242 72.2425 165.587 72.2003C168.003 72.0976 169.492 71.9553 169.484 71.821Z" fill="#263238"/>
<path d="M176.622 72.7219C176.234 72.7219 176.503 75.2979 174.499 77.3525C172.495 79.407 169.746 79.407 169.746 79.7705C169.746 79.9285 170.403 80.2051 171.568 80.1102C173.068 79.9698 174.47 79.3067 175.529 78.2375C176.539 77.203 177.107 75.8176 177.113 74.3734C177.153 73.2908 176.796 72.6903 176.622 72.7219Z" fill="#263238"/>
<path d="M175.18 43.1925C175.481 43.8088 177.81 43.2557 180.622 43.3031C183.435 43.3505 185.763 43.8641 186.064 43.2478C186.199 42.9554 185.748 42.3944 184.773 41.8649C183.481 41.2398 182.063 40.915 180.626 40.915C179.19 40.915 177.772 41.2398 176.479 41.8649C175.481 42.3391 175.045 42.9001 175.18 43.1925Z" fill="#263238"/>
<path d="M152.928 46.3216C153.396 46.8115 154.972 46.0845 156.929 45.8475C158.885 45.6104 160.588 45.8475 160.889 45.2311C161.032 44.9387 160.715 44.4409 159.939 43.9984C158.899 43.4924 157.732 43.3057 156.585 43.4618C155.439 43.618 154.365 44.11 153.499 44.8755C152.881 45.4998 152.714 46.0766 152.928 46.3216Z" fill="#263238"/>
<path d="M202.138 58.8541C202.391 58.7118 212.388 54.6186 213.165 65.1757C213.941 75.7327 203.207 74.2946 203.136 73.9943C203.064 73.694 202.138 58.8541 202.138 58.8541Z" fill="#FFBF9D"/>
<path d="M206.067 69.7665C206.114 69.7665 206.257 69.8771 206.582 69.9957C207.033 70.1515 207.527 70.126 207.96 69.9245C209.045 69.4346 209.853 67.6014 209.766 65.697C209.73 64.7911 209.489 63.9052 209.061 63.1051C208.937 62.7837 208.737 62.4972 208.478 62.27C208.218 62.0429 207.907 61.8821 207.572 61.8013C207.357 61.759 207.135 61.7936 206.943 61.8992C206.752 62.0047 206.604 62.1744 206.526 62.3781C206.4 62.6863 206.487 62.8918 206.431 62.9155C206.376 62.9392 206.194 62.7495 206.241 62.3149C206.283 62.0477 206.414 61.8026 206.613 61.6196C206.889 61.3803 207.247 61.2583 207.612 61.2798C208.051 61.3316 208.47 61.4965 208.827 61.7583C209.184 62.0201 209.467 62.3698 209.647 62.7732C210.168 63.652 210.462 64.6456 210.503 65.6654C210.59 67.791 209.647 69.8613 208.126 70.4066C207.849 70.5106 207.553 70.5511 207.258 70.5251C206.963 70.4992 206.678 70.4073 206.423 70.2564C206.106 70.0194 206.035 69.7823 206.067 69.7665Z" fill="#FF9A6C"/>
<path d="M154.52 30.3199C152.754 29.4823 157.531 23.6269 161.65 21.4539C167.821 18.1746 177.406 15.7803 183.371 17.0604C190.556 18.6408 196.64 21.7226 200.593 27.9019C204.546 34.0813 206.36 41.4538 206.629 48.779C206.708 51.0152 206.629 53.3542 205.552 55.3139C204.229 57.7398 201.488 59.3913 201.821 62.5995C201.9 63.1788 201.862 63.768 201.71 64.3325C201.558 64.8971 201.294 65.4255 200.934 65.8868C199.127 68.0677 196.64 66.2898 195.428 64.4249C192.838 60.4739 192.259 55.5352 191.752 50.8098C191.388 47.4593 191.031 44.0299 191.752 40.7427C192.148 38.9489 192.877 37.2342 193.178 35.4246C193.479 33.6151 193.297 31.6001 192.093 30.2093C191.812 29.9176 191.505 29.653 191.174 29.4191C189.616 28.2259 187.766 27.4693 185.816 27.2276C183.867 26.9859 181.888 27.2678 180.084 28.0442C174.261 30.5254 164.304 34.3183 161.515 32.4693C157.515 29.8142 156.469 27.9493 156.469 27.9493L154.52 30.3199Z" fill="#263238"/>
<path d="M143.731 122.836C143.121 123.682 134.463 126.55 131.175 132.011C127.888 137.471 124.64 161.983 124.64 161.983L122.548 178.087C126.668 184.583 132.197 193.188 138.059 199.257L143.731 122.836Z" fill="#455A64"/>
<g opacity="0.3">
<path d="M208.792 146.479C209.025 149.784 209.653 153.05 210.661 156.206C211.794 159.312 213.783 162.236 216.69 163.84C217.902 164.503 219.272 164.946 220.294 165.894C221.316 166.842 221.934 168.375 222.924 169.49C224.163 170.715 225.691 171.609 227.368 172.089C232.087 173.815 237.095 174.62 242.118 174.46C242.277 172.769 242.285 166.558 242.443 164.859L208.792 146.479Z" fill="black"/>
</g>
<path d="M235.448 110.968C235.448 110.968 246.364 114.192 249.565 118.83C252.765 123.469 258.429 141.454 259.594 144.788C260.758 148.123 259.736 155.851 257.558 161.382C255.379 166.914 251.593 171.726 245.057 172.445C238.522 173.164 228.192 169.403 225.863 166.914C223.534 164.425 222.576 158.917 222.576 158.917C225.478 158.41 228.34 157.694 231.139 156.776" fill="#455A64"/>
<path d="M231.139 156.831L231.004 156.886L230.592 157.036C230.228 157.163 229.681 157.344 228.96 157.558C226.877 158.179 224.762 158.686 222.623 159.075L222.71 158.956C222.976 160.314 223.349 161.648 223.827 162.947C224.088 163.683 224.403 164.399 224.77 165.088C225.146 165.825 225.641 166.495 226.235 167.072C226.906 167.646 227.646 168.134 228.438 168.526C229.274 168.964 230.133 169.357 231.012 169.703C232.897 170.455 234.836 171.068 236.811 171.536C238.943 172.058 241.127 172.337 243.322 172.366C243.894 172.371 244.465 172.345 245.034 172.287C245.607 172.222 246.176 172.121 246.737 171.987C247.887 171.729 248.993 171.3 250.016 170.715C252.147 169.485 253.936 167.744 255.221 165.649C256.579 163.474 257.619 161.117 258.31 158.648C258.874 156.751 259.295 154.815 259.57 152.856C259.865 150.959 259.96 149.036 259.855 147.119C259.792 146.197 259.603 145.288 259.293 144.417C258.992 143.532 258.698 142.655 258.413 141.785L256.71 136.704C255.585 133.401 254.476 130.28 253.367 127.38C252.394 124.682 251.221 122.059 249.858 119.533C249.228 118.46 248.387 117.525 247.386 116.784C246.514 116.091 245.586 115.47 244.614 114.927C243.051 114.037 241.435 113.245 239.774 112.556C238.411 111.995 237.334 111.6 236.605 111.339L235.773 111.047C235.674 111.02 235.579 110.983 235.488 110.936C235.588 110.949 235.686 110.973 235.781 111.007L236.629 111.26C237.373 111.497 238.466 111.868 239.845 112.406C241.52 113.065 243.152 113.828 244.733 114.689C245.723 115.233 246.669 115.854 247.561 116.546C248.591 117.301 249.459 118.255 250.111 119.352C251.505 121.891 252.702 124.532 253.692 127.254C254.825 130.146 255.942 133.275 257.074 136.578C257.637 138.229 258.207 139.928 258.793 141.659C259.087 142.52 259.38 143.397 259.673 144.282C259.998 145.183 260.198 146.125 260.267 147.08C260.38 149.025 260.287 150.977 259.99 152.903C259.71 154.884 259.283 156.841 258.714 158.759C258.007 161.269 256.939 163.665 255.546 165.871C254.225 168.021 252.383 169.807 250.191 171.062C249.134 171.662 247.994 172.101 246.808 172.366C246.231 172.503 245.646 172.606 245.057 172.674C244.471 172.674 243.885 172.777 243.315 172.753C241.089 172.713 238.875 172.421 236.716 171.884C234.723 171.407 232.768 170.781 230.87 170.011C229.985 169.654 229.12 169.251 228.279 168.802C227.464 168.395 226.703 167.888 226.014 167.293C225.4 166.688 224.892 165.986 224.508 165.215C224.141 164.515 223.826 163.788 223.566 163.042C223.101 161.72 222.739 160.365 222.48 158.988V158.885H222.583C225.372 158.403 227.511 157.858 228.96 157.463L230.608 156.997L231.028 156.878C231.091 156.831 231.139 156.823 231.139 156.831Z" fill="#263238"/>
<path d="M251.173 151.007C251.094 151.007 250.84 149.664 249.929 147.657C248.732 145.048 247.062 142.682 245.002 140.679C243.86 139.595 242.569 138.68 241.168 137.961L240.209 137.534C239.892 137.392 239.56 137.329 239.259 137.226C238.689 137.047 238.102 136.925 237.508 136.863L237.112 136.807H236.034C235.663 136.802 235.291 136.833 234.925 136.902C234.607 136.966 234.284 137 233.959 137.005C234.259 136.881 234.573 136.793 234.894 136.744C235.262 136.64 235.643 136.584 236.027 136.578H236.739H237.128L237.54 136.626C238.154 136.668 238.762 136.774 239.354 136.942C239.686 137.025 240.014 137.125 240.336 137.242L241.334 137.669C242.787 138.385 244.123 139.317 245.295 140.434C247.4 142.464 249.068 144.9 250.198 147.593C250.4 148.052 250.575 148.521 250.721 149C250.843 149.36 250.944 149.727 251.022 150.098C251.101 150.396 251.152 150.7 251.173 151.007Z" fill="#263238"/>
<path d="M257.13 141.233C256.68 140.083 256.129 138.975 255.482 137.922C253.841 135.422 251.384 133.566 248.527 132.667C245.176 131.648 241.92 131.964 239.647 132.177L236.93 132.501C236.6 132.56 236.266 132.589 235.932 132.588C236.245 132.466 236.572 132.384 236.906 132.343C237.54 132.216 238.49 132.051 239.615 131.892C242.618 131.369 245.698 131.498 248.646 132.272C250.26 132.756 251.759 133.562 253.05 134.642C254.108 135.539 255.012 136.601 255.728 137.787C256.218 138.566 256.609 139.402 256.892 140.276C257.008 140.585 257.088 140.906 257.13 141.233Z" fill="#263238"/>
<path d="M248.899 129.545C244.629 128.541 240.165 128.716 235.987 130.051C236.535 129.694 237.137 129.428 237.769 129.261C239.268 128.801 240.821 128.535 242.388 128.471C243.955 128.415 245.523 128.559 247.054 128.897C247.698 129.02 248.32 129.239 248.899 129.545Z" fill="#263238"/>
<path d="M231.234 113.686C231.298 113.686 231.139 114.8 231.012 116.586C230.68 121.16 231.076 125.758 232.185 130.209L231.9 130.304C231.575 129.395 231.321 128.652 231.155 128.131C231.051 127.877 230.977 127.612 230.933 127.341C231.094 127.586 231.222 127.852 231.313 128.131C231.527 128.629 231.82 129.356 232.185 130.257L231.9 130.343C231.272 128.157 230.856 125.916 230.656 123.65C230.449 121.307 230.47 118.949 230.719 116.61C230.822 115.717 230.941 115.029 231.036 114.5C231.063 114.221 231.129 113.946 231.234 113.686Z" fill="#263238"/>
<path d="M215.795 93.4175C215.795 93.4175 210.131 93.4175 209.418 100.205C208.871 105.421 209.418 110.478 209.418 112.769C209.418 115.061 208.412 123.176 208.412 123.176C208.412 123.176 204.546 126.598 204.609 130.707C204.673 134.816 207.619 136.096 207.619 136.096C207.125 137.369 207.016 138.759 207.307 140.094C207.597 141.428 208.273 142.648 209.251 143.603C209.251 143.603 207.612 147.388 208.958 149.925C209.734 151.186 210.946 152.122 212.365 152.556C212.132 153.055 212.01 153.599 212.006 154.149C212.002 154.7 212.116 155.245 212.342 155.747C212.567 156.25 212.898 156.698 213.312 157.062C213.726 157.427 214.213 157.698 214.741 157.858C216.644 158.446 218.638 158.69 220.627 158.577L224.857 158.498L228.58 160.553C228.58 160.553 234.965 157.779 235.124 154.026L235.29 150.272C235.29 150.272 233.46 144.109 233.309 142.133C233.159 140.158 234.783 135.44 233.801 133.323C232.818 131.205 229.388 129.956 229.713 127.001C230.038 124.046 229.388 122.402 227.915 120.766C226.441 119.131 219.938 115.875 219.938 115.875C219.938 115.875 218.266 111.134 218.266 107.886C218.266 104.638 221.522 94.6581 215.795 93.4175Z" fill="#FFBF9D"/>
<path d="M219.613 117.107C219.126 117.505 218.594 117.844 218.029 118.119C217.03 118.704 215.652 119.478 214.068 120.316C212.483 121.153 211.105 121.896 210.107 122.41C209.567 122.735 208.993 123 208.396 123.2C208.881 122.798 209.413 122.456 209.98 122.18C210.978 121.596 212.357 120.821 213.941 119.984C215.525 119.146 216.904 118.403 217.902 117.89C218.44 117.564 219.014 117.302 219.613 117.107Z" fill="#FF9A6C"/>
<path d="M223.336 129.885C223.336 129.885 223.178 130.067 222.837 130.328C222.364 130.698 221.872 131.044 221.364 131.363C219.691 132.432 217.912 133.327 216.056 134.034C214.2 134.752 212.276 135.282 210.313 135.614C209.521 135.733 208.942 135.804 208.522 135.828C208.303 135.869 208.077 135.869 207.857 135.828C207.857 135.764 208.776 135.638 210.234 135.33C212.156 134.927 214.044 134.377 215.882 133.686C217.715 132.978 219.49 132.128 221.189 131.142C221.883 130.687 222.599 130.267 223.336 129.885Z" fill="#FF9A6C"/>
<path d="M228.2 125.816C228.303 125.855 228.089 126.606 227.408 127.183C226.727 127.76 225.998 127.934 225.974 127.831C225.95 127.728 226.536 127.428 227.131 126.875C227.725 126.322 228.089 125.768 228.2 125.816Z" fill="#FF9A6C"/>
<path d="M225.863 141.066C225.102 141.435 224.306 141.726 223.487 141.936C221.538 142.514 219.553 142.965 217.545 143.287C215.538 143.613 213.511 143.803 211.477 143.856C210.635 143.921 209.787 143.894 208.95 143.777C209.783 143.659 210.621 143.59 211.462 143.571C213.046 143.461 215.145 143.255 217.482 142.884C219.819 142.512 221.902 142.03 223.407 141.651C224.214 141.409 225.034 141.213 225.863 141.066Z" fill="#FF9A6C"/>
<path d="M231.044 140.158C231.164 139.746 231.31 139.343 231.48 138.949C231.794 137.984 231.899 136.963 231.788 135.954C231.662 134.946 231.316 133.978 230.774 133.117C230.518 132.774 230.282 132.415 230.069 132.043C230.069 132.003 230.521 132.295 231.02 132.951C231.661 133.818 232.065 134.836 232.192 135.905C232.32 136.975 232.167 138.059 231.749 139.052C231.424 139.771 231.083 140.158 231.044 140.158Z" fill="#FF9A6C"/>
<path d="M226.18 152.509C225.531 152.747 224.855 152.907 224.168 152.983C222.522 153.242 220.859 153.371 219.193 153.37C217.523 153.367 215.857 153.227 214.21 152.951C213.522 152.874 212.846 152.712 212.198 152.469C212.886 152.481 213.572 152.547 214.25 152.667C215.891 152.852 217.541 152.949 219.193 152.959C220.842 152.956 222.489 152.866 224.128 152.69C224.806 152.575 225.492 152.515 226.18 152.509Z" fill="#FF9A6C"/>
<path d="M216.104 107.965C216.104 108.013 215.842 108.226 215.311 108.416C214.613 108.648 213.871 108.724 213.139 108.636C212.408 108.549 211.705 108.301 211.081 107.91C210.606 107.602 210.384 107.333 210.416 107.293C211.292 107.732 212.225 108.046 213.188 108.226C214.168 108.278 215.149 108.19 216.104 107.965Z" fill="#FF9A6C"/>
<path d="M232.216 140.608C232.288 140.803 232.32 141.009 232.311 141.216C232.312 141.778 232.245 142.338 232.113 142.884C231.963 143.571 231.701 144.369 231.448 145.254C231.141 146.18 231.041 147.162 231.155 148.131C231.289 149.134 232.042 149.94 232.161 150.96C232.242 151.821 232.021 152.684 231.535 153.401C231.24 153.877 230.897 154.321 230.513 154.729C230.244 155.021 230.077 155.163 230.054 155.148C230.03 155.132 230.6 154.452 231.282 153.259C231.691 152.586 231.867 151.797 231.781 151.015C231.686 150.154 230.925 149.347 230.743 148.202C230.622 147.172 230.739 146.129 231.084 145.152C231.361 144.259 231.646 143.476 231.828 142.781C232.011 142.067 232.141 141.341 232.216 140.608Z" fill="#FF9A6C"/>
<path d="M234.347 145.571C234.476 145.802 234.567 146.053 234.616 146.314C234.759 146.796 234.949 147.507 235.123 148.392C235.339 149.433 235.466 150.49 235.504 151.553C235.572 152.881 235.328 154.207 234.791 155.425C234.167 156.59 233.341 157.637 232.351 158.514C231.563 159.23 230.724 159.888 229.84 160.482C229.087 160.995 228.453 161.375 228.01 161.62C227.792 161.767 227.554 161.884 227.305 161.967C227.265 161.912 228.216 161.312 229.681 160.245C230.531 159.628 231.341 158.957 232.105 158.238C233.047 157.379 233.834 156.366 234.434 155.243C234.942 154.08 235.183 152.82 235.139 151.553C235.121 150.507 235.026 149.463 234.854 148.431C234.545 146.669 234.284 145.587 234.347 145.571Z" fill="#263238"/>
<path d="M174.578 119.265C174.249 119.071 173.941 118.844 173.659 118.585L171.283 116.602L169.635 115.219C169.353 114.956 169.039 114.731 168.7 114.547C168.536 114.464 168.354 114.42 168.169 114.42C167.985 114.42 167.803 114.464 167.639 114.547C166.957 114.903 166.498 115.772 165.92 116.499C165.341 117.226 164.771 118.08 164.169 118.87C163.218 120.15 162.292 121.375 161.444 122.513L160.929 123.192L161.095 122.355C161.55 120.005 162.21 117.699 163.068 115.464C163.385 114.674 163.67 113.994 163.86 113.56C163.949 113.326 164.069 113.106 164.217 112.904C164.162 113.145 164.085 113.38 163.987 113.607C163.82 114.057 163.575 114.713 163.29 115.551C162.515 117.797 161.909 120.098 161.476 122.434L161.119 122.276L163.836 118.625L165.587 116.254L166.427 115.14C166.693 114.744 167.052 114.419 167.472 114.192C167.693 114.096 167.932 114.05 168.172 114.06C168.412 114.07 168.647 114.134 168.859 114.247C169.219 114.449 169.551 114.696 169.849 114.982L171.433 116.404L173.746 118.483C174.044 118.721 174.322 118.983 174.578 119.265Z" fill="#263238"/>
<path d="M208.023 112.588C207.932 112.691 207.828 112.784 207.714 112.864L206.78 113.591L203.286 116.207L191.633 124.765L191.459 124.891L191.34 124.709C191.245 124.567 191.15 124.409 191.047 124.259L185.201 115.045L185.415 115.116C183.162 116.009 180.989 117.09 178.919 118.348C178.175 118.799 177.596 119.138 177.2 119.431C177.008 119.575 176.801 119.7 176.582 119.802C176.75 119.628 176.936 119.472 177.137 119.336C177.517 119.059 178.079 118.656 178.816 118.174C180.86 116.847 183.024 115.715 185.28 114.792L185.415 114.737L185.494 114.855C187.213 117.518 189.233 120.671 191.396 124.038C191.499 124.188 191.594 124.346 191.689 124.488L191.388 124.433L203.12 115.978L206.685 113.457L207.667 112.793C207.897 112.643 208.016 112.572 208.023 112.588Z" fill="#263238"/>
<path d="M136.926 144.014C136.962 144.196 136.978 144.381 136.974 144.567C136.974 144.978 136.974 145.507 137.013 146.147C137.013 147.577 137.085 149.577 137.124 152.026C137.219 156.989 137.417 163.879 137.679 171.426C137.94 178.972 138.091 185.863 138.107 190.833C138.107 193.322 138.107 195.329 138.107 196.72C138.107 197.376 138.107 197.913 138.067 198.3C138.076 198.488 138.062 198.677 138.027 198.861C138.016 198.675 138.016 198.487 138.027 198.3C138.027 197.897 138.027 197.36 137.98 196.72C137.98 195.282 137.917 193.283 137.869 190.841C137.782 185.871 137.576 178.988 137.322 171.434C137.069 163.879 136.91 156.997 136.895 152.026C136.895 149.545 136.895 147.53 136.895 146.147C136.895 145.483 136.895 144.954 136.895 144.567C136.893 144.382 136.904 144.197 136.926 144.014Z" fill="#263238"/>
<path d="M174.839 215.384C174.813 215.313 174.797 215.239 174.792 215.163C174.792 214.989 174.792 214.768 174.721 214.492C174.657 213.867 174.57 213.006 174.467 211.908C174.245 209.663 173.992 206.376 173.738 202.386C173.485 198.395 173.271 193.559 173.136 188.233C173.002 182.907 172.986 177.036 173.136 170.849C173.287 164.662 173.564 158.838 173.928 153.52C174.293 148.202 174.721 143.413 175.148 139.407C175.576 135.401 175.941 132.153 176.289 129.924C176.448 128.826 176.566 127.973 176.654 127.356C176.701 127.08 176.733 126.858 176.764 126.685C176.768 126.609 176.784 126.534 176.812 126.463C176.824 126.539 176.824 126.617 176.812 126.693C176.812 126.866 176.772 127.088 176.749 127.364C176.677 127.981 176.582 128.842 176.456 129.94C176.186 132.184 175.838 135.424 175.449 139.423C175.061 143.421 174.657 148.218 174.317 153.536C173.976 158.854 173.715 164.709 173.572 170.857C173.429 177.005 173.469 182.86 173.572 188.186C173.675 193.512 173.873 198.3 174.095 202.322C174.317 206.345 174.515 209.608 174.689 211.852C174.76 212.951 174.824 213.82 174.863 214.444C174.863 214.721 174.863 214.942 174.903 215.116C174.889 215.207 174.868 215.297 174.839 215.384Z" fill="#263238"/>
<path d="M151.233 86.0445L150.393 86.5977L147.922 88.178C146.828 88.8813 145.545 89.8849 144.04 90.9912C143.248 91.5601 142.519 92.2476 141.663 92.9429L140.372 94.0255C139.929 94.4048 139.509 94.8157 139.057 95.2503C134.676 99.3273 130.827 103.939 127.603 108.976L126.192 111.236C125.693 111.987 125.313 112.816 124.854 113.607C124.394 114.397 123.943 115.25 123.531 116.119C123.119 116.989 122.739 117.882 122.311 118.782C122.113 119.233 121.891 119.675 121.701 120.142C121.511 120.608 121.344 121.082 121.162 121.564C120.806 122.512 120.425 123.468 120.077 124.456C119.491 126.455 118.746 128.478 118.302 130.635C116.044 139.969 115.667 149.658 117.193 159.138C119.179 171.346 124.304 182.832 132.068 192.475C139.831 202.118 149.968 209.589 161.489 214.159C173.01 218.729 185.522 220.242 197.804 218.549C210.086 216.857 221.719 212.017 231.567 204.503C234.053 202.597 236.418 200.538 238.649 198.34L240.233 196.664C240.772 196.111 241.295 195.55 241.817 194.958L243.322 193.227C243.798 192.627 244.265 192.026 244.74 191.433C251.906 182.227 256.687 171.401 258.659 159.912C259.122 157.245 259.437 154.554 259.602 151.852C259.681 150.517 259.681 149.197 259.728 147.901C259.776 146.605 259.633 145.286 259.586 143.998C259.586 143.358 259.53 142.71 259.506 142.07C259.483 141.43 259.364 140.805 259.3 140.173C259.142 138.917 258.992 137.668 258.841 136.435C258.691 135.203 258.366 134.002 258.128 132.801C257.929 131.61 257.665 130.43 257.336 129.268L256.354 125.847C256.2 125.286 256.012 124.734 255.791 124.195C255.585 123.65 255.379 123.105 255.181 122.568C254.761 121.501 254.389 120.41 253.938 119.407C253.486 118.403 252.995 117.384 252.527 116.396C249.082 109.252 244.461 102.735 238.855 97.1152C234.607 92.9053 229.868 89.2203 224.738 86.1393L221.712 84.4088C221.255 84.1417 220.785 83.899 220.302 83.6818L218.971 83.0497L216.595 81.9276C215.882 81.5641 215.177 81.3586 214.583 81.1374L211.826 80.0785L210.891 79.6992L211.842 80.039L214.606 81.0663C215.208 81.3033 215.913 81.5088 216.634 81.8565L219.011 82.9627L220.35 83.5949C220.835 83.8066 221.308 84.044 221.768 84.3061L224.802 86.0287C229.965 89.0902 234.734 92.768 239.005 96.9809C244.645 102.596 249.299 109.116 252.773 116.27C253.24 117.273 253.716 118.277 254.199 119.304C254.682 120.331 254.991 121.414 255.451 122.465L256.068 124.093C256.289 124.634 256.477 125.188 256.631 125.752C256.964 126.89 257.296 128.028 257.629 129.189C257.972 130.356 258.25 131.54 258.461 132.737C258.698 133.938 258.984 135.108 259.19 136.38C259.396 137.652 259.491 138.877 259.649 140.142C259.72 140.774 259.823 141.406 259.863 142.046C259.903 142.686 259.918 143.334 259.942 143.982C259.99 145.278 260.061 146.582 260.093 147.933C260.124 149.284 260.053 150.58 259.966 151.884C259.157 166.349 253.954 180.226 245.049 191.67L243.608 193.472L242.087 195.218C241.596 195.811 241.065 196.38 240.502 196.933L238.918 198.624C236.674 200.836 234.292 202.905 231.788 204.819C221.893 212.365 210.206 217.224 197.868 218.923C185.529 220.622 172.96 219.103 161.385 214.515C149.81 209.926 139.625 202.423 131.822 192.739C124.019 183.055 118.864 171.519 116.861 159.256C116.057 154.313 115.791 149.298 116.069 144.298C116.268 139.686 116.934 135.106 118.057 130.628C118.5 128.462 119.253 126.439 119.839 124.424C120.196 123.445 120.584 122.481 120.948 121.524C121.131 121.05 121.313 120.576 121.487 120.102C121.661 119.628 121.907 119.193 122.105 118.735C122.525 117.834 122.897 116.949 123.333 116.072C123.768 115.195 124.236 114.381 124.671 113.551C125.107 112.722 125.519 111.9 126.018 111.141L127.444 108.881C130.686 103.836 134.565 99.2285 138.986 95.1713C139.438 94.7525 139.857 94.3258 140.301 93.9465L141.6 92.8639C142.456 92.1764 143.184 91.4969 143.977 90.9279C145.521 89.8217 146.789 88.8339 147.89 88.1385L150.385 86.5581C150.924 86.2105 151.233 86.0445 151.233 86.0445Z" fill="#263238"/>
</g>
<defs>
<clipPath id="clip0_127_7420">
<rect width="352" height="347" fill="white"/>
</clipPath>
</defs>
</svg>
