<svg width="263.31" height="70.803" viewBox="0 0 263.31 70.803" xmlns="http://www.w3.org/2000/svg">
  <g id="svgGroup" stroke-linecap="round" fill-rule="evenodd" font-size="9pt" stroke="#fff" stroke-width="0.25mm"
    fill="#fff" style="stroke:#fff;stroke-width:0.25mm;fill:#fff">
    <path
      d="M 64.003 26.4 L 64.003 21.7 L 51.303 21.7 L 51.303 69.3 L 64.003 69.3 L 64.003 41.3 A 25.317 25.317 0 0 1 64.346 36.717 C 64.982 33.325 66.68 31 70.803 31 A 7.747 7.747 0 0 1 73.691 31.498 C 76.631 32.67 77.726 35.815 77.883 39.91 A 28.55 28.55 0 0 1 77.903 41 L 77.903 69.3 L 90.603 69.3 L 90.603 41.3 A 25.317 25.317 0 0 1 90.946 36.717 C 91.582 33.325 93.28 31 97.403 31 A 6.535 6.535 0 0 1 100.778 31.85 C 103.117 33.227 104.27 36.161 104.471 39.805 A 21.678 21.678 0 0 1 104.503 41 L 104.503 69.3 L 117.103 69.3 L 117.103 39.7 C 117.103 27.8 110.903 20.2 101.103 20.2 A 17.012 17.012 0 0 0 96.342 20.846 C 92.406 21.988 89.692 24.509 88.003 27.3 A 13.239 13.239 0 0 0 78.177 20.432 A 18.446 18.446 0 0 0 75.203 20.2 A 13.357 13.357 0 0 0 69.778 21.323 C 67.347 22.397 65.407 24.153 64.125 26.201 A 12.277 12.277 0 0 0 64.003 26.4 Z M 185.503 50 L 185.503 21.7 L 172.803 21.7 L 172.803 51.3 A 25.945 25.945 0 0 0 174.092 59.701 C 176.473 66.658 182.025 70.8 189.703 70.8 A 18.769 18.769 0 0 0 194.745 70.149 C 196.724 69.599 198.393 68.731 199.776 67.668 A 13.913 13.913 0 0 0 203.903 62.5 L 203.903 69.3 L 216.003 69.3 L 216.003 21.7 L 203.403 21.7 L 203.403 49.7 C 203.403 55.083 200.104 59.485 194.852 59.958 A 10.566 10.566 0 0 1 193.903 60 C 189.808 60 187.154 57.672 186.066 54.088 A 14.097 14.097 0 0 1 185.503 50 Z M 254.503 36.5 L 262.003 28 C 256.003 22.6 250.903 20.3 244.003 20.3 C 233.203 20.3 224.803 26.3 224.803 35.7 A 12.533 12.533 0 0 0 225.804 40.817 C 227.905 45.586 233.061 47.916 238.803 49.6 C 242.313 50.614 247.344 51.81 249.388 54.139 A 3.367 3.367 0 0 1 250.303 56.4 A 2.944 2.944 0 0 1 249.905 57.925 C 249.062 59.354 247.03 59.892 245.34 59.9 A 8.074 8.074 0 0 1 245.303 59.9 A 15.915 15.915 0 0 1 237.488 58.021 C 235.249 56.77 233.393 54.88 232.103 52.3 L 222.203 57.8 C 225.903 65.7 234.003 70.8 244.803 70.8 C 250.922 70.8 255.733 69.214 258.913 66.395 A 13.265 13.265 0 0 0 263.303 56.1 A 13.611 13.611 0 0 0 262.142 50.404 C 259.174 43.861 251.079 41.326 244.424 39.564 A 229.873 229.873 0 0 0 243.803 39.4 A 993.397 993.397 0 0 1 243.52 39.331 C 240.312 38.553 237.103 37.717 237.103 34.9 A 3.579 3.579 0 0 1 237.113 34.628 C 237.235 33.04 238.432 31.452 241.285 31.081 A 10.24 10.24 0 0 1 242.603 31 A 13.725 13.725 0 0 1 247.463 31.916 C 250.454 33.043 252.826 34.98 254.382 36.39 A 43.481 43.481 0 0 1 254.503 36.5 Z M 42.603 62.6 L 35.103 55 A 42.357 42.357 0 0 1 33.391 56.505 C 30.448 58.941 27.969 60.1 24.563 60.194 A 16.634 16.634 0 0 1 24.103 60.2 A 14.101 14.101 0 0 1 19.655 59.533 C 17.504 58.82 15.848 57.575 14.688 55.983 A 10.944 10.944 0 0 1 12.703 50.5 L 44.303 50.5 C 44.493 47.461 44.503 45.414 44.503 45.216 A 7.349 7.349 0 0 0 44.503 45.2 A 32.605 32.605 0 0 0 42.284 32.844 C 39.534 26.146 34.227 21.489 26.341 20.429 A 26.556 26.556 0 0 0 22.803 20.2 C 11.372 20.2 3.794 26.85 1.099 36.966 A 34.332 34.332 0 0 0 0.003 45.8 C 0.003 60.8 8.903 70.8 23.503 70.8 C 28.012 70.8 32.929 69.983 37.943 66.563 A 30.315 30.315 0 0 0 42.603 62.6 Z M 162.803 69.3 L 162.803 2 L 150.203 2 L 150.203 69.3 L 162.803 69.3 Z M 139.503 69.3 L 139.503 21.7 L 126.803 21.7 L 126.803 69.3 L 139.503 69.3 Z M 133.103 16.5 C 137.703 16.5 141.403 12.8 141.403 8.3 C 141.403 3.7 137.703 0 133.103 0 C 128.603 0 124.903 3.7 124.903 8.3 C 124.903 12.8 128.603 16.5 133.103 16.5 Z M 31.503 40.6 L 13.003 40.6 A 12.377 12.377 0 0 1 14.386 35.343 C 15.959 32.43 18.808 30.6 22.703 30.6 A 9.429 9.429 0 0 1 26.646 31.398 C 29.829 32.849 31.512 36.139 31.512 40.093 A 14.201 14.201 0 0 1 31.503 40.6 Z"
      vector-effect="non-scaling-stroke" />
  </g>
</svg>