<svg width="24" height="24" viewBox="0 0 24 24" fill="none" xmlns="http://www.w3.org/2000/svg">
<path d="M12 21C16.9706 21 21 16.9706 21 12C21 7.02944 16.9706 3 12 3C7.02944 3 3 7.02944 3 12C3 16.9706 7.02944 21 12 21Z" fill="#007AFF"/>
<path d="M17.1367 9.33866L9.66673 16.8087L9.65935 16.8013L6.64681 13.7887C6.45703 13.5989 6.35042 13.3414 6.35042 13.073C6.35042 12.8045 6.45703 12.547 6.64681 12.3572C6.74077 12.2631 6.85236 12.1885 6.97517 12.1376C7.09799 12.0867 7.22964 12.0605 7.36259 12.0605C7.49554 12.0605 7.62719 12.0867 7.75001 12.1376C7.87282 12.1885 7.9844 12.2631 8.07837 12.3572L9.66673 13.9455L15.7052 7.90709C15.7991 7.81304 15.9107 7.73843 16.0335 7.68752C16.1564 7.63661 16.288 7.61041 16.4209 7.61041C16.5539 7.61041 16.6855 7.63661 16.8084 7.68752C16.9312 7.73843 17.0428 7.81304 17.1367 7.90709C17.2308 8.00106 17.3054 8.11264 17.3563 8.23546C17.4072 8.35828 17.4334 8.48992 17.4334 8.62288C17.4334 8.75583 17.4072 8.88747 17.3563 9.01029C17.3054 9.13311 17.2308 9.24469 17.1367 9.33866Z" fill="white"/>
</svg>
