<svg width="48" height="48" viewBox="0 0 48 48" fill="none" xmlns="http://www.w3.org/2000/svg">
<rect width="48" height="48" rx="24" fill="#E9F1FE"/>
<path d="M33.75 18.75V29.25C33.75 29.8467 33.5129 30.419 33.091 30.841C32.669 31.2629 32.0967 31.5 31.5 31.5H16.5C15.9033 31.5 15.331 31.2629 14.909 30.841C14.4871 30.419 14.25 29.8467 14.25 29.25V18.75M33.75 18.75C33.75 18.1533 33.5129 17.581 33.091 17.159C32.669 16.7371 32.0967 16.5 31.5 16.5H16.5C15.9033 16.5 15.331 16.7371 14.909 17.159C14.4871 17.581 14.25 18.1533 14.25 18.75M33.75 18.75V18.993C33.75 19.3771 33.6517 19.7549 33.4644 20.0903C33.2771 20.4257 33.0071 20.7075 32.68 20.909L25.18 25.524C24.8252 25.7425 24.4167 25.8582 24 25.8582C23.5833 25.8582 23.1748 25.7425 22.82 25.524L15.32 20.91C14.9929 20.7085 14.7229 20.4267 14.5356 20.0913C14.3483 19.7559 14.25 19.3781 14.25 18.994V18.75" stroke="#007AFF" stroke-width="1.5" stroke-linecap="round" stroke-linejoin="round"/>
</svg>
