<svg width="48" height="48" viewBox="0 0 48 48" fill="none" xmlns="http://www.w3.org/2000/svg">
<rect width="48" height="48" rx="24" fill="#E9F1FE"/>
<path d="M22.5 13.5H20.25C19.6533 13.5 19.081 13.7371 18.659 14.159C18.2371 14.581 18 15.1533 18 15.75V32.25C18 32.8467 18.2371 33.419 18.659 33.841C19.081 34.2629 19.6533 34.5 20.25 34.5H27.75C28.3467 34.5 28.919 34.2629 29.341 33.841C29.7629 33.419 30 32.8467 30 32.25V15.75C30 15.1533 29.7629 14.581 29.341 14.159C28.919 13.7371 28.3467 13.5 27.75 13.5H25.5M22.5 13.5V15H25.5V13.5M22.5 13.5H25.5M22.5 32.25H25.5" stroke="#007AFF" stroke-width="1.5" stroke-linecap="round" stroke-linejoin="round"/>
</svg>
