<svg width="48" height="48" viewBox="0 0 48 48" fill="none" xmlns="http://www.w3.org/2000/svg">
<rect width="48" height="48" rx="24" fill="#E9F1FE"/>
<path d="M27 22.5C27 23.2956 26.6839 24.0587 26.1213 24.6213C25.5587 25.1839 24.7956 25.5 24 25.5C23.2044 25.5 22.4413 25.1839 21.8787 24.6213C21.3161 24.0587 21 23.2956 21 22.5C21 21.7044 21.3161 20.9413 21.8787 20.3787C22.4413 19.8161 23.2044 19.5 24 19.5C24.7956 19.5 25.5587 19.8161 26.1213 20.3787C26.6839 20.9413 27 21.7044 27 22.5V22.5Z" stroke="#007AFF" stroke-width="1.5" stroke-linecap="round" stroke-linejoin="round"/>
<path d="M31.5 22.5C31.5 29.642 24 33.75 24 33.75C24 33.75 16.5 29.642 16.5 22.5C16.5 20.5109 17.2902 18.6032 18.6967 17.1967C20.1032 15.7902 22.0109 15 24 15C25.9891 15 27.8968 15.7902 29.3033 17.1967C30.7098 18.6032 31.5 20.5109 31.5 22.5V22.5Z" stroke="#007AFF" stroke-width="1.5" stroke-linecap="round" stroke-linejoin="round"/>
</svg>
