<svg width="48" height="48" viewBox="0 0 48 48" fill="none" xmlns="http://www.w3.org/2000/svg">
<rect width="48" height="48" rx="24" fill="#E9F1FE"/>
<path d="M24 33C25.995 32.9999 27.9335 32.3372 29.511 31.116C31.0886 29.8948 32.2159 28.1843 32.716 26.253M24 33C22.005 32.9999 20.0665 32.3372 18.489 31.116C16.9114 29.8948 15.7841 28.1843 15.284 26.253M24 33C26.485 33 28.5 28.97 28.5 24C28.5 19.03 26.485 15 24 15M24 33C21.515 33 19.5 28.97 19.5 24C19.5 19.03 21.515 15 24 15M24 15C25.5962 14.9993 27.1639 15.4234 28.5422 16.2286C29.9205 17.0338 31.0597 18.1912 31.843 19.582M24 15C22.4038 14.9993 20.8361 15.4234 19.4578 16.2286C18.0795 17.0338 16.9403 18.1912 16.157 19.582M31.843 19.582C29.6657 21.4679 26.8805 22.5041 24 22.5C21.002 22.5 18.26 21.4 16.157 19.582M31.843 19.582C32.6039 20.93 33.0025 22.4521 33 24C33 24.778 32.901 25.533 32.716 26.253M32.716 26.253C30.0492 27.7314 27.0492 28.5048 24 28.5C20.838 28.5 17.867 27.685 15.284 26.253M15.284 26.253C15.0948 25.517 14.9993 24.76 15 24C15 22.395 15.42 20.887 16.157 19.582" stroke="#007AFF" stroke-width="1.5" stroke-linecap="round" stroke-linejoin="round"/>
</svg>
